<?xml version="1.0" encoding="UTF-8" standalone="no"?>
<!DOCTYPE svg PUBLIC "-//W3C//DTD SVG 1.1//EN"
 "http://www.w3.org/Graphics/SVG/1.1/DTD/svg11.dtd">
<!-- Generated by graphviz version 2.38.0 (20140413.2041)
 -->
<!-- Title: Primitive::J Pages: 1 -->
<svg width="271pt" height="104pt"
 viewBox="0.00 0.00 271.00 104.00" xmlns="http://www.w3.org/2000/svg" xmlns:xlink="http://www.w3.org/1999/xlink">
<g id="graph0" class="graph" transform="scale(1 1) rotate(0) translate(4 100)">
<title>Primitive::J</title>
<polygon fill="white" stroke="none" points="-4,4 -4,-100 267,-100 267,4 -4,4"/>
<!-- Node10 -->
<g id="node1" class="node"><title>Node10</title>
<polygon fill="#bfbfbf" stroke="black" points="0,-38.5 0,-57.5 66,-57.5 66,-38.5 0,-38.5"/>
<text text-anchor="middle" x="33" y="-45.5" font-family="Helvetica,sans-Serif" font-size="10.00">Primitive::J</text>
</g>
<!-- Node11 -->
<g id="node2" class="node"><title>Node11</title>
<g id="a_node2"><a xlink:href="classMPL_1_1env__cloud.html#a4a21126df924cfb1cd44ecafff638934" target="_top" xlink:title="Get successor. ">
<polygon fill="white" stroke="black" points="116,-76.5 116,-95.5 249,-95.5 249,-76.5 116,-76.5"/>
<text text-anchor="middle" x="182.5" y="-83.5" font-family="Helvetica,sans-Serif" font-size="10.00">MPL::env_cloud::get_succ</text>
</a>
</g>
</g>
<!-- Node10&#45;&gt;Node11 -->
<g id="edge1" class="edge"><title>Node10&#45;&gt;Node11</title>
<path fill="none" stroke="midnightblue" d="M75.954,-59.9906C84.5535,-62.3729 93.5567,-64.8123 102,-67 114.363,-70.2034 127.86,-73.5028 140.164,-76.4346"/>
<polygon fill="midnightblue" stroke="midnightblue" points="76.675,-56.5581 66.1021,-57.2389 74.7919,-63.3001 76.675,-56.5581"/>
</g>
<!-- Node12 -->
<g id="node3" class="node"><title>Node12</title>
<g id="a_node3"><a xlink:href="classMPL_1_1env__map.html#a14a186ecbe34ce5c1751959f6c35594c" target="_top" xlink:title="Get successor. ">
<polygon fill="white" stroke="black" points="118.5,-38.5 118.5,-57.5 246.5,-57.5 246.5,-38.5 118.5,-38.5"/>
<text text-anchor="middle" x="182.5" y="-45.5" font-family="Helvetica,sans-Serif" font-size="10.00">MPL::env_map::get_succ</text>
</a>
</g>
</g>
<!-- Node10&#45;&gt;Node12 -->
<g id="edge2" class="edge"><title>Node10&#45;&gt;Node12</title>
<path fill="none" stroke="midnightblue" d="M76.1475,-48C89.2874,-48 104.078,-48 118.33,-48"/>
<polygon fill="midnightblue" stroke="midnightblue" points="76.0053,-44.5001 66.0053,-48 76.0053,-51.5001 76.0053,-44.5001"/>
</g>
<!-- Node13 -->
<g id="node4" class="node"><title>Node13</title>
<g id="a_node4"><a xlink:href="structMPL_1_1StateSpace.html#ae83c9b798683b58b37d809e67743584d" target="_top" xlink:title="Decrease the cost of actions. ">
<polygon fill="white" stroke="black" points="102,-0.5 102,-19.5 263,-19.5 263,-0.5 102,-0.5"/>
<text text-anchor="middle" x="182.5" y="-7.5" font-family="Helvetica,sans-Serif" font-size="10.00">MPL::StateSpace::decreaseCost</text>
</a>
</g>
</g>
<!-- Node10&#45;&gt;Node13 -->
<g id="edge3" class="edge"><title>Node10&#45;&gt;Node13</title>
<path fill="none" stroke="midnightblue" d="M75.954,-36.0094C84.5535,-33.6271 93.5567,-31.1877 102,-29 114.363,-25.7966 127.86,-22.4972 140.164,-19.5654"/>
<polygon fill="midnightblue" stroke="midnightblue" points="74.7919,-32.6999 66.1021,-38.7611 76.675,-39.4419 74.7919,-32.6999"/>
</g>
</g>
</svg>
