<?xml version="1.0" encoding="UTF-8" standalone="no"?>
<!DOCTYPE svg PUBLIC "-//W3C//DTD SVG 1.1//EN"
 "http://www.w3.org/Graphics/SVG/1.1/DTD/svg11.dtd">
<!-- Generated by graphviz version 2.38.0 (20140413.2041)
 -->
<!-- Title: MPL::env_base&lt; Dim &gt; Pages: 1 -->
<svg width="468pt" height="205pt"
 viewBox="0.00 0.00 467.50 205.00" xmlns="http://www.w3.org/2000/svg" xmlns:xlink="http://www.w3.org/1999/xlink">
<g id="graph0" class="graph" transform="scale(1 1) rotate(0) translate(4 201)">
<title>MPL::env_base&lt; Dim &gt;</title>
<polygon fill="white" stroke="none" points="-4,4 -4,-201 463.5,-201 463.5,4 -4,4"/>
<!-- Node2 -->
<g id="node1" class="node"><title>Node2</title>
<polygon fill="#bfbfbf" stroke="black" points="98,-0.5 98,-19.5 219,-19.5 219,-0.5 98,-0.5"/>
<text text-anchor="middle" x="158.5" y="-7.5" font-family="Helvetica,sans-Serif" font-size="10.00">MPL::env_base&lt; Dim &gt;</text>
</g>
<!-- Node3 -->
<g id="node2" class="node"><title>Node3</title>
<g id="a_node2"><a xlink:href="classdouble.html" target="_top" xlink:title="double">
<polygon fill="white" stroke="black" points="0,-177.5 0,-196.5 45,-196.5 45,-177.5 0,-177.5"/>
<text text-anchor="middle" x="22.5" y="-184.5" font-family="Helvetica,sans-Serif" font-size="10.00">double</text>
</a>
</g>
</g>
<!-- Node3&#45;&gt;Node2 -->
<g id="edge1" class="edge"><title>Node3&#45;&gt;Node2</title>
<path fill="none" stroke="#9a32cd" stroke-dasharray="5,2" d="M19.1204,-167.363C14.6452,-136.3 10.751,-73.8251 43.5,-38 51.2833,-29.4856 74.4345,-23.2403 97.9436,-18.9141"/>
<polygon fill="#9a32cd" stroke="#9a32cd" points="15.6727,-167.967 20.7287,-177.278 22.5824,-166.846 15.6727,-167.967"/>
<text text-anchor="middle" x="61" y="-151" font-family="Helvetica,sans-Serif" font-size="10.00"> j_max_</text>
<text text-anchor="middle" x="61" y="-140" font-family="Helvetica,sans-Serif" font-size="10.00">dj_</text>
<text text-anchor="middle" x="61" y="-129" font-family="Helvetica,sans-Serif" font-size="10.00">v_max_</text>
<text text-anchor="middle" x="61" y="-118" font-family="Helvetica,sans-Serif" font-size="10.00">dv_</text>
<text text-anchor="middle" x="61" y="-107" font-family="Helvetica,sans-Serif" font-size="10.00">u_max_</text>
<text text-anchor="middle" x="61" y="-96" font-family="Helvetica,sans-Serif" font-size="10.00">tol_dis</text>
<text text-anchor="middle" x="61" y="-85" font-family="Helvetica,sans-Serif" font-size="10.00">t_max_</text>
<text text-anchor="middle" x="61" y="-74" font-family="Helvetica,sans-Serif" font-size="10.00">w_</text>
<text text-anchor="middle" x="61" y="-63" font-family="Helvetica,sans-Serif" font-size="10.00">dt_</text>
<text text-anchor="middle" x="61" y="-52" font-family="Helvetica,sans-Serif" font-size="10.00">ds_</text>
<text text-anchor="middle" x="61" y="-41" font-family="Helvetica,sans-Serif" font-size="10.00">...</text>
</g>
<!-- Node4 -->
<g id="node3" class="node"><title>Node4</title>
<g id="a_node3"><a xlink:href="classint.html" target="_top" xlink:title="int">
<polygon fill="white" stroke="black" points="64,-177.5 64,-196.5 93,-196.5 93,-177.5 64,-177.5"/>
<text text-anchor="middle" x="78.5" y="-184.5" font-family="Helvetica,sans-Serif" font-size="10.00">int</text>
</a>
</g>
</g>
<!-- Node4&#45;&gt;Node2 -->
<g id="edge2" class="edge"><title>Node4&#45;&gt;Node2</title>
<path fill="none" stroke="#9a32cd" stroke-dasharray="5,2" d="M80.3186,-166.887C83.9607,-136.988 94.3774,-78.3975 122.5,-38 127.678,-30.5623 135.555,-24.3213 142.622,-19.7196"/>
<polygon fill="#9a32cd" stroke="#9a32cd" points="76.8023,-166.848 79.2008,-177.168 83.7613,-167.605 76.8023,-166.848"/>
<text text-anchor="middle" x="138.5" y="-101.5" font-family="Helvetica,sans-Serif" font-size="10.00"> alpha_</text>
<text text-anchor="middle" x="138.5" y="-90.5" font-family="Helvetica,sans-Serif" font-size="10.00">wi_</text>
</g>
<!-- Node5 -->
<g id="node4" class="node"><title>Node5</title>
<g id="a_node4"><a xlink:href="classWaypoint_3_01Dim_01_4.html" target="_top" xlink:title="Waypoint\&lt; Dim \&gt;">
<polygon fill="white" stroke="black" points="111.5,-177.5 111.5,-196.5 205.5,-196.5 205.5,-177.5 111.5,-177.5"/>
<text text-anchor="middle" x="158.5" y="-184.5" font-family="Helvetica,sans-Serif" font-size="10.00">Waypoint&lt; Dim &gt;</text>
</a>
</g>
</g>
<!-- Node5&#45;&gt;Node2 -->
<g id="edge3" class="edge"><title>Node5&#45;&gt;Node2</title>
<path fill="none" stroke="#9a32cd" stroke-dasharray="5,2" d="M158.5,-166.951C158.5,-129.297 158.5,-46.6537 158.5,-19.6932"/>
<polygon fill="#9a32cd" stroke="#9a32cd" points="155,-167.081 158.5,-177.081 162,-167.081 155,-167.081"/>
<text text-anchor="middle" x="185" y="-96" font-family="Helvetica,sans-Serif" font-size="10.00"> goal_node_</text>
</g>
<!-- Node6 -->
<g id="node5" class="node"><title>Node6</title>
<g id="a_node5"><a xlink:href="classTrajectory_3_01Dim_01_4.html" target="_top" xlink:title="Trajectory\&lt; Dim \&gt;">
<polygon fill="white" stroke="black" points="223.5,-177.5 223.5,-196.5 319.5,-196.5 319.5,-177.5 223.5,-177.5"/>
<text text-anchor="middle" x="271.5" y="-184.5" font-family="Helvetica,sans-Serif" font-size="10.00">Trajectory&lt; Dim &gt;</text>
</a>
</g>
</g>
<!-- Node6&#45;&gt;Node2 -->
<g id="edge4" class="edge"><title>Node6&#45;&gt;Node2</title>
<path fill="none" stroke="#9a32cd" stroke-dasharray="5,2" d="M269.017,-167.383C264.041,-136.807 250.185,-75.6018 215.5,-38 207.853,-29.71 197.132,-23.7201 187.049,-19.5214"/>
<polygon fill="#9a32cd" stroke="#9a32cd" points="265.586,-168.11 270.514,-177.489 272.511,-167.084 265.586,-168.11"/>
<text text-anchor="middle" x="290.5" y="-96" font-family="Helvetica,sans-Serif" font-size="10.00"> prior_traj_</text>
</g>
<!-- Node7 -->
<g id="node6" class="node"><title>Node7</title>
<g id="a_node6"><a xlink:href="classvec__Vecf_3_01Dim_01_4.html" target="_top" xlink:title="vec_Vecf\&lt; Dim \&gt;">
<polygon fill="white" stroke="black" points="337.5,-177.5 337.5,-196.5 431.5,-196.5 431.5,-177.5 337.5,-177.5"/>
<text text-anchor="middle" x="384.5" y="-184.5" font-family="Helvetica,sans-Serif" font-size="10.00">vec_Vecf&lt; Dim &gt;</text>
</a>
</g>
</g>
<!-- Node7&#45;&gt;Node2 -->
<g id="edge5" class="edge"><title>Node7&#45;&gt;Node2</title>
<path fill="none" stroke="#9a32cd" stroke-dasharray="5,2" d="M381.71,-167.035C375.926,-134.967 359.471,-70.3692 317.5,-38 302.257,-26.2442 257.519,-19.3276 219.367,-15.4432"/>
<polygon fill="#9a32cd" stroke="#9a32cd" points="378.314,-167.955 383.385,-177.258 385.222,-166.823 378.314,-167.955"/>
<text text-anchor="middle" x="420" y="-101.5" font-family="Helvetica,sans-Serif" font-size="10.00"> U_</text>
<text text-anchor="middle" x="420" y="-90.5" font-family="Helvetica,sans-Serif" font-size="10.00">expanded_nodes_</text>
</g>
</g>
</svg>
