<?xml version="1.0" encoding="UTF-8" standalone="no"?>
<!DOCTYPE svg PUBLIC "-//W3C//DTD SVG 1.1//EN"
 "http://www.w3.org/Graphics/SVG/1.1/DTD/svg11.dtd">
<!-- Generated by graphviz version 2.38.0 (20140413.2041)
 -->
<!-- Title: MPL::MapUtil&lt; Dim &gt; Pages: 1 -->
<svg width="435pt" height="117pt"
 viewBox="0.00 0.00 434.50 117.00" xmlns="http://www.w3.org/2000/svg" xmlns:xlink="http://www.w3.org/1999/xlink">
<g id="graph0" class="graph" transform="scale(1 1) rotate(0) translate(4 113)">
<title>MPL::MapUtil&lt; Dim &gt;</title>
<polygon fill="white" stroke="none" points="-4,4 -4,-113 430.5,-113 430.5,4 -4,4"/>
<!-- Node2 -->
<g id="node1" class="node"><title>Node2</title>
<polygon fill="#bfbfbf" stroke="black" points="112,-0.5 112,-19.5 225,-19.5 225,-0.5 112,-0.5"/>
<text text-anchor="middle" x="168.5" y="-7.5" font-family="Helvetica,sans-Serif" font-size="10.00">MPL::MapUtil&lt; Dim &gt;</text>
</g>
<!-- Node3 -->
<g id="node2" class="node"><title>Node3</title>
<polygon fill="white" stroke="#bfbfbf" points="0,-89.5 0,-108.5 41,-108.5 41,-89.5 0,-89.5"/>
<text text-anchor="middle" x="20.5" y="-96.5" font-family="Helvetica,sans-Serif" font-size="10.00">int8_t</text>
</g>
<!-- Node3&#45;&gt;Node2 -->
<g id="edge1" class="edge"><title>Node3&#45;&gt;Node2</title>
<path fill="none" stroke="#9a32cd" stroke-dasharray="5,2" d="M25.8119,-79.4304C30.6221,-65.9469 39.0523,-48.3244 52.5,-38 69.393,-25.0304 91.4706,-18.1265 111.826,-14.5068"/>
<polygon fill="#9a32cd" stroke="#9a32cd" points="22.4198,-78.547 22.7036,-89.138 29.0864,-80.6816 22.4198,-78.547"/>
<text text-anchor="middle" x="81.5" y="-63" font-family="Helvetica,sans-Serif" font-size="10.00"> val_free</text>
<text text-anchor="middle" x="81.5" y="-52" font-family="Helvetica,sans-Serif" font-size="10.00">val_occ</text>
<text text-anchor="middle" x="81.5" y="-41" font-family="Helvetica,sans-Serif" font-size="10.00">val_unknown</text>
</g>
<!-- Node4 -->
<g id="node3" class="node"><title>Node4</title>
<g id="a_node3"><a xlink:href="classdouble.html" target="_top" xlink:title="double">
<polygon fill="white" stroke="black" points="69,-89.5 69,-108.5 114,-108.5 114,-89.5 69,-89.5"/>
<text text-anchor="middle" x="91.5" y="-96.5" font-family="Helvetica,sans-Serif" font-size="10.00">double</text>
</a>
</g>
</g>
<!-- Node4&#45;&gt;Node2 -->
<g id="edge2" class="edge"><title>Node4&#45;&gt;Node2</title>
<path fill="none" stroke="#9a32cd" stroke-dasharray="5,2" d="M105.164,-81.3691C115.283,-69.1917 129.509,-52.3566 142.5,-38 148.089,-31.8237 154.589,-25.0737 159.692,-19.8678"/>
<polygon fill="#9a32cd" stroke="#9a32cd" points="102.273,-79.3735 98.5988,-89.3109 107.668,-83.8337 102.273,-79.3735"/>
<text text-anchor="middle" x="153.5" y="-52" font-family="Helvetica,sans-Serif" font-size="10.00"> res_</text>
</g>
<!-- Node5 -->
<g id="node4" class="node"><title>Node5</title>
<polygon fill="white" stroke="#bfbfbf" points="132.5,-89.5 132.5,-108.5 204.5,-108.5 204.5,-89.5 132.5,-89.5"/>
<text text-anchor="middle" x="168.5" y="-96.5" font-family="Helvetica,sans-Serif" font-size="10.00">Veci&lt; Dim &gt;</text>
</g>
<!-- Node5&#45;&gt;Node2 -->
<g id="edge3" class="edge"><title>Node5&#45;&gt;Node2</title>
<path fill="none" stroke="#9a32cd" stroke-dasharray="5,2" d="M168.5,-79.1946C168.5,-60.7379 168.5,-33.412 168.5,-19.6249"/>
<polygon fill="#9a32cd" stroke="#9a32cd" points="165,-79.34 168.5,-89.34 172,-79.3401 165,-79.34"/>
<text text-anchor="middle" x="181" y="-52" font-family="Helvetica,sans-Serif" font-size="10.00"> dim_</text>
</g>
<!-- Node6 -->
<g id="node5" class="node"><title>Node6</title>
<polygon fill="white" stroke="#bfbfbf" points="223,-89.5 223,-108.5 296,-108.5 296,-89.5 223,-89.5"/>
<text text-anchor="middle" x="259.5" y="-96.5" font-family="Helvetica,sans-Serif" font-size="10.00">Vecf&lt; Dim &gt;</text>
</g>
<!-- Node6&#45;&gt;Node2 -->
<g id="edge4" class="edge"><title>Node6&#45;&gt;Node2</title>
<path fill="none" stroke="#9a32cd" stroke-dasharray="5,2" d="M243.363,-82.2174C230.898,-70.0671 213.185,-52.8883 197.5,-38 191.014,-31.8434 183.637,-24.977 177.947,-19.7093"/>
<polygon fill="#9a32cd" stroke="#9a32cd" points="241.121,-84.9205 250.722,-89.4013 246.011,-79.9114 241.121,-84.9205"/>
<text text-anchor="middle" x="253" y="-52" font-family="Helvetica,sans-Serif" font-size="10.00"> origin_d_</text>
</g>
<!-- Node7 -->
<g id="node6" class="node"><title>Node7</title>
<polygon fill="white" stroke="#bfbfbf" points="314.5,-89.5 314.5,-108.5 426.5,-108.5 426.5,-89.5 314.5,-89.5"/>
<text text-anchor="middle" x="370.5" y="-96.5" font-family="Helvetica,sans-Serif" font-size="10.00">vector&lt; signed char &gt;</text>
</g>
<!-- Node7&#45;&gt;Node2 -->
<g id="edge5" class="edge"><title>Node7&#45;&gt;Node2</title>
<path fill="none" stroke="#9a32cd" stroke-dasharray="5,2" d="M351.495,-82.84C333.616,-69.273 305.613,-49.7614 278.5,-38 259.558,-29.7831 237.649,-23.7644 218.394,-19.5231"/>
<polygon fill="#9a32cd" stroke="#9a32cd" points="349.814,-85.9648 359.863,-89.3203 354.1,-80.4302 349.814,-85.9648"/>
<text text-anchor="middle" x="349.5" y="-52" font-family="Helvetica,sans-Serif" font-size="10.00"> map_</text>
</g>
</g>
</svg>
