<?xml version="1.0" encoding="UTF-8" standalone="no"?>
<!DOCTYPE svg PUBLIC "-//W3C//DTD SVG 1.1//EN"
 "http://www.w3.org/Graphics/SVG/1.1/DTD/svg11.dtd">
<!-- Generated by graphviz version 2.38.0 (20140413.2041)
 -->
<!-- Title: Face Pages: 1 -->
<svg width="122pt" height="106pt"
 viewBox="0.00 0.00 121.50 106.00" xmlns="http://www.w3.org/2000/svg" xmlns:xlink="http://www.w3.org/1999/xlink">
<g id="graph0" class="graph" transform="scale(1 1) rotate(0) translate(4 102)">
<title>Face</title>
<polygon fill="white" stroke="none" points="-4,4 -4,-102 117.5,-102 117.5,4 -4,4"/>
<!-- Node1 -->
<g id="node1" class="node"><title>Node1</title>
<polygon fill="#bfbfbf" stroke="black" points="44,-0.5 44,-19.5 82,-19.5 82,-0.5 44,-0.5"/>
<text text-anchor="middle" x="63" y="-7.5" font-family="Helvetica,sans-Serif" font-size="10.00">Face</text>
</g>
<!-- Node2 -->
<g id="node2" class="node"><title>Node2</title>
<polygon fill="white" stroke="#bfbfbf" points="0,-78.5 0,-97.5 60,-97.5 60,-78.5 0,-78.5"/>
<text text-anchor="middle" x="30" y="-85.5" font-family="Helvetica,sans-Serif" font-size="10.00">Vecf&lt; 3 &gt;</text>
</g>
<!-- Node2&#45;&gt;Node1 -->
<g id="edge1" class="edge"><title>Node2&#45;&gt;Node1</title>
<path fill="none" stroke="#9a32cd" stroke-dasharray="5,2" d="M37.9572,-68.6744C44.7142,-53.1127 54.1108,-31.4722 59.2586,-19.6165"/>
<polygon fill="#9a32cd" stroke="#9a32cd" points="34.558,-67.7152 33.7855,-78.2818 40.9788,-70.5032 34.558,-67.7152"/>
<text text-anchor="middle" x="55.5" y="-52" font-family="Helvetica,sans-Serif" font-size="10.00"> n</text>
<text text-anchor="middle" x="55.5" y="-41" font-family="Helvetica,sans-Serif" font-size="10.00">p</text>
</g>
<!-- Node3 -->
<g id="node3" class="node"><title>Node3</title>
<g id="a_node3"><a xlink:href="classbool.html" target="_top" xlink:title="bool">
<polygon fill="white" stroke="black" points="78.5,-78.5 78.5,-97.5 113.5,-97.5 113.5,-78.5 78.5,-78.5"/>
<text text-anchor="middle" x="96" y="-85.5" font-family="Helvetica,sans-Serif" font-size="10.00">bool</text>
</a>
</g>
</g>
<!-- Node3&#45;&gt;Node1 -->
<g id="edge2" class="edge"><title>Node3&#45;&gt;Node1</title>
<path fill="none" stroke="#9a32cd" stroke-dasharray="5,2" d="M88.0428,-68.6744C81.2858,-53.1127 71.8892,-31.4722 66.7414,-19.6165"/>
<polygon fill="#9a32cd" stroke="#9a32cd" points="85.0212,-70.5032 92.2145,-78.2818 91.442,-67.7152 85.0212,-70.5032"/>
<text text-anchor="middle" x="96.5" y="-46.5" font-family="Helvetica,sans-Serif" font-size="10.00"> pass</text>
</g>
</g>
</svg>
