<?xml version="1.0" encoding="UTF-8" standalone="no"?>
<!DOCTYPE svg PUBLIC "-//W3C//DTD SVG 1.1//EN"
 "http://www.w3.org/Graphics/SVG/1.1/DTD/svg11.dtd">
<!-- Generated by graphviz version 2.38.0 (20140413.2041)
 -->
<!-- Title: MPL::SubVoxelMapUtil Pages: 1 -->
<svg width="435pt" height="195pt"
 viewBox="0.00 0.00 434.50 195.00" xmlns="http://www.w3.org/2000/svg" xmlns:xlink="http://www.w3.org/1999/xlink">
<g id="graph0" class="graph" transform="scale(1 1) rotate(0) translate(4 191)">
<title>MPL::SubVoxelMapUtil</title>
<polygon fill="white" stroke="none" points="-4,4 -4,-191 430.5,-191 430.5,4 -4,4"/>
<!-- Node2 -->
<g id="node1" class="node"><title>Node2</title>
<polygon fill="#bfbfbf" stroke="black" points="172,-0.5 172,-19.5 291,-19.5 291,-0.5 172,-0.5"/>
<text text-anchor="middle" x="231.5" y="-7.5" font-family="Helvetica,sans-Serif" font-size="10.00">MPL::SubVoxelMapUtil</text>
</g>
<!-- Node3 -->
<g id="node2" class="node"><title>Node3</title>
<g id="a_node2"><a xlink:href="classMPL_1_1MapUtil.html" target="_top" xlink:title="VoxelMapUtil">
<polygon fill="white" stroke="black" points="131,-78.5 131,-97.5 206,-97.5 206,-78.5 131,-78.5"/>
<text text-anchor="middle" x="168.5" y="-85.5" font-family="Helvetica,sans-Serif" font-size="10.00">VoxelMapUtil</text>
</a>
</g>
</g>
<!-- Node3&#45;&gt;Node2 -->
<g id="edge1" class="edge"><title>Node3&#45;&gt;Node2</title>
<path fill="none" stroke="midnightblue" d="M182.226,-70.4421C195.199,-54.7918 214.152,-31.9282 224.357,-19.6165"/>
<polygon fill="midnightblue" stroke="midnightblue" points="179.414,-68.3493 175.727,-78.2818 184.803,-72.8167 179.414,-68.3493"/>
</g>
<!-- Node4 -->
<g id="node3" class="node"><title>Node4</title>
<polygon fill="white" stroke="#bfbfbf" points="0,-167.5 0,-186.5 41,-186.5 41,-167.5 0,-167.5"/>
<text text-anchor="middle" x="20.5" y="-174.5" font-family="Helvetica,sans-Serif" font-size="10.00">int8_t</text>
</g>
<!-- Node4&#45;&gt;Node3 -->
<g id="edge2" class="edge"><title>Node4&#45;&gt;Node3</title>
<path fill="none" stroke="#9a32cd" stroke-dasharray="5,2" d="M25.8119,-157.43C30.6221,-143.947 39.0523,-126.324 52.5,-116 74.8874,-98.8121 106.38,-92.2773 130.903,-89.9216"/>
<polygon fill="#9a32cd" stroke="#9a32cd" points="22.4198,-156.547 22.7036,-167.138 29.0864,-158.682 22.4198,-156.547"/>
<text text-anchor="middle" x="81.5" y="-141" font-family="Helvetica,sans-Serif" font-size="10.00"> val_free</text>
<text text-anchor="middle" x="81.5" y="-130" font-family="Helvetica,sans-Serif" font-size="10.00">val_occ</text>
<text text-anchor="middle" x="81.5" y="-119" font-family="Helvetica,sans-Serif" font-size="10.00">val_unknown</text>
</g>
<!-- Node5 -->
<g id="node4" class="node"><title>Node5</title>
<g id="a_node4"><a xlink:href="classdouble.html" target="_top" xlink:title="double">
<polygon fill="white" stroke="black" points="69,-167.5 69,-186.5 114,-186.5 114,-167.5 69,-167.5"/>
<text text-anchor="middle" x="91.5" y="-174.5" font-family="Helvetica,sans-Serif" font-size="10.00">double</text>
</a>
</g>
</g>
<!-- Node5&#45;&gt;Node3 -->
<g id="edge3" class="edge"><title>Node5&#45;&gt;Node3</title>
<path fill="none" stroke="#9a32cd" stroke-dasharray="5,2" d="M105.164,-159.369C115.283,-147.192 129.509,-130.357 142.5,-116 148.089,-109.824 154.589,-103.074 159.692,-97.8678"/>
<polygon fill="#9a32cd" stroke="#9a32cd" points="102.273,-157.374 98.5988,-167.311 107.668,-161.834 102.273,-157.374"/>
<text text-anchor="middle" x="153.5" y="-130" font-family="Helvetica,sans-Serif" font-size="10.00"> res_</text>
</g>
<!-- Node6 -->
<g id="node5" class="node"><title>Node6</title>
<polygon fill="white" stroke="#bfbfbf" points="132.5,-167.5 132.5,-186.5 204.5,-186.5 204.5,-167.5 132.5,-167.5"/>
<text text-anchor="middle" x="168.5" y="-174.5" font-family="Helvetica,sans-Serif" font-size="10.00">Veci&lt; Dim &gt;</text>
</g>
<!-- Node6&#45;&gt;Node3 -->
<g id="edge4" class="edge"><title>Node6&#45;&gt;Node3</title>
<path fill="none" stroke="#9a32cd" stroke-dasharray="5,2" d="M168.5,-157.195C168.5,-138.738 168.5,-111.412 168.5,-97.6249"/>
<polygon fill="#9a32cd" stroke="#9a32cd" points="165,-157.34 168.5,-167.34 172,-157.34 165,-157.34"/>
<text text-anchor="middle" x="181" y="-130" font-family="Helvetica,sans-Serif" font-size="10.00"> dim_</text>
</g>
<!-- Node7 -->
<g id="node6" class="node"><title>Node7</title>
<polygon fill="white" stroke="#bfbfbf" points="223,-167.5 223,-186.5 296,-186.5 296,-167.5 223,-167.5"/>
<text text-anchor="middle" x="259.5" y="-174.5" font-family="Helvetica,sans-Serif" font-size="10.00">Vecf&lt; Dim &gt;</text>
</g>
<!-- Node7&#45;&gt;Node3 -->
<g id="edge5" class="edge"><title>Node7&#45;&gt;Node3</title>
<path fill="none" stroke="#9a32cd" stroke-dasharray="5,2" d="M243.363,-160.217C230.898,-148.067 213.185,-130.888 197.5,-116 191.014,-109.843 183.637,-102.977 177.947,-97.7093"/>
<polygon fill="#9a32cd" stroke="#9a32cd" points="241.121,-162.921 250.722,-167.401 246.011,-157.911 241.121,-162.921"/>
<text text-anchor="middle" x="253" y="-130" font-family="Helvetica,sans-Serif" font-size="10.00"> origin_d_</text>
</g>
<!-- Node8 -->
<g id="node7" class="node"><title>Node8</title>
<polygon fill="white" stroke="#bfbfbf" points="314.5,-167.5 314.5,-186.5 426.5,-186.5 426.5,-167.5 314.5,-167.5"/>
<text text-anchor="middle" x="370.5" y="-174.5" font-family="Helvetica,sans-Serif" font-size="10.00">vector&lt; signed char &gt;</text>
</g>
<!-- Node8&#45;&gt;Node3 -->
<g id="edge6" class="edge"><title>Node8&#45;&gt;Node3</title>
<path fill="none" stroke="#9a32cd" stroke-dasharray="5,2" d="M351.495,-160.84C333.616,-147.273 305.613,-127.761 278.5,-116 265.556,-110.385 232.56,-102.581 206.06,-96.8068"/>
<polygon fill="#9a32cd" stroke="#9a32cd" points="349.814,-163.965 359.863,-167.32 354.1,-158.43 349.814,-163.965"/>
<text text-anchor="middle" x="349.5" y="-130" font-family="Helvetica,sans-Serif" font-size="10.00"> map_</text>
</g>
<!-- Node9 -->
<g id="node8" class="node"><title>Node9</title>
<polygon fill="white" stroke="#bfbfbf" points="224,-78.5 224,-97.5 283,-97.5 283,-78.5 224,-78.5"/>
<text text-anchor="middle" x="253.5" y="-85.5" font-family="Helvetica,sans-Serif" font-size="10.00">Veci&lt; 3 &gt;</text>
</g>
<!-- Node9&#45;&gt;Node2 -->
<g id="edge7" class="edge"><title>Node9&#45;&gt;Node2</title>
<path fill="none" stroke="#9a32cd" stroke-dasharray="5,2" d="M248.195,-68.6744C243.691,-53.1127 237.426,-31.4722 233.994,-19.6165"/>
<polygon fill="#9a32cd" stroke="#9a32cd" points="244.834,-69.6494 250.976,-78.2818 251.558,-67.703 244.834,-69.6494"/>
<text text-anchor="middle" x="268" y="-52" font-family="Helvetica,sans-Serif" font-size="10.00"> dim_low_</text>
<text text-anchor="middle" x="268" y="-41" font-family="Helvetica,sans-Serif" font-size="10.00">dim_up_</text>
</g>
</g>
</svg>
