<?xml version="1.0" encoding="UTF-8" standalone="no"?>
<!DOCTYPE svg PUBLIC "-//W3C//DTD SVG 1.1//EN"
 "http://www.w3.org/Graphics/SVG/1.1/DTD/svg11.dtd">
<!-- Generated by graphviz version 2.38.0 (20140413.2041)
 -->
<!-- Title: LambdaSeg Pages: 1 -->
<svg width="132pt" height="117pt"
 viewBox="0.00 0.00 131.50 117.00" xmlns="http://www.w3.org/2000/svg" xmlns:xlink="http://www.w3.org/1999/xlink">
<g id="graph0" class="graph" transform="scale(1 1) rotate(0) translate(4 113)">
<title>LambdaSeg</title>
<polygon fill="white" stroke="none" points="-4,4 -4,-113 127.5,-113 127.5,4 -4,4"/>
<!-- Node1 -->
<g id="node1" class="node"><title>Node1</title>
<polygon fill="#bfbfbf" stroke="black" points="23.5,-0.5 23.5,-19.5 91.5,-19.5 91.5,-0.5 23.5,-0.5"/>
<text text-anchor="middle" x="57.5" y="-7.5" font-family="Helvetica,sans-Serif" font-size="10.00">LambdaSeg</text>
</g>
<!-- Node2 -->
<g id="node2" class="node"><title>Node2</title>
<g id="a_node2"><a xlink:href="classdouble.html" target="_top" xlink:title="double">
<polygon fill="white" stroke="black" points="0,-89.5 0,-108.5 45,-108.5 45,-89.5 0,-89.5"/>
<text text-anchor="middle" x="22.5" y="-96.5" font-family="Helvetica,sans-Serif" font-size="10.00">double</text>
</a>
</g>
</g>
<!-- Node2&#45;&gt;Node1 -->
<g id="edge1" class="edge"><title>Node2&#45;&gt;Node1</title>
<path fill="none" stroke="#9a32cd" stroke-dasharray="5,2" d="M29.7523,-79.9727C37.1783,-61.514 48.4052,-33.6071 54.0302,-19.6249"/>
<polygon fill="#9a32cd" stroke="#9a32cd" points="26.4691,-78.7563 25.9839,-89.34 32.9633,-81.369 26.4691,-78.7563"/>
<text text-anchor="middle" x="54" y="-63" font-family="Helvetica,sans-Serif" font-size="10.00"> dT</text>
<text text-anchor="middle" x="54" y="-52" font-family="Helvetica,sans-Serif" font-size="10.00">tf</text>
<text text-anchor="middle" x="54" y="-41" font-family="Helvetica,sans-Serif" font-size="10.00">ti</text>
</g>
<!-- Node3 -->
<g id="node3" class="node"><title>Node3</title>
<polygon fill="white" stroke="#bfbfbf" points="63.5,-89.5 63.5,-108.5 123.5,-108.5 123.5,-89.5 63.5,-89.5"/>
<text text-anchor="middle" x="93.5" y="-96.5" font-family="Helvetica,sans-Serif" font-size="10.00">Vecf&lt; 4 &gt;</text>
</g>
<!-- Node3&#45;&gt;Node1 -->
<g id="edge2" class="edge"><title>Node3&#45;&gt;Node1</title>
<path fill="none" stroke="#9a32cd" stroke-dasharray="5,2" d="M86.0404,-79.9727C78.4023,-61.514 66.8547,-33.6071 61.0689,-19.6249"/>
<polygon fill="#9a32cd" stroke="#9a32cd" points="82.8589,-81.4381 89.9166,-89.34 89.3271,-78.7616 82.8589,-81.4381"/>
<text text-anchor="middle" x="87" y="-52" font-family="Helvetica,sans-Serif" font-size="10.00"> a</text>
</g>
</g>
</svg>
