<?xml version="1.0" encoding="UTF-8" standalone="no"?>
<!DOCTYPE svg PUBLIC "-//W3C//DTD SVG 1.1//EN"
 "http://www.w3.org/Graphics/SVG/1.1/DTD/svg11.dtd">
<!-- Generated by graphviz version 2.38.0 (20140413.2041)
 -->
<!-- Title: MPL::env_cloud Pages: 1 -->
<svg width="468pt" height="272pt"
 viewBox="0.00 0.00 467.50 272.00" xmlns="http://www.w3.org/2000/svg" xmlns:xlink="http://www.w3.org/1999/xlink">
<g id="graph0" class="graph" transform="scale(1 1) rotate(0) translate(4 268)">
<title>MPL::env_cloud</title>
<polygon fill="white" stroke="none" points="-4,4 -4,-268 463.5,-268 463.5,4 -4,4"/>
<!-- Node2 -->
<g id="node1" class="node"><title>Node2</title>
<polygon fill="#bfbfbf" stroke="black" points="218,-0.5 218,-19.5 305,-19.5 305,-0.5 218,-0.5"/>
<text text-anchor="middle" x="261.5" y="-7.5" font-family="Helvetica,sans-Serif" font-size="10.00">MPL::env_cloud</text>
</g>
<!-- Node3 -->
<g id="node2" class="node"><title>Node3</title>
<g id="a_node2"><a xlink:href="classMPL_1_1env__base.html" target="_top" xlink:title="MPL::env_base\&lt; 3 \&gt;">
<polygon fill="white" stroke="black" points="104.5,-67.5 104.5,-86.5 212.5,-86.5 212.5,-67.5 104.5,-67.5"/>
<text text-anchor="middle" x="158.5" y="-74.5" font-family="Helvetica,sans-Serif" font-size="10.00">MPL::env_base&lt; 3 &gt;</text>
</a>
</g>
</g>
<!-- Node3&#45;&gt;Node2 -->
<g id="edge1" class="edge"><title>Node3&#45;&gt;Node2</title>
<path fill="none" stroke="midnightblue" d="M181.051,-61.7687C201.439,-48.9026 230.792,-30.379 247.829,-19.6273"/>
<polygon fill="midnightblue" stroke="midnightblue" points="178.98,-58.937 172.391,-67.2338 182.716,-64.8568 178.98,-58.937"/>
</g>
<!-- Node4 -->
<g id="node3" class="node"><title>Node4</title>
<g id="a_node3"><a xlink:href="classdouble.html" target="_top" xlink:title="double">
<polygon fill="white" stroke="black" points="0,-244.5 0,-263.5 45,-263.5 45,-244.5 0,-244.5"/>
<text text-anchor="middle" x="22.5" y="-251.5" font-family="Helvetica,sans-Serif" font-size="10.00">double</text>
</a>
</g>
</g>
<!-- Node4&#45;&gt;Node3 -->
<g id="edge2" class="edge"><title>Node4&#45;&gt;Node3</title>
<path fill="none" stroke="#9a32cd" stroke-dasharray="5,2" d="M19.1204,-234.363C14.6452,-203.3 10.751,-140.825 43.5,-105 51.9752,-95.7287 78.6717,-89.148 104.211,-84.8057"/>
<polygon fill="#9a32cd" stroke="#9a32cd" points="15.6727,-234.967 20.7287,-244.278 22.5824,-233.846 15.6727,-234.967"/>
<text text-anchor="middle" x="61" y="-218" font-family="Helvetica,sans-Serif" font-size="10.00"> j_max_</text>
<text text-anchor="middle" x="61" y="-207" font-family="Helvetica,sans-Serif" font-size="10.00">dj_</text>
<text text-anchor="middle" x="61" y="-196" font-family="Helvetica,sans-Serif" font-size="10.00">v_max_</text>
<text text-anchor="middle" x="61" y="-185" font-family="Helvetica,sans-Serif" font-size="10.00">dv_</text>
<text text-anchor="middle" x="61" y="-174" font-family="Helvetica,sans-Serif" font-size="10.00">u_max_</text>
<text text-anchor="middle" x="61" y="-163" font-family="Helvetica,sans-Serif" font-size="10.00">tol_dis</text>
<text text-anchor="middle" x="61" y="-152" font-family="Helvetica,sans-Serif" font-size="10.00">t_max_</text>
<text text-anchor="middle" x="61" y="-141" font-family="Helvetica,sans-Serif" font-size="10.00">w_</text>
<text text-anchor="middle" x="61" y="-130" font-family="Helvetica,sans-Serif" font-size="10.00">dt_</text>
<text text-anchor="middle" x="61" y="-119" font-family="Helvetica,sans-Serif" font-size="10.00">ds_</text>
<text text-anchor="middle" x="61" y="-108" font-family="Helvetica,sans-Serif" font-size="10.00">...</text>
</g>
<!-- Node5 -->
<g id="node4" class="node"><title>Node5</title>
<g id="a_node4"><a xlink:href="classint.html" target="_top" xlink:title="int">
<polygon fill="white" stroke="black" points="64,-244.5 64,-263.5 93,-263.5 93,-244.5 64,-244.5"/>
<text text-anchor="middle" x="78.5" y="-251.5" font-family="Helvetica,sans-Serif" font-size="10.00">int</text>
</a>
</g>
</g>
<!-- Node5&#45;&gt;Node3 -->
<g id="edge3" class="edge"><title>Node5&#45;&gt;Node3</title>
<path fill="none" stroke="#9a32cd" stroke-dasharray="5,2" d="M80.3186,-233.887C83.9607,-203.988 94.3774,-145.398 122.5,-105 127.678,-97.5623 135.555,-91.3213 142.622,-86.7196"/>
<polygon fill="#9a32cd" stroke="#9a32cd" points="76.8023,-233.848 79.2008,-244.168 83.7613,-234.605 76.8023,-233.848"/>
<text text-anchor="middle" x="138.5" y="-168.5" font-family="Helvetica,sans-Serif" font-size="10.00"> alpha_</text>
<text text-anchor="middle" x="138.5" y="-157.5" font-family="Helvetica,sans-Serif" font-size="10.00">wi_</text>
</g>
<!-- Node6 -->
<g id="node5" class="node"><title>Node6</title>
<g id="a_node5"><a xlink:href="classWaypoint_3_01Dim_01_4.html" target="_top" xlink:title="Waypoint\&lt; Dim \&gt;">
<polygon fill="white" stroke="black" points="111.5,-244.5 111.5,-263.5 205.5,-263.5 205.5,-244.5 111.5,-244.5"/>
<text text-anchor="middle" x="158.5" y="-251.5" font-family="Helvetica,sans-Serif" font-size="10.00">Waypoint&lt; Dim &gt;</text>
</a>
</g>
</g>
<!-- Node6&#45;&gt;Node3 -->
<g id="edge4" class="edge"><title>Node6&#45;&gt;Node3</title>
<path fill="none" stroke="#9a32cd" stroke-dasharray="5,2" d="M158.5,-233.951C158.5,-196.297 158.5,-113.654 158.5,-86.6932"/>
<polygon fill="#9a32cd" stroke="#9a32cd" points="155,-234.081 158.5,-244.081 162,-234.081 155,-234.081"/>
<text text-anchor="middle" x="185" y="-163" font-family="Helvetica,sans-Serif" font-size="10.00"> goal_node_</text>
</g>
<!-- Node7 -->
<g id="node6" class="node"><title>Node7</title>
<g id="a_node6"><a xlink:href="classTrajectory_3_01Dim_01_4.html" target="_top" xlink:title="Trajectory\&lt; Dim \&gt;">
<polygon fill="white" stroke="black" points="223.5,-244.5 223.5,-263.5 319.5,-263.5 319.5,-244.5 223.5,-244.5"/>
<text text-anchor="middle" x="271.5" y="-251.5" font-family="Helvetica,sans-Serif" font-size="10.00">Trajectory&lt; Dim &gt;</text>
</a>
</g>
</g>
<!-- Node7&#45;&gt;Node3 -->
<g id="edge5" class="edge"><title>Node7&#45;&gt;Node3</title>
<path fill="none" stroke="#9a32cd" stroke-dasharray="5,2" d="M269.017,-234.383C264.041,-203.807 250.185,-142.602 215.5,-105 207.853,-96.71 197.132,-90.7201 187.049,-86.5214"/>
<polygon fill="#9a32cd" stroke="#9a32cd" points="265.586,-235.11 270.514,-244.489 272.511,-234.084 265.586,-235.11"/>
<text text-anchor="middle" x="290.5" y="-163" font-family="Helvetica,sans-Serif" font-size="10.00"> prior_traj_</text>
</g>
<!-- Node8 -->
<g id="node7" class="node"><title>Node8</title>
<g id="a_node7"><a xlink:href="classvec__Vecf_3_01Dim_01_4.html" target="_top" xlink:title="vec_Vecf\&lt; Dim \&gt;">
<polygon fill="white" stroke="black" points="337.5,-244.5 337.5,-263.5 431.5,-263.5 431.5,-244.5 337.5,-244.5"/>
<text text-anchor="middle" x="384.5" y="-251.5" font-family="Helvetica,sans-Serif" font-size="10.00">vec_Vecf&lt; Dim &gt;</text>
</a>
</g>
</g>
<!-- Node8&#45;&gt;Node3 -->
<g id="edge6" class="edge"><title>Node8&#45;&gt;Node3</title>
<path fill="none" stroke="#9a32cd" stroke-dasharray="5,2" d="M381.71,-234.035C375.926,-201.967 359.471,-137.369 317.5,-105 313.246,-101.719 256.928,-92.6653 212.511,-85.9413"/>
<polygon fill="#9a32cd" stroke="#9a32cd" points="378.314,-234.955 383.385,-244.258 385.222,-233.823 378.314,-234.955"/>
<text text-anchor="middle" x="420" y="-168.5" font-family="Helvetica,sans-Serif" font-size="10.00"> U_</text>
<text text-anchor="middle" x="420" y="-157.5" font-family="Helvetica,sans-Serif" font-size="10.00">expanded_nodes_</text>
</g>
<!-- Node9 -->
<g id="node8" class="node"><title>Node9</title>
<polygon fill="white" stroke="#bfbfbf" points="231,-67.5 231,-86.5 362,-86.5 362,-67.5 231,-67.5"/>
<text text-anchor="middle" x="296.5" y="-74.5" font-family="Helvetica,sans-Serif" font-size="10.00">unique_ptr&lt; DecompUtil &gt;</text>
</g>
<!-- Node9&#45;&gt;Node2 -->
<g id="edge7" class="edge"><title>Node9&#45;&gt;Node2</title>
<path fill="none" stroke="#9a32cd" stroke-dasharray="5,2" d="M286.896,-58.1635C280.146,-45.6281 271.413,-29.4104 266.145,-19.6273"/>
<polygon fill="#9a32cd" stroke="#9a32cd" points="283.957,-60.0885 291.78,-67.2338 290.12,-56.7697 283.957,-60.0885"/>
<text text-anchor="middle" x="304.5" y="-41" font-family="Helvetica,sans-Serif" font-size="10.00"> map_util_</text>
</g>
</g>
</svg>
