<?xml version="1.0" encoding="UTF-8" standalone="no"?>
<!DOCTYPE svg PUBLIC "-//W3C//DTD SVG 1.1//EN"
 "http://www.w3.org/Graphics/SVG/1.1/DTD/svg11.dtd">
<!-- Generated by graphviz version 2.38.0 (20140413.2041)
 -->
<!-- Title: PolyTraj&lt; Dim &gt; Pages: 1 -->
<svg width="345pt" height="90pt"
 viewBox="0.00 0.00 345.00 90.00" xmlns="http://www.w3.org/2000/svg" xmlns:xlink="http://www.w3.org/1999/xlink">
<g id="graph0" class="graph" transform="scale(1 1) rotate(0) translate(4 86)">
<title>PolyTraj&lt; Dim &gt;</title>
<polygon fill="white" stroke="none" points="-4,4 -4,-86 341,-86 341,4 -4,4"/>
<!-- Node1 -->
<g id="node1" class="node"><title>Node1</title>
<polygon fill="#bfbfbf" stroke="black" points="248,-35.5 248,-54.5 337,-54.5 337,-35.5 248,-35.5"/>
<text text-anchor="middle" x="292.5" y="-42.5" font-family="Helvetica,sans-Serif" font-size="10.00">PolyTraj&lt; Dim &gt;</text>
</g>
<!-- Node2 -->
<g id="node2" class="node"><title>Node2</title>
<polygon fill="white" stroke="#bfbfbf" points="22.5,-60.5 22.5,-79.5 112.5,-79.5 112.5,-60.5 22.5,-60.5"/>
<text text-anchor="middle" x="67.5" y="-67.5" font-family="Helvetica,sans-Serif" font-size="10.00">vector&lt; double &gt;</text>
</g>
<!-- Node2&#45;&gt;Node1 -->
<g id="edge1" class="edge"><title>Node2&#45;&gt;Node1</title>
<path fill="none" stroke="#9a32cd" stroke-dasharray="5,2" d="M122.55,-63.9406C161.019,-59.6279 212.041,-53.9079 247.914,-49.8863"/>
<polygon fill="#9a32cd" stroke="#9a32cd" points="122.105,-60.4684 112.558,-65.0608 122.885,-67.4248 122.105,-60.4684"/>
<text text-anchor="middle" x="191.5" y="-74" font-family="Helvetica,sans-Serif" font-size="10.00"> waypoint_times_</text>
<text text-anchor="middle" x="191.5" y="-63" font-family="Helvetica,sans-Serif" font-size="10.00">dts_</text>
</g>
<!-- Node3 -->
<g id="node3" class="node"><title>Node3</title>
<polygon fill="white" stroke="#bfbfbf" points="0,-0.5 0,-41.5 135,-41.5 135,-0.5 0,-0.5"/>
<text text-anchor="start" x="8" y="-29.5" font-family="Helvetica,sans-Serif" font-size="10.00">deque&lt; MatDNf&lt; Dim</text>
<text text-anchor="start" x="8" y="-18.5" font-family="Helvetica,sans-Serif" font-size="10.00"> &gt;, Eigen::aligned_allocator</text>
<text text-anchor="middle" x="67.5" y="-7.5" font-family="Helvetica,sans-Serif" font-size="10.00">&lt; MatDNf&lt; Dim &gt; &gt; &gt;</text>
</g>
<!-- Node3&#45;&gt;Node1 -->
<g id="edge2" class="edge"><title>Node3&#45;&gt;Node1</title>
<path fill="none" stroke="#9a32cd" stroke-dasharray="5,2" d="M145.422,-28.1361C172.209,-30.7496 202.448,-33.844 230,-37 235.776,-37.6617 241.852,-38.4002 247.844,-39.1536"/>
<polygon fill="#9a32cd" stroke="#9a32cd" points="145.629,-24.6398 135.338,-27.1588 144.953,-31.6071 145.629,-24.6398"/>
<text text-anchor="middle" x="191.5" y="-40" font-family="Helvetica,sans-Serif" font-size="10.00"> coefficients_</text>
</g>
</g>
</svg>
