<?xml version="1.0" encoding="UTF-8" standalone="no"?>
<!DOCTYPE svg PUBLIC "-//W3C//DTD SVG 1.1//EN"
 "http://www.w3.org/Graphics/SVG/1.1/DTD/svg11.dtd">
<!-- Generated by graphviz version 2.38.0 (20140413.2041)
 -->
<!-- Title: MPL::GraphSearch::GraphSearch Pages: 1 -->
<svg width="362pt" height="104pt"
 viewBox="0.00 0.00 362.00 104.00" xmlns="http://www.w3.org/2000/svg" xmlns:xlink="http://www.w3.org/1999/xlink">
<g id="graph0" class="graph" transform="scale(1 1) rotate(0) translate(4 100)">
<title>MPL::GraphSearch::GraphSearch</title>
<polygon fill="white" stroke="none" points="-4,4 -4,-100 358,-100 358,4 -4,4"/>
<!-- Node0 -->
<g id="node1" class="node"><title>Node0</title>
<polygon fill="#bfbfbf" stroke="black" points="0,-38.5 0,-57.5 163,-57.5 163,-38.5 0,-38.5"/>
<text text-anchor="middle" x="81.5" y="-45.5" font-family="Helvetica,sans-Serif" font-size="10.00">MPL::GraphSearch::GraphSearch</text>
</g>
<!-- Node1 -->
<g id="node2" class="node"><title>Node1</title>
<g id="a_node2"><a xlink:href="classMPL_1_1GraphSearch.html#a87a859e3900dc704009b9627ddb2e682" target="_top" xlink:title="Astar graph search. ">
<polygon fill="white" stroke="black" points="212,-76.5 212,-95.5 341,-95.5 341,-76.5 212,-76.5"/>
<text text-anchor="middle" x="276.5" y="-83.5" font-family="Helvetica,sans-Serif" font-size="10.00">MPL::GraphSearch::Astar</text>
</a>
</g>
</g>
<!-- Node0&#45;&gt;Node1 -->
<g id="edge1" class="edge"><title>Node0&#45;&gt;Node1</title>
<path fill="none" stroke="midnightblue" d="M131.202,-57.589C157.359,-62.739 189.784,-69.1232 217.267,-74.5344"/>
<polygon fill="midnightblue" stroke="midnightblue" points="216.66,-77.9821 227.148,-76.4799 218.013,-71.114 216.66,-77.9821"/>
</g>
<!-- Node2 -->
<g id="node3" class="node"><title>Node2</title>
<g id="a_node3"><a xlink:href="classMPL_1_1GraphSearch.html#a25606f38bd904b91e82af55a4eff14d4" target="_top" xlink:title="Lifelong Planning Astar graph search. ">
<polygon fill="white" stroke="black" points="206,-38.5 206,-57.5 347,-57.5 347,-38.5 206,-38.5"/>
<text text-anchor="middle" x="276.5" y="-45.5" font-family="Helvetica,sans-Serif" font-size="10.00">MPL::GraphSearch::LPAstar</text>
</a>
</g>
</g>
<!-- Node0&#45;&gt;Node2 -->
<g id="edge2" class="edge"><title>Node0&#45;&gt;Node2</title>
<path fill="none" stroke="midnightblue" d="M163.231,-48C173.955,-48 184.946,-48 195.655,-48"/>
<polygon fill="midnightblue" stroke="midnightblue" points="195.818,-51.5001 205.818,-48 195.818,-44.5001 195.818,-51.5001"/>
</g>
<!-- Node3 -->
<g id="node4" class="node"><title>Node3</title>
<g id="a_node4"><a xlink:href="classMPL_1_1GraphSearch.html#ae2e93f9ab1ea870786cd2119ebad4ba4" target="_top" xlink:title="Recover trajectory. ">
<polygon fill="white" stroke="black" points="199,-0.5 199,-19.5 354,-19.5 354,-0.5 199,-0.5"/>
<text text-anchor="middle" x="276.5" y="-7.5" font-family="Helvetica,sans-Serif" font-size="10.00">MPL::GraphSearch::recoverTraj</text>
</a>
</g>
</g>
<!-- Node0&#45;&gt;Node3 -->
<g id="edge3" class="edge"><title>Node0&#45;&gt;Node3</title>
<path fill="none" stroke="midnightblue" d="M131.202,-38.411C157.359,-33.261 189.784,-26.8768 217.267,-21.4656"/>
<polygon fill="midnightblue" stroke="midnightblue" points="218.013,-24.886 227.148,-19.5201 216.66,-18.0179 218.013,-24.886"/>
</g>
</g>
</svg>
