<?xml version="1.0" encoding="UTF-8" standalone="no"?>
<!DOCTYPE svg PUBLIC "-//W3C//DTD SVG 1.1//EN"
 "http://www.w3.org/Graphics/SVG/1.1/DTD/svg11.dtd">
<!-- Generated by graphviz version 2.38.0 (20140413.2041)
 -->
<!-- Title: MapReader&lt; Ti, Tf &gt; Pages: 1 -->
<svg width="349pt" height="117pt"
 viewBox="0.00 0.00 348.50 117.00" xmlns="http://www.w3.org/2000/svg" xmlns:xlink="http://www.w3.org/1999/xlink">
<g id="graph0" class="graph" transform="scale(1 1) rotate(0) translate(4 113)">
<title>MapReader&lt; Ti, Tf &gt;</title>
<polygon fill="white" stroke="none" points="-4,4 -4,-113 344.5,-113 344.5,4 -4,4"/>
<!-- Node1 -->
<g id="node1" class="node"><title>Node1</title>
<polygon fill="#bfbfbf" stroke="black" points="89.5,-0.5 89.5,-19.5 197.5,-19.5 197.5,-0.5 89.5,-0.5"/>
<text text-anchor="middle" x="143.5" y="-7.5" font-family="Helvetica,sans-Serif" font-size="10.00">MapReader&lt; Ti, Tf &gt;</text>
</g>
<!-- Node2 -->
<g id="node2" class="node"><title>Node2</title>
<polygon fill="white" stroke="#bfbfbf" points="0,-89.5 0,-108.5 29,-108.5 29,-89.5 0,-89.5"/>
<text text-anchor="middle" x="14.5" y="-96.5" font-family="Helvetica,sans-Serif" font-size="10.00">Tf</text>
</g>
<!-- Node2&#45;&gt;Node1 -->
<g id="edge1" class="edge"><title>Node2&#45;&gt;Node1</title>
<path fill="none" stroke="#9a32cd" stroke-dasharray="5,2" d="M18.4197,-79.1963C22.1565,-65.85 29.1128,-48.5049 41.5,-38 54.912,-26.626 72.6088,-19.9857 89.4907,-16.1282"/>
<polygon fill="#9a32cd" stroke="#9a32cd" points="14.9422,-78.6857 15.9893,-89.2287 21.7454,-80.3339 14.9422,-78.6857"/>
<text text-anchor="middle" x="56" y="-63" font-family="Helvetica,sans-Serif" font-size="10.00"> goal_</text>
<text text-anchor="middle" x="56" y="-52" font-family="Helvetica,sans-Serif" font-size="10.00">origin_</text>
<text text-anchor="middle" x="56" y="-41" font-family="Helvetica,sans-Serif" font-size="10.00">start_</text>
</g>
<!-- Node3 -->
<g id="node3" class="node"><title>Node3</title>
<g id="a_node3"><a xlink:href="classdouble.html" target="_top" xlink:title="double">
<polygon fill="white" stroke="black" points="47,-89.5 47,-108.5 92,-108.5 92,-89.5 47,-89.5"/>
<text text-anchor="middle" x="69.5" y="-96.5" font-family="Helvetica,sans-Serif" font-size="10.00">double</text>
</a>
</g>
</g>
<!-- Node3&#45;&gt;Node1 -->
<g id="edge2" class="edge"><title>Node3&#45;&gt;Node1</title>
<path fill="none" stroke="#9a32cd" stroke-dasharray="5,2" d="M71.56,-79.1323C73.8285,-66.2644 78.578,-49.5304 88.5,-38 95.6463,-29.6952 105.946,-23.7024 115.704,-19.5056"/>
<polygon fill="#9a32cd" stroke="#9a32cd" points="68.0686,-78.8264 70.1375,-89.2173 75,-79.8042 68.0686,-78.8264"/>
<text text-anchor="middle" x="114" y="-52" font-family="Helvetica,sans-Serif" font-size="10.00"> resolution_</text>
</g>
<!-- Node4 -->
<g id="node4" class="node"><title>Node4</title>
<polygon fill="white" stroke="#bfbfbf" points="128,-89.5 128,-108.5 157,-108.5 157,-89.5 128,-89.5"/>
<text text-anchor="middle" x="142.5" y="-96.5" font-family="Helvetica,sans-Serif" font-size="10.00">Ti</text>
</g>
<!-- Node4&#45;&gt;Node1 -->
<g id="edge3" class="edge"><title>Node4&#45;&gt;Node1</title>
<path fill="none" stroke="#9a32cd" stroke-dasharray="5,2" d="M142.716,-79.1946C142.928,-60.7379 143.242,-33.412 143.401,-19.6249"/>
<polygon fill="#9a32cd" stroke="#9a32cd" points="139.215,-79.3004 142.6,-89.34 146.214,-79.381 139.215,-79.3004"/>
<text text-anchor="middle" x="156" y="-52" font-family="Helvetica,sans-Serif" font-size="10.00"> dim_</text>
</g>
<!-- Node5 -->
<g id="node5" class="node"><title>Node5</title>
<g id="a_node5"><a xlink:href="classbool.html" target="_top" xlink:title="bool">
<polygon fill="white" stroke="black" points="175,-89.5 175,-108.5 210,-108.5 210,-89.5 175,-89.5"/>
<text text-anchor="middle" x="192.5" y="-96.5" font-family="Helvetica,sans-Serif" font-size="10.00">bool</text>
</a>
</g>
</g>
<!-- Node5&#45;&gt;Node1 -->
<g id="edge4" class="edge"><title>Node5&#45;&gt;Node1</title>
<path fill="none" stroke="#9a32cd" stroke-dasharray="5,2" d="M188.014,-79.6443C184.464,-67.2524 178.722,-50.8726 170.5,-38 166.075,-31.0725 159.602,-24.5213 154.103,-19.6072"/>
<polygon fill="#9a32cd" stroke="#9a32cd" points="184.633,-80.5495 190.578,-89.3193 191.4,-78.7563 184.633,-80.5495"/>
<text text-anchor="middle" x="200.5" y="-52" font-family="Helvetica,sans-Serif" font-size="10.00"> exist_</text>
</g>
<!-- Node6 -->
<g id="node6" class="node"><title>Node6</title>
<polygon fill="white" stroke="#bfbfbf" points="228.5,-89.5 228.5,-108.5 340.5,-108.5 340.5,-89.5 228.5,-89.5"/>
<text text-anchor="middle" x="284.5" y="-96.5" font-family="Helvetica,sans-Serif" font-size="10.00">vector&lt; signed char &gt;</text>
</g>
<!-- Node6&#45;&gt;Node1 -->
<g id="edge5" class="edge"><title>Node6&#45;&gt;Node1</title>
<path fill="none" stroke="#9a32cd" stroke-dasharray="5,2" d="M270.615,-81.9755C258.326,-68.6408 239.313,-49.9677 219.5,-38 206.316,-30.0363 190.43,-23.9313 176.598,-19.5581"/>
<polygon fill="#9a32cd" stroke="#9a32cd" points="268.062,-84.3715 277.344,-89.4807 273.274,-79.6986 268.062,-84.3715"/>
<text text-anchor="middle" x="273.5" y="-52" font-family="Helvetica,sans-Serif" font-size="10.00"> data_</text>
</g>
</g>
</svg>
