<?xml version="1.0" encoding="UTF-8" standalone="no"?>
<!DOCTYPE svg PUBLIC "-//W3C//DTD SVG 1.1//EN"
 "http://www.w3.org/Graphics/SVG/1.1/DTD/svg11.dtd">
<!-- Generated by graphviz version 2.38.0 (20140413.2041)
 -->
<!-- Title: MPL::env_map::is_free Pages: 1 -->
<svg width="394pt" height="104pt"
 viewBox="0.00 0.00 394.00 104.00" xmlns="http://www.w3.org/2000/svg" xmlns:xlink="http://www.w3.org/1999/xlink">
<g id="graph0" class="graph" transform="scale(1 1) rotate(0) translate(4 100)">
<title>MPL::env_map::is_free</title>
<polygon fill="white" stroke="none" points="-4,4 -4,-100 390,-100 390,4 -4,4"/>
<!-- Node12 -->
<g id="node1" class="node"><title>Node12</title>
<polygon fill="#bfbfbf" stroke="black" points="0,-38.5 0,-57.5 118,-57.5 118,-38.5 0,-38.5"/>
<text text-anchor="middle" x="59" y="-45.5" font-family="Helvetica,sans-Serif" font-size="10.00">MPL::env_map::is_free</text>
</g>
<!-- Node13 -->
<g id="node2" class="node"><title>Node13</title>
<g id="a_node2"><a xlink:href="classPrimitive.html#a6c369ebe499544a832c88b6fc4ada0e4" target="_top" xlink:title="Return max velocity along k&#45;th dimension. ">
<polygon fill="white" stroke="black" points="154,-76.5 154,-95.5 252,-95.5 252,-76.5 154,-76.5"/>
<text text-anchor="middle" x="203" y="-83.5" font-family="Helvetica,sans-Serif" font-size="10.00">Primitive::max_vel</text>
</a>
</g>
</g>
<!-- Node12&#45;&gt;Node13 -->
<g id="edge1" class="edge"><title>Node12&#45;&gt;Node13</title>
<path fill="none" stroke="midnightblue" d="M95.8326,-57.589C114.163,-62.4944 136.678,-68.5196 156.25,-73.7571"/>
<polygon fill="midnightblue" stroke="midnightblue" points="155.614,-77.2099 166.179,-76.4141 157.424,-70.4479 155.614,-77.2099"/>
</g>
<!-- Node14 -->
<g id="node3" class="node"><title>Node14</title>
<g id="a_node3"><a xlink:href="classPrimitive.html#a908ba5793fc0520602352b59358a34ea" target="_top" xlink:title="Return duration. ">
<polygon fill="white" stroke="black" points="171,-38.5 171,-57.5 235,-57.5 235,-38.5 171,-38.5"/>
<text text-anchor="middle" x="203" y="-45.5" font-family="Helvetica,sans-Serif" font-size="10.00">Primitive::t</text>
</a>
</g>
</g>
<!-- Node12&#45;&gt;Node14 -->
<g id="edge2" class="edge"><title>Node12&#45;&gt;Node14</title>
<path fill="none" stroke="midnightblue" d="M118.167,-48C132.429,-48 147.407,-48 160.693,-48"/>
<polygon fill="midnightblue" stroke="midnightblue" points="160.939,-51.5001 170.939,-48 160.939,-44.5001 160.939,-51.5001"/>
</g>
<!-- Node15 -->
<g id="node4" class="node"><title>Node15</title>
<g id="a_node4"><a xlink:href="classPrimitive.html#a05f39d37c30257fe531ff264039d4bb8" target="_top" xlink:title="Sample N states using uniformed time. ">
<polygon fill="white" stroke="black" points="157,-0.5 157,-19.5 249,-19.5 249,-0.5 157,-0.5"/>
<text text-anchor="middle" x="203" y="-7.5" font-family="Helvetica,sans-Serif" font-size="10.00">Primitive::sample</text>
</a>
</g>
</g>
<!-- Node12&#45;&gt;Node15 -->
<g id="edge3" class="edge"><title>Node12&#45;&gt;Node15</title>
<path fill="none" stroke="midnightblue" d="M95.8326,-38.411C114.163,-33.5056 136.678,-27.4804 156.25,-22.2429"/>
<polygon fill="midnightblue" stroke="midnightblue" points="157.424,-25.5521 166.179,-19.5859 155.614,-18.7901 157.424,-25.5521"/>
</g>
<!-- Node16 -->
<g id="node5" class="node"><title>Node16</title>
<g id="a_node5"><a xlink:href="classPrimitive.html#ad169f643f0556872f140f16a9ca73270" target="_top" xlink:title="Return state at t. ">
<polygon fill="white" stroke="black" points="288,-0.5 288,-19.5 386,-19.5 386,-0.5 288,-0.5"/>
<text text-anchor="middle" x="337" y="-7.5" font-family="Helvetica,sans-Serif" font-size="10.00">Primitive::evaluate</text>
</a>
</g>
</g>
<!-- Node15&#45;&gt;Node16 -->
<g id="edge4" class="edge"><title>Node15&#45;&gt;Node16</title>
<path fill="none" stroke="midnightblue" d="M249.058,-10C258.272,-10 268.094,-10 277.696,-10"/>
<polygon fill="midnightblue" stroke="midnightblue" points="277.989,-13.5001 287.989,-10 277.989,-6.5001 277.989,-13.5001"/>
</g>
</g>
</svg>
