<?xml version="1.0" encoding="UTF-8" standalone="no"?>
<!DOCTYPE svg PUBLIC "-//W3C//DTD SVG 1.1//EN"
 "http://www.w3.org/Graphics/SVG/1.1/DTD/svg11.dtd">
<!-- Generated by graphviz version 2.38.0 (20140413.2041)
 -->
<!-- Title: Primitive&lt; Dim &gt; Pages: 1 -->
<svg width="172pt" height="106pt"
 viewBox="0.00 0.00 172.00 106.00" xmlns="http://www.w3.org/2000/svg" xmlns:xlink="http://www.w3.org/1999/xlink">
<g id="graph0" class="graph" transform="scale(1 1) rotate(0) translate(4 102)">
<title>Primitive&lt; Dim &gt;</title>
<polygon fill="white" stroke="none" points="-4,4 -4,-102 168,-102 168,4 -4,4"/>
<!-- Node1 -->
<g id="node1" class="node"><title>Node1</title>
<polygon fill="#bfbfbf" stroke="black" points="22,-0.5 22,-19.5 113,-19.5 113,-0.5 22,-0.5"/>
<text text-anchor="middle" x="67.5" y="-7.5" font-family="Helvetica,sans-Serif" font-size="10.00">Primitive&lt; Dim &gt;</text>
</g>
<!-- Node2 -->
<g id="node2" class="node"><title>Node2</title>
<g id="a_node2"><a xlink:href="classdouble.html" target="_top" xlink:title="double">
<polygon fill="white" stroke="black" points="0,-73 0,-92 45,-92 45,-73 0,-73"/>
<text text-anchor="middle" x="22.5" y="-80" font-family="Helvetica,sans-Serif" font-size="10.00">double</text>
</a>
</g>
</g>
<!-- Node2&#45;&gt;Node1 -->
<g id="edge1" class="edge"><title>Node2&#45;&gt;Node1</title>
<path fill="none" stroke="#9a32cd" stroke-dasharray="5,2" d="M33.6128,-64.09C42.6067,-49.9995 54.8971,-30.7445 61.937,-19.7154"/>
<polygon fill="#9a32cd" stroke="#9a32cd" points="30.448,-62.5429 28.0179,-72.8553 36.3485,-66.3092 30.448,-62.5429"/>
<text text-anchor="middle" x="55.5" y="-41" font-family="Helvetica,sans-Serif" font-size="10.00"> t_</text>
</g>
<!-- Node3 -->
<g id="node3" class="node"><title>Node3</title>
<polygon fill="white" stroke="#bfbfbf" points="63,-67.5 63,-97.5 164,-97.5 164,-67.5 63,-67.5"/>
<text text-anchor="start" x="71" y="-85.5" font-family="Helvetica,sans-Serif" font-size="10.00">array&lt; Primitive1D,</text>
<text text-anchor="middle" x="113.5" y="-74.5" font-family="Helvetica,sans-Serif" font-size="10.00"> Dim &gt;</text>
</g>
<!-- Node3&#45;&gt;Node1 -->
<g id="edge2" class="edge"><title>Node3&#45;&gt;Node1</title>
<path fill="none" stroke="#9a32cd" stroke-dasharray="5,2" d="M98.575,-58.6259C89.9611,-45.4241 79.6163,-29.5696 73.3026,-19.8932"/>
<polygon fill="#9a32cd" stroke="#9a32cd" points="95.7955,-60.7709 104.191,-67.2333 101.658,-56.9457 95.7955,-60.7709"/>
<text text-anchor="middle" x="102.5" y="-41" font-family="Helvetica,sans-Serif" font-size="10.00"> prs_</text>
</g>
</g>
</svg>
