<?xml version="1.0" encoding="UTF-8" standalone="no"?>
<!DOCTYPE svg PUBLIC "-//W3C//DTD SVG 1.1//EN"
 "http://www.w3.org/Graphics/SVG/1.1/DTD/svg11.dtd">
<!-- Generated by graphviz version 2.38.0 (20140413.2041)
 -->
<!-- Title: MPL::env_map&lt; Dim &gt; Pages: 1 -->
<svg width="588pt" height="313pt"
 viewBox="0.00 0.00 588.00 312.50" xmlns="http://www.w3.org/2000/svg" xmlns:xlink="http://www.w3.org/1999/xlink">
<g id="graph0" class="graph" transform="scale(1 1) rotate(0) translate(4 308.5)">
<title>MPL::env_map&lt; Dim &gt;</title>
<polygon fill="white" stroke="none" points="-4,4 -4,-308.5 584,-308.5 584,4 -4,4"/>
<!-- Node2 -->
<g id="node1" class="node"><title>Node2</title>
<polygon fill="#bfbfbf" stroke="black" points="461,-55 461,-74 580,-74 580,-55 461,-55"/>
<text text-anchor="middle" x="520.5" y="-62" font-family="Helvetica,sans-Serif" font-size="10.00">MPL::env_map&lt; Dim &gt;</text>
</g>
<!-- Node3 -->
<g id="node2" class="node"><title>Node3</title>
<g id="a_node2"><a xlink:href="classMPL_1_1env__base.html" target="_top" xlink:title="Base environment class. ">
<polygon fill="white" stroke="black" points="216,-99 216,-118 337,-118 337,-99 216,-99"/>
<text text-anchor="middle" x="276.5" y="-106" font-family="Helvetica,sans-Serif" font-size="10.00">MPL::env_base&lt; Dim &gt;</text>
</a>
</g>
</g>
<!-- Node3&#45;&gt;Node2 -->
<g id="edge1" class="edge"><title>Node3&#45;&gt;Node2</title>
<path fill="none" stroke="midnightblue" d="M343.512,-97.2469C373.844,-91.9955 410.275,-85.5748 443,-79.5 452.315,-77.7709 462.255,-75.8658 471.783,-74.0104"/>
<polygon fill="midnightblue" stroke="midnightblue" points="342.731,-93.8297 333.473,-98.9808 343.923,-100.728 342.731,-93.8297"/>
</g>
<!-- Node4 -->
<g id="node3" class="node"><title>Node4</title>
<g id="a_node3"><a xlink:href="classdouble.html" target="_top" xlink:title="double">
<polygon fill="white" stroke="black" points="25.5,-180 25.5,-199 70.5,-199 70.5,-180 25.5,-180"/>
<text text-anchor="middle" x="48" y="-187" font-family="Helvetica,sans-Serif" font-size="10.00">double</text>
</a>
</g>
</g>
<!-- Node4&#45;&gt;Node3 -->
<g id="edge2" class="edge"><title>Node4&#45;&gt;Node3</title>
<path fill="none" stroke="#9a32cd" stroke-dasharray="5,2" d="M80.9811,-187.13C110.849,-184.083 156.22,-177.295 193,-162.5 220.634,-151.384 248.816,-130.432 264.035,-118.15"/>
<polygon fill="#9a32cd" stroke="#9a32cd" points="80.353,-183.673 70.7231,-188.091 81.006,-190.642 80.353,-183.673"/>
<text text-anchor="middle" x="153.5" y="-296.5" font-family="Helvetica,sans-Serif" font-size="10.00"> j_max_</text>
<text text-anchor="middle" x="153.5" y="-285.5" font-family="Helvetica,sans-Serif" font-size="10.00">dj_</text>
<text text-anchor="middle" x="153.5" y="-274.5" font-family="Helvetica,sans-Serif" font-size="10.00">v_max_</text>
<text text-anchor="middle" x="153.5" y="-263.5" font-family="Helvetica,sans-Serif" font-size="10.00">dv_</text>
<text text-anchor="middle" x="153.5" y="-252.5" font-family="Helvetica,sans-Serif" font-size="10.00">u_max_</text>
<text text-anchor="middle" x="153.5" y="-241.5" font-family="Helvetica,sans-Serif" font-size="10.00">tol_dis</text>
<text text-anchor="middle" x="153.5" y="-230.5" font-family="Helvetica,sans-Serif" font-size="10.00">t_max_</text>
<text text-anchor="middle" x="153.5" y="-219.5" font-family="Helvetica,sans-Serif" font-size="10.00">w_</text>
<text text-anchor="middle" x="153.5" y="-208.5" font-family="Helvetica,sans-Serif" font-size="10.00">dt_</text>
<text text-anchor="middle" x="153.5" y="-197.5" font-family="Helvetica,sans-Serif" font-size="10.00">ds_</text>
<text text-anchor="middle" x="153.5" y="-186.5" font-family="Helvetica,sans-Serif" font-size="10.00">...</text>
</g>
<!-- Node5 -->
<g id="node4" class="node"><title>Node5</title>
<g id="a_node4"><a xlink:href="classint.html" target="_top" xlink:title="int">
<polygon fill="white" stroke="black" points="33.5,-137 33.5,-156 62.5,-156 62.5,-137 33.5,-137"/>
<text text-anchor="middle" x="48" y="-144" font-family="Helvetica,sans-Serif" font-size="10.00">int</text>
</a>
</g>
</g>
<!-- Node5&#45;&gt;Node3 -->
<g id="edge3" class="edge"><title>Node5&#45;&gt;Node3</title>
<path fill="none" stroke="#9a32cd" stroke-dasharray="5,2" d="M72.701,-142.572C101.243,-137.836 150.635,-129.625 193,-122.5 201.596,-121.054 210.694,-119.517 219.588,-118.011"/>
<polygon fill="#9a32cd" stroke="#9a32cd" points="71.7948,-139.174 62.5022,-144.263 72.9401,-146.08 71.7948,-139.174"/>
<text text-anchor="middle" x="153.5" y="-150.5" font-family="Helvetica,sans-Serif" font-size="10.00"> alpha_</text>
<text text-anchor="middle" x="153.5" y="-139.5" font-family="Helvetica,sans-Serif" font-size="10.00">wi_</text>
</g>
<!-- Node6 -->
<g id="node5" class="node"><title>Node6</title>
<g id="a_node5"><a xlink:href="classWaypoint_3_01Dim_01_4.html" target="_top" xlink:title="Waypoint\&lt; Dim \&gt;">
<polygon fill="white" stroke="black" points="1,-99 1,-118 95,-118 95,-99 1,-99"/>
<text text-anchor="middle" x="48" y="-106" font-family="Helvetica,sans-Serif" font-size="10.00">Waypoint&lt; Dim &gt;</text>
</a>
</g>
</g>
<!-- Node6&#45;&gt;Node3 -->
<g id="edge4" class="edge"><title>Node6&#45;&gt;Node3</title>
<path fill="none" stroke="#9a32cd" stroke-dasharray="5,2" d="M105.224,-108.5C138.818,-108.5 181.469,-108.5 215.681,-108.5"/>
<polygon fill="#9a32cd" stroke="#9a32cd" points="105.109,-105 95.1087,-108.5 105.109,-112 105.109,-105"/>
<text text-anchor="middle" x="153.5" y="-111.5" font-family="Helvetica,sans-Serif" font-size="10.00"> goal_node_</text>
</g>
<!-- Node7 -->
<g id="node6" class="node"><title>Node7</title>
<g id="a_node6"><a xlink:href="classTrajectory_3_01Dim_01_4.html" target="_top" xlink:title="Trajectory\&lt; Dim \&gt;">
<polygon fill="white" stroke="black" points="0,-61 0,-80 96,-80 96,-61 0,-61"/>
<text text-anchor="middle" x="48" y="-68" font-family="Helvetica,sans-Serif" font-size="10.00">Trajectory&lt; Dim &gt;</text>
</a>
</g>
</g>
<!-- Node7&#45;&gt;Node3 -->
<g id="edge5" class="edge"><title>Node7&#45;&gt;Node3</title>
<path fill="none" stroke="#9a32cd" stroke-dasharray="5,2" d="M106.281,-79.3599C132.703,-83.521 164.47,-88.6284 193,-93.5 203.045,-95.2152 213.765,-97.1139 224.04,-98.9675"/>
<polygon fill="#9a32cd" stroke="#9a32cd" points="106.483,-75.8489 96.061,-77.7556 105.397,-82.7642 106.483,-75.8489"/>
<text text-anchor="middle" x="153.5" y="-96.5" font-family="Helvetica,sans-Serif" font-size="10.00"> prior_traj_</text>
</g>
<!-- Node8 -->
<g id="node7" class="node"><title>Node8</title>
<g id="a_node7"><a xlink:href="classvec__Vecf_3_01Dim_01_4.html" target="_top" xlink:title="vec_Vecf\&lt; Dim \&gt;">
<polygon fill="white" stroke="black" points="1,-18 1,-37 95,-37 95,-18 1,-18"/>
<text text-anchor="middle" x="48" y="-25" font-family="Helvetica,sans-Serif" font-size="10.00">vec_Vecf&lt; Dim &gt;</text>
</a>
</g>
</g>
<!-- Node8&#45;&gt;Node3 -->
<g id="edge6" class="edge"><title>Node8&#45;&gt;Node3</title>
<path fill="none" stroke="#9a32cd" stroke-dasharray="5,2" d="M105.438,-27.4003C134.038,-29.9296 167.922,-37.1483 193,-55.5 206.482,-65.3662 198.073,-77.9164 211,-88.5 216.352,-92.882 222.663,-96.3064 229.207,-98.982"/>
<polygon fill="#9a32cd" stroke="#9a32cd" points="105.39,-23.888 95.1661,-26.6686 104.892,-30.8704 105.39,-23.888"/>
<text text-anchor="middle" x="153.5" y="-69.5" font-family="Helvetica,sans-Serif" font-size="10.00"> U_</text>
<text text-anchor="middle" x="153.5" y="-58.5" font-family="Helvetica,sans-Serif" font-size="10.00">expanded_nodes_</text>
</g>
<!-- Node9 -->
<g id="node8" class="node"><title>Node9</title>
<polygon fill="white" stroke="#bfbfbf" points="211,-49.5 211,-79.5 342,-79.5 342,-49.5 211,-49.5"/>
<text text-anchor="start" x="219" y="-67.5" font-family="Helvetica,sans-Serif" font-size="10.00">shared_ptr&lt; MPL::MapUtil</text>
<text text-anchor="middle" x="276.5" y="-56.5" font-family="Helvetica,sans-Serif" font-size="10.00">&lt; Dim &gt; &gt;</text>
</g>
<!-- Node9&#45;&gt;Node2 -->
<g id="edge7" class="edge"><title>Node9&#45;&gt;Node2</title>
<path fill="none" stroke="#9a32cd" stroke-dasharray="5,2" d="M352.202,-64.5C387.187,-64.5 428.253,-64.5 460.943,-64.5"/>
<polygon fill="#9a32cd" stroke="#9a32cd" points="352.034,-61.0001 342.034,-64.5 352.034,-68.0001 352.034,-61.0001"/>
<text text-anchor="middle" x="401.5" y="-67.5" font-family="Helvetica,sans-Serif" font-size="10.00"> map_util_</text>
</g>
<!-- Node10 -->
<g id="node9" class="node"><title>Node10</title>
<polygon fill="white" stroke="#bfbfbf" points="220,-0.5 220,-30.5 333,-30.5 333,-0.5 220,-0.5"/>
<text text-anchor="start" x="228" y="-18.5" font-family="Helvetica,sans-Serif" font-size="10.00">unordered_map&lt; Key,</text>
<text text-anchor="middle" x="276.5" y="-7.5" font-family="Helvetica,sans-Serif" font-size="10.00"> vec_Vecf&lt; Dim &gt; &gt;</text>
</g>
<!-- Node10&#45;&gt;Node2 -->
<g id="edge8" class="edge"><title>Node10&#45;&gt;Node2</title>
<path fill="none" stroke="#9a32cd" stroke-dasharray="5,2" d="M343.272,-21.7401C373.846,-25.3788 410.54,-30.802 443,-38.5 460.88,-42.7403 480.493,-49.4492 495.383,-54.9899"/>
<polygon fill="#9a32cd" stroke="#9a32cd" points="343.488,-18.2419 333.153,-20.5738 342.687,-25.1959 343.488,-18.2419"/>
<text text-anchor="start" x="360" y="-52.5" font-family="Helvetica,sans-Serif" font-size="10.00"> collision_checking</text>
<text text-anchor="middle" x="401.5" y="-41.5" font-family="Helvetica,sans-Serif" font-size="10.00">_table_</text>
</g>
</g>
</svg>
