<?xml version="1.0" encoding="UTF-8" standalone="no"?>
<!DOCTYPE svg PUBLIC "-//W3C//DTD SVG 1.1//EN"
 "http://www.w3.org/Graphics/SVG/1.1/DTD/svg11.dtd">
<!-- Generated by graphviz version 2.38.0 (20140413.2041)
 -->
<!-- Title: DecompUtil Pages: 1 -->
<svg width="436pt" height="95pt"
 viewBox="0.00 0.00 435.50 95.00" xmlns="http://www.w3.org/2000/svg" xmlns:xlink="http://www.w3.org/1999/xlink">
<g id="graph0" class="graph" transform="scale(1 1) rotate(0) translate(4 91)">
<title>DecompUtil</title>
<polygon fill="white" stroke="none" points="-4,4 -4,-91 431.5,-91 431.5,4 -4,4"/>
<!-- Node1 -->
<g id="node1" class="node"><title>Node1</title>
<polygon fill="#bfbfbf" stroke="black" points="200.5,-0.5 200.5,-19.5 268.5,-19.5 268.5,-0.5 200.5,-0.5"/>
<text text-anchor="middle" x="234.5" y="-7.5" font-family="Helvetica,sans-Serif" font-size="10.00">DecompUtil</text>
</g>
<!-- Node2 -->
<g id="node2" class="node"><title>Node2</title>
<polygon fill="white" stroke="#bfbfbf" points="0,-67.5 0,-86.5 141,-86.5 141,-67.5 0,-67.5"/>
<text text-anchor="middle" x="70.5" y="-74.5" font-family="Helvetica,sans-Serif" font-size="10.00">KdTreeFLANN&lt; PCLPoint &gt;</text>
</g>
<!-- Node2&#45;&gt;Node1 -->
<g id="edge1" class="edge"><title>Node2&#45;&gt;Node1</title>
<path fill="none" stroke="#9a32cd" stroke-dasharray="5,2" d="M101.776,-63.6041C134.338,-50.6984 184.475,-30.8272 212.893,-19.5637"/>
<polygon fill="#9a32cd" stroke="#9a32cd" points="100.285,-60.4301 92.2779,-67.3685 102.864,-66.9376 100.285,-60.4301"/>
<text text-anchor="middle" x="180.5" y="-41" font-family="Helvetica,sans-Serif" font-size="10.00"> kdtree_</text>
</g>
<!-- Node3 -->
<g id="node3" class="node"><title>Node3</title>
<polygon fill="white" stroke="#bfbfbf" points="159.5,-67.5 159.5,-86.5 219.5,-86.5 219.5,-67.5 159.5,-67.5"/>
<text text-anchor="middle" x="189.5" y="-74.5" font-family="Helvetica,sans-Serif" font-size="10.00">Vecf&lt; 3 &gt;</text>
</g>
<!-- Node3&#45;&gt;Node1 -->
<g id="edge2" class="edge"><title>Node3&#45;&gt;Node1</title>
<path fill="none" stroke="#9a32cd" stroke-dasharray="5,2" d="M201.336,-58.9037C210.08,-46.2729 221.62,-29.6041 228.527,-19.6273"/>
<polygon fill="#9a32cd" stroke="#9a32cd" points="198.383,-57.0196 195.569,-67.2338 204.139,-61.0041 198.383,-57.0196"/>
<text text-anchor="middle" x="228" y="-41" font-family="Helvetica,sans-Serif" font-size="10.00"> axe_</text>
</g>
<!-- Node4 -->
<g id="node4" class="node"><title>Node4</title>
<polygon fill="white" stroke="#bfbfbf" points="237.5,-67.5 237.5,-86.5 321.5,-86.5 321.5,-67.5 237.5,-67.5"/>
<text text-anchor="middle" x="279.5" y="-74.5" font-family="Helvetica,sans-Serif" font-size="10.00">vec_E&lt; Face &gt;</text>
</g>
<!-- Node4&#45;&gt;Node1 -->
<g id="edge3" class="edge"><title>Node4&#45;&gt;Node1</title>
<path fill="none" stroke="#9a32cd" stroke-dasharray="5,2" d="M267.664,-58.9037C258.92,-46.2729 247.38,-29.6041 240.473,-19.6273"/>
<polygon fill="#9a32cd" stroke="#9a32cd" points="264.861,-61.0041 273.431,-67.2338 270.617,-57.0196 264.861,-61.0041"/>
<text text-anchor="middle" x="271" y="-41" font-family="Helvetica,sans-Serif" font-size="10.00"> Vs_</text>
</g>
<!-- Node5 -->
<g id="node5" class="node"><title>Node5</title>
<polygon fill="white" stroke="#bfbfbf" points="339.5,-67.5 339.5,-86.5 427.5,-86.5 427.5,-67.5 339.5,-67.5"/>
<text text-anchor="middle" x="383.5" y="-74.5" font-family="Helvetica,sans-Serif" font-size="10.00">vec_E&lt; Vec3f &gt;</text>
</g>
<!-- Node5&#45;&gt;Node1 -->
<g id="edge4" class="edge"><title>Node5&#45;&gt;Node1</title>
<path fill="none" stroke="#9a32cd" stroke-dasharray="5,2" d="M354.344,-63.281C324.836,-50.4085 280.013,-30.8545 254.368,-19.6672"/>
<polygon fill="#9a32cd" stroke="#9a32cd" points="353.149,-66.578 363.714,-67.3685 355.948,-60.1619 353.149,-66.578"/>
<text text-anchor="middle" x="331" y="-41" font-family="Helvetica,sans-Serif" font-size="10.00"> obs_</text>
</g>
</g>
</svg>
