<?xml version="1.0" encoding="UTF-8" standalone="no"?>
<!DOCTYPE svg PUBLIC "-//W3C//DTD SVG 1.1//EN"
 "http://www.w3.org/Graphics/SVG/1.1/DTD/svg11.dtd">
<!-- Generated by graphviz version 2.38.0 (20140413.2041)
 -->
<!-- Title: MPL::env_cloud::get_succ Pages: 1 -->
<svg width="422pt" height="192pt"
 viewBox="0.00 0.00 422.00 192.00" xmlns="http://www.w3.org/2000/svg" xmlns:xlink="http://www.w3.org/1999/xlink">
<g id="graph0" class="graph" transform="scale(1 1) rotate(0) translate(4 188)">
<title>MPL::env_cloud::get_succ</title>
<polygon fill="white" stroke="none" points="-4,4 -4,-188 418,-188 418,4 -4,4"/>
<!-- Node0 -->
<g id="node1" class="node"><title>Node0</title>
<polygon fill="#bfbfbf" stroke="black" points="0,-88.5 0,-107.5 133,-107.5 133,-88.5 0,-88.5"/>
<text text-anchor="middle" x="66.5" y="-95.5" font-family="Helvetica,sans-Serif" font-size="10.00">MPL::env_cloud::get_succ</text>
</g>
<!-- Node1 -->
<g id="node2" class="node"><title>Node1</title>
<g id="a_node2"><a xlink:href="classPrimitive.html#ad169f643f0556872f140f16a9ca73270" target="_top" xlink:title="Return state at t. ">
<polygon fill="white" stroke="black" points="174,-164.5 174,-183.5 272,-183.5 272,-164.5 174,-164.5"/>
<text text-anchor="middle" x="223" y="-171.5" font-family="Helvetica,sans-Serif" font-size="10.00">Primitive::evaluate</text>
</a>
</g>
</g>
<!-- Node0&#45;&gt;Node1 -->
<g id="edge1" class="edge"><title>Node0&#45;&gt;Node1</title>
<path fill="none" stroke="midnightblue" d="M82.5584,-107.514C102.02,-119.56 137.19,-140.49 169,-155 173.436,-157.023 178.154,-158.979 182.878,-160.818"/>
<polygon fill="midnightblue" stroke="midnightblue" points="181.898,-164.188 192.491,-164.409 184.348,-157.631 181.898,-164.188"/>
</g>
<!-- Node2 -->
<g id="node3" class="node"><title>Node2</title>
<g id="a_node3"><a xlink:href="classPrimitive.html#aaadc309423410cb6117d86405364be5e" target="_top" xlink:title="Check if the max velocity magnitude is within the threshold. ">
<polygon fill="white" stroke="black" points="173.5,-126.5 173.5,-145.5 272.5,-145.5 272.5,-126.5 173.5,-126.5"/>
<text text-anchor="middle" x="223" y="-133.5" font-family="Helvetica,sans-Serif" font-size="10.00">Primitive::valid_vel</text>
</a>
</g>
</g>
<!-- Node0&#45;&gt;Node2 -->
<g id="edge2" class="edge"><title>Node0&#45;&gt;Node2</title>
<path fill="none" stroke="midnightblue" d="M106.487,-107.589C126.783,-112.581 151.793,-118.732 173.346,-124.033"/>
<polygon fill="midnightblue" stroke="midnightblue" points="172.747,-127.49 183.293,-126.48 174.419,-120.693 172.747,-127.49"/>
</g>
<!-- Node4 -->
<g id="node5" class="node"><title>Node4</title>
<g id="a_node5"><a xlink:href="classPrimitive.html#a48c2f7f89a284b641b9741e4def5928f" target="_top" xlink:title="Check if the max acceleration magnitude is within the threshold. ">
<polygon fill="white" stroke="black" points="172,-88.5 172,-107.5 274,-107.5 274,-88.5 172,-88.5"/>
<text text-anchor="middle" x="223" y="-95.5" font-family="Helvetica,sans-Serif" font-size="10.00">Primitive::valid_acc</text>
</a>
</g>
</g>
<!-- Node0&#45;&gt;Node4 -->
<g id="edge4" class="edge"><title>Node0&#45;&gt;Node4</title>
<path fill="none" stroke="midnightblue" d="M133.022,-98C142.565,-98 152.352,-98 161.783,-98"/>
<polygon fill="midnightblue" stroke="midnightblue" points="161.848,-101.5 171.848,-98 161.848,-94.5001 161.848,-101.5"/>
</g>
<!-- Node6 -->
<g id="node7" class="node"><title>Node6</title>
<g id="a_node7"><a xlink:href="classMPL_1_1env__base.html#a77a15578e412b42ba7eb4c64e44d9a4a" target="_top" xlink:title="Genegrate Key from state. ">
<polygon fill="white" stroke="black" points="169,-39 169,-69 277,-69 277,-39 169,-39"/>
<text text-anchor="start" x="177" y="-57" font-family="Helvetica,sans-Serif" font-size="10.00">MPL::env_base&lt; 3 &gt;</text>
<text text-anchor="middle" x="223" y="-46" font-family="Helvetica,sans-Serif" font-size="10.00">::state_to_idx</text>
</a>
</g>
</g>
<!-- Node0&#45;&gt;Node6 -->
<g id="edge6" class="edge"><title>Node0&#45;&gt;Node6</title>
<path fill="none" stroke="midnightblue" d="M101.024,-88.4527C118.108,-83.5872 139.447,-77.5102 159.426,-71.8204"/>
<polygon fill="midnightblue" stroke="midnightblue" points="160.441,-75.1706 169.1,-69.0654 158.524,-68.4383 160.441,-75.1706"/>
</g>
<!-- Node7 -->
<g id="node8" class="node"><title>Node7</title>
<g id="a_node8"><a xlink:href="classPrimitive.html#a74a46674e3a0cc1fdea44c4ce506f5cb" target="_top" xlink:title="Return total efforts of primitive for the given duration: . ">
<polygon fill="white" stroke="black" points="190,-0.5 190,-19.5 256,-19.5 256,-0.5 190,-0.5"/>
<text text-anchor="middle" x="223" y="-7.5" font-family="Helvetica,sans-Serif" font-size="10.00">Primitive::J</text>
</a>
</g>
</g>
<!-- Node0&#45;&gt;Node7 -->
<g id="edge7" class="edge"><title>Node0&#45;&gt;Node7</title>
<path fill="none" stroke="midnightblue" d="M79.7423,-88.4362C98.2621,-74.2916 134.869,-47.5767 169,-30 173.635,-27.6129 178.624,-25.3567 183.62,-23.2797"/>
<polygon fill="midnightblue" stroke="midnightblue" points="185.132,-26.446 193.148,-19.5188 182.562,-19.9349 185.132,-26.446"/>
</g>
<!-- Node3 -->
<g id="node4" class="node"><title>Node3</title>
<g id="a_node4"><a xlink:href="classPrimitive.html#a6c369ebe499544a832c88b6fc4ada0e4" target="_top" xlink:title="Return max velocity along k&#45;th dimension. ">
<polygon fill="white" stroke="black" points="314.5,-126.5 314.5,-145.5 412.5,-145.5 412.5,-126.5 314.5,-126.5"/>
<text text-anchor="middle" x="363.5" y="-133.5" font-family="Helvetica,sans-Serif" font-size="10.00">Primitive::max_vel</text>
</a>
</g>
</g>
<!-- Node2&#45;&gt;Node3 -->
<g id="edge3" class="edge"><title>Node2&#45;&gt;Node3</title>
<path fill="none" stroke="midnightblue" d="M272.83,-136C282.877,-136 293.553,-136 303.904,-136"/>
<polygon fill="midnightblue" stroke="midnightblue" points="304.111,-139.5 314.111,-136 304.111,-132.5 304.111,-139.5"/>
</g>
<!-- Node5 -->
<g id="node6" class="node"><title>Node5</title>
<g id="a_node6"><a xlink:href="classPrimitive.html#abc3547fefaf5d3ea5421c7a4e8f9364c" target="_top" xlink:title="Return max accleration along k&#45;th dimension. ">
<polygon fill="white" stroke="black" points="313,-88.5 313,-107.5 414,-107.5 414,-88.5 313,-88.5"/>
<text text-anchor="middle" x="363.5" y="-95.5" font-family="Helvetica,sans-Serif" font-size="10.00">Primitive::max_acc</text>
</a>
</g>
</g>
<!-- Node4&#45;&gt;Node5 -->
<g id="edge5" class="edge"><title>Node4&#45;&gt;Node5</title>
<path fill="none" stroke="midnightblue" d="M274.002,-98C283.22,-98 292.932,-98 302.412,-98"/>
<polygon fill="midnightblue" stroke="midnightblue" points="302.572,-101.5 312.572,-98 302.572,-94.5001 302.572,-101.5"/>
</g>
</g>
</svg>
