<?xml version="1.0" encoding="UTF-8" standalone="no"?>
<!DOCTYPE svg PUBLIC "-//W3C//DTD SVG 1.1//EN"
 "http://www.w3.org/Graphics/SVG/1.1/DTD/svg11.dtd">
<!-- Generated by graphviz version 2.38.0 (20140413.2041)
 -->
<!-- Title: Primitive::evaluate Pages: 1 -->
<svg width="453pt" height="180pt"
 viewBox="0.00 0.00 453.00 180.00" xmlns="http://www.w3.org/2000/svg" xmlns:xlink="http://www.w3.org/1999/xlink">
<g id="graph0" class="graph" transform="scale(1 1) rotate(0) translate(4 176)">
<title>Primitive::evaluate</title>
<polygon fill="white" stroke="none" points="-4,4 -4,-176 449,-176 449,4 -4,4"/>
<!-- Node1 -->
<g id="node1" class="node"><title>Node1</title>
<polygon fill="#bfbfbf" stroke="black" points="0,-95.5 0,-114.5 98,-114.5 98,-95.5 0,-95.5"/>
<text text-anchor="middle" x="49" y="-102.5" font-family="Helvetica,sans-Serif" font-size="10.00">Primitive::evaluate</text>
</g>
<!-- Node2 -->
<g id="node2" class="node"><title>Node2</title>
<g id="a_node2"><a xlink:href="classMPL_1_1env__cloud.html#a4a21126df924cfb1cd44ecafff638934" target="_top" xlink:title="Get successor. ">
<polygon fill="white" stroke="black" points="134,-152.5 134,-171.5 267,-171.5 267,-152.5 134,-152.5"/>
<text text-anchor="middle" x="200.5" y="-159.5" font-family="Helvetica,sans-Serif" font-size="10.00">MPL::env_cloud::get_succ</text>
</a>
</g>
</g>
<!-- Node1&#45;&gt;Node2 -->
<g id="edge1" class="edge"><title>Node1&#45;&gt;Node2</title>
<path fill="none" stroke="midnightblue" d="M78.3952,-119.066C94.4763,-126.721 115.099,-136.024 134,-143 143.331,-146.444 153.59,-149.673 163.164,-152.458"/>
<polygon fill="midnightblue" stroke="midnightblue" points="79.553,-115.738 69.0252,-114.548 76.5127,-122.044 79.553,-115.738"/>
</g>
<!-- Node3 -->
<g id="node3" class="node"><title>Node3</title>
<g id="a_node3"><a xlink:href="classMPL_1_1env__map.html#a14a186ecbe34ce5c1751959f6c35594c" target="_top" xlink:title="Get successor. ">
<polygon fill="white" stroke="black" points="136.5,-114.5 136.5,-133.5 264.5,-133.5 264.5,-114.5 136.5,-114.5"/>
<text text-anchor="middle" x="200.5" y="-121.5" font-family="Helvetica,sans-Serif" font-size="10.00">MPL::env_map::get_succ</text>
</a>
</g>
</g>
<!-- Node1&#45;&gt;Node3 -->
<g id="edge2" class="edge"><title>Node1&#45;&gt;Node3</title>
<path fill="none" stroke="midnightblue" d="M108.054,-112.378C117.362,-113.561 127.034,-114.79 136.452,-115.987"/>
<polygon fill="midnightblue" stroke="midnightblue" points="108.487,-108.905 98.1257,-111.116 107.605,-115.849 108.487,-108.905"/>
</g>
<!-- Node4 -->
<g id="node4" class="node"><title>Node4</title>
<g id="a_node4"><a xlink:href="primitive__util_8h.html#a7d2e2f194833d14bfd63575eea70e356" target="_top" xlink:title="Sample N ellipsoids along the primitive. ">
<polygon fill="white" stroke="black" points="153.5,-76.5 153.5,-95.5 247.5,-95.5 247.5,-76.5 153.5,-76.5"/>
<text text-anchor="middle" x="200.5" y="-83.5" font-family="Helvetica,sans-Serif" font-size="10.00">sample_ellipsoids</text>
</a>
</g>
</g>
<!-- Node1&#45;&gt;Node4 -->
<g id="edge3" class="edge"><title>Node1&#45;&gt;Node4</title>
<path fill="none" stroke="midnightblue" d="M108.274,-97.5939C123.191,-95.6982 139.029,-93.6853 153.248,-91.8782"/>
<polygon fill="midnightblue" stroke="midnightblue" points="107.605,-94.1508 98.1257,-98.8837 108.487,-101.095 107.605,-94.1508"/>
</g>
<!-- Node6 -->
<g id="node6" class="node"><title>Node6</title>
<g id="a_node6"><a xlink:href="classPrimitive.html#a05f39d37c30257fe531ff264039d4bb8" target="_top" xlink:title="Sample N states using uniformed time. ">
<polygon fill="white" stroke="black" points="154.5,-38.5 154.5,-57.5 246.5,-57.5 246.5,-38.5 154.5,-38.5"/>
<text text-anchor="middle" x="200.5" y="-45.5" font-family="Helvetica,sans-Serif" font-size="10.00">Primitive::sample</text>
</a>
</g>
</g>
<!-- Node1&#45;&gt;Node6 -->
<g id="edge5" class="edge"><title>Node1&#45;&gt;Node6</title>
<path fill="none" stroke="midnightblue" d="M78.3952,-90.9343C94.4763,-83.2793 115.099,-73.9763 134,-67 143.331,-63.5562 153.59,-60.3267 163.164,-57.5417"/>
<polygon fill="midnightblue" stroke="midnightblue" points="76.5127,-87.9563 69.0252,-95.4521 79.553,-94.2616 76.5127,-87.9563"/>
</g>
<!-- Node5 -->
<g id="node5" class="node"><title>Node5</title>
<g id="a_node5"><a xlink:href="classDecompUtil.html#af224bc7e00336b60699b82dc51a2345a" target="_top" xlink:title="Check if a primitive is inside the SFC from . ">
<polygon fill="white" stroke="black" points="323.5,-76.5 323.5,-95.5 424.5,-95.5 424.5,-76.5 323.5,-76.5"/>
<text text-anchor="middle" x="374" y="-83.5" font-family="Helvetica,sans-Serif" font-size="10.00">DecompUtil::isFree</text>
</a>
</g>
</g>
<!-- Node4&#45;&gt;Node5 -->
<g id="edge4" class="edge"><title>Node4&#45;&gt;Node5</title>
<path fill="none" stroke="midnightblue" d="M258.013,-86C279.083,-86 302.828,-86 323.247,-86"/>
<polygon fill="midnightblue" stroke="midnightblue" points="257.91,-82.5001 247.91,-86 257.91,-89.5001 257.91,-82.5001"/>
</g>
<!-- Node6&#45;&gt;Node5 -->
<g id="edge7" class="edge"><title>Node6&#45;&gt;Node5</title>
<path fill="none" stroke="midnightblue" d="M254.541,-59.7526C278.791,-65.1258 307.147,-71.4086 330.035,-76.4799"/>
<polygon fill="midnightblue" stroke="midnightblue" points="255.297,-56.3352 244.777,-57.589 253.783,-63.1695 255.297,-56.3352"/>
</g>
<!-- Node7 -->
<g id="node7" class="node"><title>Node7</title>
<g id="a_node7"><a xlink:href="classMPL_1_1env__map.html#a7229298e89baa8b1acb1ed1affda30a4" target="_top" xlink:title="Check if the primitive is in free space. ">
<polygon fill="white" stroke="black" points="315,-38.5 315,-57.5 433,-57.5 433,-38.5 315,-38.5"/>
<text text-anchor="middle" x="374" y="-45.5" font-family="Helvetica,sans-Serif" font-size="10.00">MPL::env_map::is_free</text>
</a>
</g>
</g>
<!-- Node6&#45;&gt;Node7 -->
<g id="edge6" class="edge"><title>Node6&#45;&gt;Node7</title>
<path fill="none" stroke="midnightblue" d="M256.657,-48C275.292,-48 296.145,-48 314.994,-48"/>
<polygon fill="midnightblue" stroke="midnightblue" points="256.56,-44.5001 246.56,-48 256.56,-51.5001 256.56,-44.5001"/>
</g>
<!-- Node8 -->
<g id="node8" class="node"><title>Node8</title>
<g id="a_node8"><a xlink:href="classMPMapUtil.html#a2624724101f3ba200ebb27982691f299" target="_top" xlink:title="Get linked voxels. ">
<polygon fill="white" stroke="black" points="303,-0.5 303,-19.5 445,-19.5 445,-0.5 303,-0.5"/>
<text text-anchor="middle" x="374" y="-7.5" font-family="Helvetica,sans-Serif" font-size="10.00">MPMapUtil::getLinkedNodes</text>
</a>
</g>
</g>
<!-- Node6&#45;&gt;Node8 -->
<g id="edge8" class="edge"><title>Node6&#45;&gt;Node8</title>
<path fill="none" stroke="midnightblue" d="M254.541,-36.2474C278.791,-30.8742 307.147,-24.5914 330.035,-19.5201"/>
<polygon fill="midnightblue" stroke="midnightblue" points="253.783,-32.8305 244.777,-38.411 255.297,-39.6648 253.783,-32.8305"/>
</g>
</g>
</svg>
