<?xml version="1.0" encoding="UTF-8" standalone="no"?>
<!DOCTYPE svg PUBLIC "-//W3C//DTD SVG 1.1//EN"
 "http://www.w3.org/Graphics/SVG/1.1/DTD/svg11.dtd">
<!-- Generated by graphviz version 2.38.0 (20140413.2041)
 -->
<!-- Title: MPL::env_map::get_succ Pages: 1 -->
<svg width="427pt" height="268pt"
 viewBox="0.00 0.00 427.00 268.00" xmlns="http://www.w3.org/2000/svg" xmlns:xlink="http://www.w3.org/1999/xlink">
<g id="graph0" class="graph" transform="scale(1 1) rotate(0) translate(4 264)">
<title>MPL::env_map::get_succ</title>
<polygon fill="white" stroke="none" points="-4,4 -4,-264 423,-264 423,4 -4,4"/>
<!-- Node0 -->
<g id="node1" class="node"><title>Node0</title>
<polygon fill="#bfbfbf" stroke="black" points="0,-126.5 0,-145.5 128,-145.5 128,-126.5 0,-126.5"/>
<text text-anchor="middle" x="64" y="-133.5" font-family="Helvetica,sans-Serif" font-size="10.00">MPL::env_map::get_succ</text>
</g>
<!-- Node1 -->
<g id="node2" class="node"><title>Node1</title>
<g id="a_node2"><a xlink:href="classPrimitive.html#ad169f643f0556872f140f16a9ca73270" target="_top" xlink:title="Return state at t. ">
<polygon fill="white" stroke="black" points="174,-240.5 174,-259.5 272,-259.5 272,-240.5 174,-240.5"/>
<text text-anchor="middle" x="223" y="-247.5" font-family="Helvetica,sans-Serif" font-size="10.00">Primitive::evaluate</text>
</a>
</g>
</g>
<!-- Node0&#45;&gt;Node1 -->
<g id="edge1" class="edge"><title>Node0&#45;&gt;Node1</title>
<path fill="none" stroke="midnightblue" d="M72.4008,-145.539C87.5796,-164.485 124.175,-207.091 164,-231 167.428,-233.058 171.106,-234.922 174.885,-236.605"/>
<polygon fill="midnightblue" stroke="midnightblue" points="173.819,-239.948 184.403,-240.421 176.424,-233.451 173.819,-239.948"/>
</g>
<!-- Node2 -->
<g id="node3" class="node"><title>Node2</title>
<g id="a_node3"><a xlink:href="classPrimitive.html#aaadc309423410cb6117d86405364be5e" target="_top" xlink:title="Check if the max velocity magnitude is within the threshold. ">
<polygon fill="white" stroke="black" points="173.5,-202.5 173.5,-221.5 272.5,-221.5 272.5,-202.5 173.5,-202.5"/>
<text text-anchor="middle" x="223" y="-209.5" font-family="Helvetica,sans-Serif" font-size="10.00">Primitive::valid_vel</text>
</a>
</g>
</g>
<!-- Node0&#45;&gt;Node2 -->
<g id="edge2" class="edge"><title>Node0&#45;&gt;Node2</title>
<path fill="none" stroke="midnightblue" d="M79.59,-145.683C98.4693,-157.908 132.664,-179.026 164,-193 168.777,-195.13 173.868,-197.145 178.974,-199.01"/>
<polygon fill="midnightblue" stroke="midnightblue" points="178.139,-202.426 188.734,-202.403 180.438,-195.814 178.139,-202.426"/>
</g>
<!-- Node4 -->
<g id="node5" class="node"><title>Node4</title>
<g id="a_node5"><a xlink:href="classPrimitive.html#a48c2f7f89a284b641b9741e4def5928f" target="_top" xlink:title="Check if the max acceleration magnitude is within the threshold. ">
<polygon fill="white" stroke="black" points="172,-164.5 172,-183.5 274,-183.5 274,-164.5 172,-164.5"/>
<text text-anchor="middle" x="223" y="-171.5" font-family="Helvetica,sans-Serif" font-size="10.00">Primitive::valid_acc</text>
</a>
</g>
</g>
<!-- Node0&#45;&gt;Node4 -->
<g id="edge4" class="edge"><title>Node0&#45;&gt;Node4</title>
<path fill="none" stroke="midnightblue" d="M104.618,-145.589C125.336,-150.604 150.888,-156.788 172.856,-162.105"/>
<polygon fill="midnightblue" stroke="midnightblue" points="172.124,-165.529 182.667,-164.48 173.771,-158.726 172.124,-165.529"/>
</g>
<!-- Node6 -->
<g id="node7" class="node"><title>Node6</title>
<g id="a_node7"><a xlink:href="classPrimitive.html#a6ae6f3e365cc37c25033f135cb0df750" target="_top" xlink:title="Check if the max jerk magnitude is within the threshold. ">
<polygon fill="white" stroke="black" points="174.5,-126.5 174.5,-145.5 271.5,-145.5 271.5,-126.5 174.5,-126.5"/>
<text text-anchor="middle" x="223" y="-133.5" font-family="Helvetica,sans-Serif" font-size="10.00">Primitive::valid_jrk</text>
</a>
</g>
</g>
<!-- Node0&#45;&gt;Node6 -->
<g id="edge6" class="edge"><title>Node0&#45;&gt;Node6</title>
<path fill="none" stroke="midnightblue" d="M128.405,-136C140.253,-136 152.578,-136 164.245,-136"/>
<polygon fill="midnightblue" stroke="midnightblue" points="164.299,-139.5 174.299,-136 164.299,-132.5 164.299,-139.5"/>
</g>
<!-- Node8 -->
<g id="node9" class="node"><title>Node8</title>
<g id="a_node9"><a xlink:href="classMPL_1_1env__base.html#a77a15578e412b42ba7eb4c64e44d9a4a" target="_top" xlink:title="Genegrate Key from state. ">
<polygon fill="white" stroke="black" points="166.5,-77 166.5,-107 279.5,-107 279.5,-77 166.5,-77"/>
<text text-anchor="start" x="174.5" y="-95" font-family="Helvetica,sans-Serif" font-size="10.00">MPL::env_base::state</text>
<text text-anchor="middle" x="223" y="-84" font-family="Helvetica,sans-Serif" font-size="10.00">_to_idx</text>
</a>
</g>
</g>
<!-- Node0&#45;&gt;Node8 -->
<g id="edge8" class="edge"><title>Node0&#45;&gt;Node8</title>
<path fill="none" stroke="midnightblue" d="M99.0667,-126.453C116.427,-121.587 138.111,-115.51 158.413,-109.82"/>
<polygon fill="midnightblue" stroke="midnightblue" points="159.56,-113.134 168.244,-107.065 157.671,-106.394 159.56,-113.134"/>
</g>
<!-- Node9 -->
<g id="node10" class="node"><title>Node9</title>
<g id="a_node10"><a xlink:href="classMPL_1_1env__map.html#a257df36534163eef0292854d38477a6b" target="_top" xlink:title="Check if a point is in free space. ">
<polygon fill="white" stroke="black" points="164,-38.5 164,-57.5 282,-57.5 282,-38.5 164,-38.5"/>
<text text-anchor="middle" x="223" y="-45.5" font-family="Helvetica,sans-Serif" font-size="10.00">MPL::env_map::is_free</text>
</a>
</g>
</g>
<!-- Node0&#45;&gt;Node9 -->
<g id="edge9" class="edge"><title>Node0&#45;&gt;Node9</title>
<path fill="none" stroke="midnightblue" d="M76.8352,-126.285C94.7642,-111.948 130.299,-84.99 164,-68 168.934,-65.5126 174.25,-63.2121 179.59,-61.1248"/>
<polygon fill="midnightblue" stroke="midnightblue" points="180.978,-64.3437 189.152,-57.6037 178.559,-57.7749 180.978,-64.3437"/>
</g>
<!-- Node10 -->
<g id="node11" class="node"><title>Node10</title>
<g id="a_node11"><a xlink:href="classPrimitive.html#a74a46674e3a0cc1fdea44c4ce506f5cb" target="_top" xlink:title="Return total efforts of primitive for the given duration: . ">
<polygon fill="white" stroke="black" points="190,-0.5 190,-19.5 256,-19.5 256,-0.5 190,-0.5"/>
<text text-anchor="middle" x="223" y="-7.5" font-family="Helvetica,sans-Serif" font-size="10.00">Primitive::J</text>
</a>
</g>
</g>
<!-- Node0&#45;&gt;Node10 -->
<g id="edge10" class="edge"><title>Node0&#45;&gt;Node10</title>
<path fill="none" stroke="midnightblue" d="M71.2339,-126.493C85.3012,-105.766 121.61,-56.194 164,-29 169.028,-25.7746 174.654,-23.0483 180.371,-20.7578"/>
<polygon fill="midnightblue" stroke="midnightblue" points="181.761,-23.9777 189.989,-17.3032 179.394,-17.3897 181.761,-23.9777"/>
</g>
<!-- Node3 -->
<g id="node4" class="node"><title>Node3</title>
<g id="a_node4"><a xlink:href="classPrimitive.html#a6c369ebe499544a832c88b6fc4ada0e4" target="_top" xlink:title="Return max velocity along k&#45;th dimension. ">
<polygon fill="white" stroke="black" points="319.5,-202.5 319.5,-221.5 417.5,-221.5 417.5,-202.5 319.5,-202.5"/>
<text text-anchor="middle" x="368.5" y="-209.5" font-family="Helvetica,sans-Serif" font-size="10.00">Primitive::max_vel</text>
</a>
</g>
</g>
<!-- Node2&#45;&gt;Node3 -->
<g id="edge3" class="edge"><title>Node2&#45;&gt;Node3</title>
<path fill="none" stroke="midnightblue" d="M272.583,-212C284.398,-212 297.152,-212 309.361,-212"/>
<polygon fill="midnightblue" stroke="midnightblue" points="309.455,-215.5 319.455,-212 309.455,-208.5 309.455,-215.5"/>
</g>
<!-- Node5 -->
<g id="node6" class="node"><title>Node5</title>
<g id="a_node6"><a xlink:href="classPrimitive.html#abc3547fefaf5d3ea5421c7a4e8f9364c" target="_top" xlink:title="Return max accleration along k&#45;th dimension. ">
<polygon fill="white" stroke="black" points="318,-164.5 318,-183.5 419,-183.5 419,-164.5 318,-164.5"/>
<text text-anchor="middle" x="368.5" y="-171.5" font-family="Helvetica,sans-Serif" font-size="10.00">Primitive::max_acc</text>
</a>
</g>
</g>
<!-- Node4&#45;&gt;Node5 -->
<g id="edge5" class="edge"><title>Node4&#45;&gt;Node5</title>
<path fill="none" stroke="midnightblue" d="M274.189,-174C284.956,-174 296.438,-174 307.532,-174"/>
<polygon fill="midnightblue" stroke="midnightblue" points="307.581,-177.5 317.581,-174 307.581,-170.5 307.581,-177.5"/>
</g>
<!-- Node7 -->
<g id="node8" class="node"><title>Node7</title>
<g id="a_node8"><a xlink:href="classPrimitive.html#a0a5a1461298a7f3ebd653faedd6866e2" target="_top" xlink:title="Return max jerk along k&#45;th dimension. ">
<polygon fill="white" stroke="black" points="321,-126.5 321,-145.5 416,-145.5 416,-126.5 321,-126.5"/>
<text text-anchor="middle" x="368.5" y="-133.5" font-family="Helvetica,sans-Serif" font-size="10.00">Primitive::max_jrk</text>
</a>
</g>
</g>
<!-- Node6&#45;&gt;Node7 -->
<g id="edge7" class="edge"><title>Node6&#45;&gt;Node7</title>
<path fill="none" stroke="midnightblue" d="M271.783,-136C284.264,-136 297.838,-136 310.736,-136"/>
<polygon fill="midnightblue" stroke="midnightblue" points="310.9,-139.5 320.9,-136 310.9,-132.5 310.9,-139.5"/>
</g>
</g>
</svg>
