<?xml version="1.0" encoding="UTF-8" standalone="no"?>
<!DOCTYPE svg PUBLIC "-//W3C//DTD SVG 1.1//EN"
 "http://www.w3.org/Graphics/SVG/1.1/DTD/svg11.dtd">
<!-- Generated by graphviz version 2.38.0 (20140413.2041)
 -->
<!-- Title: PolySolver&lt; Dim &gt; Pages: 1 -->
<svg width="215pt" height="117pt"
 viewBox="0.00 0.00 215.00 117.00" xmlns="http://www.w3.org/2000/svg" xmlns:xlink="http://www.w3.org/1999/xlink">
<g id="graph0" class="graph" transform="scale(1 1) rotate(0) translate(4 113)">
<title>PolySolver&lt; Dim &gt;</title>
<polygon fill="white" stroke="none" points="-4,4 -4,-113 211,-113 211,4 -4,4"/>
<!-- Node1 -->
<g id="node1" class="node"><title>Node1</title>
<polygon fill="#bfbfbf" stroke="black" points="14.5,-0.5 14.5,-19.5 114.5,-19.5 114.5,-0.5 14.5,-0.5"/>
<text text-anchor="middle" x="64.5" y="-7.5" font-family="Helvetica,sans-Serif" font-size="10.00">PolySolver&lt; Dim &gt;</text>
</g>
<!-- Node2 -->
<g id="node2" class="node"><title>Node2</title>
<g id="a_node2"><a xlink:href="classint.html" target="_top" xlink:title="int">
<polygon fill="white" stroke="black" points="0,-84 0,-103 29,-103 29,-84 0,-84"/>
<text text-anchor="middle" x="14.5" y="-91" font-family="Helvetica,sans-Serif" font-size="10.00">int</text>
</a>
</g>
</g>
<!-- Node2&#45;&gt;Node1 -->
<g id="edge1" class="edge"><title>Node2&#45;&gt;Node1</title>
<path fill="none" stroke="#9a32cd" stroke-dasharray="5,2" d="M23.4193,-74.896C29.1032,-64.048 36.8204,-49.9715 44.5,-38 48.5317,-31.7152 53.5317,-24.9652 57.5237,-19.7864"/>
<polygon fill="#9a32cd" stroke="#9a32cd" points="20.3015,-73.3056 18.8304,-83.7978 26.5235,-76.5131 20.3015,-73.3056"/>
<text text-anchor="middle" x="52.5" y="-52" font-family="Helvetica,sans-Serif" font-size="10.00"> N_</text>
<text text-anchor="middle" x="52.5" y="-41" font-family="Helvetica,sans-Serif" font-size="10.00">R_</text>
</g>
<!-- Node3 -->
<g id="node3" class="node"><title>Node3</title>
<g id="a_node3"><a xlink:href="classbool.html" target="_top" xlink:title="bool">
<polygon fill="white" stroke="black" points="47,-84 47,-103 82,-103 82,-84 47,-84"/>
<text text-anchor="middle" x="64.5" y="-91" font-family="Helvetica,sans-Serif" font-size="10.00">bool</text>
</a>
</g>
</g>
<!-- Node3&#45;&gt;Node1 -->
<g id="edge2" class="edge"><title>Node3&#45;&gt;Node1</title>
<path fill="none" stroke="#9a32cd" stroke-dasharray="5,2" d="M64.5,-73.3762C64.5,-56.3977 64.5,-32.3673 64.5,-19.6592"/>
<polygon fill="#9a32cd" stroke="#9a32cd" points="61.0001,-73.778 64.5,-83.7781 68.0001,-73.7781 61.0001,-73.778"/>
<text text-anchor="middle" x="82" y="-46.5" font-family="Helvetica,sans-Serif" font-size="10.00"> debug_</text>
</g>
<!-- Node4 -->
<g id="node4" class="node"><title>Node4</title>
<polygon fill="white" stroke="#bfbfbf" points="100,-78.5 100,-108.5 207,-108.5 207,-78.5 100,-78.5"/>
<text text-anchor="start" x="108" y="-96.5" font-family="Helvetica,sans-Serif" font-size="10.00">shared_ptr&lt; PolyTraj</text>
<text text-anchor="middle" x="153.5" y="-85.5" font-family="Helvetica,sans-Serif" font-size="10.00">&lt; Dim &gt; &gt;</text>
</g>
<!-- Node4&#45;&gt;Node1 -->
<g id="edge3" class="edge"><title>Node4&#45;&gt;Node1</title>
<path fill="none" stroke="#9a32cd" stroke-dasharray="5,2" d="M135.25,-70.4191C126.199,-60.0586 114.803,-47.8537 103.5,-38 95.6785,-31.1816 86.1086,-24.5343 78.4061,-19.5415"/>
<polygon fill="#9a32cd" stroke="#9a32cd" points="132.797,-72.9347 141.96,-78.2524 138.113,-68.3808 132.797,-72.9347"/>
<text text-anchor="middle" x="138.5" y="-46.5" font-family="Helvetica,sans-Serif" font-size="10.00"> ptraj_</text>
</g>
</g>
</svg>
