<?xml version="1.0" encoding="UTF-8" standalone="no"?>
<!DOCTYPE svg PUBLIC "-//W3C//DTD SVG 1.1//EN"
 "http://www.w3.org/Graphics/SVG/1.1/DTD/svg11.dtd">
<!-- Generated by graphviz version 2.38.0 (20140413.2041)
 -->
<!-- Title: Primitive::valid_vel Pages: 1 -->
<svg width="276pt" height="66pt"
 viewBox="0.00 0.00 276.00 66.00" xmlns="http://www.w3.org/2000/svg" xmlns:xlink="http://www.w3.org/1999/xlink">
<g id="graph0" class="graph" transform="scale(1 1) rotate(0) translate(4 62)">
<title>Primitive::valid_vel</title>
<polygon fill="white" stroke="none" points="-4,4 -4,-62 272,-62 272,4 -4,4"/>
<!-- Node28 -->
<g id="node1" class="node"><title>Node28</title>
<polygon fill="#bfbfbf" stroke="black" points="0,-19.5 0,-38.5 99,-38.5 99,-19.5 0,-19.5"/>
<text text-anchor="middle" x="49.5" y="-26.5" font-family="Helvetica,sans-Serif" font-size="10.00">Primitive::valid_vel</text>
</g>
<!-- Node29 -->
<g id="node2" class="node"><title>Node29</title>
<g id="a_node2"><a xlink:href="classMPL_1_1env__cloud.html#a4a21126df924cfb1cd44ecafff638934" target="_top" xlink:title="Get successor. ">
<polygon fill="white" stroke="black" points="135,-38.5 135,-57.5 268,-57.5 268,-38.5 135,-38.5"/>
<text text-anchor="middle" x="201.5" y="-45.5" font-family="Helvetica,sans-Serif" font-size="10.00">MPL::env_cloud::get_succ</text>
</a>
</g>
</g>
<!-- Node28&#45;&gt;Node29 -->
<g id="edge1" class="edge"><title>Node28&#45;&gt;Node29</title>
<path fill="none" stroke="midnightblue" d="M109.269,-36.444C117.663,-37.5073 126.343,-38.6067 134.859,-39.6854"/>
<polygon fill="midnightblue" stroke="midnightblue" points="109.561,-32.9532 99.2007,-35.1688 108.682,-39.8977 109.561,-32.9532"/>
</g>
<!-- Node30 -->
<g id="node3" class="node"><title>Node30</title>
<g id="a_node3"><a xlink:href="classMPL_1_1env__map.html#a14a186ecbe34ce5c1751959f6c35594c" target="_top" xlink:title="Get successor. ">
<polygon fill="white" stroke="black" points="137.5,-0.5 137.5,-19.5 265.5,-19.5 265.5,-0.5 137.5,-0.5"/>
<text text-anchor="middle" x="201.5" y="-7.5" font-family="Helvetica,sans-Serif" font-size="10.00">MPL::env_map::get_succ</text>
</a>
</g>
</g>
<!-- Node28&#45;&gt;Node30 -->
<g id="edge2" class="edge"><title>Node28&#45;&gt;Node30</title>
<path fill="none" stroke="midnightblue" d="M109.371,-21.543C118.533,-20.3825 128.032,-19.1793 137.286,-18.0072"/>
<polygon fill="midnightblue" stroke="midnightblue" points="108.682,-18.1023 99.2007,-22.8312 109.561,-25.0468 108.682,-18.1023"/>
</g>
</g>
</svg>
