<?xml version="1.0" encoding="UTF-8" standalone="no"?>
<!DOCTYPE svg PUBLIC "-//W3C//DTD SVG 1.1//EN"
 "http://www.w3.org/Graphics/SVG/1.1/DTD/svg11.dtd">
<!-- Generated by graphviz version 2.38.0 (20140413.2041)
 -->
<!-- Title: MPCloudUtil Pages: 1 -->
<svg width="471pt" height="281pt"
 viewBox="0.00 0.00 471.00 281.00" xmlns="http://www.w3.org/2000/svg" xmlns:xlink="http://www.w3.org/1999/xlink">
<g id="graph0" class="graph" transform="scale(1 1) rotate(0) translate(4 277)">
<title>MPCloudUtil</title>
<polygon fill="white" stroke="none" points="-4,4 -4,-277 467,-277 467,4 -4,4"/>
<!-- Node2 -->
<g id="node1" class="node"><title>Node2</title>
<polygon fill="#bfbfbf" stroke="black" points="391,-126.5 391,-145.5 463,-145.5 463,-126.5 391,-126.5"/>
<text text-anchor="middle" x="427" y="-133.5" font-family="Helvetica,sans-Serif" font-size="10.00">MPCloudUtil</text>
</g>
<!-- Node3 -->
<g id="node2" class="node"><title>Node3</title>
<g id="a_node2"><a xlink:href="classMPBaseUtil.html" target="_top" xlink:title="MPBaseUtil\&lt; 3 \&gt;">
<polygon fill="white" stroke="black" points="262,-126.5 262,-145.5 354,-145.5 354,-126.5 262,-126.5"/>
<text text-anchor="middle" x="308" y="-133.5" font-family="Helvetica,sans-Serif" font-size="10.00">MPBaseUtil&lt; 3 &gt;</text>
</a>
</g>
</g>
<!-- Node3&#45;&gt;Node2 -->
<g id="edge1" class="edge"><title>Node3&#45;&gt;Node2</title>
<path fill="none" stroke="midnightblue" d="M364.286,-136C373.266,-136 382.347,-136 390.68,-136"/>
<polygon fill="midnightblue" stroke="midnightblue" points="364.235,-132.5 354.235,-136 364.235,-139.5 364.235,-132.5"/>
</g>
<!-- Node4 -->
<g id="node3" class="node"><title>Node4</title>
<g id="a_node3"><a xlink:href="classdouble.html" target="_top" xlink:title="double">
<polygon fill="white" stroke="black" points="52,-252.5 52,-271.5 97,-271.5 97,-252.5 52,-252.5"/>
<text text-anchor="middle" x="74.5" y="-259.5" font-family="Helvetica,sans-Serif" font-size="10.00">double</text>
</a>
</g>
</g>
<!-- Node4&#45;&gt;Node3 -->
<g id="edge2" class="edge"><title>Node4&#45;&gt;Node3</title>
<path fill="none" stroke="#9a32cd" stroke-dasharray="5,2" d="M107.428,-260.912C143.38,-258.299 202.224,-249.719 244,-222 273.61,-202.353 294.243,-163.802 302.708,-145.754"/>
<polygon fill="#9a32cd" stroke="#9a32cd" points="106.817,-257.443 97.0492,-261.546 107.244,-264.43 106.817,-257.443"/>
<text text-anchor="middle" x="205.5" y="-265" font-family="Helvetica,sans-Serif" font-size="10.00"> max_t_</text>
<text text-anchor="middle" x="205.5" y="-254" font-family="Helvetica,sans-Serif" font-size="10.00">epsilon_</text>
</g>
<!-- Node5 -->
<g id="node4" class="node"><title>Node5</title>
<g id="a_node4"><a xlink:href="classvec__E_3_01Waypoint_3_01Dim_01_4_01_4.html" target="_top" xlink:title="vec_E\&lt; Waypoint\&lt; Dim \&gt; \&gt;">
<polygon fill="white" stroke="black" points="4.5,-214.5 4.5,-233.5 144.5,-233.5 144.5,-214.5 4.5,-214.5"/>
<text text-anchor="middle" x="74.5" y="-221.5" font-family="Helvetica,sans-Serif" font-size="10.00">vec_E&lt; Waypoint&lt; Dim &gt; &gt;</text>
</a>
</g>
</g>
<!-- Node5&#45;&gt;Node3 -->
<g id="edge3" class="edge"><title>Node5&#45;&gt;Node3</title>
<path fill="none" stroke="#9a32cd" stroke-dasharray="5,2" d="M141.931,-212.34C173.73,-205.348 211.8,-194.867 244,-180 263.622,-170.941 283.638,-155.727 295.692,-145.776"/>
<polygon fill="#9a32cd" stroke="#9a32cd" points="140.893,-208.983 131.842,-214.489 142.352,-215.829 140.893,-208.983"/>
<text text-anchor="middle" x="205.5" y="-210" font-family="Helvetica,sans-Serif" font-size="10.00"> ws_</text>
</g>
<!-- Node6 -->
<g id="node5" class="node"><title>Node6</title>
<polygon fill="white" stroke="#bfbfbf" points="18,-165 18,-195 131,-195 131,-165 18,-165"/>
<text text-anchor="start" x="26" y="-183" font-family="Helvetica,sans-Serif" font-size="10.00">shared_ptr&lt; MPL::env</text>
<text text-anchor="middle" x="74.5" y="-172" font-family="Helvetica,sans-Serif" font-size="10.00">_base&lt; Dim &gt; &gt;</text>
</g>
<!-- Node6&#45;&gt;Node3 -->
<g id="edge4" class="edge"><title>Node6&#45;&gt;Node3</title>
<path fill="none" stroke="#9a32cd" stroke-dasharray="5,2" d="M140.973,-169.721C172.247,-164.559 210.151,-157.935 244,-151 252.041,-149.353 260.618,-147.425 268.773,-145.511"/>
<polygon fill="#9a32cd" stroke="#9a32cd" points="140.369,-166.274 131.066,-171.345 141.501,-173.182 140.369,-166.274"/>
<text text-anchor="middle" x="205.5" y="-168" font-family="Helvetica,sans-Serif" font-size="10.00"> ENV_</text>
</g>
<!-- Node7 -->
<g id="node6" class="node"><title>Node7</title>
<g id="a_node6"><a xlink:href="classint.html" target="_top" xlink:title="int">
<polygon fill="white" stroke="black" points="60,-126.5 60,-145.5 89,-145.5 89,-126.5 60,-126.5"/>
<text text-anchor="middle" x="74.5" y="-133.5" font-family="Helvetica,sans-Serif" font-size="10.00">int</text>
</a>
</g>
</g>
<!-- Node7&#45;&gt;Node3 -->
<g id="edge5" class="edge"><title>Node7&#45;&gt;Node3</title>
<path fill="none" stroke="#9a32cd" stroke-dasharray="5,2" d="M99.4743,-136C137.761,-136 213.332,-136 261.944,-136"/>
<polygon fill="#9a32cd" stroke="#9a32cd" points="99.2881,-132.5 89.2881,-136 99.2881,-139.5 99.2881,-132.5"/>
<text text-anchor="middle" x="205.5" y="-139" font-family="Helvetica,sans-Serif" font-size="10.00"> max_num_</text>
</g>
<!-- Node8 -->
<g id="node7" class="node"><title>Node8</title>
<polygon fill="white" stroke="#bfbfbf" points="0,-77 0,-107 149,-107 149,-77 0,-77"/>
<text text-anchor="start" x="8" y="-95" font-family="Helvetica,sans-Serif" font-size="10.00">shared_ptr&lt; MPL::StateSpace</text>
<text text-anchor="middle" x="74.5" y="-84" font-family="Helvetica,sans-Serif" font-size="10.00">&lt; Dim &gt; &gt;</text>
</g>
<!-- Node8&#45;&gt;Node3 -->
<g id="edge6" class="edge"><title>Node8&#45;&gt;Node3</title>
<path fill="none" stroke="#9a32cd" stroke-dasharray="5,2" d="M158.957,-105.289C186.143,-109.904 216.418,-115.349 244,-121 252.041,-122.647 260.618,-124.575 268.773,-126.489"/>
<polygon fill="#9a32cd" stroke="#9a32cd" points="159.534,-101.837 149.092,-103.627 158.372,-108.739 159.534,-101.837"/>
<text text-anchor="middle" x="205.5" y="-124" font-family="Helvetica,sans-Serif" font-size="10.00"> ss_ptr_</text>
</g>
<!-- Node9 -->
<g id="node8" class="node"><title>Node9</title>
<g id="a_node8"><a xlink:href="classbool.html" target="_top" xlink:title="bool">
<polygon fill="white" stroke="black" points="57,-38.5 57,-57.5 92,-57.5 92,-38.5 57,-38.5"/>
<text text-anchor="middle" x="74.5" y="-45.5" font-family="Helvetica,sans-Serif" font-size="10.00">bool</text>
</a>
</g>
</g>
<!-- Node9&#45;&gt;Node3 -->
<g id="edge7" class="edge"><title>Node9&#45;&gt;Node3</title>
<path fill="none" stroke="#9a32cd" stroke-dasharray="5,2" d="M102.37,-49.2552C136.786,-51.7729 197.531,-59.3311 244,-82 266.528,-92.9899 287.536,-113.987 298.684,-126.311"/>
<polygon fill="#9a32cd" stroke="#9a32cd" points="102.376,-45.7485 92.1723,-48.6021 101.928,-52.7341 102.376,-45.7485"/>
<text text-anchor="middle" x="205.5" y="-96" font-family="Helvetica,sans-Serif" font-size="10.00"> use_lpastar_</text>
<text text-anchor="middle" x="205.5" y="-85" font-family="Helvetica,sans-Serif" font-size="10.00">planner_verbose_</text>
</g>
<!-- Node10 -->
<g id="node9" class="node"><title>Node10</title>
<g id="a_node9"><a xlink:href="classTrajectory_3_01Dim_01_4.html" target="_top" xlink:title="Trajectory\&lt; Dim \&gt;">
<polygon fill="white" stroke="black" points="26.5,-0.5 26.5,-19.5 122.5,-19.5 122.5,-0.5 26.5,-0.5"/>
<text text-anchor="middle" x="74.5" y="-7.5" font-family="Helvetica,sans-Serif" font-size="10.00">Trajectory&lt; Dim &gt;</text>
</a>
</g>
</g>
<!-- Node10&#45;&gt;Node3 -->
<g id="edge8" class="edge"><title>Node10&#45;&gt;Node3</title>
<path fill="none" stroke="#9a32cd" stroke-dasharray="5,2" d="M132.724,-10.4491C167.427,-13.2 211.189,-21.2964 244,-43 275.717,-63.98 295.669,-106.958 303.376,-126.249"/>
<polygon fill="#9a32cd" stroke="#9a32cd" points="132.942,-6.956 122.732,-9.78282 132.477,-13.9405 132.942,-6.956"/>
<text text-anchor="middle" x="205.5" y="-46" font-family="Helvetica,sans-Serif" font-size="10.00"> traj_</text>
</g>
</g>
</svg>
