<?xml version="1.0" encoding="UTF-8" standalone="no"?>
<!DOCTYPE svg PUBLIC "-//W3C//DTD SVG 1.1//EN"
 "http://www.w3.org/Graphics/SVG/1.1/DTD/svg11.dtd">
<!-- Generated by graphviz version 2.38.0 (20140413.2041)
 -->
<!-- Title: MPBaseUtil&lt; Dim &gt; Pages: 1 -->
<svg width="375pt" height="280pt"
 viewBox="0.00 0.00 375.00 280.00" xmlns="http://www.w3.org/2000/svg" xmlns:xlink="http://www.w3.org/1999/xlink">
<g id="graph0" class="graph" transform="scale(1 1) rotate(0) translate(4 276)">
<title>MPBaseUtil&lt; Dim &gt;</title>
<polygon fill="white" stroke="none" points="-4,4 -4,-276 371,-276 371,4 -4,4"/>
<!-- Node2 -->
<g id="node1" class="node"><title>Node2</title>
<polygon fill="#bfbfbf" stroke="black" points="262,-126.5 262,-145.5 367,-145.5 367,-126.5 262,-126.5"/>
<text text-anchor="middle" x="314.5" y="-133.5" font-family="Helvetica,sans-Serif" font-size="10.00">MPBaseUtil&lt; Dim &gt;</text>
</g>
<!-- Node3 -->
<g id="node2" class="node"><title>Node3</title>
<g id="a_node2"><a xlink:href="classdouble.html" target="_top" xlink:title="double">
<polygon fill="white" stroke="black" points="52,-252.5 52,-271.5 97,-271.5 97,-252.5 52,-252.5"/>
<text text-anchor="middle" x="74.5" y="-259.5" font-family="Helvetica,sans-Serif" font-size="10.00">double</text>
</a>
</g>
</g>
<!-- Node3&#45;&gt;Node2 -->
<g id="edge1" class="edge"><title>Node3&#45;&gt;Node2</title>
<path fill="none" stroke="#9a32cd" stroke-dasharray="5,2" d="M107.462,-260.254C143.207,-256.999 201.635,-247.681 244,-221 274.969,-201.496 298.578,-163.436 308.447,-145.624"/>
<polygon fill="#9a32cd" stroke="#9a32cd" points="106.829,-256.793 97.1404,-261.081 107.388,-263.771 106.829,-256.793"/>
<text text-anchor="middle" x="205.5" y="-264" font-family="Helvetica,sans-Serif" font-size="10.00"> max_t_</text>
<text text-anchor="middle" x="205.5" y="-253" font-family="Helvetica,sans-Serif" font-size="10.00">epsilon_</text>
</g>
<!-- Node4 -->
<g id="node3" class="node"><title>Node4</title>
<g id="a_node3"><a xlink:href="classvec__E_3_01Waypoint_3_01Dim_01_4_01_4.html" target="_top" xlink:title="vec_E\&lt; Waypoint\&lt; Dim \&gt; \&gt;">
<polygon fill="white" stroke="black" points="4.5,-214.5 4.5,-233.5 144.5,-233.5 144.5,-214.5 4.5,-214.5"/>
<text text-anchor="middle" x="74.5" y="-221.5" font-family="Helvetica,sans-Serif" font-size="10.00">vec_E&lt; Waypoint&lt; Dim &gt; &gt;</text>
</a>
</g>
</g>
<!-- Node4&#45;&gt;Node2 -->
<g id="edge2" class="edge"><title>Node4&#45;&gt;Node2</title>
<path fill="none" stroke="#9a32cd" stroke-dasharray="5,2" d="M138.674,-212.358C170.979,-205.204 210.451,-194.578 244,-180 265.218,-170.78 287.414,-155.609 300.852,-145.711"/>
<polygon fill="#9a32cd" stroke="#9a32cd" points="137.931,-208.937 128.894,-214.467 139.407,-215.78 137.931,-208.937"/>
<text text-anchor="middle" x="205.5" y="-209" font-family="Helvetica,sans-Serif" font-size="10.00"> ws_</text>
</g>
<!-- Node5 -->
<g id="node4" class="node"><title>Node5</title>
<polygon fill="white" stroke="#bfbfbf" points="18,-165 18,-195 131,-195 131,-165 18,-165"/>
<text text-anchor="start" x="26" y="-183" font-family="Helvetica,sans-Serif" font-size="10.00">shared_ptr&lt; MPL::env</text>
<text text-anchor="middle" x="74.5" y="-172" font-family="Helvetica,sans-Serif" font-size="10.00">_base&lt; Dim &gt; &gt;</text>
</g>
<!-- Node5&#45;&gt;Node2 -->
<g id="edge3" class="edge"><title>Node5&#45;&gt;Node2</title>
<path fill="none" stroke="#9a32cd" stroke-dasharray="5,2" d="M140.91,-169.401C172.169,-164.168 210.079,-157.576 244,-151 252.604,-149.332 261.781,-147.435 270.552,-145.565"/>
<polygon fill="#9a32cd" stroke="#9a32cd" points="140.297,-165.955 131.008,-171.051 141.447,-172.86 140.297,-165.955"/>
<text text-anchor="middle" x="205.5" y="-168" font-family="Helvetica,sans-Serif" font-size="10.00"> ENV_</text>
</g>
<!-- Node6 -->
<g id="node5" class="node"><title>Node6</title>
<g id="a_node5"><a xlink:href="classint.html" target="_top" xlink:title="int">
<polygon fill="white" stroke="black" points="60,-126.5 60,-145.5 89,-145.5 89,-126.5 60,-126.5"/>
<text text-anchor="middle" x="74.5" y="-133.5" font-family="Helvetica,sans-Serif" font-size="10.00">int</text>
</a>
</g>
</g>
<!-- Node6&#45;&gt;Node2 -->
<g id="edge4" class="edge"><title>Node6&#45;&gt;Node2</title>
<path fill="none" stroke="#9a32cd" stroke-dasharray="5,2" d="M99.375,-136C137.122,-136 211.46,-136 261.823,-136"/>
<polygon fill="#9a32cd" stroke="#9a32cd" points="99.3246,-132.5 89.3246,-136 99.3246,-139.5 99.3246,-132.5"/>
<text text-anchor="middle" x="205.5" y="-139" font-family="Helvetica,sans-Serif" font-size="10.00"> max_num_</text>
</g>
<!-- Node7 -->
<g id="node6" class="node"><title>Node7</title>
<polygon fill="white" stroke="#bfbfbf" points="0,-77 0,-107 149,-107 149,-77 0,-77"/>
<text text-anchor="start" x="8" y="-95" font-family="Helvetica,sans-Serif" font-size="10.00">shared_ptr&lt; MPL::StateSpace</text>
<text text-anchor="middle" x="74.5" y="-84" font-family="Helvetica,sans-Serif" font-size="10.00">&lt; Dim &gt; &gt;</text>
</g>
<!-- Node7&#45;&gt;Node2 -->
<g id="edge5" class="edge"><title>Node7&#45;&gt;Node2</title>
<path fill="none" stroke="#9a32cd" stroke-dasharray="5,2" d="M158.888,-105.636C186.069,-110.272 216.359,-115.641 244,-121 252.604,-122.668 261.781,-124.565 270.552,-126.435"/>
<polygon fill="#9a32cd" stroke="#9a32cd" points="159.47,-102.185 149.025,-103.963 158.299,-109.086 159.47,-102.185"/>
<text text-anchor="middle" x="205.5" y="-124" font-family="Helvetica,sans-Serif" font-size="10.00"> ss_ptr_</text>
</g>
<!-- Node8 -->
<g id="node7" class="node"><title>Node8</title>
<g id="a_node7"><a xlink:href="classbool.html" target="_top" xlink:title="bool">
<polygon fill="white" stroke="black" points="57,-38.5 57,-57.5 92,-57.5 92,-38.5 57,-38.5"/>
<text text-anchor="middle" x="74.5" y="-45.5" font-family="Helvetica,sans-Serif" font-size="10.00">bool</text>
</a>
</g>
</g>
<!-- Node8&#45;&gt;Node2 -->
<g id="edge6" class="edge"><title>Node8&#45;&gt;Node2</title>
<path fill="none" stroke="#9a32cd" stroke-dasharray="5,2" d="M102.203,-49.6074C136.442,-52.4992 197,-60.4547 244,-82 268.169,-93.0792 291.59,-114.044 304.115,-126.338"/>
<polygon fill="#9a32cd" stroke="#9a32cd" points="102.299,-46.1046 92.0619,-48.8355 101.767,-53.0844 102.299,-46.1046"/>
<text text-anchor="middle" x="205.5" y="-96" font-family="Helvetica,sans-Serif" font-size="10.00"> use_lpastar_</text>
<text text-anchor="middle" x="205.5" y="-85" font-family="Helvetica,sans-Serif" font-size="10.00">planner_verbose_</text>
</g>
<!-- Node9 -->
<g id="node8" class="node"><title>Node9</title>
<g id="a_node8"><a xlink:href="classTrajectory_3_01Dim_01_4.html" target="_top" xlink:title="Trajectory\&lt; Dim \&gt;">
<polygon fill="white" stroke="black" points="26.5,-0.5 26.5,-19.5 122.5,-19.5 122.5,-0.5 26.5,-0.5"/>
<text text-anchor="middle" x="74.5" y="-7.5" font-family="Helvetica,sans-Serif" font-size="10.00">Trajectory&lt; Dim &gt;</text>
</a>
</g>
</g>
<!-- Node9&#45;&gt;Node2 -->
<g id="edge7" class="edge"><title>Node9&#45;&gt;Node2</title>
<path fill="none" stroke="#9a32cd" stroke-dasharray="5,2" d="M133.156,-11.5179C167.591,-14.7758 210.919,-23.1925 244,-44 277.041,-64.7828 300.071,-107.284 309.17,-126.359"/>
<polygon fill="#9a32cd" stroke="#9a32cd" points="133.029,-7.99576 122.776,-10.6645 132.455,-14.9722 133.029,-7.99576"/>
<text text-anchor="middle" x="205.5" y="-47" font-family="Helvetica,sans-Serif" font-size="10.00"> traj_</text>
</g>
</g>
</svg>
