<?xml version="1.0" encoding="UTF-8" standalone="no"?>
<!DOCTYPE svg PUBLIC "-//W3C//DTD SVG 1.1//EN"
 "http://www.w3.org/Graphics/SVG/1.1/DTD/svg11.dtd">
<!-- Generated by graphviz version 2.38.0 (20140413.2041)
 -->
<!-- Title: Primitive::valid_acc Pages: 1 -->
<svg width="279pt" height="66pt"
 viewBox="0.00 0.00 279.00 66.00" xmlns="http://www.w3.org/2000/svg" xmlns:xlink="http://www.w3.org/1999/xlink">
<g id="graph0" class="graph" transform="scale(1 1) rotate(0) translate(4 62)">
<title>Primitive::valid_acc</title>
<polygon fill="white" stroke="none" points="-4,4 -4,-62 275,-62 275,4 -4,4"/>
<!-- Node19 -->
<g id="node1" class="node"><title>Node19</title>
<polygon fill="#bfbfbf" stroke="black" points="0,-19.5 0,-38.5 102,-38.5 102,-19.5 0,-19.5"/>
<text text-anchor="middle" x="51" y="-26.5" font-family="Helvetica,sans-Serif" font-size="10.00">Primitive::valid_acc</text>
</g>
<!-- Node20 -->
<g id="node2" class="node"><title>Node20</title>
<g id="a_node2"><a xlink:href="classMPL_1_1env__cloud.html#a4a21126df924cfb1cd44ecafff638934" target="_top" xlink:title="Get successor. ">
<polygon fill="white" stroke="black" points="138,-38.5 138,-57.5 271,-57.5 271,-38.5 138,-38.5"/>
<text text-anchor="middle" x="204.5" y="-45.5" font-family="Helvetica,sans-Serif" font-size="10.00">MPL::env_cloud::get_succ</text>
</a>
</g>
</g>
<!-- Node19&#45;&gt;Node20 -->
<g id="edge1" class="edge"><title>Node19&#45;&gt;Node20</title>
<path fill="none" stroke="midnightblue" d="M112.161,-36.5449C120.604,-37.6037 129.316,-38.6964 137.854,-39.7672"/>
<polygon fill="midnightblue" stroke="midnightblue" points="112.384,-33.0456 102.027,-35.274 111.513,-39.9912 112.384,-33.0456"/>
</g>
<!-- Node21 -->
<g id="node3" class="node"><title>Node21</title>
<g id="a_node3"><a xlink:href="classMPL_1_1env__map.html#a14a186ecbe34ce5c1751959f6c35594c" target="_top" xlink:title="Get successor. ">
<polygon fill="white" stroke="black" points="140.5,-0.5 140.5,-19.5 268.5,-19.5 268.5,-0.5 140.5,-0.5"/>
<text text-anchor="middle" x="204.5" y="-7.5" font-family="Helvetica,sans-Serif" font-size="10.00">MPL::env_map::get_succ</text>
</a>
</g>
</g>
<!-- Node19&#45;&gt;Node21 -->
<g id="edge2" class="edge"><title>Node19&#45;&gt;Node21</title>
<path fill="none" stroke="midnightblue" d="M111.966,-21.4795C121.273,-20.3123 130.912,-19.1035 140.287,-17.9276"/>
<polygon fill="midnightblue" stroke="midnightblue" points="111.513,-18.0088 102.027,-22.726 112.384,-24.9544 111.513,-18.0088"/>
</g>
</g>
</svg>
