<?xml version="1.0" encoding="UTF-8" standalone="no"?>
<!DOCTYPE svg PUBLIC "-//W3C//DTD SVG 1.1//EN"
 "http://www.w3.org/Graphics/SVG/1.1/DTD/svg11.dtd">
<!-- Generated by graphviz version 2.38.0 (20140413.2041)
 -->
<!-- Title: MPMapUtil&lt; Dim &gt; Pages: 1 -->
<!--zoomable 280 -->
<svg id="main" version="1.1" xmlns="http://www.w3.org/2000/svg" xmlns:xlink="http://www.w3.org/1999/xlink" xml:space="preserve" onload="init(evt)">
<style type="text/css"><![CDATA[
.edge:hover path { stroke: red; }
.edge:hover polygon { stroke: red; fill: red; }
]]></style>
<script type="text/javascript"><![CDATA[
var edges = document.getElementsByTagName('g');
if (edges && edges.length) {
  for (var i=0;i<edges.length;i++) {
    if (edges[i].id.substr(0,4)=='edge') {
      edges[i].setAttribute('class','edge');
    }
  }
}
]]></script>
        <defs>
                <circle id="rim" cx="0" cy="0" r="7"/>
                <circle id="rim2" cx="0" cy="0" r="3.5"/>
                <g id="zoomPlus">
                        <use xlink:href="#rim" fill="#404040">
                                <set attributeName="fill" to="#808080" begin="zoomplus.mouseover" end="zoomplus.mouseout"/>
                        </use>
                        <path d="M-4,0h8M0,-4v8" fill="none" stroke="white" stroke-width="1.5" pointer-events="none"/>
                </g>
                <g id="zoomMin">
                        <use xlink:href="#rim" fill="#404040">
                                <set attributeName="fill" to="#808080" begin="zoomminus.mouseover" end="zoomminus.mouseout"/>
                        </use>
                        <path d="M-4,0h8" fill="none" stroke="white" stroke-width="1.5" pointer-events="none"/>
                </g>
                <g id="dirArrow">
                        <path fill="none" stroke="white" stroke-width="1.5" d="M0,-3.0v7 M-2.5,-0.5L0,-3.0L2.5,-0.5"/>
                </g>
               <g id="resetDef">
                       <use xlink:href="#rim2" fill="#404040">
                               <set attributeName="fill" to="#808080" begin="reset.mouseover" end="reset.mouseout"/>
                       </use>
               </g>
        </defs>

<script type="text/javascript">
var viewWidth = 584;
var viewHeight = 280;
var sectionId = 'dynsection-1';
</script>
<script xlink:href="svgpan.js"/>
<svg id="graph" class="graph">
<g id="viewport">
<title>MPMapUtil&lt; Dim &gt;</title>
<polygon fill="white" stroke="none" points="-4,4 -4,-276 580,-276 580,4 -4,4"/>
<!-- Node2 -->
<g id="node1" class="node"><title>Node2</title>
<polygon fill="#bfbfbf" stroke="black" points="475,-88.5 475,-107.5 576,-107.5 576,-88.5 475,-88.5"/>
<text text-anchor="middle" x="525.5" y="-95.5" font-family="Helvetica,sans-Serif" font-size="10.00">MPMapUtil&lt; Dim &gt;</text>
</g>
<!-- Node3 -->
<g id="node2" class="node"><title>Node3</title>
<g id="a_node2"><a xlink:href="classMPBaseUtil.html" target="_top" xlink:title="Motion planning base util class. ">
<polygon fill="white" stroke="black" points="275,-126.5 275,-145.5 380,-145.5 380,-126.5 275,-126.5"/>
<text text-anchor="middle" x="327.5" y="-133.5" font-family="Helvetica,sans-Serif" font-size="10.00">MPBaseUtil&lt; Dim &gt;</text>
</a>
</g>
</g>
<!-- Node3&#45;&gt;Node2 -->
<g id="edge1" class="edge"><title>Node3&#45;&gt;Node2</title>
<path fill="none" stroke="midnightblue" d="M390.05,-125.519C411.297,-121.759 435.227,-117.366 457,-113 465.357,-111.324 474.27,-109.424 482.789,-107.553"/>
<polygon fill="midnightblue" stroke="midnightblue" points="389.419,-122.076 380.177,-127.255 390.632,-128.97 389.419,-122.076"/>
</g>
<!-- Node4 -->
<g id="node3" class="node"><title>Node4</title>
<g id="a_node3"><a xlink:href="classdouble.html" target="_top" xlink:title="double">
<polygon fill="white" stroke="black" points="52,-252.5 52,-271.5 97,-271.5 97,-252.5 52,-252.5"/>
<text text-anchor="middle" x="74.5" y="-259.5" font-family="Helvetica,sans-Serif" font-size="10.00">double</text>
</a>
</g>
</g>
<!-- Node4&#45;&gt;Node3 -->
<g id="edge2" class="edge"><title>Node4&#45;&gt;Node3</title>
<path fill="none" stroke="#9a32cd" stroke-dasharray="5,2" d="M107.283,-258.74C142.632,-254.009 200.482,-242.908 244,-218 277.301,-198.94 306.615,-163.003 319.517,-145.74"/>
<polygon fill="#9a32cd" stroke="#9a32cd" points="106.567,-255.302 97.0761,-260.012 107.432,-262.248 106.567,-255.302"/>
<text text-anchor="middle" x="205.5" y="-261" font-family="Helvetica,sans-Serif" font-size="10.00"> max_t_</text>
<text text-anchor="middle" x="205.5" y="-250" font-family="Helvetica,sans-Serif" font-size="10.00">epsilon_</text>
</g>
<!-- Node5 -->
<g id="node4" class="node"><title>Node5</title>
<g id="a_node4"><a xlink:href="classvec__E_3_01Waypoint_3_01Dim_01_4_01_4.html" target="_top" xlink:title="vec_E\&lt; Waypoint\&lt; Dim \&gt; \&gt;">
<polygon fill="white" stroke="black" points="4.5,-214.5 4.5,-233.5 144.5,-233.5 144.5,-214.5 4.5,-214.5"/>
<text text-anchor="middle" x="74.5" y="-221.5" font-family="Helvetica,sans-Serif" font-size="10.00">vec_E&lt; Waypoint&lt; Dim &gt; &gt;</text>
</a>
</g>
</g>
<!-- Node5&#45;&gt;Node3 -->
<g id="edge3" class="edge"><title>Node5&#45;&gt;Node3</title>
<path fill="none" stroke="#9a32cd" stroke-dasharray="5,2" d="M132.125,-212.155C165.298,-204.412 207.682,-193.117 244,-179 268.087,-169.637 294.292,-155.181 310.558,-145.656"/>
<polygon fill="#9a32cd" stroke="#9a32cd" points="131.107,-208.798 122.142,-214.444 132.671,-215.621 131.107,-208.798"/>
<text text-anchor="middle" x="205.5" y="-206" font-family="Helvetica,sans-Serif" font-size="10.00"> ws_</text>
</g>
<!-- Node6 -->
<g id="node5" class="node"><title>Node6</title>
<polygon fill="white" stroke="#bfbfbf" points="18,-165 18,-195 131,-195 131,-165 18,-165"/>
<text text-anchor="start" x="26" y="-183" font-family="Helvetica,sans-Serif" font-size="10.00">shared_ptr&lt; MPL::env</text>
<text text-anchor="middle" x="74.5" y="-172" font-family="Helvetica,sans-Serif" font-size="10.00">_base&lt; Dim &gt; &gt;</text>
</g>
<!-- Node6&#45;&gt;Node3 -->
<g id="edge4" class="edge"><title>Node6&#45;&gt;Node3</title>
<path fill="none" stroke="#9a32cd" stroke-dasharray="5,2" d="M141.181,-168.843C172.35,-163.511 210.108,-156.997 244,-151 253.891,-149.25 264.444,-147.353 274.583,-145.516"/>
<polygon fill="#9a32cd" stroke="#9a32cd" points="140.574,-165.396 131.306,-170.531 141.753,-172.296 140.574,-165.396"/>
<text text-anchor="middle" x="205.5" y="-167" font-family="Helvetica,sans-Serif" font-size="10.00"> ENV_</text>
</g>
<!-- Node7 -->
<g id="node6" class="node"><title>Node7</title>
<g id="a_node6"><a xlink:href="classint.html" target="_top" xlink:title="int">
<polygon fill="white" stroke="black" points="60,-126.5 60,-145.5 89,-145.5 89,-126.5 60,-126.5"/>
<text text-anchor="middle" x="74.5" y="-133.5" font-family="Helvetica,sans-Serif" font-size="10.00">int</text>
</a>
</g>
</g>
<!-- Node7&#45;&gt;Node3 -->
<g id="edge5" class="edge"><title>Node7&#45;&gt;Node3</title>
<path fill="none" stroke="#9a32cd" stroke-dasharray="5,2" d="M99.5239,-136C139.693,-136 221.355,-136 274.985,-136"/>
<polygon fill="#9a32cd" stroke="#9a32cd" points="99.3524,-132.5 89.3524,-136 99.3523,-139.5 99.3524,-132.5"/>
<text text-anchor="middle" x="205.5" y="-139" font-family="Helvetica,sans-Serif" font-size="10.00"> max_num_</text>
</g>
<!-- Node8 -->
<g id="node7" class="node"><title>Node8</title>
<polygon fill="white" stroke="#bfbfbf" points="0,-77 0,-107 149,-107 149,-77 0,-77"/>
<text text-anchor="start" x="8" y="-95" font-family="Helvetica,sans-Serif" font-size="10.00">shared_ptr&lt; MPL::StateSpace</text>
<text text-anchor="middle" x="74.5" y="-84" font-family="Helvetica,sans-Serif" font-size="10.00">&lt; Dim &gt; &gt;</text>
</g>
<!-- Node8&#45;&gt;Node3 -->
<g id="edge6" class="edge"><title>Node8&#45;&gt;Node3</title>
<path fill="none" stroke="#9a32cd" stroke-dasharray="5,2" d="M159.528,-106.302C186.513,-110.937 216.527,-116.138 244,-121 253.891,-122.75 264.444,-124.647 274.583,-126.484"/>
<polygon fill="#9a32cd" stroke="#9a32cd" points="159.793,-102.796 149.345,-104.554 158.609,-109.695 159.793,-102.796"/>
<text text-anchor="middle" x="205.5" y="-124" font-family="Helvetica,sans-Serif" font-size="10.00"> ss_ptr_</text>
</g>
<!-- Node9 -->
<g id="node8" class="node"><title>Node9</title>
<g id="a_node8"><a xlink:href="classbool.html" target="_top" xlink:title="bool">
<polygon fill="white" stroke="black" points="57,-38.5 57,-57.5 92,-57.5 92,-38.5 57,-38.5"/>
<text text-anchor="middle" x="74.5" y="-45.5" font-family="Helvetica,sans-Serif" font-size="10.00">bool</text>
</a>
</g>
</g>
<!-- Node9&#45;&gt;Node3 -->
<g id="edge7" class="edge"><title>Node9&#45;&gt;Node3</title>
<path fill="none" stroke="#9a32cd" stroke-dasharray="5,2" d="M102.379,-46.8633C138.218,-46.7254 202.004,-51.4469 244,-83 257.67,-93.2705 248.761,-106.18 262,-117 266.791,-120.915 272.362,-124.024 278.186,-126.492"/>
<polygon fill="#9a32cd" stroke="#9a32cd" points="102.147,-43.3667 92.2084,-47.0378 102.267,-50.3656 102.147,-43.3667"/>
<text text-anchor="middle" x="205.5" y="-97" font-family="Helvetica,sans-Serif" font-size="10.00"> use_lpastar_</text>
<text text-anchor="middle" x="205.5" y="-86" font-family="Helvetica,sans-Serif" font-size="10.00">planner_verbose_</text>
</g>
<!-- Node10 -->
<g id="node9" class="node"><title>Node10</title>
<g id="a_node9"><a xlink:href="classTrajectory_3_01Dim_01_4.html" target="_top" xlink:title="Trajectory\&lt; Dim \&gt;">
<polygon fill="white" stroke="black" points="26.5,-0.5 26.5,-19.5 122.5,-19.5 122.5,-0.5 26.5,-0.5"/>
<text text-anchor="middle" x="74.5" y="-7.5" font-family="Helvetica,sans-Serif" font-size="10.00">Trajectory&lt; Dim &gt;</text>
</a>
</g>
</g>
<!-- Node10&#45;&gt;Node3 -->
<g id="edge8" class="edge"><title>Node10&#45;&gt;Node3</title>
<path fill="none" stroke="#9a32cd" stroke-dasharray="5,2" d="M133.191,-4.45231C169.493,-4.24457 214.83,-10.5122 244,-38 270.208,-62.6968 237.344,-90.7539 262,-117 265.677,-120.914 270.115,-124.034 274.922,-126.521"/>
<polygon fill="#9a32cd" stroke="#9a32cd" points="132.647,-0.963622 122.729,-4.68894 132.806,-7.96183 132.647,-0.963622"/>
<text text-anchor="middle" x="205.5" y="-41" font-family="Helvetica,sans-Serif" font-size="10.00"> traj_</text>
</g>
<!-- Node11 -->
<g id="node10" class="node"><title>Node11</title>
<polygon fill="white" stroke="#bfbfbf" points="265,-88.5 265,-107.5 390,-107.5 390,-88.5 265,-88.5"/>
<text text-anchor="middle" x="327.5" y="-95.5" font-family="Helvetica,sans-Serif" font-size="10.00">pair&lt; MPL::Key, int &gt; &gt;&gt;</text>
</g>
<!-- Node11&#45;&gt;Node2 -->
<g id="edge9" class="edge"><title>Node11&#45;&gt;Node2</title>
<path fill="none" stroke="#9a32cd" stroke-dasharray="5,2" d="M400.326,-98C425.086,-98 452.252,-98 474.844,-98"/>
<polygon fill="#9a32cd" stroke="#9a32cd" points="400.247,-94.5001 390.247,-98 400.247,-101.5 400.247,-94.5001"/>
<text text-anchor="middle" x="434" y="-101" font-family="Helvetica,sans-Serif" font-size="10.00"> lhm_</text>
</g>
<!-- Node12 -->
<g id="node11" class="node"><title>Node12</title>
<polygon fill="white" stroke="#bfbfbf" points="262,-39 262,-69 393,-69 393,-39 262,-39"/>
<text text-anchor="start" x="270" y="-57" font-family="Helvetica,sans-Serif" font-size="10.00">shared_ptr&lt; MPL::MapUtil</text>
<text text-anchor="middle" x="327.5" y="-46" font-family="Helvetica,sans-Serif" font-size="10.00">&lt; Dim &gt; &gt;</text>
</g>
<!-- Node12&#45;&gt;Node2 -->
<g id="edge10" class="edge"><title>Node12&#45;&gt;Node2</title>
<path fill="none" stroke="#9a32cd" stroke-dasharray="5,2" d="M403.304,-70.7927C429.969,-76.7787 459.065,-83.3105 482.063,-88.4734"/>
<polygon fill="#9a32cd" stroke="#9a32cd" points="403.745,-67.3046 393.221,-68.5292 402.211,-74.1347 403.745,-67.3046"/>
<text text-anchor="middle" x="434" y="-86" font-family="Helvetica,sans-Serif" font-size="10.00"> map_util_</text>
</g>
</g>
</svg>
        <g id="navigator" transform="translate(0 0)" fill="#404254">
                <rect fill="#f2f5e9" fill-opacity="0.5" stroke="#606060" stroke-width=".5" x="0" y="0" width="60" height="60"/>
                <use id="zoomplus" xlink:href="#zoomPlus" x="17" y="9" onmousedown="handleZoom(evt,'in')"/>
                <use id="zoomminus" xlink:href="#zoomMin" x="42" y="9" onmousedown="handleZoom(evt,'out')"/>
                <use id="reset" xlink:href="#resetDef" x="30" y="36" onmousedown="handleReset()"/>
                <g id="arrowUp" xlink:href="#dirArrow" transform="translate(30 24)" onmousedown="handlePan(0,-1)">
                  <use xlink:href="#rim" fill="#404040">
                        <set attributeName="fill" to="#808080" begin="arrowUp.mouseover" end="arrowUp.mouseout"/>
                  </use>
                  <path fill="none" stroke="white" stroke-width="1.5" d="M0,-3.0v7 M-2.5,-0.5L0,-3.0L2.5,-0.5"/>
                </g>
                <g id="arrowRight" xlink:href="#dirArrow" transform="rotate(90) translate(36 -43)" onmousedown="handlePan(1,0)">
                  <use xlink:href="#rim" fill="#404040">
                        <set attributeName="fill" to="#808080" begin="arrowRight.mouseover" end="arrowRight.mouseout"/>
                  </use>
                  <path fill="none" stroke="white" stroke-width="1.5" d="M0,-3.0v7 M-2.5,-0.5L0,-3.0L2.5,-0.5"/>
                </g>
                <g id="arrowDown" xlink:href="#dirArrow" transform="rotate(180) translate(-30 -48)" onmousedown="handlePan(0,1)">
                  <use xlink:href="#rim" fill="#404040">
                        <set attributeName="fill" to="#808080" begin="arrowDown.mouseover" end="arrowDown.mouseout"/>
                  </use>
                  <path fill="none" stroke="white" stroke-width="1.5" d="M0,-3.0v7 M-2.5,-0.5L0,-3.0L2.5,-0.5"/>
                </g>
                <g id="arrowLeft" xlink:href="#dirArrow" transform="rotate(270) translate(-36 17)" onmousedown="handlePan(-1,0)">
                  <use xlink:href="#rim" fill="#404040">
                        <set attributeName="fill" to="#808080" begin="arrowLeft.mouseover" end="arrowLeft.mouseout"/>
                  </use>
                  <path fill="none" stroke="white" stroke-width="1.5" d="M0,-3.0v7 M-2.5,-0.5L0,-3.0L2.5,-0.5"/>
                </g>
        </g>
        <svg viewBox="0 0 15 15" width="100%" height="30px" preserveAspectRatio="xMaxYMin meet">
         <g id="arrow_out" transform="scale(0.3 0.3)">
          <a xlink:href="classMPMapUtil__coll__graph_org.svg" target="_base">
           <rect id="button" ry="5" rx="5" y="6" x="6" height="38" width="38"
                fill="#f2f5e9" fill-opacity="0.5" stroke="#606060" stroke-width="1.0"/>
           <path id="arrow"
             d="M 11.500037,31.436501 C 11.940474,20.09759 22.043105,11.32322 32.158766,21.979434 L 37.068811,17.246167 C 37.068811,17.246167 37.088388,32 37.088388,32 L 22.160133,31.978069 C 22.160133,31.978069 26.997745,27.140456 26.997745,27.140456 C 18.528582,18.264221 13.291696,25.230495 11.500037,31.436501 z"
             style="fill:#404040;"/>
          </a>
         </g>
        </svg>
</svg>
