<?xml version="1.0" encoding="UTF-8" standalone="no"?>
<!DOCTYPE svg PUBLIC "-//W3C//DTD SVG 1.1//EN"
 "http://www.w3.org/Graphics/SVG/1.1/DTD/svg11.dtd">
<!-- Generated by graphviz version 2.38.0 (20140413.2041)
 -->
<!-- Title: include/motion_primitive_library/common/data_type.h Pages: 1 -->
<!--zoomable 686 -->
<svg id="main" version="1.1" xmlns="http://www.w3.org/2000/svg" xmlns:xlink="http://www.w3.org/1999/xlink" xml:space="preserve" onload="init(evt)">
<style type="text/css"><![CDATA[
.edge:hover path { stroke: red; }
.edge:hover polygon { stroke: red; fill: red; }
]]></style>
<script type="text/javascript"><![CDATA[
var edges = document.getElementsByTagName('g');
if (edges && edges.length) {
  for (var i=0;i<edges.length;i++) {
    if (edges[i].id.substr(0,4)=='edge') {
      edges[i].setAttribute('class','edge');
    }
  }
}
]]></script>
        <defs>
                <circle id="rim" cx="0" cy="0" r="7"/>
                <circle id="rim2" cx="0" cy="0" r="3.5"/>
                <g id="zoomPlus">
                        <use xlink:href="#rim" fill="#404040">
                                <set attributeName="fill" to="#808080" begin="zoomplus.mouseover" end="zoomplus.mouseout"/>
                        </use>
                        <path d="M-4,0h8M0,-4v8" fill="none" stroke="white" stroke-width="1.5" pointer-events="none"/>
                </g>
                <g id="zoomMin">
                        <use xlink:href="#rim" fill="#404040">
                                <set attributeName="fill" to="#808080" begin="zoomminus.mouseover" end="zoomminus.mouseout"/>
                        </use>
                        <path d="M-4,0h8" fill="none" stroke="white" stroke-width="1.5" pointer-events="none"/>
                </g>
                <g id="dirArrow">
                        <path fill="none" stroke="white" stroke-width="1.5" d="M0,-3.0v7 M-2.5,-0.5L0,-3.0L2.5,-0.5"/>
                </g>
               <g id="resetDef">
                       <use xlink:href="#rim2" fill="#404040">
                               <set attributeName="fill" to="#808080" begin="reset.mouseover" end="reset.mouseout"/>
                       </use>
               </g>
        </defs>

<script type="text/javascript">
var viewWidth = 1185;
var viewHeight = 686;
var sectionId = 'dynsection-1';
</script>
<script xlink:href="svgpan.js"/>
<svg id="graph" class="graph">
<g id="viewport">
<title>include/motion_primitive_library/common/data_type.h</title>
<polygon fill="white" stroke="none" points="-4,4 -4,-682 1181,-682 1181,4 -4,4"/>
<!-- Node5 -->
<g id="node1" class="node"><title>Node5</title>
<polygon fill="#bfbfbf" stroke="black" points="544.5,-647.5 544.5,-677.5 687.5,-677.5 687.5,-647.5 544.5,-647.5"/>
<text text-anchor="start" x="552.5" y="-665.5" font-family="Helvetica,sans-Serif" font-size="10.00">include/motion_primitive</text>
<text text-anchor="middle" x="616" y="-654.5" font-family="Helvetica,sans-Serif" font-size="10.00">_library/common/data_type.h</text>
</g>
<!-- Node6 -->
<g id="node2" class="node"><title>Node6</title>
<g id="a_node2"><a xlink:href="map__util_8h.html" target="_top" xlink:title="MapUtil classes. ">
<polygon fill="white" stroke="black" points="242.5,-569.5 242.5,-610.5 373.5,-610.5 373.5,-569.5 242.5,-569.5"/>
<text text-anchor="start" x="250.5" y="-598.5" font-family="Helvetica,sans-Serif" font-size="10.00">include/motion_primitive</text>
<text text-anchor="start" x="250.5" y="-587.5" font-family="Helvetica,sans-Serif" font-size="10.00">_library/collision_checking</text>
<text text-anchor="middle" x="308" y="-576.5" font-family="Helvetica,sans-Serif" font-size="10.00">/map_util.h</text>
</a>
</g>
</g>
<!-- Node5&#45;&gt;Node6 -->
<g id="edge1" class="edge"><title>Node5&#45;&gt;Node6</title>
<path fill="none" stroke="midnightblue" d="M545.028,-645.255C493.388,-633.435 423.982,-617.548 373.629,-606.022"/>
<polygon fill="midnightblue" stroke="midnightblue" points="544.252,-648.668 554.781,-647.487 545.814,-641.844 544.252,-648.668"/>
</g>
<!-- Node12 -->
<g id="node8" class="node"><title>Node12</title>
<g id="a_node8"><a xlink:href="math_8h.html" target="_top" xlink:title="Polynomial roots solver. ">
<polygon fill="white" stroke="black" points="671,-575 671,-605 793,-605 793,-575 671,-575"/>
<text text-anchor="start" x="679" y="-593" font-family="Helvetica,sans-Serif" font-size="10.00">include/motion_primitive</text>
<text text-anchor="middle" x="732" y="-582" font-family="Helvetica,sans-Serif" font-size="10.00">_library/primitive/math.h</text>
</a>
</g>
</g>
<!-- Node5&#45;&gt;Node12 -->
<g id="edge7" class="edge"><title>Node5&#45;&gt;Node12</title>
<path fill="none" stroke="midnightblue" d="M647.951,-642.082C667.243,-630.357 691.389,-615.682 708.845,-605.073"/>
<polygon fill="midnightblue" stroke="midnightblue" points="645.923,-639.218 639.196,-647.403 649.559,-645.2 645.923,-639.218"/>
</g>
<!-- Node13 -->
<g id="node9" class="node"><title>Node13</title>
<g id="a_node9"><a xlink:href="primitive_8h.html" target="_top" xlink:title="Primitive classes. ">
<polygon fill="white" stroke="black" points="548,-502.5 548,-532.5 684,-532.5 684,-502.5 548,-502.5"/>
<text text-anchor="start" x="556" y="-520.5" font-family="Helvetica,sans-Serif" font-size="10.00">include/motion_primitive</text>
<text text-anchor="middle" x="616" y="-509.5" font-family="Helvetica,sans-Serif" font-size="10.00">_library/primitive/primitive.h</text>
</a>
</g>
</g>
<!-- Node5&#45;&gt;Node13 -->
<g id="edge45" class="edge"><title>Node5&#45;&gt;Node13</title>
<path fill="none" stroke="midnightblue" d="M616,-637.194C616,-607.159 616,-557.048 616,-532.677"/>
<polygon fill="midnightblue" stroke="midnightblue" points="612.5,-637.266 616,-647.266 619.5,-637.266 612.5,-637.266"/>
</g>
<!-- Node7 -->
<g id="node3" class="node"><title>Node7</title>
<g id="a_node3"><a xlink:href="env__map_8h.html" target="_top" xlink:title="include/motion_primitive\l_library/planner/env_map.h">
<polygon fill="white" stroke="black" points="79,-285 79,-315 213,-315 213,-285 79,-285"/>
<text text-anchor="start" x="87" y="-303" font-family="Helvetica,sans-Serif" font-size="10.00">include/motion_primitive</text>
<text text-anchor="middle" x="146" y="-292" font-family="Helvetica,sans-Serif" font-size="10.00">_library/planner/env_map.h</text>
</a>
</g>
</g>
<!-- Node6&#45;&gt;Node7 -->
<g id="edge2" class="edge"><title>Node6&#45;&gt;Node7</title>
<path fill="none" stroke="midnightblue" d="M284.772,-561.534C255.77,-526.043 206.297,-461.381 176,-399 162.241,-370.67 153.167,-334.667 148.877,-315.144"/>
<polygon fill="midnightblue" stroke="midnightblue" points="282.27,-564.002 291.332,-569.491 287.671,-559.549 282.27,-564.002"/>
</g>
<!-- Node8 -->
<g id="node4" class="node"><title>Node8</title>
<g id="a_node4"><a xlink:href="mp__map__util_8h.html" target="_top" xlink:title="motion planning map util ">
<polygon fill="white" stroke="black" points="120.5,-67.5 120.5,-97.5 269.5,-97.5 269.5,-67.5 120.5,-67.5"/>
<text text-anchor="start" x="128.5" y="-85.5" font-family="Helvetica,sans-Serif" font-size="10.00">include/motion_primitive</text>
<text text-anchor="middle" x="195" y="-74.5" font-family="Helvetica,sans-Serif" font-size="10.00">_library/planner/mp_map_util.h</text>
</a>
</g>
</g>
<!-- Node7&#45;&gt;Node8 -->
<g id="edge3" class="edge"><title>Node7&#45;&gt;Node8</title>
<path fill="none" stroke="midnightblue" d="M151.442,-275.067C161.685,-230.017 183.541,-133.898 191.773,-97.6916"/>
<polygon fill="midnightblue" stroke="midnightblue" points="148.019,-274.333 149.215,-284.86 154.845,-275.885 148.019,-274.333"/>
</g>
<!-- Node9 -->
<g id="node5" class="node"><title>Node9</title>
<polygon fill="white" stroke="#bfbfbf" points="265.5,-0.5 265.5,-30.5 370.5,-30.5 370.5,-0.5 265.5,-0.5"/>
<text text-anchor="start" x="273.5" y="-18.5" font-family="Helvetica,sans-Serif" font-size="10.00">src/planner/mp_map</text>
<text text-anchor="middle" x="318" y="-7.5" font-family="Helvetica,sans-Serif" font-size="10.00">_util.cpp</text>
</g>
<!-- Node8&#45;&gt;Node9 -->
<g id="edge4" class="edge"><title>Node8&#45;&gt;Node9</title>
<path fill="none" stroke="midnightblue" d="M230.548,-62.7143C249.947,-52.4631 273.564,-39.9826 291.363,-30.5765"/>
<polygon fill="midnightblue" stroke="midnightblue" points="228.895,-59.6292 221.689,-67.396 232.166,-65.8181 228.895,-59.6292"/>
</g>
<!-- Node10 -->
<g id="node6" class="node"><title>Node10</title>
<polygon fill="white" stroke="#bfbfbf" points="0,-6 0,-25 124,-25 124,-6 0,-6"/>
<text text-anchor="middle" x="62" y="-13" font-family="Helvetica,sans-Serif" font-size="10.00">test/test_planner_2d.cpp</text>
</g>
<!-- Node8&#45;&gt;Node10 -->
<g id="edge5" class="edge"><title>Node8&#45;&gt;Node10</title>
<path fill="none" stroke="midnightblue" d="M157.079,-62.9674C131.53,-50.481 99.031,-34.5978 79.4066,-25.007"/>
<polygon fill="midnightblue" stroke="midnightblue" points="155.62,-66.1496 166.141,-67.396 158.693,-59.8605 155.62,-66.1496"/>
</g>
<!-- Node11 -->
<g id="node7" class="node"><title>Node11</title>
<polygon fill="white" stroke="#bfbfbf" points="142.5,-0.5 142.5,-30.5 247.5,-30.5 247.5,-0.5 142.5,-0.5"/>
<text text-anchor="start" x="150.5" y="-18.5" font-family="Helvetica,sans-Serif" font-size="10.00">test/test_planner_2d</text>
<text text-anchor="middle" x="195" y="-7.5" font-family="Helvetica,sans-Serif" font-size="10.00">_prior_traj.cpp</text>
</g>
<!-- Node8&#45;&gt;Node11 -->
<g id="edge6" class="edge"><title>Node8&#45;&gt;Node11</title>
<path fill="none" stroke="midnightblue" d="M195,-57.1081C195,-48.1539 195,-38.3227 195,-30.5765"/>
<polygon fill="midnightblue" stroke="midnightblue" points="191.5,-57.3959 195,-67.396 198.5,-57.396 191.5,-57.3959"/>
</g>
<!-- Node12&#45;&gt;Node13 -->
<g id="edge8" class="edge"><title>Node12&#45;&gt;Node13</title>
<path fill="none" stroke="midnightblue" d="M700.049,-569.582C680.757,-557.857 656.611,-543.182 639.155,-532.573"/>
<polygon fill="midnightblue" stroke="midnightblue" points="698.441,-572.7 708.804,-574.903 702.077,-566.718 698.441,-572.7"/>
</g>
<!-- Node34 -->
<g id="node30" class="node"><title>Node34</title>
<polygon fill="white" stroke="#bfbfbf" points="702.5,-508 702.5,-527 815.5,-527 815.5,-508 702.5,-508"/>
<text text-anchor="middle" x="759" y="-515" font-family="Helvetica,sans-Serif" font-size="10.00">src/primitive/math.cpp</text>
</g>
<!-- Node12&#45;&gt;Node34 -->
<g id="edge43" class="edge"><title>Node12&#45;&gt;Node34</title>
<path fill="none" stroke="midnightblue" d="M741.053,-565.361C746.049,-552.317 751.96,-536.883 755.594,-527.393"/>
<polygon fill="midnightblue" stroke="midnightblue" points="737.772,-564.143 737.464,-574.733 744.309,-566.646 737.772,-564.143"/>
</g>
<!-- Node35 -->
<g id="node31" class="node"><title>Node35</title>
<polygon fill="white" stroke="#bfbfbf" points="833.5,-508 833.5,-527 946.5,-527 946.5,-508 833.5,-508"/>
<text text-anchor="middle" x="890" y="-515" font-family="Helvetica,sans-Serif" font-size="10.00">src/primitive/rpoly.cpp</text>
</g>
<!-- Node12&#45;&gt;Node35 -->
<g id="edge44" class="edge"><title>Node12&#45;&gt;Node35</title>
<path fill="none" stroke="midnightblue" d="M773.015,-570.699C804.571,-556.619 846.739,-537.803 870.875,-527.034"/>
<polygon fill="midnightblue" stroke="midnightblue" points="771.3,-567.632 763.594,-574.903 774.152,-574.024 771.3,-567.632"/>
</g>
<!-- Node13&#45;&gt;Node7 -->
<g id="edge28" class="edge"><title>Node13&#45;&gt;Node7</title>
<path fill="none" stroke="midnightblue" d="M537.621,-510.45C455.123,-503.017 331.56,-488.547 290,-466 222.492,-429.377 171.863,-347.817 153.507,-315.039"/>
<polygon fill="midnightblue" stroke="midnightblue" points="537.451,-513.948 547.72,-511.343 538.067,-506.975 537.451,-513.948"/>
</g>
<!-- Node14 -->
<g id="node10" class="node"><title>Node14</title>
<g id="a_node10"><a xlink:href="decomp__util_8h.html" target="_top" xlink:title="decomp util util class ">
<polygon fill="white" stroke="black" points="802.5,-279.5 802.5,-320.5 933.5,-320.5 933.5,-279.5 802.5,-279.5"/>
<text text-anchor="start" x="810.5" y="-308.5" font-family="Helvetica,sans-Serif" font-size="10.00">include/motion_primitive</text>
<text text-anchor="start" x="810.5" y="-297.5" font-family="Helvetica,sans-Serif" font-size="10.00">_library/collision_checking</text>
<text text-anchor="middle" x="868" y="-286.5" font-family="Helvetica,sans-Serif" font-size="10.00">/decomp_util.h</text>
</a>
</g>
</g>
<!-- Node13&#45;&gt;Node14 -->
<g id="edge9" class="edge"><title>Node13&#45;&gt;Node14</title>
<path fill="none" stroke="midnightblue" d="M694.352,-499.994C732.507,-490.69 773.282,-478.459 788,-466 834.045,-427.022 855.758,-355.339 863.931,-320.727"/>
<polygon fill="midnightblue" stroke="midnightblue" points="693.12,-496.689 684.206,-502.416 694.746,-503.498 693.12,-496.689"/>
</g>
<!-- Node15 -->
<g id="node11" class="node"><title>Node15</title>
<g id="a_node11"><a xlink:href="env__cloud_8h.html" target="_top" xlink:title="include/motion_primitive\l_library/planner/env_cloud.h">
<polygon fill="white" stroke="black" points="668,-207 668,-237 806,-237 806,-207 668,-207"/>
<text text-anchor="start" x="676" y="-225" font-family="Helvetica,sans-Serif" font-size="10.00">include/motion_primitive</text>
<text text-anchor="middle" x="737" y="-214" font-family="Helvetica,sans-Serif" font-size="10.00">_library/planner/env_cloud.h</text>
</a>
</g>
</g>
<!-- Node13&#45;&gt;Node15 -->
<g id="edge27" class="edge"><title>Node13&#45;&gt;Node15</title>
<path fill="none" stroke="midnightblue" d="M653.363,-497.303C686.988,-477.697 734.208,-443.801 755,-399 780.731,-343.557 755.581,-267.96 743.107,-237.045"/>
<polygon fill="midnightblue" stroke="midnightblue" points="651.25,-494.478 644.273,-502.451 654.699,-500.569 651.25,-494.478"/>
</g>
<!-- Node19 -->
<g id="node15" class="node"><title>Node19</title>
<g id="a_node15"><a xlink:href="env__base_8h.html" target="_top" xlink:title="environment base class ">
<polygon fill="white" stroke="black" points="250,-363 250,-393 386,-393 386,-363 250,-363"/>
<text text-anchor="start" x="258" y="-381" font-family="Helvetica,sans-Serif" font-size="10.00">include/motion_primitive</text>
<text text-anchor="middle" x="318" y="-370" font-family="Helvetica,sans-Serif" font-size="10.00">_library/planner/env_base.h</text>
</a>
</g>
</g>
<!-- Node13&#45;&gt;Node19 -->
<g id="edge14" class="edge"><title>Node13&#45;&gt;Node19</title>
<path fill="none" stroke="midnightblue" d="M566.428,-498.888C541.692,-489.723 511.476,-477.954 485,-466 433.305,-442.659 374.974,-410.995 342.747,-393.01"/>
<polygon fill="midnightblue" stroke="midnightblue" points="565.374,-502.229 575.968,-502.394 567.789,-495.659 565.374,-502.229"/>
</g>
<!-- Node22 -->
<g id="node18" class="node"><title>Node22</title>
<g id="a_node18"><a xlink:href="state__space_8h.html" target="_top" xlink:title="state space class for graph search ">
<polygon fill="white" stroke="black" points="272,-279.5 272,-320.5 394,-320.5 394,-279.5 272,-279.5"/>
<text text-anchor="start" x="280" y="-308.5" font-family="Helvetica,sans-Serif" font-size="10.00">include/motion_primitive</text>
<text text-anchor="start" x="280" y="-297.5" font-family="Helvetica,sans-Serif" font-size="10.00">_library/planner/state</text>
<text text-anchor="middle" x="333" y="-286.5" font-family="Helvetica,sans-Serif" font-size="10.00">_space.h</text>
</a>
</g>
</g>
<!-- Node13&#45;&gt;Node22 -->
<g id="edge29" class="edge"><title>Node13&#45;&gt;Node22</title>
<path fill="none" stroke="midnightblue" d="M537.756,-503.452C438.225,-485.029 275.108,-448.09 241,-399 230.349,-383.67 231.855,-373.273 241,-357 249.886,-341.188 265.247,-329.319 280.899,-320.675"/>
<polygon fill="midnightblue" stroke="midnightblue" points="537.312,-506.928 547.778,-505.284 538.571,-500.042 537.312,-506.928"/>
</g>
<!-- Node26 -->
<g id="node22" class="node"><title>Node26</title>
<g id="a_node22"><a xlink:href="poly__traj_8h.html" target="_top" xlink:title="Trajectory object for PolySolver. ">
<polygon fill="white" stroke="black" points="986,-435.5 986,-465.5 1122,-465.5 1122,-435.5 986,-435.5"/>
<text text-anchor="start" x="994" y="-453.5" font-family="Helvetica,sans-Serif" font-size="10.00">include/motion_primitive</text>
<text text-anchor="middle" x="1054" y="-442.5" font-family="Helvetica,sans-Serif" font-size="10.00">_library/primitive/poly_traj.h</text>
</a>
</g>
</g>
<!-- Node13&#45;&gt;Node26 -->
<g id="edge30" class="edge"><title>Node13&#45;&gt;Node26</title>
<path fill="none" stroke="midnightblue" d="M694.432,-501.833C820.402,-482.384 854.506,-485.279 977,-466 979.822,-465.556 982.699,-465.087 985.603,-464.601"/>
<polygon fill="midnightblue" stroke="midnightblue" points="693.737,-498.399 684.397,-503.399 694.817,-505.315 693.737,-498.399"/>
</g>
<!-- Node30 -->
<g id="node26" class="node"><title>Node30</title>
<g id="a_node26"><a xlink:href="primitive__util_8h.html" target="_top" xlink:title="Simple primitive utils. ">
<polygon fill="white" stroke="black" points="592,-363 592,-393 746,-393 746,-363 592,-363"/>
<text text-anchor="start" x="600" y="-381" font-family="Helvetica,sans-Serif" font-size="10.00">include/motion_primitive</text>
<text text-anchor="middle" x="669" y="-370" font-family="Helvetica,sans-Serif" font-size="10.00">_library/primitive/primitive_util.h</text>
</a>
</g>
</g>
<!-- Node13&#45;&gt;Node30 -->
<g id="edge34" class="edge"><title>Node13&#45;&gt;Node30</title>
<path fill="none" stroke="midnightblue" d="M629.604,-493.405C634.239,-484.961 639.204,-475.217 643,-466 653.266,-441.074 661.418,-410.63 665.7,-393.161"/>
<polygon fill="midnightblue" stroke="midnightblue" points="626.458,-491.86 624.591,-502.289 632.554,-495.3 626.458,-491.86"/>
</g>
<!-- Node31 -->
<g id="node27" class="node"><title>Node31</title>
<g id="a_node27"><a xlink:href="trajectory_8h.html" target="_top" xlink:title="Trajectory class. ">
<polygon fill="white" stroke="black" points="494,-435.5 494,-465.5 634,-465.5 634,-435.5 494,-435.5"/>
<text text-anchor="start" x="502" y="-453.5" font-family="Helvetica,sans-Serif" font-size="10.00">include/motion_primitive</text>
<text text-anchor="middle" x="564" y="-442.5" font-family="Helvetica,sans-Serif" font-size="10.00">_library/primitive/trajectory.h</text>
</a>
</g>
</g>
<!-- Node13&#45;&gt;Node31 -->
<g id="edge37" class="edge"><title>Node13&#45;&gt;Node31</title>
<path fill="none" stroke="midnightblue" d="M598.358,-494.447C590.719,-484.899 582.003,-474.004 575.261,-465.577"/>
<polygon fill="midnightblue" stroke="midnightblue" points="595.737,-496.774 604.717,-502.396 601.203,-492.401 595.737,-496.774"/>
</g>
<!-- Node33 -->
<g id="node29" class="node"><title>Node33</title>
<polygon fill="white" stroke="#bfbfbf" points="840,-441 840,-460 968,-460 968,-441 840,-441"/>
<text text-anchor="middle" x="904" y="-448" font-family="Helvetica,sans-Serif" font-size="10.00">src/primitive/primitive.cpp</text>
</g>
<!-- Node13&#45;&gt;Node33 -->
<g id="edge42" class="edge"><title>Node13&#45;&gt;Node33</title>
<path fill="none" stroke="midnightblue" d="M688.097,-500.228C744.645,-487.466 821.093,-470.212 866.211,-460.029"/>
<polygon fill="midnightblue" stroke="midnightblue" points="687.121,-496.86 678.137,-502.476 688.662,-503.688 687.121,-496.86"/>
</g>
<!-- Node14&#45;&gt;Node15 -->
<g id="edge10" class="edge"><title>Node14&#45;&gt;Node15</title>
<path fill="none" stroke="midnightblue" d="M825.45,-274.315C804.291,-262.039 779.473,-247.641 761.52,-237.225"/>
<polygon fill="midnightblue" stroke="midnightblue" points="823.858,-277.437 834.264,-279.428 827.371,-271.382 823.858,-277.437"/>
</g>
<!-- Node18 -->
<g id="node14" class="node"><title>Node18</title>
<polygon fill="white" stroke="#bfbfbf" points="824.5,-207 824.5,-237 937.5,-237 937.5,-207 824.5,-207"/>
<text text-anchor="start" x="832.5" y="-225" font-family="Helvetica,sans-Serif" font-size="10.00">src/collision_checking</text>
<text text-anchor="middle" x="881" y="-214" font-family="Helvetica,sans-Serif" font-size="10.00">/decomp_util.cpp</text>
</g>
<!-- Node14&#45;&gt;Node18 -->
<g id="edge13" class="edge"><title>Node14&#45;&gt;Node18</title>
<path fill="none" stroke="midnightblue" d="M873.083,-269.283C874.97,-258.254 877.024,-246.246 878.567,-237.225"/>
<polygon fill="midnightblue" stroke="midnightblue" points="869.584,-268.981 871.348,-279.428 876.484,-270.161 869.584,-268.981"/>
</g>
<!-- Node16 -->
<g id="node12" class="node"><title>Node16</title>
<g id="a_node12"><a xlink:href="mp__cloud__util_8h.html" target="_top" xlink:title="motion planning cloud util ">
<polygon fill="white" stroke="black" points="542,-67.5 542,-97.5 696,-97.5 696,-67.5 542,-67.5"/>
<text text-anchor="start" x="550" y="-85.5" font-family="Helvetica,sans-Serif" font-size="10.00">include/motion_primitive</text>
<text text-anchor="middle" x="619" y="-74.5" font-family="Helvetica,sans-Serif" font-size="10.00">_library/planner/mp_cloud_util.h</text>
</a>
</g>
</g>
<!-- Node15&#45;&gt;Node16 -->
<g id="edge11" class="edge"><title>Node15&#45;&gt;Node16</title>
<path fill="none" stroke="midnightblue" d="M718.139,-199.022C693.747,-170.599 651.95,-121.895 631.294,-97.8258"/>
<polygon fill="midnightblue" stroke="midnightblue" points="715.648,-201.494 724.816,-206.803 720.96,-196.935 715.648,-201.494"/>
</g>
<!-- Node17 -->
<g id="node13" class="node"><title>Node17</title>
<polygon fill="white" stroke="#bfbfbf" points="564,-0.5 564,-30.5 674,-30.5 674,-0.5 564,-0.5"/>
<text text-anchor="start" x="572" y="-18.5" font-family="Helvetica,sans-Serif" font-size="10.00">src/planner/mp_cloud</text>
<text text-anchor="middle" x="619" y="-7.5" font-family="Helvetica,sans-Serif" font-size="10.00">_util.cpp</text>
</g>
<!-- Node16&#45;&gt;Node17 -->
<g id="edge12" class="edge"><title>Node16&#45;&gt;Node17</title>
<path fill="none" stroke="midnightblue" d="M619,-57.1081C619,-48.1539 619,-38.3227 619,-30.5765"/>
<polygon fill="midnightblue" stroke="midnightblue" points="615.5,-57.3959 619,-67.396 622.5,-57.396 615.5,-57.3959"/>
</g>
<!-- Node19&#45;&gt;Node7 -->
<g id="edge16" class="edge"><title>Node19&#45;&gt;Node7</title>
<path fill="none" stroke="midnightblue" d="M276.582,-358.699C246.217,-345.282 205.602,-327.336 177.778,-315.041"/>
<polygon fill="midnightblue" stroke="midnightblue" points="275.49,-362.043 286.051,-362.883 278.319,-355.64 275.49,-362.043"/>
</g>
<!-- Node19&#45;&gt;Node15 -->
<g id="edge15" class="edge"><title>Node19&#45;&gt;Node15</title>
<path fill="none" stroke="midnightblue" d="M381.696,-360.399C386.197,-359.243 390.666,-358.101 395,-357 459.357,-340.653 477.682,-343.924 540,-321 604.89,-297.13 676.501,-258.024 712.89,-237.159"/>
<polygon fill="midnightblue" stroke="midnightblue" points="380.643,-357.056 371.832,-362.939 382.389,-363.834 380.643,-357.056"/>
</g>
<!-- Node20 -->
<g id="node16" class="node"><title>Node20</title>
<g id="a_node16"><a xlink:href="mp__base__util_8h.html" target="_top" xlink:title="base class for motion planning ">
<polygon fill="white" stroke="black" points="308,-134.5 308,-164.5 460,-164.5 460,-134.5 308,-134.5"/>
<text text-anchor="start" x="316" y="-152.5" font-family="Helvetica,sans-Serif" font-size="10.00">include/motion_primitive</text>
<text text-anchor="middle" x="384" y="-141.5" font-family="Helvetica,sans-Serif" font-size="10.00">_library/planner/mp_base_util.h</text>
</a>
</g>
</g>
<!-- Node19&#45;&gt;Node20 -->
<g id="edge17" class="edge"><title>Node19&#45;&gt;Node20</title>
<path fill="none" stroke="midnightblue" d="M290.636,-356.194C280.162,-346.675 269.242,-334.504 263,-321 240.586,-272.505 225.945,-245.168 256,-201 268.163,-183.126 287.723,-171.578 307.93,-164.118"/>
<polygon fill="midnightblue" stroke="midnightblue" points="288.609,-359.067 298.473,-362.934 293.173,-353.76 288.609,-359.067"/>
</g>
<!-- Node19&#45;&gt;Node22 -->
<g id="edge21" class="edge"><title>Node19&#45;&gt;Node22</title>
<path fill="none" stroke="midnightblue" d="M322.805,-352.656C324.844,-342.326 327.189,-330.443 329.116,-320.68"/>
<polygon fill="midnightblue" stroke="midnightblue" points="319.324,-352.216 320.821,-362.705 326.192,-353.572 319.324,-352.216"/>
</g>
<!-- Node24 -->
<g id="node20" class="node"><title>Node24</title>
<polygon fill="white" stroke="#bfbfbf" points="500.5,-140 500.5,-159 645.5,-159 645.5,-140 500.5,-140"/>
<text text-anchor="middle" x="573" y="-147" font-family="Helvetica,sans-Serif" font-size="10.00">src/planner/graph_search.cpp</text>
</g>
<!-- Node19&#45;&gt;Node24 -->
<g id="edge26" class="edge"><title>Node19&#45;&gt;Node24</title>
<path fill="none" stroke="midnightblue" d="M376.02,-359.602C430.581,-340.154 510.229,-303.223 554,-243 572.892,-217.007 573.993,-176.594 573.471,-159.078"/>
<polygon fill="midnightblue" stroke="midnightblue" points="374.775,-356.33 366.477,-362.918 377.072,-362.942 374.775,-356.33"/>
</g>
<!-- Node20&#45;&gt;Node8 -->
<g id="edge19" class="edge"><title>Node20&#45;&gt;Node8</title>
<path fill="none" stroke="midnightblue" d="M333.382,-131.092C302.872,-120.599 264.518,-107.408 235.93,-97.5765"/>
<polygon fill="midnightblue" stroke="midnightblue" points="332.395,-134.453 342.99,-134.396 334.672,-127.834 332.395,-134.453"/>
</g>
<!-- Node20&#45;&gt;Node16 -->
<g id="edge18" class="edge"><title>Node20&#45;&gt;Node16</title>
<path fill="none" stroke="midnightblue" d="M444.684,-131.715C482.927,-121.137 531.743,-107.635 567.984,-97.6109"/>
<polygon fill="midnightblue" stroke="midnightblue" points="443.407,-128.437 434.702,-134.476 445.273,-135.183 443.407,-128.437"/>
</g>
<!-- Node21 -->
<g id="node17" class="node"><title>Node21</title>
<polygon fill="white" stroke="#bfbfbf" points="330.5,-67.5 330.5,-97.5 437.5,-97.5 437.5,-67.5 330.5,-67.5"/>
<text text-anchor="start" x="338.5" y="-85.5" font-family="Helvetica,sans-Serif" font-size="10.00">src/planner/mp_base</text>
<text text-anchor="middle" x="384" y="-74.5" font-family="Helvetica,sans-Serif" font-size="10.00">_util.cpp</text>
</g>
<!-- Node20&#45;&gt;Node21 -->
<g id="edge20" class="edge"><title>Node20&#45;&gt;Node21</title>
<path fill="none" stroke="midnightblue" d="M384,-124.108C384,-115.154 384,-105.323 384,-97.5765"/>
<polygon fill="midnightblue" stroke="midnightblue" points="380.5,-124.396 384,-134.396 387.5,-124.396 380.5,-124.396"/>
</g>
<!-- Node23 -->
<g id="node19" class="node"><title>Node23</title>
<g id="a_node19"><a xlink:href="graph__search_8h.html" target="_top" xlink:title="backend of graph search, implemetation of A* and Lifelong Planning A* ">
<polygon fill="white" stroke="black" points="423,-201.5 423,-242.5 545,-242.5 545,-201.5 423,-201.5"/>
<text text-anchor="start" x="431" y="-230.5" font-family="Helvetica,sans-Serif" font-size="10.00">include/motion_primitive</text>
<text text-anchor="start" x="431" y="-219.5" font-family="Helvetica,sans-Serif" font-size="10.00">_library/planner/graph</text>
<text text-anchor="middle" x="484" y="-208.5" font-family="Helvetica,sans-Serif" font-size="10.00">_search.h</text>
</a>
</g>
</g>
<!-- Node22&#45;&gt;Node23 -->
<g id="edge22" class="edge"><title>Node22&#45;&gt;Node23</title>
<path fill="none" stroke="midnightblue" d="M380.867,-274.908C401.629,-264.458 425.626,-252.38 445.246,-242.506"/>
<polygon fill="midnightblue" stroke="midnightblue" points="379.245,-271.806 371.886,-279.428 382.392,-278.059 379.245,-271.806"/>
</g>
<!-- Node25 -->
<g id="node21" class="node"><title>Node25</title>
<polygon fill="white" stroke="#bfbfbf" points="265,-212.5 265,-231.5 405,-231.5 405,-212.5 265,-212.5"/>
<text text-anchor="middle" x="335" y="-219.5" font-family="Helvetica,sans-Serif" font-size="10.00">src/planner/state_space.cpp</text>
</g>
<!-- Node22&#45;&gt;Node25 -->
<g id="edge25" class="edge"><title>Node22&#45;&gt;Node25</title>
<path fill="none" stroke="midnightblue" d="M333.788,-269.051C334.143,-255.56 334.536,-240.649 334.775,-231.552"/>
<polygon fill="midnightblue" stroke="midnightblue" points="330.279,-269.339 333.515,-279.428 337.277,-269.524 330.279,-269.339"/>
</g>
<!-- Node23&#45;&gt;Node20 -->
<g id="edge23" class="edge"><title>Node23&#45;&gt;Node20</title>
<path fill="none" stroke="midnightblue" d="M447.725,-195.426C433.017,-185.057 416.59,-173.476 404.099,-164.67"/>
<polygon fill="midnightblue" stroke="midnightblue" points="445.955,-198.46 456.144,-201.362 449.988,-192.739 445.955,-198.46"/>
</g>
<!-- Node23&#45;&gt;Node24 -->
<g id="edge24" class="edge"><title>Node23&#45;&gt;Node24</title>
<path fill="none" stroke="midnightblue" d="M516.868,-194.964C532.775,-182.364 550.814,-168.074 562.051,-159.173"/>
<polygon fill="midnightblue" stroke="midnightblue" points="514.457,-192.409 508.791,-201.362 518.803,-197.896 514.457,-192.409"/>
</g>
<!-- Node27 -->
<g id="node23" class="node"><title>Node27</title>
<g id="a_node23"><a xlink:href="poly__solver_8h.html" target="_top" xlink:title="Trajectory generator back&#45;end. ">
<polygon fill="white" stroke="black" points="1055,-357.5 1055,-398.5 1177,-398.5 1177,-357.5 1055,-357.5"/>
<text text-anchor="start" x="1063" y="-386.5" font-family="Helvetica,sans-Serif" font-size="10.00">include/motion_primitive</text>
<text text-anchor="start" x="1063" y="-375.5" font-family="Helvetica,sans-Serif" font-size="10.00">_library/primitive/poly</text>
<text text-anchor="middle" x="1116" y="-364.5" font-family="Helvetica,sans-Serif" font-size="10.00">_solver.h</text>
</a>
</g>
</g>
<!-- Node26&#45;&gt;Node27 -->
<g id="edge31" class="edge"><title>Node26&#45;&gt;Node27</title>
<path fill="none" stroke="midnightblue" d="M1073.31,-427.541C1081.46,-418.278 1090.87,-407.58 1098.77,-398.588"/>
<polygon fill="midnightblue" stroke="midnightblue" points="1070.52,-425.413 1066.55,-435.233 1075.78,-430.035 1070.52,-425.413"/>
</g>
<!-- Node29 -->
<g id="node25" class="node"><title>Node29</title>
<polygon fill="white" stroke="#bfbfbf" points="945.5,-363 945.5,-393 1036.5,-393 1036.5,-363 945.5,-363"/>
<text text-anchor="start" x="953.5" y="-381" font-family="Helvetica,sans-Serif" font-size="10.00">src/primitive/poly</text>
<text text-anchor="middle" x="991" y="-370" font-family="Helvetica,sans-Serif" font-size="10.00">_traj.cpp</text>
</g>
<!-- Node26&#45;&gt;Node29 -->
<g id="edge33" class="edge"><title>Node26&#45;&gt;Node29</title>
<path fill="none" stroke="midnightblue" d="M1034.38,-427.539C1024.38,-416.356 1012.52,-403.083 1003.73,-393.246"/>
<polygon fill="midnightblue" stroke="midnightblue" points="1031.98,-430.109 1041.25,-435.233 1037.2,-425.445 1031.98,-430.109"/>
</g>
<!-- Node28 -->
<g id="node24" class="node"><title>Node28</title>
<polygon fill="white" stroke="#bfbfbf" points="1070.5,-285 1070.5,-315 1161.5,-315 1161.5,-285 1070.5,-285"/>
<text text-anchor="start" x="1078.5" y="-303" font-family="Helvetica,sans-Serif" font-size="10.00">src/primitive/poly</text>
<text text-anchor="middle" x="1116" y="-292" font-family="Helvetica,sans-Serif" font-size="10.00">_solver.cpp</text>
</g>
<!-- Node27&#45;&gt;Node28 -->
<g id="edge32" class="edge"><title>Node27&#45;&gt;Node28</title>
<path fill="none" stroke="midnightblue" d="M1116,-347.283C1116,-336.254 1116,-324.246 1116,-315.225"/>
<polygon fill="midnightblue" stroke="midnightblue" points="1112.5,-347.428 1116,-357.428 1119.5,-347.428 1112.5,-347.428"/>
</g>
<!-- Node30&#45;&gt;Node14 -->
<g id="edge35" class="edge"><title>Node30&#45;&gt;Node14</title>
<path fill="none" stroke="midnightblue" d="M715.456,-359.258C745.766,-347.682 785.355,-332.563 816.606,-320.628"/>
<polygon fill="midnightblue" stroke="midnightblue" points="714.057,-356.046 705.964,-362.883 716.555,-362.585 714.057,-356.046"/>
</g>
<!-- Node30&#45;&gt;Node24 -->
<g id="edge36" class="edge"><title>Node30&#45;&gt;Node24</title>
<path fill="none" stroke="midnightblue" d="M659.081,-353.597C638.201,-304.332 590.505,-191.801 576.767,-159.388"/>
<polygon fill="midnightblue" stroke="midnightblue" points="655.87,-354.99 662.995,-362.831 662.315,-352.258 655.87,-354.99"/>
</g>
<!-- Node31&#45;&gt;Node19 -->
<g id="edge38" class="edge"><title>Node31&#45;&gt;Node19</title>
<path fill="none" stroke="midnightblue" d="M505.257,-432.665C463.125,-420.591 407.008,-404.508 367.224,-393.107"/>
<polygon fill="midnightblue" stroke="midnightblue" points="504.527,-436.097 515.104,-435.487 506.455,-429.368 504.527,-436.097"/>
</g>
<!-- Node31&#45;&gt;Node23 -->
<g id="edge39" class="edge"><title>Node31&#45;&gt;Node23</title>
<path fill="none" stroke="midnightblue" d="M560.562,-425.335C557.512,-406.443 552.385,-379.674 545,-357 531.304,-314.954 508.262,-268.541 494.76,-242.864"/>
<polygon fill="midnightblue" stroke="midnightblue" points="557.14,-426.106 562.12,-435.457 564.058,-425.041 557.14,-426.106"/>
</g>
<!-- Node31&#45;&gt;Node30 -->
<g id="edge40" class="edge"><title>Node31&#45;&gt;Node30</title>
<path fill="none" stroke="midnightblue" d="M593.634,-429.603C610.976,-417.959 632.455,-403.538 648.04,-393.073"/>
<polygon fill="midnightblue" stroke="midnightblue" points="591.347,-426.923 584.996,-435.403 595.249,-432.734 591.347,-426.923"/>
</g>
<!-- Node32 -->
<g id="node28" class="node"><title>Node32</title>
<polygon fill="white" stroke="#bfbfbf" points="404,-368.5 404,-387.5 536,-387.5 536,-368.5 404,-368.5"/>
<text text-anchor="middle" x="470" y="-375.5" font-family="Helvetica,sans-Serif" font-size="10.00">src/primitive/trajectory.cpp</text>
</g>
<!-- Node31&#45;&gt;Node32 -->
<g id="edge41" class="edge"><title>Node31&#45;&gt;Node32</title>
<path fill="none" stroke="midnightblue" d="M536.956,-429.217C518.622,-415.467 495.312,-397.984 481.588,-387.691"/>
<polygon fill="midnightblue" stroke="midnightblue" points="534.878,-432.033 544.978,-435.233 539.078,-426.433 534.878,-432.033"/>
</g>
</g>
</svg>
        <g id="navigator" transform="translate(0 0)" fill="#404254">
                <rect fill="#f2f5e9" fill-opacity="0.5" stroke="#606060" stroke-width=".5" x="0" y="0" width="60" height="60"/>
                <use id="zoomplus" xlink:href="#zoomPlus" x="17" y="9" onmousedown="handleZoom(evt,'in')"/>
                <use id="zoomminus" xlink:href="#zoomMin" x="42" y="9" onmousedown="handleZoom(evt,'out')"/>
                <use id="reset" xlink:href="#resetDef" x="30" y="36" onmousedown="handleReset()"/>
                <g id="arrowUp" xlink:href="#dirArrow" transform="translate(30 24)" onmousedown="handlePan(0,-1)">
                  <use xlink:href="#rim" fill="#404040">
                        <set attributeName="fill" to="#808080" begin="arrowUp.mouseover" end="arrowUp.mouseout"/>
                  </use>
                  <path fill="none" stroke="white" stroke-width="1.5" d="M0,-3.0v7 M-2.5,-0.5L0,-3.0L2.5,-0.5"/>
                </g>
                <g id="arrowRight" xlink:href="#dirArrow" transform="rotate(90) translate(36 -43)" onmousedown="handlePan(1,0)">
                  <use xlink:href="#rim" fill="#404040">
                        <set attributeName="fill" to="#808080" begin="arrowRight.mouseover" end="arrowRight.mouseout"/>
                  </use>
                  <path fill="none" stroke="white" stroke-width="1.5" d="M0,-3.0v7 M-2.5,-0.5L0,-3.0L2.5,-0.5"/>
                </g>
                <g id="arrowDown" xlink:href="#dirArrow" transform="rotate(180) translate(-30 -48)" onmousedown="handlePan(0,1)">
                  <use xlink:href="#rim" fill="#404040">
                        <set attributeName="fill" to="#808080" begin="arrowDown.mouseover" end="arrowDown.mouseout"/>
                  </use>
                  <path fill="none" stroke="white" stroke-width="1.5" d="M0,-3.0v7 M-2.5,-0.5L0,-3.0L2.5,-0.5"/>
                </g>
                <g id="arrowLeft" xlink:href="#dirArrow" transform="rotate(270) translate(-36 17)" onmousedown="handlePan(-1,0)">
                  <use xlink:href="#rim" fill="#404040">
                        <set attributeName="fill" to="#808080" begin="arrowLeft.mouseover" end="arrowLeft.mouseout"/>
                  </use>
                  <path fill="none" stroke="white" stroke-width="1.5" d="M0,-3.0v7 M-2.5,-0.5L0,-3.0L2.5,-0.5"/>
                </g>
        </g>
        <svg viewBox="0 0 15 15" width="100%" height="30px" preserveAspectRatio="xMaxYMin meet">
         <g id="arrow_out" transform="scale(0.3 0.3)">
          <a xlink:href="data__type_8h__dep__incl_org.svg" target="_base">
           <rect id="button" ry="5" rx="5" y="6" x="6" height="38" width="38"
                fill="#f2f5e9" fill-opacity="0.5" stroke="#606060" stroke-width="1.0"/>
           <path id="arrow"
             d="M 11.500037,31.436501 C 11.940474,20.09759 22.043105,11.32322 32.158766,21.979434 L 37.068811,17.246167 C 37.068811,17.246167 37.088388,32 37.088388,32 L 22.160133,31.978069 C 22.160133,31.978069 26.997745,27.140456 26.997745,27.140456 C 18.528582,18.264221 13.291696,25.230495 11.500037,31.436501 z"
             style="fill:#404040;"/>
          </a>
         </g>
        </svg>
</svg>
