<?xml version="1.0" encoding="UTF-8" standalone="no"?>
<!DOCTYPE svg PUBLIC "-//W3C//DTD SVG 1.1//EN"
 "http://www.w3.org/Graphics/SVG/1.1/DTD/svg11.dtd">
<!-- Generated by graphviz version 2.38.0 (20140413.2041)
 -->
<!-- Title: include/motion_primitive_library/collision_checking/decomp_util.h Pages: 1 -->
<svg width="286pt" height="251pt"
 viewBox="0.00 0.00 285.50 251.00" xmlns="http://www.w3.org/2000/svg" xmlns:xlink="http://www.w3.org/1999/xlink">
<g id="graph0" class="graph" transform="scale(1 1) rotate(0) translate(4 247)">
<title>include/motion_primitive_library/collision_checking/decomp_util.h</title>
<polygon fill="white" stroke="none" points="-4,4 -4,-247 281.5,-247 281.5,4 -4,4"/>
<!-- Node15 -->
<g id="node1" class="node"><title>Node15</title>
<polygon fill="#bfbfbf" stroke="black" points="83.5,-201.5 83.5,-242.5 214.5,-242.5 214.5,-201.5 83.5,-201.5"/>
<text text-anchor="start" x="91.5" y="-230.5" font-family="Helvetica,sans-Serif" font-size="10.00">include/motion_primitive</text>
<text text-anchor="start" x="91.5" y="-219.5" font-family="Helvetica,sans-Serif" font-size="10.00">_library/collision_checking</text>
<text text-anchor="middle" x="149" y="-208.5" font-family="Helvetica,sans-Serif" font-size="10.00">/decomp_util.h</text>
</g>
<!-- Node16 -->
<g id="node2" class="node"><title>Node16</title>
<g id="a_node2"><a xlink:href="env__cloud_8h.html" target="_top" xlink:title="include/motion_primitive\l_library/planner/env_cloud.h">
<polygon fill="white" stroke="black" points="8,-134.5 8,-164.5 146,-164.5 146,-134.5 8,-134.5"/>
<text text-anchor="start" x="16" y="-152.5" font-family="Helvetica,sans-Serif" font-size="10.00">include/motion_primitive</text>
<text text-anchor="middle" x="77" y="-141.5" font-family="Helvetica,sans-Serif" font-size="10.00">_library/planner/env_cloud.h</text>
</a>
</g>
</g>
<!-- Node15&#45;&gt;Node16 -->
<g id="edge1" class="edge"><title>Node15&#45;&gt;Node16</title>
<path fill="none" stroke="midnightblue" d="M121.742,-194.31C111.539,-184.32 100.34,-173.353 91.6978,-164.892"/>
<polygon fill="midnightblue" stroke="midnightblue" points="119.35,-196.866 128.944,-201.362 124.248,-191.865 119.35,-196.866"/>
</g>
<!-- Node19 -->
<g id="node5" class="node"><title>Node19</title>
<polygon fill="white" stroke="#bfbfbf" points="164.5,-134.5 164.5,-164.5 277.5,-164.5 277.5,-134.5 164.5,-134.5"/>
<text text-anchor="start" x="172.5" y="-152.5" font-family="Helvetica,sans-Serif" font-size="10.00">src/collision_checking</text>
<text text-anchor="middle" x="221" y="-141.5" font-family="Helvetica,sans-Serif" font-size="10.00">/decomp_util.cpp</text>
</g>
<!-- Node15&#45;&gt;Node19 -->
<g id="edge4" class="edge"><title>Node15&#45;&gt;Node19</title>
<path fill="none" stroke="midnightblue" d="M176.258,-194.31C186.461,-184.32 197.66,-173.353 206.302,-164.892"/>
<polygon fill="midnightblue" stroke="midnightblue" points="173.752,-191.865 169.056,-201.362 178.65,-196.866 173.752,-191.865"/>
</g>
<!-- Node17 -->
<g id="node3" class="node"><title>Node17</title>
<g id="a_node3"><a xlink:href="mp__cloud__util_8h.html" target="_top" xlink:title="motion planning cloud util ">
<polygon fill="white" stroke="black" points="0,-67.5 0,-97.5 154,-97.5 154,-67.5 0,-67.5"/>
<text text-anchor="start" x="8" y="-85.5" font-family="Helvetica,sans-Serif" font-size="10.00">include/motion_primitive</text>
<text text-anchor="middle" x="77" y="-74.5" font-family="Helvetica,sans-Serif" font-size="10.00">_library/planner/mp_cloud_util.h</text>
</a>
</g>
</g>
<!-- Node16&#45;&gt;Node17 -->
<g id="edge2" class="edge"><title>Node16&#45;&gt;Node17</title>
<path fill="none" stroke="midnightblue" d="M77,-124.108C77,-115.154 77,-105.323 77,-97.5765"/>
<polygon fill="midnightblue" stroke="midnightblue" points="73.5001,-124.396 77,-134.396 80.5001,-124.396 73.5001,-124.396"/>
</g>
<!-- Node18 -->
<g id="node4" class="node"><title>Node18</title>
<polygon fill="white" stroke="#bfbfbf" points="22,-0.5 22,-30.5 132,-30.5 132,-0.5 22,-0.5"/>
<text text-anchor="start" x="30" y="-18.5" font-family="Helvetica,sans-Serif" font-size="10.00">src/planner/mp_cloud</text>
<text text-anchor="middle" x="77" y="-7.5" font-family="Helvetica,sans-Serif" font-size="10.00">_util.cpp</text>
</g>
<!-- Node17&#45;&gt;Node18 -->
<g id="edge3" class="edge"><title>Node17&#45;&gt;Node18</title>
<path fill="none" stroke="midnightblue" d="M77,-57.1081C77,-48.1539 77,-38.3227 77,-30.5765"/>
<polygon fill="midnightblue" stroke="midnightblue" points="73.5001,-57.3959 77,-67.396 80.5001,-57.396 73.5001,-57.3959"/>
</g>
</g>
</svg>
