<?xml version="1.0" encoding="UTF-8" standalone="no"?>
<!DOCTYPE svg PUBLIC "-//W3C//DTD SVG 1.1//EN"
 "http://www.w3.org/Graphics/SVG/1.1/DTD/svg11.dtd">
<!-- Generated by graphviz version 2.38.0 (20140413.2041)
 -->
<!-- Title: src/collision_checking Pages: 1 -->
<svg width="136pt" height="151pt"
 viewBox="0.00 0.00 136.00 151.00" xmlns="http://www.w3.org/2000/svg" xmlns:xlink="http://www.w3.org/1999/xlink">
<g id="graph0" class="graph" transform="scale(1 1) rotate(0) translate(4 147)">
<title>src/collision_checking</title>
<polygon fill="white" stroke="none" points="-4,4 -4,-147 132,-147 132,4 -4,4"/>
<g id="clust1" class="cluster"><title>clusterdir_68267d1309a1af8e8297ef4c3efbcdba</title>
<g id="a_clust1"><a xlink:href="dir_68267d1309a1af8e8297ef4c3efbcdba.html" target="_top" xlink:title="src">
<polygon fill="#ddddee" stroke="black" points="8,-64 8,-135 120,-135 120,-64 8,-64"/>
<text text-anchor="middle" x="64" y="-123" font-family="Helvetica,sans-Serif" font-size="10.00">src</text>
</a>
</g>
</g>
<!-- dir_6020c1fe537679fc62c679a25e568419 -->
<g id="node1" class="node"><title>dir_6020c1fe537679fc62c679a25e568419</title>
<g id="a_node1"><a xlink:href="dir_6020c1fe537679fc62c679a25e568419.html" target="_top" xlink:title="collision_checking">
<polygon fill="#eeeeff" stroke="black" points="112,-108 16,-108 16,-72 112,-72 112,-108"/>
<text text-anchor="middle" x="64" y="-87.5" font-family="Helvetica,sans-Serif" font-size="10.00">collision_checking</text>
</a>
</g>
</g>
<!-- dir_d44c64559bbebec7f509842c48db8b23 -->
<g id="node2" class="node"><title>dir_d44c64559bbebec7f509842c48db8b23</title>
<g id="a_node2"><a xlink:href="dir_d44c64559bbebec7f509842c48db8b23.html" target="_top" xlink:title="include">
<polygon fill="white" stroke="red" points="91,-36 37,-36 37,-0 91,-0 91,-36"/>
<text text-anchor="middle" x="64" y="-15.5" font-family="Helvetica,sans-Serif" font-size="10.00">include</text>
</a>
</g>
</g>
<!-- dir_6020c1fe537679fc62c679a25e568419&#45;&gt;dir_d44c64559bbebec7f509842c48db8b23 -->
<g id="edge1" class="edge"><title>dir_6020c1fe537679fc62c679a25e568419&#45;&gt;dir_d44c64559bbebec7f509842c48db8b23</title>
<path fill="none" stroke="black" d="M64,-71.6966C64,-63.9827 64,-54.7125 64,-46.1124"/>
<polygon fill="black" stroke="black" points="67.5001,-46.1043 64,-36.1043 60.5001,-46.1044 67.5001,-46.1043"/>
<g id="a_edge1&#45;headlabel"><a xlink:href="dir_000008_000000.html" target="_top" xlink:title="1">
<text text-anchor="middle" x="70.3393" y="-47.199" font-family="Helvetica,sans-Serif" font-size="10.00">1</text>
</a>
</g>
</g>
</g>
</svg>
