<?xml version="1.0" encoding="UTF-8" standalone="no"?>
<!DOCTYPE svg PUBLIC "-//W3C//DTD SVG 1.1//EN"
 "http://www.w3.org/Graphics/SVG/1.1/DTD/svg11.dtd">
<!-- Generated by graphviz version 2.38.0 (20140413.2041)
 -->
<!-- Title: include/motion_primitive_library/collision_checking Pages: 1 -->
<svg width="143pt" height="223pt"
 viewBox="0.00 0.00 143.00 223.00" xmlns="http://www.w3.org/2000/svg" xmlns:xlink="http://www.w3.org/1999/xlink">
<g id="graph0" class="graph" transform="scale(1 1) rotate(0) translate(4 219)">
<title>include/motion_primitive_library/collision_checking</title>
<polygon fill="white" stroke="none" points="-4,4 -4,-219 139,-219 139,4 -4,4"/>
<g id="clust1" class="cluster"><title>clusterdir_6ea5cccc45df222b5b88fc52944702b9</title>
<g id="a_clust1"><a xlink:href="dir_6ea5cccc45df222b5b88fc52944702b9.html" target="_top" xlink:title="motion_primitive_library">
<polygon fill="#ddddee" stroke="black" points="8,-136 8,-207 127,-207 127,-136 8,-136"/>
<text text-anchor="middle" x="67.5" y="-195" font-family="Helvetica,sans-Serif" font-size="10.00">motion_primitive_library</text>
</a>
</g>
</g>
<!-- dir_8cc2aa94bf48bdac2baa373a17898219 -->
<g id="node1" class="node"><title>dir_8cc2aa94bf48bdac2baa373a17898219</title>
<g id="a_node1"><a xlink:href="dir_8cc2aa94bf48bdac2baa373a17898219.html" target="_top" xlink:title="collision_checking">
<polygon fill="#eeeeff" stroke="black" points="115,-180 19,-180 19,-144 115,-144 115,-180"/>
<text text-anchor="middle" x="67" y="-159.5" font-family="Helvetica,sans-Serif" font-size="10.00">collision_checking</text>
</a>
</g>
</g>
<!-- dir_5401eaddd0d21a6b5f9674a9044e02e8 -->
<g id="node2" class="node"><title>dir_5401eaddd0d21a6b5f9674a9044e02e8</title>
<g id="a_node2"><a xlink:href="dir_5401eaddd0d21a6b5f9674a9044e02e8.html" target="_top" xlink:title="primitive">
<polygon fill="none" stroke="black" points="67,-108 13,-108 13,-72 67,-72 67,-108"/>
<text text-anchor="middle" x="40" y="-87.5" font-family="Helvetica,sans-Serif" font-size="10.00">primitive</text>
</a>
</g>
</g>
<!-- dir_8cc2aa94bf48bdac2baa373a17898219&#45;&gt;dir_5401eaddd0d21a6b5f9674a9044e02e8 -->
<g id="edge1" class="edge"><title>dir_8cc2aa94bf48bdac2baa373a17898219&#45;&gt;dir_5401eaddd0d21a6b5f9674a9044e02e8</title>
<path fill="none" stroke="black" d="M60.3258,-143.697C57.2851,-135.813 53.6173,-126.304 50.2393,-117.546"/>
<polygon fill="black" stroke="black" points="53.4617,-116.175 46.5974,-108.104 46.9307,-118.694 53.4617,-116.175"/>
<g id="a_edge1&#45;headlabel"><a xlink:href="dir_000002_000005.html" target="_top" xlink:title="2">
<text text-anchor="middle" x="57.4043" y="-116.007" font-family="Helvetica,sans-Serif" font-size="10.00">2</text>
</a>
</g>
</g>
<!-- dir_e5235996703ca4c9d85b145a17e56c25 -->
<g id="node3" class="node"><title>dir_e5235996703ca4c9d85b145a17e56c25</title>
<g id="a_node3"><a xlink:href="dir_e5235996703ca4c9d85b145a17e56c25.html" target="_top" xlink:title="common">
<polygon fill="none" stroke="black" points="94,-36 40,-36 40,-0 94,-0 94,-36"/>
<text text-anchor="middle" x="67" y="-15.5" font-family="Helvetica,sans-Serif" font-size="10.00">common</text>
</a>
</g>
</g>
<!-- dir_8cc2aa94bf48bdac2baa373a17898219&#45;&gt;dir_e5235996703ca4c9d85b145a17e56c25 -->
<g id="edge2" class="edge"><title>dir_8cc2aa94bf48bdac2baa373a17898219&#45;&gt;dir_e5235996703ca4c9d85b145a17e56c25</title>
<path fill="none" stroke="black" d="M70.6538,-143.908C72.6758,-133.569 74.9808,-120.09 76,-108 77.3441,-92.0566 77.3441,-87.9434 76,-72 75.2834,-63.4991 73.9311,-54.3119 72.4884,-46.0122"/>
<polygon fill="black" stroke="black" points="75.9142,-45.2892 70.6538,-36.0925 69.0309,-46.5623 75.9142,-45.2892"/>
<g id="a_edge2&#45;headlabel"><a xlink:href="dir_000002_000003.html" target="_top" xlink:title="1">
<text text-anchor="middle" x="79.3597" y="-45.8075" font-family="Helvetica,sans-Serif" font-size="10.00">1</text>
</a>
</g>
</g>
<!-- dir_5401eaddd0d21a6b5f9674a9044e02e8&#45;&gt;dir_e5235996703ca4c9d85b145a17e56c25 -->
<g id="edge3" class="edge"><title>dir_5401eaddd0d21a6b5f9674a9044e02e8&#45;&gt;dir_e5235996703ca4c9d85b145a17e56c25</title>
<path fill="none" stroke="black" d="M46.6742,-71.6966C49.7149,-63.8132 53.3827,-54.3042 56.7607,-45.5464"/>
<polygon fill="black" stroke="black" points="60.0693,-46.6939 60.4026,-36.1043 53.5383,-44.1748 60.0693,-46.6939"/>
<g id="a_edge3&#45;headlabel"><a xlink:href="dir_000005_000003.html" target="_top" xlink:title="2">
<text text-anchor="middle" x="61.4248" y="-48.5695" font-family="Helvetica,sans-Serif" font-size="10.00">2</text>
</a>
</g>
</g>
</g>
</svg>
