<?xml version="1.0" encoding="UTF-8" standalone="no"?>
<!DOCTYPE svg PUBLIC "-//W3C//DTD SVG 1.1//EN"
 "http://www.w3.org/Graphics/SVG/1.1/DTD/svg11.dtd">
<!-- Generated by graphviz version 2.38.0 (20140413.2041)
 -->
<!-- Title: include/motion_primitive_library/planner Pages: 1 -->
<svg width="162pt" height="223pt"
 viewBox="0.00 0.00 162.00 223.00" xmlns="http://www.w3.org/2000/svg" xmlns:xlink="http://www.w3.org/1999/xlink">
<g id="graph0" class="graph" transform="scale(1 1) rotate(0) translate(4 219)">
<title>include/motion_primitive_library/planner</title>
<polygon fill="white" stroke="none" points="-4,4 -4,-219 158,-219 158,4 -4,4"/>
<g id="clust1" class="cluster"><title>clusterdir_6ea5cccc45df222b5b88fc52944702b9</title>
<g id="a_clust1"><a xlink:href="dir_6ea5cccc45df222b5b88fc52944702b9.html" target="_top" xlink:title="motion_primitive_library">
<polygon fill="#ddddee" stroke="black" points="27,-136 27,-207 146,-207 146,-136 27,-136"/>
<text text-anchor="middle" x="86.5" y="-195" font-family="Helvetica,sans-Serif" font-size="10.00">motion_primitive_library</text>
</a>
</g>
</g>
<!-- dir_89aa034ade8aefdfa76289753065bb1d -->
<g id="node1" class="node"><title>dir_89aa034ade8aefdfa76289753065bb1d</title>
<g id="a_node1"><a xlink:href="dir_89aa034ade8aefdfa76289753065bb1d.html" target="_top" xlink:title="planner">
<polygon fill="#eeeeff" stroke="black" points="113,-180 59,-180 59,-144 113,-144 113,-180"/>
<text text-anchor="middle" x="86" y="-159.5" font-family="Helvetica,sans-Serif" font-size="10.00">planner</text>
</a>
</g>
</g>
<!-- dir_8cc2aa94bf48bdac2baa373a17898219 -->
<g id="node2" class="node"><title>dir_8cc2aa94bf48bdac2baa373a17898219</title>
<g id="a_node2"><a xlink:href="dir_8cc2aa94bf48bdac2baa373a17898219.html" target="_top" xlink:title="collision_checking">
<polygon fill="none" stroke="black" points="96,-108 0,-108 0,-72 96,-72 96,-108"/>
<text text-anchor="middle" x="48" y="-87.5" font-family="Helvetica,sans-Serif" font-size="10.00">collision_checking</text>
</a>
</g>
</g>
<!-- dir_89aa034ade8aefdfa76289753065bb1d&#45;&gt;dir_8cc2aa94bf48bdac2baa373a17898219 -->
<g id="edge2" class="edge"><title>dir_89aa034ade8aefdfa76289753065bb1d&#45;&gt;dir_8cc2aa94bf48bdac2baa373a17898219</title>
<path fill="none" stroke="black" d="M76.6067,-143.697C72.2351,-135.644 66.9427,-125.894 62.1047,-116.982"/>
<polygon fill="black" stroke="black" points="65.1322,-115.223 57.2852,-108.104 58.9802,-118.563 65.1322,-115.223"/>
<g id="a_edge2&#45;headlabel"><a xlink:href="dir_000004_000002.html" target="_top" xlink:title="2">
<text text-anchor="middle" x="69.3424" y="-114.528" font-family="Helvetica,sans-Serif" font-size="10.00">2</text>
</a>
</g>
</g>
<!-- dir_5401eaddd0d21a6b5f9674a9044e02e8 -->
<g id="node3" class="node"><title>dir_5401eaddd0d21a6b5f9674a9044e02e8</title>
<g id="a_node3"><a xlink:href="dir_5401eaddd0d21a6b5f9674a9044e02e8.html" target="_top" xlink:title="primitive">
<polygon fill="none" stroke="black" points="113,-36 59,-36 59,-0 113,-0 113,-36"/>
<text text-anchor="middle" x="86" y="-15.5" font-family="Helvetica,sans-Serif" font-size="10.00">primitive</text>
</a>
</g>
</g>
<!-- dir_89aa034ade8aefdfa76289753065bb1d&#45;&gt;dir_5401eaddd0d21a6b5f9674a9044e02e8 -->
<g id="edge3" class="edge"><title>dir_89aa034ade8aefdfa76289753065bb1d&#45;&gt;dir_5401eaddd0d21a6b5f9674a9044e02e8</title>
<path fill="none" stroke="black" d="M93.8929,-143.745C98.1072,-133.577 102.857,-120.327 105,-108 107.74,-92.2364 107.74,-87.7636 105,-72 103.477,-63.2364 100.635,-54.0062 97.6059,-45.7484"/>
<polygon fill="black" stroke="black" points="100.795,-44.2931 93.8929,-36.2548 94.2758,-46.8428 100.795,-44.2931"/>
<g id="a_edge3&#45;headlabel"><a xlink:href="dir_000004_000005.html" target="_top" xlink:title="6">
<text text-anchor="middle" x="104.748" y="-44.1066" font-family="Helvetica,sans-Serif" font-size="10.00">6</text>
</a>
</g>
</g>
<!-- dir_8cc2aa94bf48bdac2baa373a17898219&#45;&gt;dir_5401eaddd0d21a6b5f9674a9044e02e8 -->
<g id="edge1" class="edge"><title>dir_8cc2aa94bf48bdac2baa373a17898219&#45;&gt;dir_5401eaddd0d21a6b5f9674a9044e02e8</title>
<path fill="none" stroke="black" d="M57.3933,-71.6966C61.7649,-63.6436 67.0573,-53.8945 71.8953,-44.9824"/>
<polygon fill="black" stroke="black" points="75.0198,-46.5627 76.7148,-36.1043 68.8678,-43.223 75.0198,-46.5627"/>
<g id="a_edge1&#45;headlabel"><a xlink:href="dir_000002_000005.html" target="_top" xlink:title="2">
<text text-anchor="middle" x="75.8002" y="-48.5764" font-family="Helvetica,sans-Serif" font-size="10.00">2</text>
</a>
</g>
</g>
</g>
</svg>
