<?xml version="1.0" encoding="UTF-8" standalone="no"?>
<!DOCTYPE svg PUBLIC "-//W3C//DTD SVG 1.1//EN"
 "http://www.w3.org/Graphics/SVG/1.1/DTD/svg11.dtd">
<!-- Generated by graphviz version 2.38.0 (20140413.2041)
 -->
<!-- Title: src Pages: 1 -->
<svg width="352pt" height="132pt"
 viewBox="0.00 0.00 352.00 132.00" xmlns="http://www.w3.org/2000/svg" xmlns:xlink="http://www.w3.org/1999/xlink">
<g id="graph0" class="graph" transform="scale(1 1) rotate(0) translate(4 128)">
<title>src</title>
<polygon fill="white" stroke="none" points="-4,4 -4,-128 348,-128 348,4 -4,4"/>
<g id="clust1" class="cluster"><title>clusterdir_68267d1309a1af8e8297ef4c3efbcdba</title>
<g id="a_clust1"><a xlink:href="dir_68267d1309a1af8e8297ef4c3efbcdba.html" target="_top">
<polygon fill="#eeeeff" stroke="black" points="8,-64 8,-116 336,-116 336,-64 8,-64"/>
</a>
</g>
</g>
<!-- dir_68267d1309a1af8e8297ef4c3efbcdba -->
<g id="node1" class="node"><title>dir_68267d1309a1af8e8297ef4c3efbcdba</title>
<text text-anchor="middle" x="301" y="-87.5" font-family="Helvetica,sans-Serif" font-size="10.00">src</text>
</g>
<!-- dir_6020c1fe537679fc62c679a25e568419 -->
<g id="node2" class="node"><title>dir_6020c1fe537679fc62c679a25e568419</title>
<g id="a_node2"><a xlink:href="dir_6020c1fe537679fc62c679a25e568419.html" target="_top" xlink:title="collision_checking">
<polygon fill="white" stroke="black" points="256,-108 160,-108 160,-72 256,-72 256,-108"/>
<text text-anchor="middle" x="208" y="-87.5" font-family="Helvetica,sans-Serif" font-size="10.00">collision_checking</text>
</a>
</g>
</g>
<!-- dir_d44c64559bbebec7f509842c48db8b23 -->
<g id="node5" class="node"><title>dir_d44c64559bbebec7f509842c48db8b23</title>
<g id="a_node5"><a xlink:href="dir_d44c64559bbebec7f509842c48db8b23.html" target="_top" xlink:title="include">
<polygon fill="white" stroke="red" points="142,-36 88,-36 88,-0 142,-0 142,-36"/>
<text text-anchor="middle" x="115" y="-15.5" font-family="Helvetica,sans-Serif" font-size="10.00">include</text>
</a>
</g>
</g>
<!-- dir_6020c1fe537679fc62c679a25e568419&#45;&gt;dir_d44c64559bbebec7f509842c48db8b23 -->
<g id="edge2" class="edge"><title>dir_6020c1fe537679fc62c679a25e568419&#45;&gt;dir_d44c64559bbebec7f509842c48db8b23</title>
<path fill="none" stroke="black" d="M185.011,-71.6966C173.186,-62.796 158.608,-51.8232 145.821,-42.1989"/>
<polygon fill="black" stroke="black" points="147.819,-39.3217 137.724,-36.1043 143.609,-44.9145 147.819,-39.3217"/>
<g id="a_edge2&#45;headlabel"><a xlink:href="dir_000008_000000.html" target="_top" xlink:title="1">
<text text-anchor="middle" x="152.398" y="-36.7149" font-family="Helvetica,sans-Serif" font-size="10.00">1</text>
</a>
</g>
</g>
<!-- dir_3feec11478e6a4e85cb0c0b3f238d10d -->
<g id="node3" class="node"><title>dir_3feec11478e6a4e85cb0c0b3f238d10d</title>
<g id="a_node3"><a xlink:href="dir_3feec11478e6a4e85cb0c0b3f238d10d.html" target="_top" xlink:title="planner">
<polygon fill="white" stroke="black" points="142,-108 88,-108 88,-72 142,-72 142,-108"/>
<text text-anchor="middle" x="115" y="-87.5" font-family="Helvetica,sans-Serif" font-size="10.00">planner</text>
</a>
</g>
</g>
<!-- dir_3feec11478e6a4e85cb0c0b3f238d10d&#45;&gt;dir_d44c64559bbebec7f509842c48db8b23 -->
<g id="edge1" class="edge"><title>dir_3feec11478e6a4e85cb0c0b3f238d10d&#45;&gt;dir_d44c64559bbebec7f509842c48db8b23</title>
<path fill="none" stroke="black" d="M115,-71.6966C115,-63.9827 115,-54.7125 115,-46.1124"/>
<polygon fill="black" stroke="black" points="118.5,-46.1043 115,-36.1043 111.5,-46.1044 118.5,-46.1043"/>
<g id="a_edge1&#45;headlabel"><a xlink:href="dir_000009_000000.html" target="_top" xlink:title="7">
<text text-anchor="middle" x="121.339" y="-47.199" font-family="Helvetica,sans-Serif" font-size="10.00">7</text>
</a>
</g>
</g>
<!-- dir_367b463c27f204bd4a8a5901f4cb265e -->
<g id="node4" class="node"><title>dir_367b463c27f204bd4a8a5901f4cb265e</title>
<g id="a_node4"><a xlink:href="dir_367b463c27f204bd4a8a5901f4cb265e.html" target="_top" xlink:title="primitive">
<polygon fill="white" stroke="black" points="70,-108 16,-108 16,-72 70,-72 70,-108"/>
<text text-anchor="middle" x="43" y="-87.5" font-family="Helvetica,sans-Serif" font-size="10.00">primitive</text>
</a>
</g>
</g>
<!-- dir_367b463c27f204bd4a8a5901f4cb265e&#45;&gt;dir_d44c64559bbebec7f509842c48db8b23 -->
<g id="edge3" class="edge"><title>dir_367b463c27f204bd4a8a5901f4cb265e&#45;&gt;dir_d44c64559bbebec7f509842c48db8b23</title>
<path fill="none" stroke="black" d="M60.7978,-71.6966C69.604,-63.135 80.3821,-52.6562 90.0011,-43.3045"/>
<polygon fill="black" stroke="black" points="92.6768,-45.5846 97.407,-36.1043 87.7972,-40.5657 92.6768,-45.5846"/>
<g id="a_edge3&#45;headlabel"><a xlink:href="dir_000010_000000.html" target="_top" xlink:title="6">
<text text-anchor="middle" x="92.0787" y="-47.6261" font-family="Helvetica,sans-Serif" font-size="10.00">6</text>
</a>
</g>
</g>
</g>
</svg>
