<?xml version="1.0" encoding="UTF-8" standalone="no"?>
<!DOCTYPE svg PUBLIC "-//W3C//DTD SVG 1.1//EN"
 "http://www.w3.org/Graphics/SVG/1.1/DTD/svg11.dtd">
<!-- Generated by graphviz version 2.38.0 (20140413.2041)
 -->
<!-- Title: include/motion_primitive_library/primitive Pages: 1 -->
<svg width="143pt" height="151pt"
 viewBox="0.00 0.00 143.00 151.00" xmlns="http://www.w3.org/2000/svg" xmlns:xlink="http://www.w3.org/1999/xlink">
<g id="graph0" class="graph" transform="scale(1 1) rotate(0) translate(4 147)">
<title>include/motion_primitive_library/primitive</title>
<polygon fill="white" stroke="none" points="-4,4 -4,-147 139,-147 139,4 -4,4"/>
<g id="clust1" class="cluster"><title>clusterdir_6ea5cccc45df222b5b88fc52944702b9</title>
<g id="a_clust1"><a xlink:href="dir_6ea5cccc45df222b5b88fc52944702b9.html" target="_top" xlink:title="motion_primitive_library">
<polygon fill="#ddddee" stroke="black" points="8,-64 8,-135 127,-135 127,-64 8,-64"/>
<text text-anchor="middle" x="67.5" y="-123" font-family="Helvetica,sans-Serif" font-size="10.00">motion_primitive_library</text>
</a>
</g>
</g>
<!-- dir_5401eaddd0d21a6b5f9674a9044e02e8 -->
<g id="node1" class="node"><title>dir_5401eaddd0d21a6b5f9674a9044e02e8</title>
<g id="a_node1"><a xlink:href="dir_5401eaddd0d21a6b5f9674a9044e02e8.html" target="_top" xlink:title="primitive">
<polygon fill="#eeeeff" stroke="black" points="94,-108 40,-108 40,-72 94,-72 94,-108"/>
<text text-anchor="middle" x="67" y="-87.5" font-family="Helvetica,sans-Serif" font-size="10.00">primitive</text>
</a>
</g>
</g>
<!-- dir_e5235996703ca4c9d85b145a17e56c25 -->
<g id="node2" class="node"><title>dir_e5235996703ca4c9d85b145a17e56c25</title>
<g id="a_node2"><a xlink:href="dir_e5235996703ca4c9d85b145a17e56c25.html" target="_top" xlink:title="common">
<polygon fill="none" stroke="black" points="94,-36 40,-36 40,-0 94,-0 94,-36"/>
<text text-anchor="middle" x="67" y="-15.5" font-family="Helvetica,sans-Serif" font-size="10.00">common</text>
</a>
</g>
</g>
<!-- dir_5401eaddd0d21a6b5f9674a9044e02e8&#45;&gt;dir_e5235996703ca4c9d85b145a17e56c25 -->
<g id="edge1" class="edge"><title>dir_5401eaddd0d21a6b5f9674a9044e02e8&#45;&gt;dir_e5235996703ca4c9d85b145a17e56c25</title>
<path fill="none" stroke="black" d="M67,-71.6966C67,-63.9827 67,-54.7125 67,-46.1124"/>
<polygon fill="black" stroke="black" points="70.5001,-46.1043 67,-36.1043 63.5001,-46.1044 70.5001,-46.1043"/>
<g id="a_edge1&#45;headlabel"><a xlink:href="dir_000005_000003.html" target="_top" xlink:title="2">
<text text-anchor="middle" x="73.3393" y="-47.199" font-family="Helvetica,sans-Serif" font-size="10.00">2</text>
</a>
</g>
</g>
</g>
</svg>
