<?xml version="1.0" encoding="UTF-8" standalone="no"?>
<!DOCTYPE svg PUBLIC "-//W3C//DTD SVG 1.1//EN"
 "http://www.w3.org/Graphics/SVG/1.1/DTD/svg11.dtd">
<!-- Generated by graphviz version 2.38.0 (20140413.2041)
 -->
<!-- Title: include/motion_primitive_library Pages: 1 -->
<svg width="248pt" height="327pt"
 viewBox="0.00 0.00 248.00 327.00" xmlns="http://www.w3.org/2000/svg" xmlns:xlink="http://www.w3.org/1999/xlink">
<g id="graph0" class="graph" transform="scale(1 1) rotate(0) translate(4 323)">
<title>include/motion_primitive_library</title>
<polygon fill="white" stroke="none" points="-4,4 -4,-323 244,-323 244,4 -4,4"/>
<g id="clust1" class="cluster"><title>clusterdir_d44c64559bbebec7f509842c48db8b23</title>
<g id="a_clust1"><a xlink:href="dir_d44c64559bbebec7f509842c48db8b23.html" target="_top" xlink:title="include">
<polygon fill="#ddddee" stroke="black" points="8,-8 8,-311 232,-311 232,-8 8,-8"/>
<text text-anchor="middle" x="120" y="-299" font-family="Helvetica,sans-Serif" font-size="10.00">include</text>
</a>
</g>
</g>
<g id="clust2" class="cluster"><title>clusterdir_6ea5cccc45df222b5b88fc52944702b9</title>
<g id="a_clust2"><a xlink:href="dir_6ea5cccc45df222b5b88fc52944702b9.html" target="_top">
<polygon fill="#eeeeff" stroke="black" points="16,-16 16,-284 224,-284 224,-16 16,-16"/>
</a>
</g>
</g>
<!-- dir_6ea5cccc45df222b5b88fc52944702b9 -->
<g id="node1" class="node"><title>dir_6ea5cccc45df222b5b88fc52944702b9</title>
<text text-anchor="middle" x="156" y="-255.5" font-family="Helvetica,sans-Serif" font-size="10.00">motion_primitive_library</text>
</g>
<!-- dir_8cc2aa94bf48bdac2baa373a17898219 -->
<g id="node2" class="node"><title>dir_8cc2aa94bf48bdac2baa373a17898219</title>
<g id="a_node2"><a xlink:href="dir_8cc2aa94bf48bdac2baa373a17898219.html" target="_top" xlink:title="collision_checking">
<polygon fill="white" stroke="black" points="120,-204 24,-204 24,-168 120,-168 120,-204"/>
<text text-anchor="middle" x="72" y="-183.5" font-family="Helvetica,sans-Serif" font-size="10.00">collision_checking</text>
</a>
</g>
</g>
<!-- dir_e5235996703ca4c9d85b145a17e56c25 -->
<g id="node3" class="node"><title>dir_e5235996703ca4c9d85b145a17e56c25</title>
<g id="a_node3"><a xlink:href="dir_e5235996703ca4c9d85b145a17e56c25.html" target="_top" xlink:title="common">
<polygon fill="white" stroke="black" points="122,-60 68,-60 68,-24 122,-24 122,-60"/>
<text text-anchor="middle" x="95" y="-39.5" font-family="Helvetica,sans-Serif" font-size="10.00">common</text>
</a>
</g>
</g>
<!-- dir_8cc2aa94bf48bdac2baa373a17898219&#45;&gt;dir_e5235996703ca4c9d85b145a17e56c25 -->
<g id="edge2" class="edge"><title>dir_8cc2aa94bf48bdac2baa373a17898219&#45;&gt;dir_e5235996703ca4c9d85b145a17e56c25</title>
<path fill="none" stroke="black" d="M73.2686,-167.844C74.7528,-149.852 77.5844,-120.799 82,-96 83.5181,-87.4741 85.6095,-78.2798 87.6712,-69.9813"/>
<polygon fill="black" stroke="black" points="91.1199,-70.6234 90.2214,-60.0667 84.3406,-68.8795 91.1199,-70.6234"/>
<g id="a_edge2&#45;headlabel"><a xlink:href="dir_000002_000003.html" target="_top" xlink:title="1">
<text text-anchor="middle" x="92.9743" y="-72.3119" font-family="Helvetica,sans-Serif" font-size="10.00">1</text>
</a>
</g>
</g>
<!-- dir_5401eaddd0d21a6b5f9674a9044e02e8 -->
<g id="node5" class="node"><title>dir_5401eaddd0d21a6b5f9674a9044e02e8</title>
<g id="a_node5"><a xlink:href="dir_5401eaddd0d21a6b5f9674a9044e02e8.html" target="_top" xlink:title="primitive">
<polygon fill="white" stroke="black" points="145,-132 91,-132 91,-96 145,-96 145,-132"/>
<text text-anchor="middle" x="118" y="-111.5" font-family="Helvetica,sans-Serif" font-size="10.00">primitive</text>
</a>
</g>
</g>
<!-- dir_8cc2aa94bf48bdac2baa373a17898219&#45;&gt;dir_5401eaddd0d21a6b5f9674a9044e02e8 -->
<g id="edge1" class="edge"><title>dir_8cc2aa94bf48bdac2baa373a17898219&#45;&gt;dir_5401eaddd0d21a6b5f9674a9044e02e8</title>
<path fill="none" stroke="black" d="M83.3708,-167.697C88.7185,-159.559 95.2043,-149.689 101.111,-140.701"/>
<polygon fill="black" stroke="black" points="104.193,-142.384 106.76,-132.104 98.3432,-138.539 104.193,-142.384"/>
<g id="a_edge1&#45;headlabel"><a xlink:href="dir_000002_000005.html" target="_top" xlink:title="2">
<text text-anchor="middle" x="104.592" y="-144.447" font-family="Helvetica,sans-Serif" font-size="10.00">2</text>
</a>
</g>
</g>
<!-- dir_89aa034ade8aefdfa76289753065bb1d -->
<g id="node4" class="node"><title>dir_89aa034ade8aefdfa76289753065bb1d</title>
<g id="a_node4"><a xlink:href="dir_89aa034ade8aefdfa76289753065bb1d.html" target="_top" xlink:title="planner">
<polygon fill="white" stroke="black" points="78,-276 24,-276 24,-240 78,-240 78,-276"/>
<text text-anchor="middle" x="51" y="-255.5" font-family="Helvetica,sans-Serif" font-size="10.00">planner</text>
</a>
</g>
</g>
<!-- dir_89aa034ade8aefdfa76289753065bb1d&#45;&gt;dir_8cc2aa94bf48bdac2baa373a17898219 -->
<g id="edge4" class="edge"><title>dir_89aa034ade8aefdfa76289753065bb1d&#45;&gt;dir_8cc2aa94bf48bdac2baa373a17898219</title>
<path fill="none" stroke="black" d="M56.191,-239.697C58.5306,-231.898 61.3474,-222.509 63.9513,-213.829"/>
<polygon fill="black" stroke="black" points="67.3475,-214.688 66.8687,-204.104 60.6428,-212.677 67.3475,-214.688"/>
<g id="a_edge4&#45;headlabel"><a xlink:href="dir_000004_000002.html" target="_top" xlink:title="2">
<text text-anchor="middle" x="69.0342" y="-216.447" font-family="Helvetica,sans-Serif" font-size="10.00">2</text>
</a>
</g>
</g>
<!-- dir_89aa034ade8aefdfa76289753065bb1d&#45;&gt;dir_5401eaddd0d21a6b5f9674a9044e02e8 -->
<g id="edge5" class="edge"><title>dir_89aa034ade8aefdfa76289753065bb1d&#45;&gt;dir_5401eaddd0d21a6b5f9674a9044e02e8</title>
<path fill="none" stroke="black" d="M78.3175,-242.141C98.486,-230.531 123.369,-214.635 129,-204 139.143,-184.845 135.001,-160.203 129.111,-141.706"/>
<polygon fill="black" stroke="black" points="132.363,-140.405 125.739,-132.137 125.761,-142.731 132.363,-140.405"/>
<g id="a_edge5&#45;headlabel"><a xlink:href="dir_000004_000005.html" target="_top" xlink:title="6">
<text text-anchor="middle" x="136.236" y="-140.351" font-family="Helvetica,sans-Serif" font-size="10.00">6</text>
</a>
</g>
</g>
<!-- dir_5401eaddd0d21a6b5f9674a9044e02e8&#45;&gt;dir_e5235996703ca4c9d85b145a17e56c25 -->
<g id="edge3" class="edge"><title>dir_5401eaddd0d21a6b5f9674a9044e02e8&#45;&gt;dir_e5235996703ca4c9d85b145a17e56c25</title>
<path fill="none" stroke="black" d="M112.315,-95.6966C109.752,-87.8979 106.667,-78.5085 103.815,-69.8292"/>
<polygon fill="black" stroke="black" points="107.067,-68.5121 100.62,-60.1043 100.416,-70.6972 107.067,-68.5121"/>
<g id="a_edge3&#45;headlabel"><a xlink:href="dir_000005_000003.html" target="_top" xlink:title="2">
<text text-anchor="middle" x="110.886" y="-68.5408" font-family="Helvetica,sans-Serif" font-size="10.00">2</text>
</a>
</g>
</g>
</g>
</svg>
