<?xml version="1.0" encoding="UTF-8" standalone="no"?>
<!DOCTYPE svg PUBLIC "-//W3C//DTD SVG 1.1//EN"
 "http://www.w3.org/Graphics/SVG/1.1/DTD/svg11.dtd">
<!-- Generated by graphviz version 2.38.0 (20140413.2041)
 -->
<!-- Title: include/motion_primitive_library/planner/env_map.h Pages: 1 -->
<svg width="486pt" height="419pt"
 viewBox="0.00 0.00 485.50 419.00" xmlns="http://www.w3.org/2000/svg" xmlns:xlink="http://www.w3.org/1999/xlink">
<g id="graph0" class="graph" transform="scale(1 1) rotate(0) translate(4 415)">
<title>include/motion_primitive_library/planner/env_map.h</title>
<polygon fill="white" stroke="none" points="-4,4 -4,-415 481.5,-415 481.5,4 -4,4"/>
<!-- Node0 -->
<g id="node1" class="node"><title>Node0</title>
<polygon fill="#bfbfbf" stroke="black" points="184,-380.5 184,-410.5 318,-410.5 318,-380.5 184,-380.5"/>
<text text-anchor="start" x="192" y="-398.5" font-family="Helvetica,sans-Serif" font-size="10.00">include/motion_primitive</text>
<text text-anchor="middle" x="251" y="-387.5" font-family="Helvetica,sans-Serif" font-size="10.00">_library/planner/env_map.h</text>
</g>
<!-- Node1 -->
<g id="node2" class="node"><title>Node1</title>
<g id="a_node2"><a xlink:href="env__base_8h.html" target="_top" xlink:title="environment base class ">
<polygon fill="white" stroke="black" points="257.5,-313.5 257.5,-343.5 376.5,-343.5 376.5,-313.5 257.5,-313.5"/>
<text text-anchor="start" x="265.5" y="-331.5" font-family="Helvetica,sans-Serif" font-size="10.00">motion_primitive_library</text>
<text text-anchor="middle" x="317" y="-320.5" font-family="Helvetica,sans-Serif" font-size="10.00">/planner/env_base.h</text>
</a>
</g>
</g>
<!-- Node0&#45;&gt;Node1 -->
<g id="edge1" class="edge"><title>Node0&#45;&gt;Node1</title>
<path fill="none" stroke="midnightblue" d="M265.321,-380.396C274.143,-371.708 285.62,-360.405 295.517,-350.658"/>
<polygon fill="midnightblue" stroke="midnightblue" points="298.038,-353.087 302.707,-343.577 293.126,-348.1 298.038,-353.087"/>
</g>
<!-- Node4 -->
<g id="node5" class="node"><title>Node4</title>
<g id="a_node5"><a xlink:href="primitive_8h.html" target="_top" xlink:title="Primitive classes. ">
<polygon fill="white" stroke="black" points="211.5,-179.5 211.5,-209.5 330.5,-209.5 330.5,-179.5 211.5,-179.5"/>
<text text-anchor="start" x="219.5" y="-197.5" font-family="Helvetica,sans-Serif" font-size="10.00">motion_primitive_library</text>
<text text-anchor="middle" x="271" y="-186.5" font-family="Helvetica,sans-Serif" font-size="10.00">/primitive/primitive.h</text>
</a>
</g>
</g>
<!-- Node0&#45;&gt;Node4 -->
<g id="edge17" class="edge"><title>Node0&#45;&gt;Node4</title>
<path fill="none" stroke="midnightblue" d="M239.631,-380.432C219.253,-353.393 180.715,-292.708 204,-246 210.266,-233.43 221.317,-223.165 232.659,-215.252"/>
<polygon fill="midnightblue" stroke="midnightblue" points="234.815,-218.026 241.315,-209.66 231.016,-212.147 234.815,-218.026"/>
</g>
<!-- Node13 -->
<g id="node14" class="node"><title>Node13</title>
<g id="a_node14"><a xlink:href="map__util_8h.html" target="_top" xlink:title="MapUtil classes. ">
<polygon fill="white" stroke="black" points="9.5,-246.5 9.5,-276.5 156.5,-276.5 156.5,-246.5 9.5,-246.5"/>
<text text-anchor="start" x="17.5" y="-264.5" font-family="Helvetica,sans-Serif" font-size="10.00">motion_primitive_library</text>
<text text-anchor="middle" x="83" y="-253.5" font-family="Helvetica,sans-Serif" font-size="10.00">/collision_checking/map_util.h</text>
</a>
</g>
</g>
<!-- Node0&#45;&gt;Node13 -->
<g id="edge18" class="edge"><title>Node0&#45;&gt;Node13</title>
<path fill="none" stroke="midnightblue" d="M226.063,-380.373C209.869,-370.813 188.583,-357.508 171,-344 146.656,-325.298 121.167,-301.109 103.925,-283.954"/>
<polygon fill="midnightblue" stroke="midnightblue" points="106.152,-281.23 96.6168,-276.612 101.191,-286.168 106.152,-281.23"/>
</g>
<!-- Node14 -->
<g id="node15" class="node"><title>Node14</title>
<polygon fill="white" stroke="#bfbfbf" points="394.5,-319 394.5,-338 477.5,-338 477.5,-319 394.5,-319"/>
<text text-anchor="middle" x="436" y="-326" font-family="Helvetica,sans-Serif" font-size="10.00">unordered_map</text>
</g>
<!-- Node0&#45;&gt;Node14 -->
<g id="edge20" class="edge"><title>Node0&#45;&gt;Node14</title>
<path fill="none" stroke="midnightblue" d="M291.142,-380.396C324.321,-368.739 370.9,-352.373 402.199,-341.376"/>
<polygon fill="midnightblue" stroke="midnightblue" points="403.513,-344.624 411.788,-338.007 401.193,-338.02 403.513,-344.624"/>
</g>
<!-- Node2 -->
<g id="node3" class="node"><title>Node2</title>
<polygon fill="white" stroke="#bfbfbf" points="333,-123.5 333,-142.5 385,-142.5 385,-123.5 333,-123.5"/>
<text text-anchor="middle" x="359" y="-130.5" font-family="Helvetica,sans-Serif" font-size="10.00">memory</text>
</g>
<!-- Node1&#45;&gt;Node2 -->
<g id="edge2" class="edge"><title>Node1&#45;&gt;Node2</title>
<path fill="none" stroke="midnightblue" d="M332.996,-313.309C342.223,-304.019 352.966,-291.031 358,-277 373.18,-234.69 367.388,-180.699 362.696,-152.713"/>
<polygon fill="midnightblue" stroke="midnightblue" points="366.112,-151.936 360.877,-142.725 359.225,-153.19 366.112,-151.936"/>
</g>
<!-- Node3 -->
<g id="node4" class="node"><title>Node3</title>
<polygon fill="white" stroke="#bfbfbf" points="347,-0.5 347,-19.5 391,-19.5 391,-0.5 347,-0.5"/>
<text text-anchor="middle" x="369" y="-7.5" font-family="Helvetica,sans-Serif" font-size="10.00">vector</text>
</g>
<!-- Node1&#45;&gt;Node3 -->
<g id="edge3" class="edge"><title>Node1&#45;&gt;Node3</title>
<path fill="none" stroke="midnightblue" d="M344.911,-313.387C381.201,-292.82 440,-250.943 440,-195.5 440,-195.5 440,-195.5 440,-132 440,-97.1827 439.234,-85.6606 421,-56 413.575,-43.9224 401.85,-33.3668 391.411,-25.52"/>
<polygon fill="midnightblue" stroke="midnightblue" points="393.247,-22.5309 383.068,-19.5919 389.192,-28.2372 393.247,-22.5309"/>
</g>
<!-- Node1&#45;&gt;Node4 -->
<g id="edge4" class="edge"><title>Node1&#45;&gt;Node4</title>
<path fill="none" stroke="midnightblue" d="M327.366,-313.348C338.258,-296.602 352.354,-268.192 341,-246 334.409,-233.118 322.831,-222.769 310.966,-214.875"/>
<polygon fill="midnightblue" stroke="midnightblue" points="312.691,-211.828 302.342,-209.56 309.018,-217.787 312.691,-211.828"/>
</g>
<!-- Node12 -->
<g id="node13" class="node"><title>Node12</title>
<g id="a_node13"><a xlink:href="trajectory_8h.html" target="_top" xlink:title="Trajectory class. ">
<polygon fill="white" stroke="black" points="213.5,-246.5 213.5,-276.5 332.5,-276.5 332.5,-246.5 213.5,-246.5"/>
<text text-anchor="start" x="221.5" y="-264.5" font-family="Helvetica,sans-Serif" font-size="10.00">motion_primitive_library</text>
<text text-anchor="middle" x="273" y="-253.5" font-family="Helvetica,sans-Serif" font-size="10.00">/primitive/trajectory.h</text>
</a>
</g>
</g>
<!-- Node1&#45;&gt;Node12 -->
<g id="edge15" class="edge"><title>Node1&#45;&gt;Node12</title>
<path fill="none" stroke="midnightblue" d="M307.453,-313.396C301.86,-305.134 294.666,-294.507 288.3,-285.102"/>
<polygon fill="midnightblue" stroke="midnightblue" points="291.033,-282.896 282.529,-276.577 285.236,-286.82 291.033,-282.896"/>
</g>
<!-- Node4&#45;&gt;Node2 -->
<g id="edge5" class="edge"><title>Node4&#45;&gt;Node2</title>
<path fill="none" stroke="midnightblue" d="M291.855,-179.399C305.697,-170.04 323.811,-157.792 337.736,-148.377"/>
<polygon fill="midnightblue" stroke="midnightblue" points="339.872,-151.158 346.195,-142.658 335.951,-145.36 339.872,-151.158"/>
</g>
<!-- Node5 -->
<g id="node6" class="node"><title>Node5</title>
<g id="a_node6"><a xlink:href="data__type_8h.html" target="_top" xlink:title="Defines all data types used in this lib. ">
<polygon fill="white" stroke="black" points="48.5,-56.5 48.5,-86.5 167.5,-86.5 167.5,-56.5 48.5,-56.5"/>
<text text-anchor="start" x="56.5" y="-74.5" font-family="Helvetica,sans-Serif" font-size="10.00">motion_primitive_library</text>
<text text-anchor="middle" x="108" y="-63.5" font-family="Helvetica,sans-Serif" font-size="10.00">/common/data_type.h</text>
</a>
</g>
</g>
<!-- Node4&#45;&gt;Node5 -->
<g id="edge6" class="edge"><title>Node4&#45;&gt;Node5</title>
<path fill="none" stroke="midnightblue" d="M251.983,-179.383C223.151,-157.98 168.246,-117.222 135.198,-92.6898"/>
<polygon fill="midnightblue" stroke="midnightblue" points="137.012,-89.6774 126.896,-86.5271 132.839,-95.298 137.012,-89.6774"/>
</g>
<!-- Node9 -->
<g id="node10" class="node"><title>Node9</title>
<g id="a_node10"><a xlink:href="math_8h.html" target="_top" xlink:title="Polynomial roots solver. ">
<polygon fill="white" stroke="black" points="245.5,-123.5 245.5,-142.5 292.5,-142.5 292.5,-123.5 245.5,-123.5"/>
<text text-anchor="middle" x="269" y="-130.5" font-family="Helvetica,sans-Serif" font-size="10.00">math.h</text>
</a>
</g>
</g>
<!-- Node4&#45;&gt;Node9 -->
<g id="edge11" class="edge"><title>Node4&#45;&gt;Node9</title>
<path fill="none" stroke="midnightblue" d="M270.526,-179.399C270.259,-171.466 269.923,-161.458 269.634,-152.858"/>
<polygon fill="midnightblue" stroke="midnightblue" points="273.125,-152.535 269.291,-142.658 266.129,-152.77 273.125,-152.535"/>
</g>
<!-- Node5&#45;&gt;Node3 -->
<g id="edge8" class="edge"><title>Node5&#45;&gt;Node3</title>
<path fill="none" stroke="midnightblue" d="M167.552,-56.9241C220.118,-44.9405 294.751,-27.9265 336.855,-18.3281"/>
<polygon fill="midnightblue" stroke="midnightblue" points="337.853,-21.6904 346.825,-16.0552 336.297,-14.8655 337.853,-21.6904"/>
</g>
<!-- Node6 -->
<g id="node7" class="node"><title>Node6</title>
<polygon fill="white" stroke="#bfbfbf" points="0,-0.5 0,-19.5 46,-19.5 46,-0.5 0,-0.5"/>
<text text-anchor="middle" x="23" y="-7.5" font-family="Helvetica,sans-Serif" font-size="10.00">stdio.h</text>
</g>
<!-- Node5&#45;&gt;Node6 -->
<g id="edge7" class="edge"><title>Node5&#45;&gt;Node6</title>
<path fill="none" stroke="midnightblue" d="M87.8562,-56.3993C74.6133,-47.1293 57.3221,-35.0254 43.9241,-25.6469"/>
<polygon fill="midnightblue" stroke="midnightblue" points="45.5677,-22.5251 35.3683,-19.6578 41.5535,-28.2598 45.5677,-22.5251"/>
</g>
<!-- Node7 -->
<g id="node8" class="node"><title>Node7</title>
<polygon fill="white" stroke="#bfbfbf" points="64.5,-0.5 64.5,-19.5 151.5,-19.5 151.5,-0.5 64.5,-0.5"/>
<text text-anchor="middle" x="108" y="-7.5" font-family="Helvetica,sans-Serif" font-size="10.00">Eigen/Geometry</text>
</g>
<!-- Node5&#45;&gt;Node7 -->
<g id="edge9" class="edge"><title>Node5&#45;&gt;Node7</title>
<path fill="none" stroke="midnightblue" d="M108,-56.3993C108,-48.4664 108,-38.458 108,-29.8583"/>
<polygon fill="midnightblue" stroke="midnightblue" points="111.5,-29.6577 108,-19.6578 104.5,-29.6578 111.5,-29.6577"/>
</g>
<!-- Node8 -->
<g id="node9" class="node"><title>Node8</title>
<polygon fill="white" stroke="#bfbfbf" points="170,-0.5 170,-19.5 258,-19.5 258,-0.5 170,-0.5"/>
<text text-anchor="middle" x="214" y="-7.5" font-family="Helvetica,sans-Serif" font-size="10.00">Eigen/StdVector</text>
</g>
<!-- Node5&#45;&gt;Node8 -->
<g id="edge10" class="edge"><title>Node5&#45;&gt;Node8</title>
<path fill="none" stroke="midnightblue" d="M133.121,-56.3993C150.27,-46.7728 172.865,-34.0902 189.812,-24.5772"/>
<polygon fill="midnightblue" stroke="midnightblue" points="191.569,-27.6047 198.576,-19.6578 188.143,-21.5006 191.569,-27.6047"/>
</g>
<!-- Node9&#45;&gt;Node5 -->
<g id="edge12" class="edge"><title>Node9&#45;&gt;Node5</title>
<path fill="none" stroke="midnightblue" d="M245.933,-123.475C222.395,-114.776 185.189,-101.026 155.348,-89.9981"/>
<polygon fill="midnightblue" stroke="midnightblue" points="156.538,-86.7066 145.945,-86.523 154.111,-93.2725 156.538,-86.7066"/>
</g>
<!-- Node10 -->
<g id="node11" class="node"><title>Node10</title>
<polygon fill="white" stroke="#bfbfbf" points="186,-62 186,-81 340,-81 340,-62 186,-62"/>
<text text-anchor="middle" x="263" y="-69" font-family="Helvetica,sans-Serif" font-size="10.00">unsupported/Eigen/Polynomials</text>
</g>
<!-- Node9&#45;&gt;Node10 -->
<g id="edge13" class="edge"><title>Node9&#45;&gt;Node10</title>
<path fill="none" stroke="midnightblue" d="M268.14,-123.475C267.294,-115.08 265.973,-101.981 264.882,-91.1631"/>
<polygon fill="midnightblue" stroke="midnightblue" points="268.344,-90.6074 263.858,-81.0091 261.379,-91.3098 268.344,-90.6074"/>
</g>
<!-- Node11 -->
<g id="node12" class="node"><title>Node11</title>
<polygon fill="white" stroke="#bfbfbf" points="358,-62 358,-81 412,-81 412,-62 358,-62"/>
<text text-anchor="middle" x="385" y="-69" font-family="Helvetica,sans-Serif" font-size="10.00">iostream</text>
</g>
<!-- Node9&#45;&gt;Node11 -->
<g id="edge14" class="edge"><title>Node9&#45;&gt;Node11</title>
<path fill="none" stroke="midnightblue" d="M285.62,-123.475C304.915,-113.578 336.959,-97.1416 359.431,-85.6151"/>
<polygon fill="midnightblue" stroke="midnightblue" points="361.11,-88.6873 368.411,-81.0091 357.916,-82.4589 361.11,-88.6873"/>
</g>
<!-- Node12&#45;&gt;Node4 -->
<g id="edge16" class="edge"><title>Node12&#45;&gt;Node4</title>
<path fill="none" stroke="midnightblue" d="M272.566,-246.396C272.328,-238.645 272.025,-228.812 271.75,-219.86"/>
<polygon fill="midnightblue" stroke="midnightblue" points="275.239,-219.464 271.433,-209.577 268.242,-219.679 275.239,-219.464"/>
</g>
<!-- Node13&#45;&gt;Node5 -->
<g id="edge19" class="edge"><title>Node13&#45;&gt;Node5</title>
<path fill="none" stroke="midnightblue" d="M84.8791,-246.369C89.1243,-214.445 99.4972,-136.441 104.786,-96.6713"/>
<polygon fill="midnightblue" stroke="midnightblue" points="108.284,-96.9122 106.133,-86.5381 101.346,-95.9894 108.284,-96.9122"/>
</g>
</g>
</svg>
