<?xml version="1.0" encoding="UTF-8" standalone="no"?>
<!DOCTYPE svg PUBLIC "-//W3C//DTD SVG 1.1//EN"
 "http://www.w3.org/Graphics/SVG/1.1/DTD/svg11.dtd">
<!-- Generated by graphviz version 2.38.0 (20140413.2041)
 -->
<!-- Title: include/motion_primitive_library/planner/env_base.h Pages: 1 -->
<svg width="438pt" height="352pt"
 viewBox="0.00 0.00 438.00 352.00" xmlns="http://www.w3.org/2000/svg" xmlns:xlink="http://www.w3.org/1999/xlink">
<g id="graph0" class="graph" transform="scale(1 1) rotate(0) translate(4 348)">
<title>include/motion_primitive_library/planner/env_base.h</title>
<polygon fill="white" stroke="none" points="-4,4 -4,-348 434,-348 434,4 -4,4"/>
<!-- Node0 -->
<g id="node1" class="node"><title>Node0</title>
<polygon fill="#bfbfbf" stroke="black" points="11,-313.5 11,-343.5 147,-343.5 147,-313.5 11,-313.5"/>
<text text-anchor="start" x="19" y="-331.5" font-family="Helvetica,sans-Serif" font-size="10.00">include/motion_primitive</text>
<text text-anchor="middle" x="79" y="-320.5" font-family="Helvetica,sans-Serif" font-size="10.00">_library/planner/env_base.h</text>
</g>
<!-- Node1 -->
<g id="node2" class="node"><title>Node1</title>
<polygon fill="white" stroke="#bfbfbf" points="59,-123.5 59,-142.5 111,-142.5 111,-123.5 59,-123.5"/>
<text text-anchor="middle" x="85" y="-130.5" font-family="Helvetica,sans-Serif" font-size="10.00">memory</text>
</g>
<!-- Node0&#45;&gt;Node1 -->
<g id="edge1" class="edge"><title>Node0&#45;&gt;Node1</title>
<path fill="none" stroke="midnightblue" d="M78.3693,-313.144C77.3439,-286.614 75.7388,-228.134 79,-179 79.5747,-170.341 80.7651,-160.805 81.9351,-152.75"/>
<polygon fill="midnightblue" stroke="midnightblue" points="85.4363,-153.011 83.5092,-142.593 78.5189,-151.939 85.4363,-153.011"/>
</g>
<!-- Node2 -->
<g id="node3" class="node"><title>Node2</title>
<polygon fill="white" stroke="#bfbfbf" points="0,-0.5 0,-19.5 44,-19.5 44,-0.5 0,-0.5"/>
<text text-anchor="middle" x="22" y="-7.5" font-family="Helvetica,sans-Serif" font-size="10.00">vector</text>
</g>
<!-- Node0&#45;&gt;Node2 -->
<g id="edge2" class="edge"><title>Node0&#45;&gt;Node2</title>
<path fill="none" stroke="midnightblue" d="M68.2787,-313.328C51.7672,-290.05 22,-241.68 22,-195.5 22,-195.5 22,-195.5 22,-132 22,-95.7138 22,-53.3066 22,-29.559"/>
<polygon fill="midnightblue" stroke="midnightblue" points="25.5001,-29.5085 22,-19.5085 18.5001,-29.5086 25.5001,-29.5085"/>
</g>
<!-- Node3 -->
<g id="node4" class="node"><title>Node3</title>
<g id="a_node4"><a xlink:href="primitive_8h.html" target="_top" xlink:title="Primitive classes. ">
<polygon fill="white" stroke="black" points="88.5,-179.5 88.5,-209.5 207.5,-209.5 207.5,-179.5 88.5,-179.5"/>
<text text-anchor="start" x="96.5" y="-197.5" font-family="Helvetica,sans-Serif" font-size="10.00">motion_primitive_library</text>
<text text-anchor="middle" x="148" y="-186.5" font-family="Helvetica,sans-Serif" font-size="10.00">/primitive/primitive.h</text>
</a>
</g>
</g>
<!-- Node0&#45;&gt;Node3 -->
<g id="edge3" class="edge"><title>Node0&#45;&gt;Node3</title>
<path fill="none" stroke="midnightblue" d="M84.98,-313.418C92.0943,-296.98 104.577,-269.099 117,-246 121.938,-236.818 127.825,-226.992 133.135,-218.47"/>
<polygon fill="midnightblue" stroke="midnightblue" points="136.213,-220.15 138.599,-209.828 130.296,-216.41 136.213,-220.15"/>
</g>
<!-- Node11 -->
<g id="node12" class="node"><title>Node11</title>
<g id="a_node12"><a xlink:href="trajectory_8h.html" target="_top" xlink:title="Trajectory class. ">
<polygon fill="white" stroke="black" points="126.5,-246.5 126.5,-276.5 245.5,-276.5 245.5,-246.5 126.5,-246.5"/>
<text text-anchor="start" x="134.5" y="-264.5" font-family="Helvetica,sans-Serif" font-size="10.00">motion_primitive_library</text>
<text text-anchor="middle" x="186" y="-253.5" font-family="Helvetica,sans-Serif" font-size="10.00">/primitive/trajectory.h</text>
</a>
</g>
</g>
<!-- Node0&#45;&gt;Node11 -->
<g id="edge14" class="edge"><title>Node0&#45;&gt;Node11</title>
<path fill="none" stroke="midnightblue" d="M102.217,-313.396C117.361,-304.197 137.33,-292.066 153.975,-281.955"/>
<polygon fill="midnightblue" stroke="midnightblue" points="156.098,-284.76 162.828,-276.577 152.464,-278.777 156.098,-284.76"/>
</g>
<!-- Node3&#45;&gt;Node1 -->
<g id="edge4" class="edge"><title>Node3&#45;&gt;Node1</title>
<path fill="none" stroke="midnightblue" d="M133.07,-179.399C123.632,-170.486 111.42,-158.952 101.667,-149.741"/>
<polygon fill="midnightblue" stroke="midnightblue" points="103.84,-146.979 94.1671,-142.658 99.034,-152.069 103.84,-146.979"/>
</g>
<!-- Node4 -->
<g id="node5" class="node"><title>Node4</title>
<g id="a_node5"><a xlink:href="data__type_8h.html" target="_top" xlink:title="Defines all data types used in this lib. ">
<polygon fill="white" stroke="black" points="66.5,-56.5 66.5,-86.5 185.5,-86.5 185.5,-56.5 66.5,-56.5"/>
<text text-anchor="start" x="74.5" y="-74.5" font-family="Helvetica,sans-Serif" font-size="10.00">motion_primitive_library</text>
<text text-anchor="middle" x="126" y="-63.5" font-family="Helvetica,sans-Serif" font-size="10.00">/common/data_type.h</text>
</a>
</g>
</g>
<!-- Node3&#45;&gt;Node4 -->
<g id="edge5" class="edge"><title>Node3&#45;&gt;Node4</title>
<path fill="none" stroke="midnightblue" d="M145.39,-179.145C141.702,-158.859 134.915,-121.533 130.429,-96.8617"/>
<polygon fill="midnightblue" stroke="midnightblue" points="133.839,-96.0493 128.607,-86.8368 126.952,-97.3016 133.839,-96.0493"/>
</g>
<!-- Node8 -->
<g id="node9" class="node"><title>Node8</title>
<g id="a_node9"><a xlink:href="math_8h.html" target="_top" xlink:title="Polynomial roots solver. ">
<polygon fill="white" stroke="black" points="206.5,-123.5 206.5,-142.5 253.5,-142.5 253.5,-123.5 206.5,-123.5"/>
<text text-anchor="middle" x="230" y="-130.5" font-family="Helvetica,sans-Serif" font-size="10.00">math.h</text>
</a>
</g>
</g>
<!-- Node3&#45;&gt;Node8 -->
<g id="edge10" class="edge"><title>Node3&#45;&gt;Node8</title>
<path fill="none" stroke="midnightblue" d="M167.433,-179.399C180.208,-170.129 196.889,-158.025 209.814,-148.647"/>
<polygon fill="midnightblue" stroke="midnightblue" points="212.03,-151.364 218.068,-142.658 207.919,-145.698 212.03,-151.364"/>
</g>
<!-- Node4&#45;&gt;Node2 -->
<g id="edge7" class="edge"><title>Node4&#45;&gt;Node2</title>
<path fill="none" stroke="midnightblue" d="M101.353,-56.3993C84.683,-46.8619 62.7694,-34.3248 46.1948,-24.8422"/>
<polygon fill="midnightblue" stroke="midnightblue" points="47.5509,-21.5858 37.1329,-19.6578 44.0747,-27.6617 47.5509,-21.5858"/>
</g>
<!-- Node5 -->
<g id="node6" class="node"><title>Node5</title>
<polygon fill="white" stroke="#bfbfbf" points="274,-0.5 274,-19.5 320,-19.5 320,-0.5 274,-0.5"/>
<text text-anchor="middle" x="297" y="-7.5" font-family="Helvetica,sans-Serif" font-size="10.00">stdio.h</text>
</g>
<!-- Node4&#45;&gt;Node5 -->
<g id="edge6" class="edge"><title>Node4&#45;&gt;Node5</title>
<path fill="none" stroke="midnightblue" d="M166.525,-56.3993C196.256,-46.0543 236.129,-32.1801 263.942,-22.5028"/>
<polygon fill="midnightblue" stroke="midnightblue" points="265.307,-25.7336 273.601,-19.1417 263.006,-19.1224 265.307,-25.7336"/>
</g>
<!-- Node6 -->
<g id="node7" class="node"><title>Node6</title>
<polygon fill="white" stroke="#bfbfbf" points="62.5,-0.5 62.5,-19.5 149.5,-19.5 149.5,-0.5 62.5,-0.5"/>
<text text-anchor="middle" x="106" y="-7.5" font-family="Helvetica,sans-Serif" font-size="10.00">Eigen/Geometry</text>
</g>
<!-- Node4&#45;&gt;Node6 -->
<g id="edge8" class="edge"><title>Node4&#45;&gt;Node6</title>
<path fill="none" stroke="midnightblue" d="M121.26,-56.3993C118.534,-48.2881 115.078,-38.0071 112.145,-29.2807"/>
<polygon fill="midnightblue" stroke="midnightblue" points="115.414,-28.0214 108.91,-19.6578 108.779,-30.2518 115.414,-28.0214"/>
</g>
<!-- Node7 -->
<g id="node8" class="node"><title>Node7</title>
<polygon fill="white" stroke="#bfbfbf" points="168,-0.5 168,-19.5 256,-19.5 256,-0.5 168,-0.5"/>
<text text-anchor="middle" x="212" y="-7.5" font-family="Helvetica,sans-Serif" font-size="10.00">Eigen/StdVector</text>
</g>
<!-- Node4&#45;&gt;Node7 -->
<g id="edge9" class="edge"><title>Node4&#45;&gt;Node7</title>
<path fill="none" stroke="midnightblue" d="M146.381,-56.3993C159.908,-47.0402 177.611,-34.7924 191.22,-25.3771"/>
<polygon fill="midnightblue" stroke="midnightblue" points="193.254,-28.2257 199.486,-19.6578 189.271,-22.4692 193.254,-28.2257"/>
</g>
<!-- Node8&#45;&gt;Node4 -->
<g id="edge11" class="edge"><title>Node8&#45;&gt;Node4</title>
<path fill="none" stroke="midnightblue" d="M215.099,-123.475C200.619,-115.191 178.13,-102.325 159.37,-91.5913"/>
<polygon fill="midnightblue" stroke="midnightblue" points="160.929,-88.4509 150.511,-86.523 157.453,-94.5269 160.929,-88.4509"/>
</g>
<!-- Node9 -->
<g id="node10" class="node"><title>Node9</title>
<polygon fill="white" stroke="#bfbfbf" points="204,-62 204,-81 358,-81 358,-62 204,-62"/>
<text text-anchor="middle" x="281" y="-69" font-family="Helvetica,sans-Serif" font-size="10.00">unsupported/Eigen/Polynomials</text>
</g>
<!-- Node8&#45;&gt;Node9 -->
<g id="edge12" class="edge"><title>Node8&#45;&gt;Node9</title>
<path fill="none" stroke="midnightblue" d="M237.307,-123.475C245.033,-114.462 257.408,-100.025 267.018,-88.8118"/>
<polygon fill="midnightblue" stroke="midnightblue" points="269.856,-90.8795 273.706,-81.0091 264.541,-86.3239 269.856,-90.8795"/>
</g>
<!-- Node10 -->
<g id="node11" class="node"><title>Node10</title>
<polygon fill="white" stroke="#bfbfbf" points="376,-62 376,-81 430,-81 430,-62 376,-62"/>
<text text-anchor="middle" x="403" y="-69" font-family="Helvetica,sans-Serif" font-size="10.00">iostream</text>
</g>
<!-- Node8&#45;&gt;Node10 -->
<g id="edge13" class="edge"><title>Node8&#45;&gt;Node10</title>
<path fill="none" stroke="midnightblue" d="M253.922,-124.665C281.393,-116.121 327.728,-101.341 367,-87 368.899,-86.3066 370.847,-85.5766 372.807,-84.8281"/>
<polygon fill="midnightblue" stroke="midnightblue" points="374.497,-87.9246 382.529,-81.0151 371.942,-81.4079 374.497,-87.9246"/>
</g>
<!-- Node11&#45;&gt;Node3 -->
<g id="edge15" class="edge"><title>Node11&#45;&gt;Node3</title>
<path fill="none" stroke="midnightblue" d="M177.755,-246.396C172.974,-238.219 166.839,-227.725 161.384,-218.393"/>
<polygon fill="midnightblue" stroke="midnightblue" points="164.298,-216.443 156.229,-209.577 158.255,-219.976 164.298,-216.443"/>
</g>
</g>
</svg>
