<?xml version="1.0" encoding="UTF-8" standalone="no"?>
<!DOCTYPE svg PUBLIC "-//W3C//DTD SVG 1.1//EN"
 "http://www.w3.org/Graphics/SVG/1.1/DTD/svg11.dtd">
<!-- Generated by graphviz version 2.38.0 (20140413.2041)
 -->
<!-- Title: include/motion_primitive_library/planner/env_base.h Pages: 1 -->
<svg width="672pt" height="396pt"
 viewBox="0.00 0.00 672.00 396.00" xmlns="http://www.w3.org/2000/svg" xmlns:xlink="http://www.w3.org/1999/xlink">
<g id="graph0" class="graph" transform="scale(1 1) rotate(0) translate(4 392)">
<title>include/motion_primitive_library/planner/env_base.h</title>
<polygon fill="white" stroke="none" points="-4,4 -4,-392 668,-392 668,4 -4,4"/>
<!-- Node12 -->
<g id="node1" class="node"><title>Node12</title>
<polygon fill="#bfbfbf" stroke="black" points="261,-357.5 261,-387.5 397,-387.5 397,-357.5 261,-357.5"/>
<text text-anchor="start" x="269" y="-375.5" font-family="Helvetica,sans-Serif" font-size="10.00">include/motion_primitive</text>
<text text-anchor="middle" x="329" y="-364.5" font-family="Helvetica,sans-Serif" font-size="10.00">_library/planner/env_base.h</text>
</g>
<!-- Node13 -->
<g id="node2" class="node"><title>Node13</title>
<g id="a_node2"><a xlink:href="env__cloud_8h.html" target="_top" xlink:title="include/motion_primitive\l_library/planner/env_cloud.h">
<polygon fill="white" stroke="black" points="0,-207 0,-237 138,-237 138,-207 0,-207"/>
<text text-anchor="start" x="8" y="-225" font-family="Helvetica,sans-Serif" font-size="10.00">include/motion_primitive</text>
<text text-anchor="middle" x="69" y="-214" font-family="Helvetica,sans-Serif" font-size="10.00">_library/planner/env_cloud.h</text>
</a>
</g>
</g>
<!-- Node12&#45;&gt;Node13 -->
<g id="edge1" class="edge"><title>Node12&#45;&gt;Node13</title>
<path fill="none" stroke="midnightblue" d="M250.873,-359.577C218.443,-352.085 181.566,-340.076 152,-321 117.903,-299 90.3366,-258.749 77.2491,-237.317"/>
<polygon fill="midnightblue" stroke="midnightblue" points="250.262,-363.026 260.781,-361.76 251.768,-356.19 250.262,-363.026"/>
</g>
<!-- Node16 -->
<g id="node5" class="node"><title>Node16</title>
<g id="a_node5"><a xlink:href="env__map_8h.html" target="_top" xlink:title="include/motion_primitive\l_library/planner/env_map.h">
<polygon fill="white" stroke="black" points="530,-285 530,-315 664,-315 664,-285 530,-285"/>
<text text-anchor="start" x="538" y="-303" font-family="Helvetica,sans-Serif" font-size="10.00">include/motion_primitive</text>
<text text-anchor="middle" x="597" y="-292" font-family="Helvetica,sans-Serif" font-size="10.00">_library/planner/env_map.h</text>
</a>
</g>
</g>
<!-- Node12&#45;&gt;Node16 -->
<g id="edge4" class="edge"><title>Node12&#45;&gt;Node16</title>
<path fill="none" stroke="midnightblue" d="M392.127,-354.894C438.122,-342.794 499.757,-326.581 543.374,-315.107"/>
<polygon fill="midnightblue" stroke="midnightblue" points="391.049,-351.558 382.269,-357.487 392.83,-358.328 391.049,-351.558"/>
</g>
<!-- Node21 -->
<g id="node10" class="node"><title>Node21</title>
<g id="a_node10"><a xlink:href="mp__base__util_8h.html" target="_top" xlink:title="base class for motion planning ">
<polygon fill="white" stroke="black" points="161,-134.5 161,-164.5 313,-164.5 313,-134.5 161,-134.5"/>
<text text-anchor="start" x="169" y="-152.5" font-family="Helvetica,sans-Serif" font-size="10.00">include/motion_primitive</text>
<text text-anchor="middle" x="237" y="-141.5" font-family="Helvetica,sans-Serif" font-size="10.00">_library/planner/mp_base_util.h</text>
</a>
</g>
</g>
<!-- Node12&#45;&gt;Node21 -->
<g id="edge9" class="edge"><title>Node12&#45;&gt;Node21</title>
<path fill="none" stroke="midnightblue" d="M292.702,-352.376C257,-331.168 205.027,-293.209 185,-243 178.084,-225.662 177.731,-218.193 185,-201 191.273,-186.164 204.273,-173.539 215.705,-164.623"/>
<polygon fill="midnightblue" stroke="midnightblue" points="290.99,-355.429 301.399,-357.405 294.494,-349.369 290.99,-355.429"/>
</g>
<!-- Node23 -->
<g id="node12" class="node"><title>Node23</title>
<g id="a_node12"><a xlink:href="state__space_8h.html" target="_top" xlink:title="state space class for graph search ">
<polygon fill="white" stroke="black" points="268,-279.5 268,-320.5 390,-320.5 390,-279.5 268,-279.5"/>
<text text-anchor="start" x="276" y="-308.5" font-family="Helvetica,sans-Serif" font-size="10.00">include/motion_primitive</text>
<text text-anchor="start" x="276" y="-297.5" font-family="Helvetica,sans-Serif" font-size="10.00">_library/planner/state</text>
<text text-anchor="middle" x="329" y="-286.5" font-family="Helvetica,sans-Serif" font-size="10.00">_space.h</text>
</a>
</g>
</g>
<!-- Node12&#45;&gt;Node23 -->
<g id="edge13" class="edge"><title>Node12&#45;&gt;Node23</title>
<path fill="none" stroke="midnightblue" d="M329,-346.982C329,-338.347 329,-328.762 329,-320.588"/>
<polygon fill="midnightblue" stroke="midnightblue" points="325.5,-347.233 329,-357.233 332.5,-347.233 325.5,-347.233"/>
</g>
<!-- Node25 -->
<g id="node14" class="node"><title>Node25</title>
<polygon fill="white" stroke="#bfbfbf" points="363.5,-140 363.5,-159 508.5,-159 508.5,-140 363.5,-140"/>
<text text-anchor="middle" x="436" y="-147" font-family="Helvetica,sans-Serif" font-size="10.00">src/planner/graph_search.cpp</text>
</g>
<!-- Node12&#45;&gt;Node25 -->
<g id="edge18" class="edge"><title>Node12&#45;&gt;Node25</title>
<path fill="none" stroke="midnightblue" d="M368.044,-352.546C405.864,-331.687 460.674,-294.199 483,-243 490.461,-225.889 489.833,-218.371 483,-201 476.073,-183.39 459.793,-168.281 448.344,-159.293"/>
<polygon fill="midnightblue" stroke="midnightblue" points="365.984,-349.678 358.825,-357.488 369.292,-355.848 365.984,-349.678"/>
</g>
<!-- Node14 -->
<g id="node3" class="node"><title>Node14</title>
<g id="a_node3"><a xlink:href="mp__cloud__util_8h.html" target="_top" xlink:title="motion planning cloud util ">
<polygon fill="white" stroke="black" points="6,-67.5 6,-97.5 160,-97.5 160,-67.5 6,-67.5"/>
<text text-anchor="start" x="14" y="-85.5" font-family="Helvetica,sans-Serif" font-size="10.00">include/motion_primitive</text>
<text text-anchor="middle" x="83" y="-74.5" font-family="Helvetica,sans-Serif" font-size="10.00">_library/planner/mp_cloud_util.h</text>
</a>
</g>
</g>
<!-- Node13&#45;&gt;Node14 -->
<g id="edge2" class="edge"><title>Node13&#45;&gt;Node14</title>
<path fill="none" stroke="midnightblue" d="M71.4654,-196.787C74.3854,-168.107 79.1538,-121.275 81.5414,-97.8258"/>
<polygon fill="midnightblue" stroke="midnightblue" points="67.9766,-196.5 70.4455,-206.803 74.9405,-197.209 67.9766,-196.5"/>
</g>
<!-- Node15 -->
<g id="node4" class="node"><title>Node15</title>
<polygon fill="white" stroke="#bfbfbf" points="28,-0.5 28,-30.5 138,-30.5 138,-0.5 28,-0.5"/>
<text text-anchor="start" x="36" y="-18.5" font-family="Helvetica,sans-Serif" font-size="10.00">src/planner/mp_cloud</text>
<text text-anchor="middle" x="83" y="-7.5" font-family="Helvetica,sans-Serif" font-size="10.00">_util.cpp</text>
</g>
<!-- Node14&#45;&gt;Node15 -->
<g id="edge3" class="edge"><title>Node14&#45;&gt;Node15</title>
<path fill="none" stroke="midnightblue" d="M83,-57.1081C83,-48.1539 83,-38.3227 83,-30.5765"/>
<polygon fill="midnightblue" stroke="midnightblue" points="79.5001,-57.3959 83,-67.396 86.5001,-57.396 79.5001,-57.3959"/>
</g>
<!-- Node17 -->
<g id="node6" class="node"><title>Node17</title>
<g id="a_node6"><a xlink:href="mp__map__util_8h.html" target="_top" xlink:title="motion planning map util ">
<polygon fill="white" stroke="black" points="400.5,-67.5 400.5,-97.5 549.5,-97.5 549.5,-67.5 400.5,-67.5"/>
<text text-anchor="start" x="408.5" y="-85.5" font-family="Helvetica,sans-Serif" font-size="10.00">include/motion_primitive</text>
<text text-anchor="middle" x="475" y="-74.5" font-family="Helvetica,sans-Serif" font-size="10.00">_library/planner/mp_map_util.h</text>
</a>
</g>
</g>
<!-- Node16&#45;&gt;Node17 -->
<g id="edge5" class="edge"><title>Node16&#45;&gt;Node17</title>
<path fill="none" stroke="midnightblue" d="M587.537,-275.011C574.045,-242.011 547.507,-181.323 517,-134 508.597,-120.965 497.269,-107.528 488.495,-97.7937"/>
<polygon fill="midnightblue" stroke="midnightblue" points="584.459,-276.737 591.448,-284.7 590.951,-274.117 584.459,-276.737"/>
</g>
<!-- Node18 -->
<g id="node7" class="node"><title>Node18</title>
<polygon fill="white" stroke="#bfbfbf" points="545.5,-0.5 545.5,-30.5 650.5,-30.5 650.5,-0.5 545.5,-0.5"/>
<text text-anchor="start" x="553.5" y="-18.5" font-family="Helvetica,sans-Serif" font-size="10.00">src/planner/mp_map</text>
<text text-anchor="middle" x="598" y="-7.5" font-family="Helvetica,sans-Serif" font-size="10.00">_util.cpp</text>
</g>
<!-- Node17&#45;&gt;Node18 -->
<g id="edge6" class="edge"><title>Node17&#45;&gt;Node18</title>
<path fill="none" stroke="midnightblue" d="M510.548,-62.7143C529.947,-52.4631 553.564,-39.9826 571.363,-30.5765"/>
<polygon fill="midnightblue" stroke="midnightblue" points="508.895,-59.6292 501.689,-67.396 512.166,-65.8181 508.895,-59.6292"/>
</g>
<!-- Node19 -->
<g id="node8" class="node"><title>Node19</title>
<polygon fill="white" stroke="#bfbfbf" points="280,-6 280,-25 404,-25 404,-6 280,-6"/>
<text text-anchor="middle" x="342" y="-13" font-family="Helvetica,sans-Serif" font-size="10.00">test/test_planner_2d.cpp</text>
</g>
<!-- Node17&#45;&gt;Node19 -->
<g id="edge7" class="edge"><title>Node17&#45;&gt;Node19</title>
<path fill="none" stroke="midnightblue" d="M437.079,-62.9674C411.53,-50.481 379.031,-34.5978 359.407,-25.007"/>
<polygon fill="midnightblue" stroke="midnightblue" points="435.62,-66.1496 446.141,-67.396 438.693,-59.8605 435.62,-66.1496"/>
</g>
<!-- Node20 -->
<g id="node9" class="node"><title>Node20</title>
<polygon fill="white" stroke="#bfbfbf" points="422.5,-0.5 422.5,-30.5 527.5,-30.5 527.5,-0.5 422.5,-0.5"/>
<text text-anchor="start" x="430.5" y="-18.5" font-family="Helvetica,sans-Serif" font-size="10.00">test/test_planner_2d</text>
<text text-anchor="middle" x="475" y="-7.5" font-family="Helvetica,sans-Serif" font-size="10.00">_prior_traj.cpp</text>
</g>
<!-- Node17&#45;&gt;Node20 -->
<g id="edge8" class="edge"><title>Node17&#45;&gt;Node20</title>
<path fill="none" stroke="midnightblue" d="M475,-57.1081C475,-48.1539 475,-38.3227 475,-30.5765"/>
<polygon fill="midnightblue" stroke="midnightblue" points="471.5,-57.3959 475,-67.396 478.5,-57.396 471.5,-57.3959"/>
</g>
<!-- Node21&#45;&gt;Node14 -->
<g id="edge10" class="edge"><title>Node21&#45;&gt;Node14</title>
<path fill="none" stroke="midnightblue" d="M194.133,-130.407C169.547,-120.029 139.14,-107.195 116.35,-97.5765"/>
<polygon fill="midnightblue" stroke="midnightblue" points="193.01,-133.732 203.584,-134.396 195.732,-127.283 193.01,-133.732"/>
</g>
<!-- Node21&#45;&gt;Node17 -->
<g id="edge11" class="edge"><title>Node21&#45;&gt;Node17</title>
<path fill="none" stroke="midnightblue" d="M298.459,-131.715C337.189,-121.137 386.629,-107.635 423.332,-97.6109"/>
<polygon fill="midnightblue" stroke="midnightblue" points="297.074,-128.465 288.349,-134.476 298.918,-135.218 297.074,-128.465"/>
</g>
<!-- Node22 -->
<g id="node11" class="node"><title>Node22</title>
<polygon fill="white" stroke="#bfbfbf" points="183.5,-67.5 183.5,-97.5 290.5,-97.5 290.5,-67.5 183.5,-67.5"/>
<text text-anchor="start" x="191.5" y="-85.5" font-family="Helvetica,sans-Serif" font-size="10.00">src/planner/mp_base</text>
<text text-anchor="middle" x="237" y="-74.5" font-family="Helvetica,sans-Serif" font-size="10.00">_util.cpp</text>
</g>
<!-- Node21&#45;&gt;Node22 -->
<g id="edge12" class="edge"><title>Node21&#45;&gt;Node22</title>
<path fill="none" stroke="midnightblue" d="M237,-124.108C237,-115.154 237,-105.323 237,-97.5765"/>
<polygon fill="midnightblue" stroke="midnightblue" points="233.5,-124.396 237,-134.396 240.5,-124.396 233.5,-124.396"/>
</g>
<!-- Node24 -->
<g id="node13" class="node"><title>Node24</title>
<g id="a_node13"><a xlink:href="graph__search_8h.html" target="_top" xlink:title="backend of graph search, implemetation of A* and Lifelong Planning A* ">
<polygon fill="white" stroke="black" points="194,-201.5 194,-242.5 316,-242.5 316,-201.5 194,-201.5"/>
<text text-anchor="start" x="202" y="-230.5" font-family="Helvetica,sans-Serif" font-size="10.00">include/motion_primitive</text>
<text text-anchor="start" x="202" y="-219.5" font-family="Helvetica,sans-Serif" font-size="10.00">_library/planner/graph</text>
<text text-anchor="middle" x="255" y="-208.5" font-family="Helvetica,sans-Serif" font-size="10.00">_search.h</text>
</a>
</g>
</g>
<!-- Node23&#45;&gt;Node24 -->
<g id="edge14" class="edge"><title>Node23&#45;&gt;Node24</title>
<path fill="none" stroke="midnightblue" d="M302.909,-272.204C293.379,-262.416 282.788,-251.539 273.992,-242.506"/>
<polygon fill="midnightblue" stroke="midnightblue" points="300.459,-274.705 309.943,-279.428 305.475,-269.822 300.459,-274.705"/>
</g>
<!-- Node26 -->
<g id="node15" class="node"><title>Node26</title>
<polygon fill="white" stroke="#bfbfbf" points="334,-212.5 334,-231.5 474,-231.5 474,-212.5 334,-212.5"/>
<text text-anchor="middle" x="404" y="-219.5" font-family="Helvetica,sans-Serif" font-size="10.00">src/planner/state_space.cpp</text>
</g>
<!-- Node23&#45;&gt;Node26 -->
<g id="edge17" class="edge"><title>Node23&#45;&gt;Node26</title>
<path fill="none" stroke="midnightblue" d="M355.421,-272.226C369.502,-257.958 385.872,-241.37 395.56,-231.552"/>
<polygon fill="midnightblue" stroke="midnightblue" points="352.847,-269.852 348.314,-279.428 357.83,-274.769 352.847,-269.852"/>
</g>
<!-- Node24&#45;&gt;Node21 -->
<g id="edge15" class="edge"><title>Node24&#45;&gt;Node21</title>
<path fill="none" stroke="midnightblue" d="M247.512,-191.671C245.15,-182.422 242.646,-172.614 240.674,-164.892"/>
<polygon fill="midnightblue" stroke="midnightblue" points="244.121,-192.539 249.986,-201.362 250.903,-190.807 244.121,-192.539"/>
</g>
<!-- Node24&#45;&gt;Node25 -->
<g id="edge16" class="edge"><title>Node24&#45;&gt;Node25</title>
<path fill="none" stroke="midnightblue" d="M314.798,-197.708C348.734,-184.49 389.203,-168.727 413.732,-159.173"/>
<polygon fill="midnightblue" stroke="midnightblue" points="313.466,-194.471 305.419,-201.362 316.007,-200.994 313.466,-194.471"/>
</g>
</g>
</svg>
