<?xml version="1.0" encoding="UTF-8" standalone="no"?>
<!DOCTYPE svg PUBLIC "-//W3C//DTD SVG 1.1//EN"
 "http://www.w3.org/Graphics/SVG/1.1/DTD/svg11.dtd">
<!-- Generated by graphviz version 2.38.0 (20140413.2041)
 -->
<!-- Title: include/motion_primitive_library/planner/env_cloud.h Pages: 1 -->
<svg width="580pt" height="486pt"
 viewBox="0.00 0.00 579.83 486.00" xmlns="http://www.w3.org/2000/svg" xmlns:xlink="http://www.w3.org/1999/xlink">
<g id="graph0" class="graph" transform="scale(1 1) rotate(0) translate(4 482)">
<title>include/motion_primitive_library/planner/env_cloud.h</title>
<polygon fill="white" stroke="none" points="-4,4 -4,-482 575.825,-482 575.825,4 -4,4"/>
<!-- Node0 -->
<g id="node1" class="node"><title>Node0</title>
<polygon fill="#bfbfbf" stroke="black" points="340.5,-447.5 340.5,-477.5 478.5,-477.5 478.5,-447.5 340.5,-447.5"/>
<text text-anchor="start" x="348.5" y="-465.5" font-family="Helvetica,sans-Serif" font-size="10.00">include/motion_primitive</text>
<text text-anchor="middle" x="409.5" y="-454.5" font-family="Helvetica,sans-Serif" font-size="10.00">_library/planner/env_cloud.h</text>
</g>
<!-- Node1 -->
<g id="node2" class="node"><title>Node1</title>
<g id="a_node2"><a xlink:href="env__base_8h.html" target="_top" xlink:title="environment base class ">
<polygon fill="white" stroke="black" points="0,-313.5 0,-343.5 119,-343.5 119,-313.5 0,-313.5"/>
<text text-anchor="start" x="8" y="-331.5" font-family="Helvetica,sans-Serif" font-size="10.00">motion_primitive_library</text>
<text text-anchor="middle" x="59.5" y="-320.5" font-family="Helvetica,sans-Serif" font-size="10.00">/planner/env_base.h</text>
</a>
</g>
</g>
<!-- Node0&#45;&gt;Node1 -->
<g id="edge1" class="edge"><title>Node0&#45;&gt;Node1</title>
<path fill="none" stroke="midnightblue" d="M372.375,-447.499C308.189,-423.291 176.61,-373.667 106.276,-347.141"/>
<polygon fill="midnightblue" stroke="midnightblue" points="107.363,-343.81 96.7709,-343.556 104.892,-350.36 107.363,-343.81"/>
</g>
<!-- Node4 -->
<g id="node5" class="node"><title>Node4</title>
<g id="a_node5"><a xlink:href="primitive_8h.html" target="_top" xlink:title="Primitive classes. ">
<polygon fill="white" stroke="black" points="170,-179.5 170,-209.5 289,-209.5 289,-179.5 170,-179.5"/>
<text text-anchor="start" x="178" y="-197.5" font-family="Helvetica,sans-Serif" font-size="10.00">motion_primitive_library</text>
<text text-anchor="middle" x="229.5" y="-186.5" font-family="Helvetica,sans-Serif" font-size="10.00">/primitive/primitive.h</text>
</a>
</g>
</g>
<!-- Node0&#45;&gt;Node4 -->
<g id="edge17" class="edge"><title>Node0&#45;&gt;Node4</title>
<path fill="none" stroke="midnightblue" d="M447.607,-447.491C501.786,-425.054 591.966,-376.996 567.5,-313 553.225,-275.663 542.385,-265.517 507.5,-246 443.086,-209.963 358.354,-198.842 299.441,-195.798"/>
<polygon fill="midnightblue" stroke="midnightblue" points="299.266,-192.287 289.118,-195.333 298.951,-199.279 299.266,-192.287"/>
</g>
<!-- Node13 -->
<g id="node14" class="node"><title>Node13</title>
<g id="a_node14"><a xlink:href="decomp__util_8h.html" target="_top" xlink:title="decomp util util class ">
<polygon fill="white" stroke="black" points="328,-380.5 328,-410.5 491,-410.5 491,-380.5 328,-380.5"/>
<text text-anchor="start" x="336" y="-398.5" font-family="Helvetica,sans-Serif" font-size="10.00">motion_primitive_library</text>
<text text-anchor="middle" x="409.5" y="-387.5" font-family="Helvetica,sans-Serif" font-size="10.00">/collision_checking/decomp_util.h</text>
</a>
</g>
</g>
<!-- Node0&#45;&gt;Node13 -->
<g id="edge18" class="edge"><title>Node0&#45;&gt;Node13</title>
<path fill="none" stroke="midnightblue" d="M409.5,-447.396C409.5,-439.645 409.5,-429.812 409.5,-420.86"/>
<polygon fill="midnightblue" stroke="midnightblue" points="413,-420.576 409.5,-410.577 406,-420.577 413,-420.576"/>
</g>
<!-- Node2 -->
<g id="node3" class="node"><title>Node2</title>
<polygon fill="white" stroke="#bfbfbf" points="101.5,-123.5 101.5,-142.5 153.5,-142.5 153.5,-123.5 101.5,-123.5"/>
<text text-anchor="middle" x="127.5" y="-130.5" font-family="Helvetica,sans-Serif" font-size="10.00">memory</text>
</g>
<!-- Node1&#45;&gt;Node2 -->
<g id="edge2" class="edge"><title>Node1&#45;&gt;Node2</title>
<path fill="none" stroke="midnightblue" d="M64.5002,-313.271C76.6156,-278.796 107.535,-190.812 121.033,-152.403"/>
<polygon fill="midnightblue" stroke="midnightblue" points="124.472,-153.172 124.486,-142.577 117.868,-150.851 124.472,-153.172"/>
</g>
<!-- Node3 -->
<g id="node4" class="node"><title>Node3</title>
<polygon fill="white" stroke="#bfbfbf" points="6.5,-0.5 6.5,-19.5 50.5,-19.5 50.5,-0.5 6.5,-0.5"/>
<text text-anchor="middle" x="28.5" y="-7.5" font-family="Helvetica,sans-Serif" font-size="10.00">vector</text>
</g>
<!-- Node1&#45;&gt;Node3 -->
<g id="edge3" class="edge"><title>Node1&#45;&gt;Node3</title>
<path fill="none" stroke="midnightblue" d="M53.9578,-313.495C45.0411,-289.663 28.5,-239.52 28.5,-195.5 28.5,-195.5 28.5,-195.5 28.5,-132 28.5,-95.7138 28.5,-53.3066 28.5,-29.559"/>
<polygon fill="midnightblue" stroke="midnightblue" points="32.0001,-29.5085 28.5,-19.5085 25.0001,-29.5086 32.0001,-29.5085"/>
</g>
<!-- Node1&#45;&gt;Node4 -->
<g id="edge4" class="edge"><title>Node1&#45;&gt;Node4</title>
<path fill="none" stroke="midnightblue" d="M67.6567,-313.486C78.5146,-295.829 99.1986,-265.445 123.5,-246 140.247,-232.599 161.136,-221.683 179.931,-213.473"/>
<polygon fill="midnightblue" stroke="midnightblue" points="181.394,-216.654 189.248,-209.544 178.674,-210.204 181.394,-216.654"/>
</g>
<!-- Node12 -->
<g id="node13" class="node"><title>Node12</title>
<g id="a_node13"><a xlink:href="trajectory_8h.html" target="_top" xlink:title="Trajectory class. ">
<polygon fill="white" stroke="black" points="133,-246.5 133,-276.5 252,-276.5 252,-246.5 133,-246.5"/>
<text text-anchor="start" x="141" y="-264.5" font-family="Helvetica,sans-Serif" font-size="10.00">motion_primitive_library</text>
<text text-anchor="middle" x="192.5" y="-253.5" font-family="Helvetica,sans-Serif" font-size="10.00">/primitive/trajectory.h</text>
</a>
</g>
</g>
<!-- Node1&#45;&gt;Node12 -->
<g id="edge15" class="edge"><title>Node1&#45;&gt;Node12</title>
<path fill="none" stroke="midnightblue" d="M88.359,-313.396C107.792,-303.899 133.619,-291.276 154.691,-280.978"/>
<polygon fill="midnightblue" stroke="midnightblue" points="156.25,-284.112 163.697,-276.577 153.176,-277.823 156.25,-284.112"/>
</g>
<!-- Node4&#45;&gt;Node2 -->
<g id="edge5" class="edge"><title>Node4&#45;&gt;Node2</title>
<path fill="none" stroke="midnightblue" d="M205.327,-179.399C188.978,-169.862 167.485,-157.325 151.23,-147.842"/>
<polygon fill="midnightblue" stroke="midnightblue" points="152.743,-144.673 142.342,-142.658 149.216,-150.72 152.743,-144.673"/>
</g>
<!-- Node5 -->
<g id="node6" class="node"><title>Node5</title>
<g id="a_node6"><a xlink:href="data__type_8h.html" target="_top" xlink:title="Defines all data types used in this lib. ">
<polygon fill="white" stroke="black" points="78,-56.5 78,-86.5 197,-86.5 197,-56.5 78,-56.5"/>
<text text-anchor="start" x="86" y="-74.5" font-family="Helvetica,sans-Serif" font-size="10.00">motion_primitive_library</text>
<text text-anchor="middle" x="137.5" y="-63.5" font-family="Helvetica,sans-Serif" font-size="10.00">/common/data_type.h</text>
</a>
</g>
</g>
<!-- Node4&#45;&gt;Node5 -->
<g id="edge6" class="edge"><title>Node4&#45;&gt;Node5</title>
<path fill="none" stroke="midnightblue" d="M218.585,-179.145C202.746,-158.313 173.244,-119.512 154.53,-94.8984"/>
<polygon fill="midnightblue" stroke="midnightblue" points="157.239,-92.6788 148.401,-86.8368 151.667,-96.9155 157.239,-92.6788"/>
</g>
<!-- Node9 -->
<g id="node10" class="node"><title>Node9</title>
<g id="a_node10"><a xlink:href="math_8h.html" target="_top" xlink:title="Polynomial roots solver. ">
<polygon fill="white" stroke="black" points="232,-123.5 232,-142.5 279,-142.5 279,-123.5 232,-123.5"/>
<text text-anchor="middle" x="255.5" y="-130.5" font-family="Helvetica,sans-Serif" font-size="10.00">math.h</text>
</a>
</g>
</g>
<!-- Node4&#45;&gt;Node9 -->
<g id="edge11" class="edge"><title>Node4&#45;&gt;Node9</title>
<path fill="none" stroke="midnightblue" d="M235.662,-179.399C239.245,-171.199 243.797,-160.781 247.637,-151.994"/>
<polygon fill="midnightblue" stroke="midnightblue" points="250.92,-153.223 251.717,-142.658 244.505,-150.42 250.92,-153.223"/>
</g>
<!-- Node5&#45;&gt;Node3 -->
<g id="edge8" class="edge"><title>Node5&#45;&gt;Node3</title>
<path fill="none" stroke="midnightblue" d="M111.669,-56.3993C94.0334,-46.7728 70.7996,-34.0902 53.3724,-24.5772"/>
<polygon fill="midnightblue" stroke="midnightblue" points="54.8149,-21.3771 44.3605,-19.6578 51.4609,-27.5213 54.8149,-21.3771"/>
</g>
<!-- Node6 -->
<g id="node7" class="node"><title>Node6</title>
<polygon fill="white" stroke="#bfbfbf" points="280.5,-0.5 280.5,-19.5 326.5,-19.5 326.5,-0.5 280.5,-0.5"/>
<text text-anchor="middle" x="303.5" y="-7.5" font-family="Helvetica,sans-Serif" font-size="10.00">stdio.h</text>
</g>
<!-- Node5&#45;&gt;Node6 -->
<g id="edge7" class="edge"><title>Node5&#45;&gt;Node6</title>
<path fill="none" stroke="midnightblue" d="M176.84,-56.3993C205.405,-46.1607 243.615,-32.4649 270.572,-22.8025"/>
<polygon fill="midnightblue" stroke="midnightblue" points="272.077,-25.9813 280.309,-19.3124 269.715,-19.3918 272.077,-25.9813"/>
</g>
<!-- Node7 -->
<g id="node8" class="node"><title>Node7</title>
<polygon fill="white" stroke="#bfbfbf" points="69,-0.5 69,-19.5 156,-19.5 156,-0.5 69,-0.5"/>
<text text-anchor="middle" x="112.5" y="-7.5" font-family="Helvetica,sans-Serif" font-size="10.00">Eigen/Geometry</text>
</g>
<!-- Node5&#45;&gt;Node7 -->
<g id="edge9" class="edge"><title>Node5&#45;&gt;Node7</title>
<path fill="none" stroke="midnightblue" d="M131.575,-56.3993C128.13,-48.1989 123.752,-37.7809 120.06,-28.9936"/>
<polygon fill="midnightblue" stroke="midnightblue" points="123.238,-27.5213 116.138,-19.6578 116.785,-30.2328 123.238,-27.5213"/>
</g>
<!-- Node8 -->
<g id="node9" class="node"><title>Node8</title>
<polygon fill="white" stroke="#bfbfbf" points="174.5,-0.5 174.5,-19.5 262.5,-19.5 262.5,-0.5 174.5,-0.5"/>
<text text-anchor="middle" x="218.5" y="-7.5" font-family="Helvetica,sans-Serif" font-size="10.00">Eigen/StdVector</text>
</g>
<!-- Node5&#45;&gt;Node8 -->
<g id="edge10" class="edge"><title>Node5&#45;&gt;Node8</title>
<path fill="none" stroke="midnightblue" d="M156.696,-56.3993C169.316,-47.1293 185.793,-35.0254 198.561,-25.6469"/>
<polygon fill="midnightblue" stroke="midnightblue" points="200.727,-28.3987 206.714,-19.6578 196.582,-22.7572 200.727,-28.3987"/>
</g>
<!-- Node9&#45;&gt;Node5 -->
<g id="edge12" class="edge"><title>Node9&#45;&gt;Node5</title>
<path fill="none" stroke="midnightblue" d="M238.593,-123.475C221.94,-115.078 195.95,-101.973 174.493,-91.1534"/>
<polygon fill="midnightblue" stroke="midnightblue" points="175.815,-87.9002 165.31,-86.523 172.664,-94.1506 175.815,-87.9002"/>
</g>
<!-- Node10 -->
<g id="node11" class="node"><title>Node10</title>
<polygon fill="white" stroke="#bfbfbf" points="215.5,-62 215.5,-81 369.5,-81 369.5,-62 215.5,-62"/>
<text text-anchor="middle" x="292.5" y="-69" font-family="Helvetica,sans-Serif" font-size="10.00">unsupported/Eigen/Polynomials</text>
</g>
<!-- Node9&#45;&gt;Node10 -->
<g id="edge13" class="edge"><title>Node9&#45;&gt;Node10</title>
<path fill="none" stroke="midnightblue" d="M260.801,-123.475C266.241,-114.727 274.859,-100.869 281.736,-89.8093"/>
<polygon fill="midnightblue" stroke="midnightblue" points="284.9,-91.3494 287.209,-81.0091 278.956,-87.6528 284.9,-91.3494"/>
</g>
<!-- Node11 -->
<g id="node12" class="node"><title>Node11</title>
<polygon fill="white" stroke="#bfbfbf" points="387.5,-62 387.5,-81 441.5,-81 441.5,-62 387.5,-62"/>
<text text-anchor="middle" x="414.5" y="-69" font-family="Helvetica,sans-Serif" font-size="10.00">iostream</text>
</g>
<!-- Node9&#45;&gt;Node11 -->
<g id="edge14" class="edge"><title>Node9&#45;&gt;Node11</title>
<path fill="none" stroke="midnightblue" d="M279.164,-123.598C303.992,-114.722 344.114,-100.211 378.5,-87 380.34,-86.2932 382.229,-85.5586 384.133,-84.8118"/>
<polygon fill="midnightblue" stroke="midnightblue" points="385.604,-87.9933 393.605,-81.0482 383.019,-81.488 385.604,-87.9933"/>
</g>
<!-- Node12&#45;&gt;Node4 -->
<g id="edge16" class="edge"><title>Node12&#45;&gt;Node4</title>
<path fill="none" stroke="midnightblue" d="M200.528,-246.396C205.183,-238.219 211.156,-227.725 216.469,-218.393"/>
<polygon fill="midnightblue" stroke="midnightblue" points="219.582,-219.999 221.487,-209.577 213.498,-216.536 219.582,-219.999"/>
</g>
<!-- Node13&#45;&gt;Node4 -->
<g id="edge19" class="edge"><title>Node13&#45;&gt;Node4</title>
<path fill="none" stroke="midnightblue" d="M480.722,-380.383C526.623,-367.838 573.742,-346.257 550.5,-313 493.972,-232.113 375.446,-206.731 299.312,-198.875"/>
<polygon fill="midnightblue" stroke="midnightblue" points="299.611,-195.388 289.324,-197.92 298.945,-202.356 299.611,-195.388"/>
</g>
<!-- Node14 -->
<g id="node15" class="node"><title>Node14</title>
<g id="a_node15"><a xlink:href="primitive__util_8h.html" target="_top" xlink:title="Simple primitive utils. ">
<polygon fill="white" stroke="black" points="137.5,-313.5 137.5,-343.5 259.5,-343.5 259.5,-313.5 137.5,-313.5"/>
<text text-anchor="start" x="145.5" y="-331.5" font-family="Helvetica,sans-Serif" font-size="10.00">motion_primitive_library</text>
<text text-anchor="middle" x="198.5" y="-320.5" font-family="Helvetica,sans-Serif" font-size="10.00">/primitive/primitive_util.h</text>
</a>
</g>
</g>
<!-- Node13&#45;&gt;Node14 -->
<g id="edge20" class="edge"><title>Node13&#45;&gt;Node14</title>
<path fill="none" stroke="midnightblue" d="M363.976,-380.476C331.779,-370.557 288.422,-357.201 254.165,-346.648"/>
<polygon fill="midnightblue" stroke="midnightblue" points="254.893,-343.21 244.306,-343.611 252.833,-349.9 254.893,-343.21"/>
</g>
<!-- Node15 -->
<g id="node16" class="node"><title>Node15</title>
<polygon fill="white" stroke="#bfbfbf" points="277.5,-319 277.5,-338 401.5,-338 401.5,-319 277.5,-319"/>
<text text-anchor="middle" x="339.5" y="-326" font-family="Helvetica,sans-Serif" font-size="10.00">pcl/kdtree/kdtree_flann.h</text>
</g>
<!-- Node13&#45;&gt;Node15 -->
<g id="edge23" class="edge"><title>Node13&#45;&gt;Node15</title>
<path fill="none" stroke="midnightblue" d="M394.311,-380.396C383.18,-370.06 368.064,-356.024 356.525,-345.309"/>
<polygon fill="midnightblue" stroke="midnightblue" points="358.573,-342.434 348.863,-338.195 353.81,-347.564 358.573,-342.434"/>
</g>
<!-- Node16 -->
<g id="node17" class="node"><title>Node16</title>
<polygon fill="white" stroke="#bfbfbf" points="420,-319 420,-338 541,-338 541,-319 420,-319"/>
<text text-anchor="middle" x="480.5" y="-326" font-family="Helvetica,sans-Serif" font-size="10.00">boost/make_shared.hpp</text>
</g>
<!-- Node13&#45;&gt;Node16 -->
<g id="edge24" class="edge"><title>Node13&#45;&gt;Node16</title>
<path fill="none" stroke="midnightblue" d="M424.906,-380.396C436.305,-369.96 451.826,-355.751 463.572,-344.998"/>
<polygon fill="midnightblue" stroke="midnightblue" points="465.99,-347.529 471.003,-338.195 461.264,-342.366 465.99,-347.529"/>
</g>
<!-- Node14&#45;&gt;Node4 -->
<g id="edge21" class="edge"><title>Node14&#45;&gt;Node4</title>
<path fill="none" stroke="midnightblue" d="M225.059,-313.468C238.334,-304.882 253.111,-292.548 260.5,-277 269.711,-257.619 259.217,-234.713 248.016,-218.128"/>
<polygon fill="midnightblue" stroke="midnightblue" points="250.549,-215.661 241.841,-209.627 244.886,-219.775 250.549,-215.661"/>
</g>
<!-- Node14&#45;&gt;Node12 -->
<g id="edge22" class="edge"><title>Node14&#45;&gt;Node12</title>
<path fill="none" stroke="midnightblue" d="M197.198,-313.396C196.475,-305.56 195.555,-295.596 194.721,-286.565"/>
<polygon fill="midnightblue" stroke="midnightblue" points="198.204,-286.212 193.799,-276.577 191.233,-286.856 198.204,-286.212"/>
</g>
</g>
</svg>
