<?xml version="1.0" encoding="UTF-8" standalone="no"?>
<!DOCTYPE svg PUBLIC "-//W3C//DTD SVG 1.1//EN"
 "http://www.w3.org/Graphics/SVG/1.1/DTD/svg11.dtd">
<!-- Generated by graphviz version 2.38.0 (20140413.2041)
 -->
<!-- Title: include/motion_primitive_library/planner/env_cloud.h Pages: 1 -->
<svg width="162pt" height="173pt"
 viewBox="0.00 0.00 162.00 173.00" xmlns="http://www.w3.org/2000/svg" xmlns:xlink="http://www.w3.org/1999/xlink">
<g id="graph0" class="graph" transform="scale(1 1) rotate(0) translate(4 169)">
<title>include/motion_primitive_library/planner/env_cloud.h</title>
<polygon fill="white" stroke="none" points="-4,4 -4,-169 158,-169 158,4 -4,4"/>
<!-- Node17 -->
<g id="node1" class="node"><title>Node17</title>
<polygon fill="#bfbfbf" stroke="black" points="8,-134.5 8,-164.5 146,-164.5 146,-134.5 8,-134.5"/>
<text text-anchor="start" x="16" y="-152.5" font-family="Helvetica,sans-Serif" font-size="10.00">include/motion_primitive</text>
<text text-anchor="middle" x="77" y="-141.5" font-family="Helvetica,sans-Serif" font-size="10.00">_library/planner/env_cloud.h</text>
</g>
<!-- Node18 -->
<g id="node2" class="node"><title>Node18</title>
<g id="a_node2"><a xlink:href="mp__cloud__util_8h.html" target="_top" xlink:title="motion planning cloud util ">
<polygon fill="white" stroke="black" points="0,-67.5 0,-97.5 154,-97.5 154,-67.5 0,-67.5"/>
<text text-anchor="start" x="8" y="-85.5" font-family="Helvetica,sans-Serif" font-size="10.00">include/motion_primitive</text>
<text text-anchor="middle" x="77" y="-74.5" font-family="Helvetica,sans-Serif" font-size="10.00">_library/planner/mp_cloud_util.h</text>
</a>
</g>
</g>
<!-- Node17&#45;&gt;Node18 -->
<g id="edge1" class="edge"><title>Node17&#45;&gt;Node18</title>
<path fill="none" stroke="midnightblue" d="M77,-124.108C77,-115.154 77,-105.323 77,-97.5765"/>
<polygon fill="midnightblue" stroke="midnightblue" points="73.5001,-124.396 77,-134.396 80.5001,-124.396 73.5001,-124.396"/>
</g>
<!-- Node19 -->
<g id="node3" class="node"><title>Node19</title>
<polygon fill="white" stroke="#bfbfbf" points="22,-0.5 22,-30.5 132,-30.5 132,-0.5 22,-0.5"/>
<text text-anchor="start" x="30" y="-18.5" font-family="Helvetica,sans-Serif" font-size="10.00">src/planner/mp_cloud</text>
<text text-anchor="middle" x="77" y="-7.5" font-family="Helvetica,sans-Serif" font-size="10.00">_util.cpp</text>
</g>
<!-- Node18&#45;&gt;Node19 -->
<g id="edge2" class="edge"><title>Node18&#45;&gt;Node19</title>
<path fill="none" stroke="midnightblue" d="M77,-57.1081C77,-48.1539 77,-38.3227 77,-30.5765"/>
<polygon fill="midnightblue" stroke="midnightblue" points="73.5001,-57.3959 77,-67.396 80.5001,-57.396 73.5001,-57.3959"/>
</g>
</g>
</svg>
