<?xml version="1.0" encoding="UTF-8" standalone="no"?>
<!DOCTYPE svg PUBLIC "-//W3C//DTD SVG 1.1//EN"
 "http://www.w3.org/Graphics/SVG/1.1/DTD/svg11.dtd">
<!-- Generated by graphviz version 2.38.0 (20140413.2041)
 -->
<!-- Title: include/motion_primitive_library/planner/env_map.h Pages: 1 -->
<svg width="379pt" height="173pt"
 viewBox="0.00 0.00 379.00 173.00" xmlns="http://www.w3.org/2000/svg" xmlns:xlink="http://www.w3.org/1999/xlink">
<g id="graph0" class="graph" transform="scale(1 1) rotate(0) translate(4 169)">
<title>include/motion_primitive_library/planner/env_map.h</title>
<polygon fill="white" stroke="none" points="-4,4 -4,-169 375,-169 375,4 -4,4"/>
<!-- Node15 -->
<g id="node1" class="node"><title>Node15</title>
<polygon fill="#bfbfbf" stroke="black" points="118.5,-134.5 118.5,-164.5 252.5,-164.5 252.5,-134.5 118.5,-134.5"/>
<text text-anchor="start" x="126.5" y="-152.5" font-family="Helvetica,sans-Serif" font-size="10.00">include/motion_primitive</text>
<text text-anchor="middle" x="185.5" y="-141.5" font-family="Helvetica,sans-Serif" font-size="10.00">_library/planner/env_map.h</text>
</g>
<!-- Node16 -->
<g id="node2" class="node"><title>Node16</title>
<g id="a_node2"><a xlink:href="mp__map__util_8h.html" target="_top" xlink:title="motion planning map util ">
<polygon fill="white" stroke="black" points="111,-67.5 111,-97.5 260,-97.5 260,-67.5 111,-67.5"/>
<text text-anchor="start" x="119" y="-85.5" font-family="Helvetica,sans-Serif" font-size="10.00">include/motion_primitive</text>
<text text-anchor="middle" x="185.5" y="-74.5" font-family="Helvetica,sans-Serif" font-size="10.00">_library/planner/mp_map_util.h</text>
</a>
</g>
</g>
<!-- Node15&#45;&gt;Node16 -->
<g id="edge1" class="edge"><title>Node15&#45;&gt;Node16</title>
<path fill="none" stroke="midnightblue" d="M185.5,-124.108C185.5,-115.154 185.5,-105.323 185.5,-97.5765"/>
<polygon fill="midnightblue" stroke="midnightblue" points="182,-124.396 185.5,-134.396 189,-124.396 182,-124.396"/>
</g>
<!-- Node17 -->
<g id="node3" class="node"><title>Node17</title>
<polygon fill="white" stroke="#bfbfbf" points="0,-0.5 0,-30.5 105,-30.5 105,-0.5 0,-0.5"/>
<text text-anchor="start" x="8" y="-18.5" font-family="Helvetica,sans-Serif" font-size="10.00">src/planner/mp_map</text>
<text text-anchor="middle" x="52.5" y="-7.5" font-family="Helvetica,sans-Serif" font-size="10.00">_util.cpp</text>
</g>
<!-- Node16&#45;&gt;Node17 -->
<g id="edge2" class="edge"><title>Node16&#45;&gt;Node17</title>
<path fill="none" stroke="midnightblue" d="M147.63,-62.9921C126.549,-52.6892 100.723,-40.0677 81.3027,-30.5765"/>
<polygon fill="midnightblue" stroke="midnightblue" points="146.12,-66.1496 156.641,-67.396 149.193,-59.8605 146.12,-66.1496"/>
</g>
<!-- Node18 -->
<g id="node4" class="node"><title>Node18</title>
<polygon fill="white" stroke="#bfbfbf" points="123.5,-6 123.5,-25 247.5,-25 247.5,-6 123.5,-6"/>
<text text-anchor="middle" x="185.5" y="-13" font-family="Helvetica,sans-Serif" font-size="10.00">test/test_planner_2d.cpp</text>
</g>
<!-- Node16&#45;&gt;Node18 -->
<g id="edge3" class="edge"><title>Node16&#45;&gt;Node18</title>
<path fill="none" stroke="midnightblue" d="M185.5,-57.2495C185.5,-46.017 185.5,-33.3767 185.5,-25.1945"/>
<polygon fill="midnightblue" stroke="midnightblue" points="182,-57.3959 185.5,-67.396 189,-57.396 182,-57.3959"/>
</g>
<!-- Node19 -->
<g id="node5" class="node"><title>Node19</title>
<polygon fill="white" stroke="#bfbfbf" points="266,-0.5 266,-30.5 371,-30.5 371,-0.5 266,-0.5"/>
<text text-anchor="start" x="274" y="-18.5" font-family="Helvetica,sans-Serif" font-size="10.00">test/test_planner_2d</text>
<text text-anchor="middle" x="318.5" y="-7.5" font-family="Helvetica,sans-Serif" font-size="10.00">_prior_traj.cpp</text>
</g>
<!-- Node16&#45;&gt;Node19 -->
<g id="edge4" class="edge"><title>Node16&#45;&gt;Node19</title>
<path fill="none" stroke="midnightblue" d="M223.37,-62.9921C244.451,-52.6892 270.277,-40.0677 289.697,-30.5765"/>
<polygon fill="midnightblue" stroke="midnightblue" points="221.807,-59.8605 214.359,-67.396 224.88,-66.1496 221.807,-59.8605"/>
</g>
</g>
</svg>
