<?xml version="1.0" encoding="UTF-8" standalone="no"?>
<!DOCTYPE svg PUBLIC "-//W3C//DTD SVG 1.1//EN"
 "http://www.w3.org/Graphics/SVG/1.1/DTD/svg11.dtd">
<!-- Generated by graphviz version 2.38.0 (20140413.2041)
 -->
<!-- Title: include/motion_primitive_library/planner/graph_search.h Pages: 1 -->
<svg width="718pt" height="497pt"
 viewBox="0.00 0.00 718.00 497.00" xmlns="http://www.w3.org/2000/svg" xmlns:xlink="http://www.w3.org/1999/xlink">
<g id="graph0" class="graph" transform="scale(1 1) rotate(0) translate(4 493)">
<title>include/motion_primitive_library/planner/graph_search.h</title>
<polygon fill="white" stroke="none" points="-4,4 -4,-493 714,-493 714,4 -4,4"/>
<!-- Node0 -->
<g id="node1" class="node"><title>Node0</title>
<polygon fill="#bfbfbf" stroke="black" points="216,-447.5 216,-488.5 338,-488.5 338,-447.5 216,-447.5"/>
<text text-anchor="start" x="224" y="-476.5" font-family="Helvetica,sans-Serif" font-size="10.00">include/motion_primitive</text>
<text text-anchor="start" x="224" y="-465.5" font-family="Helvetica,sans-Serif" font-size="10.00">_library/planner/graph</text>
<text text-anchor="middle" x="277" y="-454.5" font-family="Helvetica,sans-Serif" font-size="10.00">_search.h</text>
</g>
<!-- Node1 -->
<g id="node2" class="node"><title>Node1</title>
<g id="a_node2"><a xlink:href="state__space_8h.html" target="_top" xlink:title="state space class for graph search ">
<polygon fill="white" stroke="black" points="374.5,-380.5 374.5,-410.5 493.5,-410.5 493.5,-380.5 374.5,-380.5"/>
<text text-anchor="start" x="382.5" y="-398.5" font-family="Helvetica,sans-Serif" font-size="10.00">motion_primitive_library</text>
<text text-anchor="middle" x="434" y="-387.5" font-family="Helvetica,sans-Serif" font-size="10.00">/planner/state_space.h</text>
</a>
</g>
</g>
<!-- Node0&#45;&gt;Node1 -->
<g id="edge1" class="edge"><title>Node0&#45;&gt;Node1</title>
<path fill="none" stroke="midnightblue" d="M320.733,-447.362C343.439,-437.166 371.008,-424.786 393.262,-414.793"/>
<polygon fill="midnightblue" stroke="midnightblue" points="394.755,-417.959 402.444,-410.67 391.888,-411.574 394.755,-417.959"/>
</g>
<!-- Node16 -->
<g id="node17" class="node"><title>Node16</title>
<g id="a_node17"><a xlink:href="trajectory_8h.html" target="_top" xlink:title="Trajectory class. ">
<polygon fill="white" stroke="black" points="49.5,-246.5 49.5,-276.5 168.5,-276.5 168.5,-246.5 49.5,-246.5"/>
<text text-anchor="start" x="57.5" y="-264.5" font-family="Helvetica,sans-Serif" font-size="10.00">motion_primitive_library</text>
<text text-anchor="middle" x="109" y="-253.5" font-family="Helvetica,sans-Serif" font-size="10.00">/primitive/trajectory.h</text>
</a>
</g>
</g>
<!-- Node0&#45;&gt;Node16 -->
<g id="edge24" class="edge"><title>Node0&#45;&gt;Node16</title>
<path fill="none" stroke="midnightblue" d="M255.263,-447.422C230.157,-424.185 188.411,-383.583 158,-344 143.79,-325.504 130.341,-302.603 121.141,-285.79"/>
<polygon fill="midnightblue" stroke="midnightblue" points="124.059,-283.826 116.241,-276.674 117.893,-287.14 124.059,-283.826"/>
</g>
<!-- Node2 -->
<g id="node3" class="node"><title>Node2</title>
<polygon fill="white" stroke="#bfbfbf" points="438.5,-319 438.5,-338 575.5,-338 575.5,-319 438.5,-319"/>
<text text-anchor="middle" x="507" y="-326" font-family="Helvetica,sans-Serif" font-size="10.00">boost/heap/d_ary_heap.hpp</text>
</g>
<!-- Node1&#45;&gt;Node2 -->
<g id="edge2" class="edge"><title>Node1&#45;&gt;Node2</title>
<path fill="none" stroke="midnightblue" d="M449.84,-380.396C461.56,-369.96 477.518,-355.751 489.595,-344.998"/>
<polygon fill="midnightblue" stroke="midnightblue" points="492.094,-347.459 497.235,-338.195 487.439,-342.231 492.094,-347.459"/>
</g>
<!-- Node3 -->
<g id="node4" class="node"><title>Node3</title>
<polygon fill="white" stroke="#bfbfbf" points="335,-123.5 335,-142.5 387,-142.5 387,-123.5 335,-123.5"/>
<text text-anchor="middle" x="361" y="-130.5" font-family="Helvetica,sans-Serif" font-size="10.00">memory</text>
</g>
<!-- Node1&#45;&gt;Node3 -->
<g id="edge3" class="edge"><title>Node1&#45;&gt;Node3</title>
<path fill="none" stroke="midnightblue" d="M493.613,-390.849C526.281,-385.437 564.245,-372.826 585,-344 593.05,-332.819 590.972,-325.416 585,-313 544.156,-228.078 441.235,-170.872 390.377,-146.827"/>
<polygon fill="midnightblue" stroke="midnightblue" points="391.768,-143.615 381.223,-142.593 388.829,-149.968 391.768,-143.615"/>
</g>
<!-- Node4 -->
<g id="node5" class="node"><title>Node4</title>
<polygon fill="white" stroke="#bfbfbf" points="670,-319 670,-338 710,-338 710,-319 670,-319"/>
<text text-anchor="middle" x="690" y="-326" font-family="Helvetica,sans-Serif" font-size="10.00">limits</text>
</g>
<!-- Node1&#45;&gt;Node4 -->
<g id="edge4" class="edge"><title>Node1&#45;&gt;Node4</title>
<path fill="none" stroke="midnightblue" d="M493.676,-383.945C538.821,-375.236 602.042,-361.486 656,-344 657.923,-343.377 659.887,-342.687 661.854,-341.958"/>
<polygon fill="midnightblue" stroke="midnightblue" points="663.539,-345.054 671.524,-338.091 660.939,-338.554 663.539,-345.054"/>
</g>
<!-- Node5 -->
<g id="node6" class="node"><title>Node5</title>
<polygon fill="white" stroke="#bfbfbf" points="432,-0.5 432,-19.5 476,-19.5 476,-0.5 432,-0.5"/>
<text text-anchor="middle" x="454" y="-7.5" font-family="Helvetica,sans-Serif" font-size="10.00">vector</text>
</g>
<!-- Node1&#45;&gt;Node5 -->
<g id="edge5" class="edge"><title>Node1&#45;&gt;Node5</title>
<path fill="none" stroke="midnightblue" d="M493.641,-388.259C528.268,-381.969 570.862,-369.342 601,-344 632.034,-317.904 642,-303.047 642,-262.5 642,-262.5 642,-262.5 642,-132 642,-58.8584 540.138,-27.8333 486.372,-16.5518"/>
<polygon fill="midnightblue" stroke="midnightblue" points="486.795,-13.0674 476.304,-14.5521 485.431,-19.9333 486.795,-13.0674"/>
</g>
<!-- Node6 -->
<g id="node7" class="node"><title>Node6</title>
<polygon fill="white" stroke="#bfbfbf" points="200.5,-319 200.5,-338 283.5,-338 283.5,-319 200.5,-319"/>
<text text-anchor="middle" x="242" y="-326" font-family="Helvetica,sans-Serif" font-size="10.00">unordered_map</text>
</g>
<!-- Node1&#45;&gt;Node6 -->
<g id="edge6" class="edge"><title>Node1&#45;&gt;Node6</title>
<path fill="none" stroke="midnightblue" d="M392.339,-380.396C357.756,-368.688 309.145,-352.231 276.659,-341.234"/>
<polygon fill="midnightblue" stroke="midnightblue" points="277.723,-337.899 267.128,-338.007 275.478,-344.529 277.723,-337.899"/>
</g>
<!-- Node7 -->
<g id="node8" class="node"><title>Node7</title>
<g id="a_node8"><a xlink:href="primitive_8h.html" target="_top" xlink:title="Primitive classes. ">
<polygon fill="white" stroke="black" points="174.5,-179.5 174.5,-209.5 293.5,-209.5 293.5,-179.5 174.5,-179.5"/>
<text text-anchor="start" x="182.5" y="-197.5" font-family="Helvetica,sans-Serif" font-size="10.00">motion_primitive_library</text>
<text text-anchor="middle" x="234" y="-186.5" font-family="Helvetica,sans-Serif" font-size="10.00">/primitive/primitive.h</text>
</a>
</g>
</g>
<!-- Node1&#45;&gt;Node7 -->
<g id="edge7" class="edge"><title>Node1&#45;&gt;Node7</title>
<path fill="none" stroke="midnightblue" d="M374.255,-390.527C309.908,-384.857 213.672,-371.868 191,-344 160.809,-306.889 193.505,-249.467 216.152,-218.007"/>
<polygon fill="midnightblue" stroke="midnightblue" points="219.052,-219.973 222.213,-209.861 213.436,-215.795 219.052,-219.973"/>
</g>
<!-- Node15 -->
<g id="node16" class="node"><title>Node15</title>
<g id="a_node16"><a xlink:href="env__base_8h.html" target="_top" xlink:title="environment base class ">
<polygon fill="white" stroke="black" points="301.5,-313.5 301.5,-343.5 420.5,-343.5 420.5,-313.5 301.5,-313.5"/>
<text text-anchor="start" x="309.5" y="-331.5" font-family="Helvetica,sans-Serif" font-size="10.00">motion_primitive_library</text>
<text text-anchor="middle" x="361" y="-320.5" font-family="Helvetica,sans-Serif" font-size="10.00">/planner/env_base.h</text>
</a>
</g>
</g>
<!-- Node1&#45;&gt;Node15 -->
<g id="edge18" class="edge"><title>Node1&#45;&gt;Node15</title>
<path fill="none" stroke="midnightblue" d="M418.16,-380.396C408.307,-371.623 395.459,-360.183 384.44,-350.371"/>
<polygon fill="midnightblue" stroke="midnightblue" points="386.605,-347.613 376.809,-343.577 381.95,-352.84 386.605,-347.613"/>
</g>
<!-- Node7&#45;&gt;Node3 -->
<g id="edge8" class="edge"><title>Node7&#45;&gt;Node3</title>
<path fill="none" stroke="midnightblue" d="M264.097,-179.399C285.12,-169.55 312.972,-156.501 333.419,-146.922"/>
<polygon fill="midnightblue" stroke="midnightblue" points="334.95,-150.07 342.52,-142.658 331.98,-143.731 334.95,-150.07"/>
</g>
<!-- Node8 -->
<g id="node9" class="node"><title>Node8</title>
<g id="a_node9"><a xlink:href="data__type_8h.html" target="_top" xlink:title="Defines all data types used in this lib. ">
<polygon fill="white" stroke="black" points="244.5,-56.5 244.5,-86.5 363.5,-86.5 363.5,-56.5 244.5,-56.5"/>
<text text-anchor="start" x="252.5" y="-74.5" font-family="Helvetica,sans-Serif" font-size="10.00">motion_primitive_library</text>
<text text-anchor="middle" x="304" y="-63.5" font-family="Helvetica,sans-Serif" font-size="10.00">/common/data_type.h</text>
</a>
</g>
</g>
<!-- Node7&#45;&gt;Node8 -->
<g id="edge9" class="edge"><title>Node7&#45;&gt;Node8</title>
<path fill="none" stroke="midnightblue" d="M242.305,-179.145C254.251,-158.495 276.412,-120.188 290.667,-95.5465"/>
<polygon fill="midnightblue" stroke="midnightblue" points="293.728,-97.2453 295.706,-86.8368 287.669,-93.74 293.728,-97.2453"/>
</g>
<!-- Node12 -->
<g id="node13" class="node"><title>Node12</title>
<g id="a_node13"><a xlink:href="math_8h.html" target="_top" xlink:title="Polynomial roots solver. ">
<polygon fill="white" stroke="black" points="163.5,-123.5 163.5,-142.5 210.5,-142.5 210.5,-123.5 163.5,-123.5"/>
<text text-anchor="middle" x="187" y="-130.5" font-family="Helvetica,sans-Serif" font-size="10.00">math.h</text>
</a>
</g>
</g>
<!-- Node7&#45;&gt;Node12 -->
<g id="edge14" class="edge"><title>Node7&#45;&gt;Node12</title>
<path fill="none" stroke="midnightblue" d="M222.862,-179.399C216.032,-170.753 207.255,-159.642 200.094,-150.576"/>
<polygon fill="midnightblue" stroke="midnightblue" points="202.784,-148.335 193.839,-142.658 197.291,-152.674 202.784,-148.335"/>
</g>
<!-- Node8&#45;&gt;Node5 -->
<g id="edge11" class="edge"><title>Node8&#45;&gt;Node5</title>
<path fill="none" stroke="midnightblue" d="M339.548,-56.3993C364.828,-46.3717 398.467,-33.028 422.727,-23.405"/>
<polygon fill="midnightblue" stroke="midnightblue" points="424.169,-26.5984 432.174,-19.6578 421.588,-20.0916 424.169,-26.5984"/>
</g>
<!-- Node9 -->
<g id="node10" class="node"><title>Node9</title>
<polygon fill="white" stroke="#bfbfbf" points="262,-0.5 262,-19.5 308,-19.5 308,-0.5 262,-0.5"/>
<text text-anchor="middle" x="285" y="-7.5" font-family="Helvetica,sans-Serif" font-size="10.00">stdio.h</text>
</g>
<!-- Node8&#45;&gt;Node9 -->
<g id="edge10" class="edge"><title>Node8&#45;&gt;Node9</title>
<path fill="none" stroke="midnightblue" d="M299.497,-56.3993C296.907,-48.2881 293.624,-38.0071 290.838,-29.2807"/>
<polygon fill="midnightblue" stroke="midnightblue" points="294.141,-28.1192 287.765,-19.6578 287.473,-30.2486 294.141,-28.1192"/>
</g>
<!-- Node10 -->
<g id="node11" class="node"><title>Node10</title>
<polygon fill="white" stroke="#bfbfbf" points="326.5,-0.5 326.5,-19.5 413.5,-19.5 413.5,-0.5 326.5,-0.5"/>
<text text-anchor="middle" x="370" y="-7.5" font-family="Helvetica,sans-Serif" font-size="10.00">Eigen/Geometry</text>
</g>
<!-- Node8&#45;&gt;Node10 -->
<g id="edge12" class="edge"><title>Node8&#45;&gt;Node10</title>
<path fill="none" stroke="midnightblue" d="M319.641,-56.3993C329.627,-47.3967 342.578,-35.7214 352.845,-26.4652"/>
<polygon fill="midnightblue" stroke="midnightblue" points="355.313,-28.9533 360.396,-19.6578 350.625,-23.7541 355.313,-28.9533"/>
</g>
<!-- Node11 -->
<g id="node12" class="node"><title>Node11</title>
<polygon fill="white" stroke="#bfbfbf" points="156,-0.5 156,-19.5 244,-19.5 244,-0.5 156,-0.5"/>
<text text-anchor="middle" x="200" y="-7.5" font-family="Helvetica,sans-Serif" font-size="10.00">Eigen/StdVector</text>
</g>
<!-- Node8&#45;&gt;Node11 -->
<g id="edge13" class="edge"><title>Node8&#45;&gt;Node11</title>
<path fill="none" stroke="midnightblue" d="M279.353,-56.3993C262.683,-46.8619 240.769,-34.3248 224.195,-24.8422"/>
<polygon fill="midnightblue" stroke="midnightblue" points="225.551,-21.5858 215.133,-19.6578 222.075,-27.6617 225.551,-21.5858"/>
</g>
<!-- Node12&#45;&gt;Node8 -->
<g id="edge15" class="edge"><title>Node12&#45;&gt;Node8</title>
<path fill="none" stroke="midnightblue" d="M203.763,-123.475C220.276,-115.078 246.045,-101.973 267.32,-91.1534"/>
<polygon fill="midnightblue" stroke="midnightblue" points="269.098,-94.1758 276.425,-86.523 265.925,-87.9362 269.098,-94.1758"/>
</g>
<!-- Node13 -->
<g id="node14" class="node"><title>Node13</title>
<polygon fill="white" stroke="#bfbfbf" points="72,-62 72,-81 226,-81 226,-62 72,-62"/>
<text text-anchor="middle" x="149" y="-69" font-family="Helvetica,sans-Serif" font-size="10.00">unsupported/Eigen/Polynomials</text>
</g>
<!-- Node12&#45;&gt;Node13 -->
<g id="edge16" class="edge"><title>Node12&#45;&gt;Node13</title>
<path fill="none" stroke="midnightblue" d="M181.556,-123.475C175.912,-114.638 166.939,-100.589 159.841,-89.475"/>
<polygon fill="midnightblue" stroke="midnightblue" points="162.767,-87.5531 154.434,-81.0091 156.867,-91.3208 162.767,-87.5531"/>
</g>
<!-- Node14 -->
<g id="node15" class="node"><title>Node14</title>
<polygon fill="white" stroke="#bfbfbf" points="0,-62 0,-81 54,-81 54,-62 0,-62"/>
<text text-anchor="middle" x="27" y="-69" font-family="Helvetica,sans-Serif" font-size="10.00">iostream</text>
</g>
<!-- Node12&#45;&gt;Node14 -->
<g id="edge17" class="edge"><title>Node12&#45;&gt;Node14</title>
<path fill="none" stroke="midnightblue" d="M163.137,-123.618C138.102,-114.759 97.6497,-100.261 63,-87 61.1593,-86.2956 59.2693,-85.5628 57.3653,-84.8174"/>
<polygon fill="midnightblue" stroke="midnightblue" points="58.4773,-81.4932 47.8914,-81.0575 55.895,-87.9995 58.4773,-81.4932"/>
</g>
<!-- Node15&#45;&gt;Node3 -->
<g id="edge19" class="edge"><title>Node15&#45;&gt;Node3</title>
<path fill="none" stroke="midnightblue" d="M361,-313.271C361,-278.944 361,-191.566 361,-152.9"/>
<polygon fill="midnightblue" stroke="midnightblue" points="364.5,-152.577 361,-142.577 357.5,-152.577 364.5,-152.577"/>
</g>
<!-- Node15&#45;&gt;Node5 -->
<g id="edge20" class="edge"><title>Node15&#45;&gt;Node5</title>
<path fill="none" stroke="midnightblue" d="M377.999,-313.18C402.544,-290.798 445,-244.937 445,-195.5 445,-195.5 445,-195.5 445,-132 445,-95.7946 449.057,-53.6629 451.723,-29.8825"/>
<polygon fill="midnightblue" stroke="midnightblue" points="455.218,-30.1263 452.896,-19.789 448.265,-29.318 455.218,-30.1263"/>
</g>
<!-- Node15&#45;&gt;Node7 -->
<g id="edge21" class="edge"><title>Node15&#45;&gt;Node7</title>
<path fill="none" stroke="midnightblue" d="M347.409,-313.374C325.161,-290.25 280.833,-244.177 254.671,-216.985"/>
<polygon fill="midnightblue" stroke="midnightblue" points="256.949,-214.304 247.494,-209.525 251.905,-219.158 256.949,-214.304"/>
</g>
<!-- Node15&#45;&gt;Node16 -->
<g id="edge22" class="edge"><title>Node15&#45;&gt;Node16</title>
<path fill="none" stroke="midnightblue" d="M306.63,-313.476C267.599,-303.408 214.836,-289.799 173.645,-279.174"/>
<polygon fill="midnightblue" stroke="midnightblue" points="174.264,-275.72 163.707,-276.611 172.516,-282.498 174.264,-275.72"/>
</g>
<!-- Node16&#45;&gt;Node7 -->
<g id="edge23" class="edge"><title>Node16&#45;&gt;Node7</title>
<path fill="none" stroke="midnightblue" d="M136.123,-246.396C154.223,-236.984 178.226,-224.503 197.931,-214.256"/>
<polygon fill="midnightblue" stroke="midnightblue" points="199.672,-217.295 206.93,-209.577 196.443,-211.085 199.672,-217.295"/>
</g>
</g>
</svg>
