<?xml version="1.0" encoding="UTF-8" standalone="no"?>
<!DOCTYPE svg PUBLIC "-//W3C//DTD SVG 1.1//EN"
 "http://www.w3.org/Graphics/SVG/1.1/DTD/svg11.dtd">
<!-- Generated by graphviz version 2.38.0 (20140413.2041)
 -->
<!-- Title: include/motion_primitive_library/collision_checking/map_util.h Pages: 1 -->
<svg width="328pt" height="173pt"
 viewBox="0.00 0.00 328.00 173.00" xmlns="http://www.w3.org/2000/svg" xmlns:xlink="http://www.w3.org/1999/xlink">
<g id="graph0" class="graph" transform="scale(1 1) rotate(0) translate(4 169)">
<title>include/motion_primitive_library/collision_checking/map_util.h</title>
<polygon fill="white" stroke="none" points="-4,4 -4,-169 324,-169 324,4 -4,4"/>
<!-- Node0 -->
<g id="node1" class="node"><title>Node0</title>
<polygon fill="#bfbfbf" stroke="black" points="62.5,-123.5 62.5,-164.5 193.5,-164.5 193.5,-123.5 62.5,-123.5"/>
<text text-anchor="start" x="70.5" y="-152.5" font-family="Helvetica,sans-Serif" font-size="10.00">include/motion_primitive</text>
<text text-anchor="start" x="70.5" y="-141.5" font-family="Helvetica,sans-Serif" font-size="10.00">_library/collision_checking</text>
<text text-anchor="middle" x="128" y="-130.5" font-family="Helvetica,sans-Serif" font-size="10.00">/map_util.h</text>
</g>
<!-- Node1 -->
<g id="node2" class="node"><title>Node1</title>
<g id="a_node2"><a xlink:href="data__type_8h.html" target="_top" xlink:title="Defines all data types used in this lib. ">
<polygon fill="white" stroke="black" points="68.5,-56.5 68.5,-86.5 187.5,-86.5 187.5,-56.5 68.5,-56.5"/>
<text text-anchor="start" x="76.5" y="-74.5" font-family="Helvetica,sans-Serif" font-size="10.00">motion_primitive_library</text>
<text text-anchor="middle" x="128" y="-63.5" font-family="Helvetica,sans-Serif" font-size="10.00">/common/data_type.h</text>
</a>
</g>
</g>
<!-- Node0&#45;&gt;Node1 -->
<g id="edge1" class="edge"><title>Node0&#45;&gt;Node1</title>
<path fill="none" stroke="midnightblue" d="M128,-123.362C128,-115.226 128,-105.7 128,-97.105"/>
<polygon fill="midnightblue" stroke="midnightblue" points="131.5,-96.8916 128,-86.8916 124.5,-96.8916 131.5,-96.8916"/>
</g>
<!-- Node2 -->
<g id="node3" class="node"><title>Node2</title>
<polygon fill="white" stroke="#bfbfbf" points="0,-0.5 0,-19.5 46,-19.5 46,-0.5 0,-0.5"/>
<text text-anchor="middle" x="23" y="-7.5" font-family="Helvetica,sans-Serif" font-size="10.00">stdio.h</text>
</g>
<!-- Node1&#45;&gt;Node2 -->
<g id="edge2" class="edge"><title>Node1&#45;&gt;Node2</title>
<path fill="none" stroke="midnightblue" d="M103.116,-56.3993C86.2858,-46.8619 64.1614,-34.3248 47.4274,-24.8422"/>
<polygon fill="midnightblue" stroke="midnightblue" points="48.7042,-21.5429 38.2784,-19.6578 45.2531,-27.633 48.7042,-21.5429"/>
</g>
<!-- Node3 -->
<g id="node4" class="node"><title>Node3</title>
<polygon fill="white" stroke="#bfbfbf" points="64,-0.5 64,-19.5 108,-19.5 108,-0.5 64,-0.5"/>
<text text-anchor="middle" x="86" y="-7.5" font-family="Helvetica,sans-Serif" font-size="10.00">vector</text>
</g>
<!-- Node1&#45;&gt;Node3 -->
<g id="edge3" class="edge"><title>Node1&#45;&gt;Node3</title>
<path fill="none" stroke="midnightblue" d="M118.047,-56.3993C112.006,-47.8424 104.262,-36.8708 97.8991,-27.857"/>
<polygon fill="midnightblue" stroke="midnightblue" points="100.738,-25.8091 92.1114,-19.6578 95.0189,-29.8459 100.738,-25.8091"/>
</g>
<!-- Node4 -->
<g id="node5" class="node"><title>Node4</title>
<polygon fill="white" stroke="#bfbfbf" points="126.5,-0.5 126.5,-19.5 213.5,-19.5 213.5,-0.5 126.5,-0.5"/>
<text text-anchor="middle" x="170" y="-7.5" font-family="Helvetica,sans-Serif" font-size="10.00">Eigen/Geometry</text>
</g>
<!-- Node1&#45;&gt;Node4 -->
<g id="edge4" class="edge"><title>Node1&#45;&gt;Node4</title>
<path fill="none" stroke="midnightblue" d="M137.953,-56.3993C143.994,-47.8424 151.738,-36.8708 158.101,-27.857"/>
<polygon fill="midnightblue" stroke="midnightblue" points="160.981,-29.8459 163.889,-19.6578 155.262,-25.8091 160.981,-29.8459"/>
</g>
<!-- Node5 -->
<g id="node6" class="node"><title>Node5</title>
<polygon fill="white" stroke="#bfbfbf" points="232,-0.5 232,-19.5 320,-19.5 320,-0.5 232,-0.5"/>
<text text-anchor="middle" x="276" y="-7.5" font-family="Helvetica,sans-Serif" font-size="10.00">Eigen/StdVector</text>
</g>
<!-- Node1&#45;&gt;Node5 -->
<g id="edge5" class="edge"><title>Node1&#45;&gt;Node5</title>
<path fill="none" stroke="midnightblue" d="M163.074,-56.3993C188.017,-46.3717 221.208,-33.028 245.144,-23.405"/>
<polygon fill="midnightblue" stroke="midnightblue" points="246.492,-26.6354 254.465,-19.6578 243.881,-20.1406 246.492,-26.6354"/>
</g>
</g>
</svg>
