<?xml version="1.0" encoding="UTF-8" standalone="no"?>
<!DOCTYPE svg PUBLIC "-//W3C//DTD SVG 1.1//EN"
 "http://www.w3.org/Graphics/SVG/1.1/DTD/svg11.dtd">
<!-- Generated by graphviz version 2.38.0 (20140413.2041)
 -->
<!-- Title: include/motion_primitive_library/primitive/math.h Pages: 1 -->
<!--zoomable 608 -->
<svg id="main" version="1.1" xmlns="http://www.w3.org/2000/svg" xmlns:xlink="http://www.w3.org/1999/xlink" xml:space="preserve" onload="init(evt)">
<style type="text/css"><![CDATA[
.edge:hover path { stroke: red; }
.edge:hover polygon { stroke: red; fill: red; }
]]></style>
<script type="text/javascript"><![CDATA[
var edges = document.getElementsByTagName('g');
if (edges && edges.length) {
  for (var i=0;i<edges.length;i++) {
    if (edges[i].id.substr(0,4)=='edge') {
      edges[i].setAttribute('class','edge');
    }
  }
}
]]></script>
        <defs>
                <circle id="rim" cx="0" cy="0" r="7"/>
                <circle id="rim2" cx="0" cy="0" r="3.5"/>
                <g id="zoomPlus">
                        <use xlink:href="#rim" fill="#404040">
                                <set attributeName="fill" to="#808080" begin="zoomplus.mouseover" end="zoomplus.mouseout"/>
                        </use>
                        <path d="M-4,0h8M0,-4v8" fill="none" stroke="white" stroke-width="1.5" pointer-events="none"/>
                </g>
                <g id="zoomMin">
                        <use xlink:href="#rim" fill="#404040">
                                <set attributeName="fill" to="#808080" begin="zoomminus.mouseover" end="zoomminus.mouseout"/>
                        </use>
                        <path d="M-4,0h8" fill="none" stroke="white" stroke-width="1.5" pointer-events="none"/>
                </g>
                <g id="dirArrow">
                        <path fill="none" stroke="white" stroke-width="1.5" d="M0,-3.0v7 M-2.5,-0.5L0,-3.0L2.5,-0.5"/>
                </g>
               <g id="resetDef">
                       <use xlink:href="#rim2" fill="#404040">
                               <set attributeName="fill" to="#808080" begin="reset.mouseover" end="reset.mouseout"/>
                       </use>
               </g>
        </defs>

<script type="text/javascript">
var viewWidth = 1072;
var viewHeight = 608;
var sectionId = 'dynsection-1';
</script>
<script xlink:href="svgpan.js"/>
<svg id="graph" class="graph">
<g id="viewport">
<title>include/motion_primitive_library/primitive/math.h</title>
<polygon fill="white" stroke="none" points="-4,4 -4,-604 1067.5,-604 1067.5,4 -4,4"/>
<!-- Node8 -->
<g id="node1" class="node"><title>Node8</title>
<polygon fill="#bfbfbf" stroke="black" points="701.5,-569.5 701.5,-599.5 823.5,-599.5 823.5,-569.5 701.5,-569.5"/>
<text text-anchor="start" x="709.5" y="-587.5" font-family="Helvetica,sans-Serif" font-size="10.00">include/motion_primitive</text>
<text text-anchor="middle" x="762.5" y="-576.5" font-family="Helvetica,sans-Serif" font-size="10.00">_library/primitive/math.h</text>
</g>
<!-- Node9 -->
<g id="node2" class="node"><title>Node9</title>
<g id="a_node2"><a xlink:href="primitive_8h.html" target="_top" xlink:title="Primitive classes. ">
<polygon fill="white" stroke="black" points="551.5,-502.5 551.5,-532.5 687.5,-532.5 687.5,-502.5 551.5,-502.5"/>
<text text-anchor="start" x="559.5" y="-520.5" font-family="Helvetica,sans-Serif" font-size="10.00">include/motion_primitive</text>
<text text-anchor="middle" x="619.5" y="-509.5" font-family="Helvetica,sans-Serif" font-size="10.00">_library/primitive/primitive.h</text>
</a>
</g>
</g>
<!-- Node8&#45;&gt;Node9 -->
<g id="edge1" class="edge"><title>Node8&#45;&gt;Node9</title>
<path fill="none" stroke="midnightblue" d="M722.087,-565.131C699.365,-554.802 671.443,-542.11 650.468,-532.577"/>
<polygon fill="midnightblue" stroke="midnightblue" points="720.919,-568.444 731.471,-569.396 723.816,-562.072 720.919,-568.444"/>
</g>
<!-- Node35 -->
<g id="node28" class="node"><title>Node35</title>
<polygon fill="white" stroke="#bfbfbf" points="706,-508 706,-527 819,-527 819,-508 706,-508"/>
<text text-anchor="middle" x="762.5" y="-515" font-family="Helvetica,sans-Serif" font-size="10.00">src/primitive/math.cpp</text>
</g>
<!-- Node8&#45;&gt;Node35 -->
<g id="edge40" class="edge"><title>Node8&#45;&gt;Node35</title>
<path fill="none" stroke="midnightblue" d="M762.5,-559.25C762.5,-548.017 762.5,-535.377 762.5,-527.195"/>
<polygon fill="midnightblue" stroke="midnightblue" points="759,-559.396 762.5,-569.396 766,-559.396 759,-559.396"/>
</g>
<!-- Node36 -->
<g id="node29" class="node"><title>Node36</title>
<polygon fill="white" stroke="#bfbfbf" points="837,-508 837,-527 950,-527 950,-508 837,-508"/>
<text text-anchor="middle" x="893.5" y="-515" font-family="Helvetica,sans-Serif" font-size="10.00">src/primitive/rpoly.cpp</text>
</g>
<!-- Node8&#45;&gt;Node36 -->
<g id="edge41" class="edge"><title>Node8&#45;&gt;Node36</title>
<path fill="none" stroke="midnightblue" d="M800.182,-564.803C825.296,-552.342 857.111,-536.556 876.355,-527.007"/>
<polygon fill="midnightblue" stroke="midnightblue" points="798.327,-561.816 790.925,-569.396 801.439,-568.086 798.327,-561.816"/>
</g>
<!-- Node10 -->
<g id="node3" class="node"><title>Node10</title>
<g id="a_node3"><a xlink:href="decomp__util_8h.html" target="_top" xlink:title="decomp util util class ">
<polygon fill="white" stroke="black" points="4,-279.5 4,-320.5 135,-320.5 135,-279.5 4,-279.5"/>
<text text-anchor="start" x="12" y="-308.5" font-family="Helvetica,sans-Serif" font-size="10.00">include/motion_primitive</text>
<text text-anchor="start" x="12" y="-297.5" font-family="Helvetica,sans-Serif" font-size="10.00">_library/collision_checking</text>
<text text-anchor="middle" x="69.5" y="-286.5" font-family="Helvetica,sans-Serif" font-size="10.00">/decomp_util.h</text>
</a>
</g>
</g>
<!-- Node9&#45;&gt;Node10 -->
<g id="edge2" class="edge"><title>Node9&#45;&gt;Node10</title>
<path fill="none" stroke="midnightblue" d="M541.115,-517.062C424.075,-516.43 210.822,-509.151 149.5,-466 99.7723,-431.008 79.7152,-356.382 72.7358,-320.742"/>
<polygon fill="midnightblue" stroke="midnightblue" points="541.429,-520.563 551.442,-517.102 541.456,-513.563 541.429,-520.563"/>
</g>
<!-- Node11 -->
<g id="node4" class="node"><title>Node11</title>
<g id="a_node4"><a xlink:href="env__cloud_8h.html" target="_top" xlink:title="include/motion_primitive\l_library/planner/env_cloud.h">
<polygon fill="white" stroke="black" points="131.5,-207 131.5,-237 269.5,-237 269.5,-207 131.5,-207"/>
<text text-anchor="start" x="139.5" y="-225" font-family="Helvetica,sans-Serif" font-size="10.00">include/motion_primitive</text>
<text text-anchor="middle" x="200.5" y="-214" font-family="Helvetica,sans-Serif" font-size="10.00">_library/planner/env_cloud.h</text>
</a>
</g>
</g>
<!-- Node9&#45;&gt;Node11 -->
<g id="edge24" class="edge"><title>Node9&#45;&gt;Node11</title>
<path fill="none" stroke="midnightblue" d="M541.29,-507.818C426.425,-493.159 221.455,-459.064 182.5,-399 149.074,-347.461 178.862,-269.03 193.494,-237.182"/>
<polygon fill="midnightblue" stroke="midnightblue" points="541.079,-511.319 551.437,-509.093 541.951,-504.374 541.079,-511.319"/>
</g>
<!-- Node15 -->
<g id="node8" class="node"><title>Node15</title>
<g id="a_node8"><a xlink:href="env__base_8h.html" target="_top" xlink:title="environment base class ">
<polygon fill="white" stroke="black" points="551.5,-363 551.5,-393 687.5,-393 687.5,-363 551.5,-363"/>
<text text-anchor="start" x="559.5" y="-381" font-family="Helvetica,sans-Serif" font-size="10.00">include/motion_primitive</text>
<text text-anchor="middle" x="619.5" y="-370" font-family="Helvetica,sans-Serif" font-size="10.00">_library/planner/env_base.h</text>
</a>
</g>
</g>
<!-- Node9&#45;&gt;Node15 -->
<g id="edge7" class="edge"><title>Node9&#45;&gt;Node15</title>
<path fill="none" stroke="midnightblue" d="M619.5,-492.287C619.5,-463.607 619.5,-416.775 619.5,-393.326"/>
<polygon fill="midnightblue" stroke="midnightblue" points="616,-492.303 619.5,-502.303 623,-492.303 616,-492.303"/>
</g>
<!-- Node16 -->
<g id="node9" class="node"><title>Node16</title>
<g id="a_node9"><a xlink:href="env__map_8h.html" target="_top" xlink:title="include/motion_primitive\l_library/planner/env_map.h">
<polygon fill="white" stroke="black" points="698.5,-285 698.5,-315 832.5,-315 832.5,-285 698.5,-285"/>
<text text-anchor="start" x="706.5" y="-303" font-family="Helvetica,sans-Serif" font-size="10.00">include/motion_primitive</text>
<text text-anchor="middle" x="765.5" y="-292" font-family="Helvetica,sans-Serif" font-size="10.00">_library/planner/env_map.h</text>
</a>
</g>
</g>
<!-- Node9&#45;&gt;Node16 -->
<g id="edge25" class="edge"><title>Node9&#45;&gt;Node16</title>
<path fill="none" stroke="midnightblue" d="M651.957,-496.779C663.9,-488.381 676.851,-477.793 686.5,-466 726.321,-417.33 751.802,-345.242 761.304,-315.076"/>
<polygon fill="midnightblue" stroke="midnightblue" points="649.827,-493.994 643.501,-502.493 653.746,-499.794 649.827,-493.994"/>
</g>
<!-- Node23 -->
<g id="node16" class="node"><title>Node23</title>
<g id="a_node16"><a xlink:href="state__space_8h.html" target="_top" xlink:title="state space class for graph search ">
<polygon fill="white" stroke="black" points="558.5,-279.5 558.5,-320.5 680.5,-320.5 680.5,-279.5 558.5,-279.5"/>
<text text-anchor="start" x="566.5" y="-308.5" font-family="Helvetica,sans-Serif" font-size="10.00">include/motion_primitive</text>
<text text-anchor="start" x="566.5" y="-297.5" font-family="Helvetica,sans-Serif" font-size="10.00">_library/planner/state</text>
<text text-anchor="middle" x="619.5" y="-286.5" font-family="Helvetica,sans-Serif" font-size="10.00">_space.h</text>
</a>
</g>
</g>
<!-- Node9&#45;&gt;Node23 -->
<g id="edge26" class="edge"><title>Node9&#45;&gt;Node23</title>
<path fill="none" stroke="midnightblue" d="M639.609,-494.564C658.486,-472.359 685.428,-436.094 696.5,-399 701.839,-381.113 704.971,-373.634 696.5,-357 688.699,-341.681 674.529,-329.567 660.451,-320.581"/>
<polygon fill="midnightblue" stroke="midnightblue" points="636.749,-492.519 632.819,-502.358 642.027,-497.117 636.749,-492.519"/>
</g>
<!-- Node27 -->
<g id="node20" class="node"><title>Node27</title>
<g id="a_node20"><a xlink:href="poly__traj_8h.html" target="_top" xlink:title="Trajectory object for PolySolver. ">
<polygon fill="white" stroke="black" points="781.5,-435.5 781.5,-465.5 917.5,-465.5 917.5,-435.5 781.5,-435.5"/>
<text text-anchor="start" x="789.5" y="-453.5" font-family="Helvetica,sans-Serif" font-size="10.00">include/motion_primitive</text>
<text text-anchor="middle" x="849.5" y="-442.5" font-family="Helvetica,sans-Serif" font-size="10.00">_library/primitive/poly_traj.h</text>
</a>
</g>
</g>
<!-- Node9&#45;&gt;Node27 -->
<g id="edge27" class="edge"><title>Node9&#45;&gt;Node27</title>
<path fill="none" stroke="midnightblue" d="M678.893,-499.715C716.322,-489.137 764.1,-475.635 799.569,-465.611"/>
<polygon fill="midnightblue" stroke="midnightblue" points="677.795,-496.388 669.123,-502.476 679.698,-503.124 677.795,-496.388"/>
</g>
<!-- Node31 -->
<g id="node24" class="node"><title>Node31</title>
<g id="a_node24"><a xlink:href="primitive__util_8h.html" target="_top" xlink:title="Simple primitive utils. ">
<polygon fill="white" stroke="black" points="191.5,-363 191.5,-393 345.5,-393 345.5,-363 191.5,-363"/>
<text text-anchor="start" x="199.5" y="-381" font-family="Helvetica,sans-Serif" font-size="10.00">include/motion_primitive</text>
<text text-anchor="middle" x="268.5" y="-370" font-family="Helvetica,sans-Serif" font-size="10.00">_library/primitive/primitive_util.h</text>
</a>
</g>
</g>
<!-- Node9&#45;&gt;Node31 -->
<g id="edge31" class="edge"><title>Node9&#45;&gt;Node31</title>
<path fill="none" stroke="midnightblue" d="M541.566,-507.618C495.555,-500.406 437.013,-487.738 388.5,-466 346.701,-447.27 305.013,-412.525 283.491,-393.092"/>
<polygon fill="midnightblue" stroke="midnightblue" points="541.071,-511.083 551.482,-509.118 542.119,-504.161 541.071,-511.083"/>
</g>
<!-- Node32 -->
<g id="node25" class="node"><title>Node32</title>
<g id="a_node25"><a xlink:href="trajectory_8h.html" target="_top" xlink:title="Trajectory class. ">
<polygon fill="white" stroke="black" points="397.5,-435.5 397.5,-465.5 537.5,-465.5 537.5,-435.5 397.5,-435.5"/>
<text text-anchor="start" x="405.5" y="-453.5" font-family="Helvetica,sans-Serif" font-size="10.00">include/motion_primitive</text>
<text text-anchor="middle" x="467.5" y="-442.5" font-family="Helvetica,sans-Serif" font-size="10.00">_library/primitive/trajectory.h</text>
</a>
</g>
</g>
<!-- Node9&#45;&gt;Node32 -->
<g id="edge34" class="edge"><title>Node9&#45;&gt;Node32</title>
<path fill="none" stroke="midnightblue" d="M577.189,-498.407C552.923,-488.029 522.911,-475.195 500.417,-465.577"/>
<polygon fill="midnightblue" stroke="midnightblue" points="575.947,-501.682 586.518,-502.396 578.7,-495.246 575.947,-501.682"/>
</g>
<!-- Node34 -->
<g id="node27" class="node"><title>Node34</title>
<polygon fill="white" stroke="#bfbfbf" points="935.5,-441 935.5,-460 1063.5,-460 1063.5,-441 935.5,-441"/>
<text text-anchor="middle" x="999.5" y="-448" font-family="Helvetica,sans-Serif" font-size="10.00">src/primitive/primitive.cpp</text>
</g>
<!-- Node9&#45;&gt;Node34 -->
<g id="edge39" class="edge"><title>Node9&#45;&gt;Node34</title>
<path fill="none" stroke="midnightblue" d="M698.036,-501.769C800.172,-484.386 827.809,-483.518 926.5,-466 936.678,-464.193 947.623,-462.1 957.863,-460.075"/>
<polygon fill="midnightblue" stroke="midnightblue" points="697.179,-498.364 687.914,-503.503 698.362,-505.264 697.179,-498.364"/>
</g>
<!-- Node10&#45;&gt;Node11 -->
<g id="edge3" class="edge"><title>Node10&#45;&gt;Node11</title>
<path fill="none" stroke="midnightblue" d="M112.05,-274.315C133.209,-262.039 158.027,-247.641 175.98,-237.225"/>
<polygon fill="midnightblue" stroke="midnightblue" points="110.129,-271.382 103.236,-279.428 113.642,-277.437 110.129,-271.382"/>
</g>
<!-- Node14 -->
<g id="node7" class="node"><title>Node14</title>
<polygon fill="white" stroke="#bfbfbf" points="0,-207 0,-237 113,-237 113,-207 0,-207"/>
<text text-anchor="start" x="8" y="-225" font-family="Helvetica,sans-Serif" font-size="10.00">src/collision_checking</text>
<text text-anchor="middle" x="56.5" y="-214" font-family="Helvetica,sans-Serif" font-size="10.00">/decomp_util.cpp</text>
</g>
<!-- Node10&#45;&gt;Node14 -->
<g id="edge6" class="edge"><title>Node10&#45;&gt;Node14</title>
<path fill="none" stroke="midnightblue" d="M64.4168,-269.283C62.5302,-258.254 60.4762,-246.246 58.9333,-237.225"/>
<polygon fill="midnightblue" stroke="midnightblue" points="61.0162,-270.161 66.1522,-279.428 67.916,-268.981 61.0162,-270.161"/>
</g>
<!-- Node12 -->
<g id="node5" class="node"><title>Node12</title>
<g id="a_node5"><a xlink:href="mp__cloud__util_8h.html" target="_top" xlink:title="motion planning cloud util ">
<polygon fill="white" stroke="black" points="224.5,-67.5 224.5,-97.5 378.5,-97.5 378.5,-67.5 224.5,-67.5"/>
<text text-anchor="start" x="232.5" y="-85.5" font-family="Helvetica,sans-Serif" font-size="10.00">include/motion_primitive</text>
<text text-anchor="middle" x="301.5" y="-74.5" font-family="Helvetica,sans-Serif" font-size="10.00">_library/planner/mp_cloud_util.h</text>
</a>
</g>
</g>
<!-- Node11&#45;&gt;Node12 -->
<g id="edge4" class="edge"><title>Node11&#45;&gt;Node12</title>
<path fill="none" stroke="midnightblue" d="M216.913,-198.655C237.828,-170.182 273.373,-121.792 290.977,-97.8258"/>
<polygon fill="midnightblue" stroke="midnightblue" points="214.028,-196.672 210.928,-206.803 219.669,-200.816 214.028,-196.672"/>
</g>
<!-- Node13 -->
<g id="node6" class="node"><title>Node13</title>
<polygon fill="white" stroke="#bfbfbf" points="246.5,-0.5 246.5,-30.5 356.5,-30.5 356.5,-0.5 246.5,-0.5"/>
<text text-anchor="start" x="254.5" y="-18.5" font-family="Helvetica,sans-Serif" font-size="10.00">src/planner/mp_cloud</text>
<text text-anchor="middle" x="301.5" y="-7.5" font-family="Helvetica,sans-Serif" font-size="10.00">_util.cpp</text>
</g>
<!-- Node12&#45;&gt;Node13 -->
<g id="edge5" class="edge"><title>Node12&#45;&gt;Node13</title>
<path fill="none" stroke="midnightblue" d="M301.5,-57.1081C301.5,-48.1539 301.5,-38.3227 301.5,-30.5765"/>
<polygon fill="midnightblue" stroke="midnightblue" points="298,-57.3959 301.5,-67.396 305,-57.396 298,-57.3959"/>
</g>
<!-- Node15&#45;&gt;Node11 -->
<g id="edge8" class="edge"><title>Node15&#45;&gt;Node11</title>
<path fill="none" stroke="midnightblue" d="M555.804,-360.399C551.303,-359.243 546.834,-358.101 542.5,-357 478.143,-340.653 459.818,-343.924 397.5,-321 332.61,-297.13 260.999,-258.024 224.61,-237.159"/>
<polygon fill="midnightblue" stroke="midnightblue" points="555.111,-363.834 565.668,-362.939 556.857,-357.056 555.111,-363.834"/>
</g>
<!-- Node15&#45;&gt;Node16 -->
<g id="edge9" class="edge"><title>Node15&#45;&gt;Node16</title>
<path fill="none" stroke="midnightblue" d="M655.666,-358.174C681.326,-344.817 715.214,-327.176 738.526,-315.041"/>
<polygon fill="midnightblue" stroke="midnightblue" points="653.873,-355.161 646.619,-362.883 657.106,-361.37 653.873,-355.161"/>
</g>
<!-- Node21 -->
<g id="node14" class="node"><title>Node21</title>
<g id="a_node14"><a xlink:href="mp__base__util_8h.html" target="_top" xlink:title="base class for motion planning ">
<polygon fill="white" stroke="black" points="448.5,-134.5 448.5,-164.5 600.5,-164.5 600.5,-134.5 448.5,-134.5"/>
<text text-anchor="start" x="456.5" y="-152.5" font-family="Helvetica,sans-Serif" font-size="10.00">include/motion_primitive</text>
<text text-anchor="middle" x="524.5" y="-141.5" font-family="Helvetica,sans-Serif" font-size="10.00">_library/planner/mp_base_util.h</text>
</a>
</g>
</g>
<!-- Node15&#45;&gt;Node21 -->
<g id="edge14" class="edge"><title>Node15&#45;&gt;Node21</title>
<path fill="none" stroke="midnightblue" d="M584.852,-357.182C571.701,-347.888 557.885,-335.618 549.5,-321 520.024,-269.618 521.189,-195.724 523.229,-164.878"/>
<polygon fill="midnightblue" stroke="midnightblue" points="583.077,-360.205 593.335,-362.854 586.968,-354.386 583.077,-360.205"/>
</g>
<!-- Node15&#45;&gt;Node23 -->
<g id="edge18" class="edge"><title>Node15&#45;&gt;Node23</title>
<path fill="none" stroke="midnightblue" d="M619.5,-352.656C619.5,-342.326 619.5,-330.443 619.5,-320.68"/>
<polygon fill="midnightblue" stroke="midnightblue" points="616,-352.705 619.5,-362.705 623,-352.705 616,-352.705"/>
</g>
<!-- Node25 -->
<g id="node18" class="node"><title>Node25</title>
<polygon fill="white" stroke="#bfbfbf" points="280,-140 280,-159 425,-159 425,-140 280,-140"/>
<text text-anchor="middle" x="352.5" y="-147" font-family="Helvetica,sans-Serif" font-size="10.00">src/planner/graph_search.cpp</text>
</g>
<!-- Node15&#45;&gt;Node25 -->
<g id="edge23" class="edge"><title>Node15&#45;&gt;Node25</title>
<path fill="none" stroke="midnightblue" d="M556.875,-359.85C499.636,-340.844 417.162,-304.457 371.5,-243 352.336,-217.207 351.38,-176.688 351.984,-159.111"/>
<polygon fill="midnightblue" stroke="midnightblue" points="555.951,-363.23 566.543,-362.976 558.105,-356.569 555.951,-363.23"/>
</g>
<!-- Node17 -->
<g id="node10" class="node"><title>Node17</title>
<g id="a_node10"><a xlink:href="mp__map__util_8h.html" target="_top" xlink:title="motion planning map util ">
<polygon fill="white" stroke="black" points="633,-67.5 633,-97.5 782,-97.5 782,-67.5 633,-67.5"/>
<text text-anchor="start" x="641" y="-85.5" font-family="Helvetica,sans-Serif" font-size="10.00">include/motion_primitive</text>
<text text-anchor="middle" x="707.5" y="-74.5" font-family="Helvetica,sans-Serif" font-size="10.00">_library/planner/mp_map_util.h</text>
</a>
</g>
</g>
<!-- Node16&#45;&gt;Node17 -->
<g id="edge10" class="edge"><title>Node16&#45;&gt;Node17</title>
<path fill="none" stroke="midnightblue" d="M759.059,-275.067C746.934,-230.017 721.064,-133.898 711.32,-97.6916"/>
<polygon fill="midnightblue" stroke="midnightblue" points="755.716,-276.114 761.694,-284.86 762.475,-274.294 755.716,-276.114"/>
</g>
<!-- Node18 -->
<g id="node11" class="node"><title>Node18</title>
<polygon fill="white" stroke="#bfbfbf" points="522,-0.5 522,-30.5 627,-30.5 627,-0.5 522,-0.5"/>
<text text-anchor="start" x="530" y="-18.5" font-family="Helvetica,sans-Serif" font-size="10.00">src/planner/mp_map</text>
<text text-anchor="middle" x="574.5" y="-7.5" font-family="Helvetica,sans-Serif" font-size="10.00">_util.cpp</text>
</g>
<!-- Node17&#45;&gt;Node18 -->
<g id="edge11" class="edge"><title>Node17&#45;&gt;Node18</title>
<path fill="none" stroke="midnightblue" d="M669.63,-62.9921C648.549,-52.6892 622.723,-40.0677 603.303,-30.5765"/>
<polygon fill="midnightblue" stroke="midnightblue" points="668.12,-66.1496 678.641,-67.396 671.193,-59.8605 668.12,-66.1496"/>
</g>
<!-- Node19 -->
<g id="node12" class="node"><title>Node19</title>
<polygon fill="white" stroke="#bfbfbf" points="645.5,-6 645.5,-25 769.5,-25 769.5,-6 645.5,-6"/>
<text text-anchor="middle" x="707.5" y="-13" font-family="Helvetica,sans-Serif" font-size="10.00">test/test_planner_2d.cpp</text>
</g>
<!-- Node17&#45;&gt;Node19 -->
<g id="edge12" class="edge"><title>Node17&#45;&gt;Node19</title>
<path fill="none" stroke="midnightblue" d="M707.5,-57.2495C707.5,-46.017 707.5,-33.3767 707.5,-25.1945"/>
<polygon fill="midnightblue" stroke="midnightblue" points="704,-57.3959 707.5,-67.396 711,-57.396 704,-57.3959"/>
</g>
<!-- Node20 -->
<g id="node13" class="node"><title>Node20</title>
<polygon fill="white" stroke="#bfbfbf" points="788,-0.5 788,-30.5 893,-30.5 893,-0.5 788,-0.5"/>
<text text-anchor="start" x="796" y="-18.5" font-family="Helvetica,sans-Serif" font-size="10.00">test/test_planner_2d</text>
<text text-anchor="middle" x="840.5" y="-7.5" font-family="Helvetica,sans-Serif" font-size="10.00">_prior_traj.cpp</text>
</g>
<!-- Node17&#45;&gt;Node20 -->
<g id="edge13" class="edge"><title>Node17&#45;&gt;Node20</title>
<path fill="none" stroke="midnightblue" d="M745.37,-62.9921C766.451,-52.6892 792.277,-40.0677 811.697,-30.5765"/>
<polygon fill="midnightblue" stroke="midnightblue" points="743.807,-59.8605 736.359,-67.396 746.88,-66.1496 743.807,-59.8605"/>
</g>
<!-- Node21&#45;&gt;Node12 -->
<g id="edge15" class="edge"><title>Node21&#45;&gt;Node12</title>
<path fill="none" stroke="midnightblue" d="M466.451,-131.58C430.231,-121.022 384.155,-107.592 349.911,-97.6109"/>
<polygon fill="midnightblue" stroke="midnightblue" points="465.807,-135.038 476.387,-134.476 467.766,-128.317 465.807,-135.038"/>
</g>
<!-- Node21&#45;&gt;Node17 -->
<g id="edge16" class="edge"><title>Node21&#45;&gt;Node17</title>
<path fill="none" stroke="midnightblue" d="M573.895,-130.955C603.374,-120.485 640.309,-107.366 667.869,-97.5765"/>
<polygon fill="midnightblue" stroke="midnightblue" points="572.46,-127.751 564.208,-134.396 574.803,-134.347 572.46,-127.751"/>
</g>
<!-- Node22 -->
<g id="node15" class="node"><title>Node22</title>
<polygon fill="white" stroke="#bfbfbf" points="471,-67.5 471,-97.5 578,-97.5 578,-67.5 471,-67.5"/>
<text text-anchor="start" x="479" y="-85.5" font-family="Helvetica,sans-Serif" font-size="10.00">src/planner/mp_base</text>
<text text-anchor="middle" x="524.5" y="-74.5" font-family="Helvetica,sans-Serif" font-size="10.00">_util.cpp</text>
</g>
<!-- Node21&#45;&gt;Node22 -->
<g id="edge17" class="edge"><title>Node21&#45;&gt;Node22</title>
<path fill="none" stroke="midnightblue" d="M524.5,-124.108C524.5,-115.154 524.5,-105.323 524.5,-97.5765"/>
<polygon fill="midnightblue" stroke="midnightblue" points="521,-124.396 524.5,-134.396 528,-124.396 521,-124.396"/>
</g>
<!-- Node24 -->
<g id="node17" class="node"><title>Node24</title>
<g id="a_node17"><a xlink:href="graph__search_8h.html" target="_top" xlink:title="backend of graph search, implemetation of A* and Lifelong Planning A* ">
<polygon fill="white" stroke="black" points="380.5,-201.5 380.5,-242.5 502.5,-242.5 502.5,-201.5 380.5,-201.5"/>
<text text-anchor="start" x="388.5" y="-230.5" font-family="Helvetica,sans-Serif" font-size="10.00">include/motion_primitive</text>
<text text-anchor="start" x="388.5" y="-219.5" font-family="Helvetica,sans-Serif" font-size="10.00">_library/planner/graph</text>
<text text-anchor="middle" x="441.5" y="-208.5" font-family="Helvetica,sans-Serif" font-size="10.00">_search.h</text>
</a>
</g>
</g>
<!-- Node23&#45;&gt;Node24 -->
<g id="edge19" class="edge"><title>Node23&#45;&gt;Node24</title>
<path fill="none" stroke="midnightblue" d="M564.388,-275.469C539.616,-264.892 510.726,-252.557 487.184,-242.506"/>
<polygon fill="midnightblue" stroke="midnightblue" points="563.089,-278.72 573.661,-279.428 565.838,-272.282 563.089,-278.72"/>
</g>
<!-- Node26 -->
<g id="node19" class="node"><title>Node26</title>
<polygon fill="white" stroke="#bfbfbf" points="558.5,-212.5 558.5,-231.5 698.5,-231.5 698.5,-212.5 558.5,-212.5"/>
<text text-anchor="middle" x="628.5" y="-219.5" font-family="Helvetica,sans-Serif" font-size="10.00">src/planner/state_space.cpp</text>
</g>
<!-- Node23&#45;&gt;Node26 -->
<g id="edge22" class="edge"><title>Node23&#45;&gt;Node26</title>
<path fill="none" stroke="midnightblue" d="M622.999,-269.451C624.609,-255.855 626.399,-240.739 627.487,-231.552"/>
<polygon fill="midnightblue" stroke="midnightblue" points="619.518,-269.086 621.818,-279.428 626.47,-269.909 619.518,-269.086"/>
</g>
<!-- Node24&#45;&gt;Node21 -->
<g id="edge20" class="edge"><title>Node24&#45;&gt;Node21</title>
<path fill="none" stroke="midnightblue" d="M472.294,-194.844C484.325,-184.625 497.644,-173.312 507.818,-164.67"/>
<polygon fill="midnightblue" stroke="midnightblue" points="469.976,-192.22 464.62,-201.362 474.508,-197.556 469.976,-192.22"/>
</g>
<!-- Node24&#45;&gt;Node25 -->
<g id="edge21" class="edge"><title>Node24&#45;&gt;Node25</title>
<path fill="none" stroke="midnightblue" d="M408.632,-194.964C392.725,-182.364 374.686,-168.074 363.449,-159.173"/>
<polygon fill="midnightblue" stroke="midnightblue" points="406.697,-197.896 416.709,-201.362 411.043,-192.409 406.697,-197.896"/>
</g>
<!-- Node28 -->
<g id="node21" class="node"><title>Node28</title>
<g id="a_node21"><a xlink:href="poly__solver_8h.html" target="_top" xlink:title="Trajectory generator back&#45;end. ">
<polygon fill="white" stroke="black" points="788.5,-357.5 788.5,-398.5 910.5,-398.5 910.5,-357.5 788.5,-357.5"/>
<text text-anchor="start" x="796.5" y="-386.5" font-family="Helvetica,sans-Serif" font-size="10.00">include/motion_primitive</text>
<text text-anchor="start" x="796.5" y="-375.5" font-family="Helvetica,sans-Serif" font-size="10.00">_library/primitive/poly</text>
<text text-anchor="middle" x="849.5" y="-364.5" font-family="Helvetica,sans-Serif" font-size="10.00">_solver.h</text>
</a>
</g>
</g>
<!-- Node27&#45;&gt;Node28 -->
<g id="edge28" class="edge"><title>Node27&#45;&gt;Node28</title>
<path fill="none" stroke="midnightblue" d="M849.5,-424.982C849.5,-416.347 849.5,-406.762 849.5,-398.588"/>
<polygon fill="midnightblue" stroke="midnightblue" points="846,-425.233 849.5,-435.233 853,-425.233 846,-425.233"/>
</g>
<!-- Node30 -->
<g id="node23" class="node"><title>Node30</title>
<polygon fill="white" stroke="#bfbfbf" points="929,-363 929,-393 1020,-393 1020,-363 929,-363"/>
<text text-anchor="start" x="937" y="-381" font-family="Helvetica,sans-Serif" font-size="10.00">src/primitive/poly</text>
<text text-anchor="middle" x="974.5" y="-370" font-family="Helvetica,sans-Serif" font-size="10.00">_traj.cpp</text>
</g>
<!-- Node27&#45;&gt;Node30 -->
<g id="edge30" class="edge"><title>Node27&#45;&gt;Node30</title>
<path fill="none" stroke="midnightblue" d="M883.366,-430.399C904.247,-418.622 930.568,-403.778 949.548,-393.073"/>
<polygon fill="midnightblue" stroke="midnightblue" points="881.486,-427.442 874.495,-435.403 884.925,-433.539 881.486,-427.442"/>
</g>
<!-- Node29 -->
<g id="node22" class="node"><title>Node29</title>
<polygon fill="white" stroke="#bfbfbf" points="851,-285 851,-315 942,-315 942,-285 851,-285"/>
<text text-anchor="start" x="859" y="-303" font-family="Helvetica,sans-Serif" font-size="10.00">src/primitive/poly</text>
<text text-anchor="middle" x="896.5" y="-292" font-family="Helvetica,sans-Serif" font-size="10.00">_solver.cpp</text>
</g>
<!-- Node28&#45;&gt;Node29 -->
<g id="edge29" class="edge"><title>Node28&#45;&gt;Node29</title>
<path fill="none" stroke="midnightblue" d="M867.037,-348.642C874.083,-337.249 881.894,-324.618 887.703,-315.225"/>
<polygon fill="midnightblue" stroke="midnightblue" points="863.887,-347.082 861.604,-357.428 869.84,-350.764 863.887,-347.082"/>
</g>
<!-- Node31&#45;&gt;Node10 -->
<g id="edge32" class="edge"><title>Node31&#45;&gt;Node10</title>
<path fill="none" stroke="midnightblue" d="M222.044,-359.258C191.734,-347.682 152.145,-332.563 120.894,-320.628"/>
<polygon fill="midnightblue" stroke="midnightblue" points="220.945,-362.585 231.536,-362.883 223.443,-356.046 220.945,-362.585"/>
</g>
<!-- Node31&#45;&gt;Node25 -->
<g id="edge33" class="edge"><title>Node31&#45;&gt;Node25</title>
<path fill="none" stroke="midnightblue" d="M277.294,-353.288C295.624,-303.863 337.208,-191.734 349.204,-159.388"/>
<polygon fill="midnightblue" stroke="midnightblue" points="273.95,-352.238 273.755,-362.831 280.513,-354.672 273.95,-352.238"/>
</g>
<!-- Node32&#45;&gt;Node15 -->
<g id="edge35" class="edge"><title>Node32&#45;&gt;Node15</title>
<path fill="none" stroke="midnightblue" d="M506.984,-431.187C532.633,-419.29 565.561,-404.018 589.159,-393.073"/>
<polygon fill="midnightblue" stroke="midnightblue" points="505.493,-428.02 497.894,-435.403 508.439,-434.37 505.493,-428.02"/>
</g>
<!-- Node32&#45;&gt;Node24 -->
<g id="edge36" class="edge"><title>Node32&#45;&gt;Node24</title>
<path fill="none" stroke="midnightblue" d="M423.797,-430.111C411.424,-422.327 399.444,-412.046 392.5,-399 364.485,-346.362 404.043,-276.118 427.035,-242.515"/>
<polygon fill="midnightblue" stroke="midnightblue" points="422.404,-433.35 432.81,-435.342 425.918,-427.295 422.404,-433.35"/>
</g>
<!-- Node32&#45;&gt;Node31 -->
<g id="edge37" class="edge"><title>Node32&#45;&gt;Node31</title>
<path fill="none" stroke="midnightblue" d="M418.003,-431.965C384.124,-419.962 339.794,-404.258 308.223,-393.073"/>
<polygon fill="midnightblue" stroke="midnightblue" points="417.113,-435.362 427.708,-435.403 419.45,-428.764 417.113,-435.362"/>
</g>
<!-- Node33 -->
<g id="node26" class="node"><title>Node33</title>
<polygon fill="white" stroke="#bfbfbf" points="401.5,-368.5 401.5,-387.5 533.5,-387.5 533.5,-368.5 401.5,-368.5"/>
<text text-anchor="middle" x="467.5" y="-375.5" font-family="Helvetica,sans-Serif" font-size="10.00">src/primitive/trajectory.cpp</text>
</g>
<!-- Node32&#45;&gt;Node33 -->
<g id="edge38" class="edge"><title>Node32&#45;&gt;Node33</title>
<path fill="none" stroke="midnightblue" d="M467.5,-425.091C467.5,-412.214 467.5,-397.197 467.5,-387.893"/>
<polygon fill="midnightblue" stroke="midnightblue" points="464,-425.233 467.5,-435.233 471,-425.233 464,-425.233"/>
</g>
</g>
</svg>
        <g id="navigator" transform="translate(0 0)" fill="#404254">
                <rect fill="#f2f5e9" fill-opacity="0.5" stroke="#606060" stroke-width=".5" x="0" y="0" width="60" height="60"/>
                <use id="zoomplus" xlink:href="#zoomPlus" x="17" y="9" onmousedown="handleZoom(evt,'in')"/>
                <use id="zoomminus" xlink:href="#zoomMin" x="42" y="9" onmousedown="handleZoom(evt,'out')"/>
                <use id="reset" xlink:href="#resetDef" x="30" y="36" onmousedown="handleReset()"/>
                <g id="arrowUp" xlink:href="#dirArrow" transform="translate(30 24)" onmousedown="handlePan(0,-1)">
                  <use xlink:href="#rim" fill="#404040">
                        <set attributeName="fill" to="#808080" begin="arrowUp.mouseover" end="arrowUp.mouseout"/>
                  </use>
                  <path fill="none" stroke="white" stroke-width="1.5" d="M0,-3.0v7 M-2.5,-0.5L0,-3.0L2.5,-0.5"/>
                </g>
                <g id="arrowRight" xlink:href="#dirArrow" transform="rotate(90) translate(36 -43)" onmousedown="handlePan(1,0)">
                  <use xlink:href="#rim" fill="#404040">
                        <set attributeName="fill" to="#808080" begin="arrowRight.mouseover" end="arrowRight.mouseout"/>
                  </use>
                  <path fill="none" stroke="white" stroke-width="1.5" d="M0,-3.0v7 M-2.5,-0.5L0,-3.0L2.5,-0.5"/>
                </g>
                <g id="arrowDown" xlink:href="#dirArrow" transform="rotate(180) translate(-30 -48)" onmousedown="handlePan(0,1)">
                  <use xlink:href="#rim" fill="#404040">
                        <set attributeName="fill" to="#808080" begin="arrowDown.mouseover" end="arrowDown.mouseout"/>
                  </use>
                  <path fill="none" stroke="white" stroke-width="1.5" d="M0,-3.0v7 M-2.5,-0.5L0,-3.0L2.5,-0.5"/>
                </g>
                <g id="arrowLeft" xlink:href="#dirArrow" transform="rotate(270) translate(-36 17)" onmousedown="handlePan(-1,0)">
                  <use xlink:href="#rim" fill="#404040">
                        <set attributeName="fill" to="#808080" begin="arrowLeft.mouseover" end="arrowLeft.mouseout"/>
                  </use>
                  <path fill="none" stroke="white" stroke-width="1.5" d="M0,-3.0v7 M-2.5,-0.5L0,-3.0L2.5,-0.5"/>
                </g>
        </g>
        <svg viewBox="0 0 15 15" width="100%" height="30px" preserveAspectRatio="xMaxYMin meet">
         <g id="arrow_out" transform="scale(0.3 0.3)">
          <a xlink:href="math_8h__dep__incl_org.svg" target="_base">
           <rect id="button" ry="5" rx="5" y="6" x="6" height="38" width="38"
                fill="#f2f5e9" fill-opacity="0.5" stroke="#606060" stroke-width="1.0"/>
           <path id="arrow"
             d="M 11.500037,31.436501 C 11.940474,20.09759 22.043105,11.32322 32.158766,21.979434 L 37.068811,17.246167 C 37.068811,17.246167 37.088388,32 37.088388,32 L 22.160133,31.978069 C 22.160133,31.978069 26.997745,27.140456 26.997745,27.140456 C 18.528582,18.264221 13.291696,25.230495 11.500037,31.436501 z"
             style="fill:#404040;"/>
          </a>
         </g>
        </svg>
</svg>
