<?xml version="1.0" encoding="UTF-8" standalone="no"?>
<!DOCTYPE svg PUBLIC "-//W3C//DTD SVG 1.1//EN"
 "http://www.w3.org/Graphics/SVG/1.1/DTD/svg11.dtd">
<!-- Generated by graphviz version 2.38.0 (20140413.2041)
 -->
<!-- Title: include/motion_primitive_library/primitive/math.h Pages: 1 -->
<svg width="440pt" height="162pt"
 viewBox="0.00 0.00 440.00 162.00" xmlns="http://www.w3.org/2000/svg" xmlns:xlink="http://www.w3.org/1999/xlink">
<g id="graph0" class="graph" transform="scale(1 1) rotate(0) translate(4 158)">
<title>include/motion_primitive_library/primitive/math.h</title>
<polygon fill="white" stroke="none" points="-4,4 -4,-158 436,-158 436,4 -4,4"/>
<!-- Node0 -->
<g id="node1" class="node"><title>Node0</title>
<polygon fill="#bfbfbf" stroke="black" points="222,-123.5 222,-153.5 344,-153.5 344,-123.5 222,-123.5"/>
<text text-anchor="start" x="230" y="-141.5" font-family="Helvetica,sans-Serif" font-size="10.00">include/motion_primitive</text>
<text text-anchor="middle" x="283" y="-130.5" font-family="Helvetica,sans-Serif" font-size="10.00">_library/primitive/math.h</text>
</g>
<!-- Node1 -->
<g id="node2" class="node"><title>Node1</title>
<g id="a_node2"><a xlink:href="data__type_8h.html" target="_top" xlink:title="Defines all data types used in this lib. ">
<polygon fill="white" stroke="black" points="68.5,-56.5 68.5,-86.5 187.5,-86.5 187.5,-56.5 68.5,-56.5"/>
<text text-anchor="start" x="76.5" y="-74.5" font-family="Helvetica,sans-Serif" font-size="10.00">motion_primitive_library</text>
<text text-anchor="middle" x="128" y="-63.5" font-family="Helvetica,sans-Serif" font-size="10.00">/common/data_type.h</text>
</a>
</g>
</g>
<!-- Node0&#45;&gt;Node1 -->
<g id="edge1" class="edge"><title>Node0&#45;&gt;Node1</title>
<path fill="none" stroke="midnightblue" d="M249.367,-123.396C226.415,-113.771 195.81,-100.936 171.075,-90.5637"/>
<polygon fill="midnightblue" stroke="midnightblue" points="172.143,-87.2161 161.567,-86.5765 169.435,-93.6715 172.143,-87.2161"/>
</g>
<!-- Node6 -->
<g id="node7" class="node"><title>Node6</title>
<polygon fill="white" stroke="#bfbfbf" points="206,-62 206,-81 360,-81 360,-62 206,-62"/>
<text text-anchor="middle" x="283" y="-69" font-family="Helvetica,sans-Serif" font-size="10.00">unsupported/Eigen/Polynomials</text>
</g>
<!-- Node0&#45;&gt;Node6 -->
<g id="edge6" class="edge"><title>Node0&#45;&gt;Node6</title>
<path fill="none" stroke="midnightblue" d="M283,-123.396C283,-114.064 283,-101.714 283,-91.5173"/>
<polygon fill="midnightblue" stroke="midnightblue" points="286.5,-91.1945 283,-81.1945 279.5,-91.1946 286.5,-91.1945"/>
</g>
<!-- Node7 -->
<g id="node8" class="node"><title>Node7</title>
<polygon fill="white" stroke="#bfbfbf" points="378,-62 378,-81 432,-81 432,-62 378,-62"/>
<text text-anchor="middle" x="405" y="-69" font-family="Helvetica,sans-Serif" font-size="10.00">iostream</text>
</g>
<!-- Node0&#45;&gt;Node7 -->
<g id="edge7" class="edge"><title>Node0&#45;&gt;Node7</title>
<path fill="none" stroke="midnightblue" d="M309.472,-123.396C330.405,-112.243 359.426,-96.7812 379.974,-85.8336"/>
<polygon fill="midnightblue" stroke="midnightblue" points="381.853,-88.7981 389.033,-81.007 378.562,-82.6202 381.853,-88.7981"/>
</g>
<!-- Node2 -->
<g id="node3" class="node"><title>Node2</title>
<polygon fill="white" stroke="#bfbfbf" points="0,-0.5 0,-19.5 46,-19.5 46,-0.5 0,-0.5"/>
<text text-anchor="middle" x="23" y="-7.5" font-family="Helvetica,sans-Serif" font-size="10.00">stdio.h</text>
</g>
<!-- Node1&#45;&gt;Node2 -->
<g id="edge2" class="edge"><title>Node1&#45;&gt;Node2</title>
<path fill="none" stroke="midnightblue" d="M103.116,-56.3993C86.2858,-46.8619 64.1614,-34.3248 47.4274,-24.8422"/>
<polygon fill="midnightblue" stroke="midnightblue" points="48.7042,-21.5429 38.2784,-19.6578 45.2531,-27.633 48.7042,-21.5429"/>
</g>
<!-- Node3 -->
<g id="node4" class="node"><title>Node3</title>
<polygon fill="white" stroke="#bfbfbf" points="64,-0.5 64,-19.5 108,-19.5 108,-0.5 64,-0.5"/>
<text text-anchor="middle" x="86" y="-7.5" font-family="Helvetica,sans-Serif" font-size="10.00">vector</text>
</g>
<!-- Node1&#45;&gt;Node3 -->
<g id="edge3" class="edge"><title>Node1&#45;&gt;Node3</title>
<path fill="none" stroke="midnightblue" d="M118.047,-56.3993C112.006,-47.8424 104.262,-36.8708 97.8991,-27.857"/>
<polygon fill="midnightblue" stroke="midnightblue" points="100.738,-25.8091 92.1114,-19.6578 95.0189,-29.8459 100.738,-25.8091"/>
</g>
<!-- Node4 -->
<g id="node5" class="node"><title>Node4</title>
<polygon fill="white" stroke="#bfbfbf" points="126.5,-0.5 126.5,-19.5 213.5,-19.5 213.5,-0.5 126.5,-0.5"/>
<text text-anchor="middle" x="170" y="-7.5" font-family="Helvetica,sans-Serif" font-size="10.00">Eigen/Geometry</text>
</g>
<!-- Node1&#45;&gt;Node4 -->
<g id="edge4" class="edge"><title>Node1&#45;&gt;Node4</title>
<path fill="none" stroke="midnightblue" d="M137.953,-56.3993C143.994,-47.8424 151.738,-36.8708 158.101,-27.857"/>
<polygon fill="midnightblue" stroke="midnightblue" points="160.981,-29.8459 163.889,-19.6578 155.262,-25.8091 160.981,-29.8459"/>
</g>
<!-- Node5 -->
<g id="node6" class="node"><title>Node5</title>
<polygon fill="white" stroke="#bfbfbf" points="232,-0.5 232,-19.5 320,-19.5 320,-0.5 232,-0.5"/>
<text text-anchor="middle" x="276" y="-7.5" font-family="Helvetica,sans-Serif" font-size="10.00">Eigen/StdVector</text>
</g>
<!-- Node1&#45;&gt;Node5 -->
<g id="edge5" class="edge"><title>Node1&#45;&gt;Node5</title>
<path fill="none" stroke="midnightblue" d="M163.074,-56.3993C188.017,-46.3717 221.208,-33.028 245.144,-23.405"/>
<polygon fill="midnightblue" stroke="midnightblue" points="246.492,-26.6354 254.465,-19.6578 243.881,-20.1406 246.492,-26.6354"/>
</g>
</g>
</svg>
