<?xml version="1.0" encoding="UTF-8" standalone="no"?>
<!DOCTYPE svg PUBLIC "-//W3C//DTD SVG 1.1//EN"
 "http://www.w3.org/Graphics/SVG/1.1/DTD/svg11.dtd">
<!-- Generated by graphviz version 2.38.0 (20140413.2041)
 -->
<!-- Title: include/motion_primitive_library/planner/mp_map_util.h Pages: 1 -->
<svg width="379pt" height="106pt"
 viewBox="0.00 0.00 379.00 106.00" xmlns="http://www.w3.org/2000/svg" xmlns:xlink="http://www.w3.org/1999/xlink">
<g id="graph0" class="graph" transform="scale(1 1) rotate(0) translate(4 102)">
<title>include/motion_primitive_library/planner/mp_map_util.h</title>
<polygon fill="white" stroke="none" points="-4,4 -4,-102 375,-102 375,4 -4,4"/>
<!-- Node21 -->
<g id="node1" class="node"><title>Node21</title>
<polygon fill="#bfbfbf" stroke="black" points="111,-67.5 111,-97.5 260,-97.5 260,-67.5 111,-67.5"/>
<text text-anchor="start" x="119" y="-85.5" font-family="Helvetica,sans-Serif" font-size="10.00">include/motion_primitive</text>
<text text-anchor="middle" x="185.5" y="-74.5" font-family="Helvetica,sans-Serif" font-size="10.00">_library/planner/mp_map_util.h</text>
</g>
<!-- Node22 -->
<g id="node2" class="node"><title>Node22</title>
<polygon fill="white" stroke="#bfbfbf" points="0,-0.5 0,-30.5 105,-30.5 105,-0.5 0,-0.5"/>
<text text-anchor="start" x="8" y="-18.5" font-family="Helvetica,sans-Serif" font-size="10.00">src/planner/mp_map</text>
<text text-anchor="middle" x="52.5" y="-7.5" font-family="Helvetica,sans-Serif" font-size="10.00">_util.cpp</text>
</g>
<!-- Node21&#45;&gt;Node22 -->
<g id="edge1" class="edge"><title>Node21&#45;&gt;Node22</title>
<path fill="none" stroke="midnightblue" d="M147.63,-62.9921C126.549,-52.6892 100.723,-40.0677 81.3027,-30.5765"/>
<polygon fill="midnightblue" stroke="midnightblue" points="146.12,-66.1496 156.641,-67.396 149.193,-59.8605 146.12,-66.1496"/>
</g>
<!-- Node23 -->
<g id="node3" class="node"><title>Node23</title>
<polygon fill="white" stroke="#bfbfbf" points="123.5,-6 123.5,-25 247.5,-25 247.5,-6 123.5,-6"/>
<text text-anchor="middle" x="185.5" y="-13" font-family="Helvetica,sans-Serif" font-size="10.00">test/test_planner_2d.cpp</text>
</g>
<!-- Node21&#45;&gt;Node23 -->
<g id="edge2" class="edge"><title>Node21&#45;&gt;Node23</title>
<path fill="none" stroke="midnightblue" d="M185.5,-57.2495C185.5,-46.017 185.5,-33.3767 185.5,-25.1945"/>
<polygon fill="midnightblue" stroke="midnightblue" points="182,-57.3959 185.5,-67.396 189,-57.396 182,-57.3959"/>
</g>
<!-- Node24 -->
<g id="node4" class="node"><title>Node24</title>
<polygon fill="white" stroke="#bfbfbf" points="266,-0.5 266,-30.5 371,-30.5 371,-0.5 266,-0.5"/>
<text text-anchor="start" x="274" y="-18.5" font-family="Helvetica,sans-Serif" font-size="10.00">test/test_planner_2d</text>
<text text-anchor="middle" x="318.5" y="-7.5" font-family="Helvetica,sans-Serif" font-size="10.00">_prior_traj.cpp</text>
</g>
<!-- Node21&#45;&gt;Node24 -->
<g id="edge3" class="edge"><title>Node21&#45;&gt;Node24</title>
<path fill="none" stroke="midnightblue" d="M223.37,-62.9921C244.451,-52.6892 270.277,-40.0677 289.697,-30.5765"/>
<polygon fill="midnightblue" stroke="midnightblue" points="221.807,-59.8605 214.359,-67.396 224.88,-66.1496 221.807,-59.8605"/>
</g>
</g>
</svg>
