<?xml version="1.0" encoding="UTF-8" standalone="no"?>
<!DOCTYPE svg PUBLIC "-//W3C//DTD SVG 1.1//EN"
 "http://www.w3.org/Graphics/SVG/1.1/DTD/svg11.dtd">
<!-- Generated by graphviz version 2.38.0 (20140413.2041)
 -->
<!-- Title: include/motion_primitive_library/planner/mp_base_util.h Pages: 1 -->
<svg width="556pt" height="553pt"
 viewBox="0.00 0.00 555.78 553.00" xmlns="http://www.w3.org/2000/svg" xmlns:xlink="http://www.w3.org/1999/xlink">
<g id="graph0" class="graph" transform="scale(1 1) rotate(0) translate(4 549)">
<title>include/motion_primitive_library/planner/mp_base_util.h</title>
<polygon fill="white" stroke="none" points="-4,4 -4,-549 551.784,-549 551.784,4 -4,4"/>
<!-- Node0 -->
<g id="node1" class="node"><title>Node0</title>
<polygon fill="#bfbfbf" stroke="black" points="93.7837,-514.5 93.7837,-544.5 245.784,-544.5 245.784,-514.5 93.7837,-514.5"/>
<text text-anchor="start" x="101.784" y="-532.5" font-family="Helvetica,sans-Serif" font-size="10.00">include/motion_primitive</text>
<text text-anchor="middle" x="169.784" y="-521.5" font-family="Helvetica,sans-Serif" font-size="10.00">_library/planner/mp_base_util.h</text>
</g>
<!-- Node1 -->
<g id="node2" class="node"><title>Node1</title>
<g id="a_node2"><a xlink:href="graph__search_8h.html" target="_top" xlink:title="backend of graph search, implemetation of A* and Lifelong Planning A* ">
<polygon fill="white" stroke="black" points="165.284,-447.5 165.284,-477.5 286.284,-477.5 286.284,-447.5 165.284,-447.5"/>
<text text-anchor="start" x="173.284" y="-465.5" font-family="Helvetica,sans-Serif" font-size="10.00">motion_primitive_library</text>
<text text-anchor="middle" x="225.784" y="-454.5" font-family="Helvetica,sans-Serif" font-size="10.00">/planner/graph_search.h</text>
</a>
</g>
</g>
<!-- Node0&#45;&gt;Node1 -->
<g id="edge1" class="edge"><title>Node0&#45;&gt;Node1</title>
<path fill="none" stroke="midnightblue" d="M181.935,-514.396C189.273,-505.878 198.777,-494.847 207.06,-485.233"/>
<polygon fill="midnightblue" stroke="midnightblue" points="209.781,-487.437 213.656,-477.577 204.478,-482.868 209.781,-487.437"/>
</g>
<!-- Node16 -->
<g id="node17" class="node"><title>Node16</title>
<g id="a_node17"><a xlink:href="env__base_8h.html" target="_top" xlink:title="environment base class ">
<polygon fill="white" stroke="black" points="30.2837,-313.5 30.2837,-343.5 149.284,-343.5 149.284,-313.5 30.2837,-313.5"/>
<text text-anchor="start" x="38.2837" y="-331.5" font-family="Helvetica,sans-Serif" font-size="10.00">motion_primitive_library</text>
<text text-anchor="middle" x="89.7837" y="-320.5" font-family="Helvetica,sans-Serif" font-size="10.00">/planner/env_base.h</text>
</a>
</g>
</g>
<!-- Node0&#45;&gt;Node16 -->
<g id="edge26" class="edge"><title>Node0&#45;&gt;Node16</title>
<path fill="none" stroke="midnightblue" d="M164.03,-514.188C150.394,-480.268 116.001,-394.715 99.2477,-353.042"/>
<polygon fill="midnightblue" stroke="midnightblue" points="102.462,-351.655 95.485,-343.682 95.9676,-354.266 102.462,-351.655"/>
</g>
<!-- Node2 -->
<g id="node3" class="node"><title>Node2</title>
<g id="a_node3"><a xlink:href="state__space_8h.html" target="_top" xlink:title="state space class for graph search ">
<polygon fill="white" stroke="black" points="166.284,-380.5 166.284,-410.5 285.284,-410.5 285.284,-380.5 166.284,-380.5"/>
<text text-anchor="start" x="174.284" y="-398.5" font-family="Helvetica,sans-Serif" font-size="10.00">motion_primitive_library</text>
<text text-anchor="middle" x="225.784" y="-387.5" font-family="Helvetica,sans-Serif" font-size="10.00">/planner/state_space.h</text>
</a>
</g>
</g>
<!-- Node1&#45;&gt;Node2 -->
<g id="edge2" class="edge"><title>Node1&#45;&gt;Node2</title>
<path fill="none" stroke="midnightblue" d="M225.784,-447.396C225.784,-439.645 225.784,-429.812 225.784,-420.86"/>
<polygon fill="midnightblue" stroke="midnightblue" points="229.284,-420.576 225.784,-410.577 222.284,-420.577 229.284,-420.576"/>
</g>
<!-- Node17 -->
<g id="node18" class="node"><title>Node17</title>
<g id="a_node18"><a xlink:href="trajectory_8h.html" target="_top" xlink:title="Trajectory class. ">
<polygon fill="white" stroke="black" points="244.284,-246.5 244.284,-276.5 363.284,-276.5 363.284,-246.5 244.284,-246.5"/>
<text text-anchor="start" x="252.284" y="-264.5" font-family="Helvetica,sans-Serif" font-size="10.00">motion_primitive_library</text>
<text text-anchor="middle" x="303.784" y="-253.5" font-family="Helvetica,sans-Serif" font-size="10.00">/primitive/trajectory.h</text>
</a>
</g>
</g>
<!-- Node1&#45;&gt;Node17 -->
<g id="edge25" class="edge"><title>Node1&#45;&gt;Node17</title>
<path fill="none" stroke="midnightblue" d="M286.537,-455.791C354.297,-445.809 460.918,-418.496 510.784,-344 546.795,-290.202 446.909,-271.914 373.645,-265.698"/>
<polygon fill="midnightblue" stroke="midnightblue" points="373.745,-262.195 363.501,-264.899 373.195,-269.174 373.745,-262.195"/>
</g>
<!-- Node3 -->
<g id="node4" class="node"><title>Node3</title>
<polygon fill="white" stroke="#bfbfbf" points="365.284,-319 365.284,-338 502.284,-338 502.284,-319 365.284,-319"/>
<text text-anchor="middle" x="433.784" y="-326" font-family="Helvetica,sans-Serif" font-size="10.00">boost/heap/d_ary_heap.hpp</text>
</g>
<!-- Node2&#45;&gt;Node3 -->
<g id="edge3" class="edge"><title>Node2&#45;&gt;Node3</title>
<path fill="none" stroke="midnightblue" d="M270.661,-380.476C308.27,-368.723 361.325,-352.143 396.598,-341.12"/>
<polygon fill="midnightblue" stroke="midnightblue" points="397.991,-344.352 406.492,-338.029 395.903,-337.671 397.991,-344.352"/>
</g>
<!-- Node4 -->
<g id="node5" class="node"><title>Node4</title>
<polygon fill="white" stroke="#bfbfbf" points="151.784,-123.5 151.784,-142.5 203.784,-142.5 203.784,-123.5 151.784,-123.5"/>
<text text-anchor="middle" x="177.784" y="-130.5" font-family="Helvetica,sans-Serif" font-size="10.00">memory</text>
</g>
<!-- Node2&#45;&gt;Node4 -->
<g id="edge4" class="edge"><title>Node2&#45;&gt;Node4</title>
<path fill="none" stroke="midnightblue" d="M215.37,-380.257C208.848,-370.545 200.923,-357.112 196.784,-344 175.406,-276.274 175.518,-190.594 176.826,-153.067"/>
<polygon fill="midnightblue" stroke="midnightblue" points="180.34,-152.798 177.267,-142.659 173.346,-152.502 180.34,-152.798"/>
</g>
<!-- Node5 -->
<g id="node6" class="node"><title>Node5</title>
<polygon fill="white" stroke="#bfbfbf" points="205.784,-319 205.784,-338 245.784,-338 245.784,-319 205.784,-319"/>
<text text-anchor="middle" x="225.784" y="-326" font-family="Helvetica,sans-Serif" font-size="10.00">limits</text>
</g>
<!-- Node2&#45;&gt;Node5 -->
<g id="edge5" class="edge"><title>Node2&#45;&gt;Node5</title>
<path fill="none" stroke="midnightblue" d="M225.784,-380.396C225.784,-371.064 225.784,-358.714 225.784,-348.517"/>
<polygon fill="midnightblue" stroke="midnightblue" points="229.284,-348.195 225.784,-338.195 222.284,-348.195 229.284,-348.195"/>
</g>
<!-- Node6 -->
<g id="node7" class="node"><title>Node6</title>
<polygon fill="white" stroke="#bfbfbf" points="43.7837,-0.5 43.7837,-19.5 87.7837,-19.5 87.7837,-0.5 43.7837,-0.5"/>
<text text-anchor="middle" x="65.7837" y="-7.5" font-family="Helvetica,sans-Serif" font-size="10.00">vector</text>
</g>
<!-- Node2&#45;&gt;Node6 -->
<g id="edge6" class="edge"><title>Node2&#45;&gt;Node6</title>
<path fill="none" stroke="midnightblue" d="M166.085,-386.792C113.063,-378.737 40.9379,-364.408 20.7837,-344 -5.35123,-317.536 1.78374,-299.694 1.78374,-262.5 1.78374,-262.5 1.78374,-262.5 1.78374,-132 1.78374,-90.4605 31.6216,-49.2352 50.5507,-27.2614"/>
<polygon fill="midnightblue" stroke="midnightblue" points="53.3665,-29.3629 57.4169,-19.5728 48.1454,-24.7002 53.3665,-29.3629"/>
</g>
<!-- Node7 -->
<g id="node8" class="node"><title>Node7</title>
<polygon fill="white" stroke="#bfbfbf" points="264.284,-319 264.284,-338 347.284,-338 347.284,-319 264.284,-319"/>
<text text-anchor="middle" x="305.784" y="-326" font-family="Helvetica,sans-Serif" font-size="10.00">unordered_map</text>
</g>
<!-- Node2&#45;&gt;Node7 -->
<g id="edge7" class="edge"><title>Node2&#45;&gt;Node7</title>
<path fill="none" stroke="midnightblue" d="M243.143,-380.396C256.11,-369.86 273.812,-355.477 287.09,-344.689"/>
<polygon fill="midnightblue" stroke="midnightblue" points="289.529,-347.217 295.083,-338.195 285.115,-341.784 289.529,-347.217"/>
</g>
<!-- Node8 -->
<g id="node9" class="node"><title>Node8</title>
<g id="a_node9"><a xlink:href="primitive_8h.html" target="_top" xlink:title="Primitive classes. ">
<polygon fill="white" stroke="black" points="222.284,-179.5 222.284,-209.5 341.284,-209.5 341.284,-179.5 222.284,-179.5"/>
<text text-anchor="start" x="230.284" y="-197.5" font-family="Helvetica,sans-Serif" font-size="10.00">motion_primitive_library</text>
<text text-anchor="middle" x="281.784" y="-186.5" font-family="Helvetica,sans-Serif" font-size="10.00">/primitive/primitive.h</text>
</a>
</g>
</g>
<!-- Node2&#45;&gt;Node8 -->
<g id="edge8" class="edge"><title>Node2&#45;&gt;Node8</title>
<path fill="none" stroke="midnightblue" d="M285.484,-392.62C360.428,-388.856 482.616,-377.598 510.784,-344 564.226,-280.256 436.689,-234.105 351.251,-211.394"/>
<polygon fill="midnightblue" stroke="midnightblue" points="351.874,-207.939 341.314,-208.806 350.11,-214.713 351.874,-207.939"/>
</g>
<!-- Node2&#45;&gt;Node16 -->
<g id="edge19" class="edge"><title>Node2&#45;&gt;Node16</title>
<path fill="none" stroke="midnightblue" d="M196.274,-380.396C176.403,-370.899 149.993,-358.276 128.446,-347.978"/>
<polygon fill="midnightblue" stroke="midnightblue" points="129.768,-344.731 119.236,-343.577 126.749,-351.047 129.768,-344.731"/>
</g>
<!-- Node8&#45;&gt;Node4 -->
<g id="edge9" class="edge"><title>Node8&#45;&gt;Node4</title>
<path fill="none" stroke="midnightblue" d="M257.137,-179.399C240.467,-169.862 218.553,-157.325 201.979,-147.842"/>
<polygon fill="midnightblue" stroke="midnightblue" points="203.335,-144.586 192.917,-142.658 199.858,-150.662 203.335,-144.586"/>
</g>
<!-- Node9 -->
<g id="node10" class="node"><title>Node9</title>
<g id="a_node10"><a xlink:href="data__type_8h.html" target="_top" xlink:title="Defines all data types used in this lib. ">
<polygon fill="white" stroke="black" points="338.284,-56.5 338.284,-86.5 457.284,-86.5 457.284,-56.5 338.284,-56.5"/>
<text text-anchor="start" x="346.284" y="-74.5" font-family="Helvetica,sans-Serif" font-size="10.00">motion_primitive_library</text>
<text text-anchor="middle" x="397.784" y="-63.5" font-family="Helvetica,sans-Serif" font-size="10.00">/common/data_type.h</text>
</a>
</g>
</g>
<!-- Node8&#45;&gt;Node9 -->
<g id="edge10" class="edge"><title>Node8&#45;&gt;Node9</title>
<path fill="none" stroke="midnightblue" d="M295.546,-179.145C315.691,-158.131 353.366,-118.833 376.926,-94.2568"/>
<polygon fill="midnightblue" stroke="midnightblue" points="379.646,-96.4776 384.039,-86.8368 374.592,-91.6333 379.646,-96.4776"/>
</g>
<!-- Node13 -->
<g id="node14" class="node"><title>Node13</title>
<g id="a_node14"><a xlink:href="math_8h.html" target="_top" xlink:title="Polynomial roots solver. ">
<polygon fill="white" stroke="black" points="240.284,-123.5 240.284,-142.5 287.284,-142.5 287.284,-123.5 240.284,-123.5"/>
<text text-anchor="middle" x="263.784" y="-130.5" font-family="Helvetica,sans-Serif" font-size="10.00">math.h</text>
</a>
</g>
</g>
<!-- Node8&#45;&gt;Node13 -->
<g id="edge15" class="edge"><title>Node8&#45;&gt;Node13</title>
<path fill="none" stroke="midnightblue" d="M277.518,-179.399C275.064,-171.288 271.954,-161.007 269.314,-152.281"/>
<polygon fill="midnightblue" stroke="midnightblue" points="272.649,-151.216 266.403,-142.658 265.949,-153.243 272.649,-151.216"/>
</g>
<!-- Node9&#45;&gt;Node6 -->
<g id="edge12" class="edge"><title>Node9&#45;&gt;Node6</title>
<path fill="none" stroke="midnightblue" d="M337.972,-57.7871C334.867,-57.1721 331.79,-56.5728 328.784,-56 245.904,-40.2069 147.83,-24.108 98.1344,-16.1327"/>
<polygon fill="midnightblue" stroke="midnightblue" points="98.4291,-12.6354 88.0017,-14.5116 97.3232,-19.5475 98.4291,-12.6354"/>
</g>
<!-- Node10 -->
<g id="node11" class="node"><title>Node10</title>
<polygon fill="white" stroke="#bfbfbf" points="289.784,-0.5 289.784,-19.5 335.784,-19.5 335.784,-0.5 289.784,-0.5"/>
<text text-anchor="middle" x="312.784" y="-7.5" font-family="Helvetica,sans-Serif" font-size="10.00">stdio.h</text>
</g>
<!-- Node9&#45;&gt;Node10 -->
<g id="edge11" class="edge"><title>Node9&#45;&gt;Node10</title>
<path fill="none" stroke="midnightblue" d="M377.64,-56.3993C364.397,-47.1293 347.106,-35.0254 333.708,-25.6469"/>
<polygon fill="midnightblue" stroke="midnightblue" points="335.351,-22.5251 325.152,-19.6578 331.337,-28.2598 335.351,-22.5251"/>
</g>
<!-- Node11 -->
<g id="node12" class="node"><title>Node11</title>
<polygon fill="white" stroke="#bfbfbf" points="354.284,-0.5 354.284,-19.5 441.284,-19.5 441.284,-0.5 354.284,-0.5"/>
<text text-anchor="middle" x="397.784" y="-7.5" font-family="Helvetica,sans-Serif" font-size="10.00">Eigen/Geometry</text>
</g>
<!-- Node9&#45;&gt;Node11 -->
<g id="edge13" class="edge"><title>Node9&#45;&gt;Node11</title>
<path fill="none" stroke="midnightblue" d="M397.784,-56.3993C397.784,-48.4664 397.784,-38.458 397.784,-29.8583"/>
<polygon fill="midnightblue" stroke="midnightblue" points="401.284,-29.6577 397.784,-19.6578 394.284,-29.6578 401.284,-29.6577"/>
</g>
<!-- Node12 -->
<g id="node13" class="node"><title>Node12</title>
<polygon fill="white" stroke="#bfbfbf" points="459.784,-0.5 459.784,-19.5 547.784,-19.5 547.784,-0.5 459.784,-0.5"/>
<text text-anchor="middle" x="503.784" y="-7.5" font-family="Helvetica,sans-Serif" font-size="10.00">Eigen/StdVector</text>
</g>
<!-- Node9&#45;&gt;Node12 -->
<g id="edge14" class="edge"><title>Node9&#45;&gt;Node12</title>
<path fill="none" stroke="midnightblue" d="M422.904,-56.3993C440.054,-46.7728 462.648,-34.0902 479.596,-24.5772"/>
<polygon fill="midnightblue" stroke="midnightblue" points="481.353,-27.6047 488.36,-19.6578 477.926,-21.5006 481.353,-27.6047"/>
</g>
<!-- Node13&#45;&gt;Node9 -->
<g id="edge16" class="edge"><title>Node13&#45;&gt;Node9</title>
<path fill="none" stroke="midnightblue" d="M282.983,-123.475C302.149,-114.965 332.204,-101.619 356.755,-90.718"/>
<polygon fill="midnightblue" stroke="midnightblue" points="358.483,-93.7801 366.203,-86.523 355.643,-87.3824 358.483,-93.7801"/>
</g>
<!-- Node14 -->
<g id="node15" class="node"><title>Node14</title>
<polygon fill="white" stroke="#bfbfbf" points="165.784,-62 165.784,-81 319.784,-81 319.784,-62 165.784,-62"/>
<text text-anchor="middle" x="242.784" y="-69" font-family="Helvetica,sans-Serif" font-size="10.00">unsupported/Eigen/Polynomials</text>
</g>
<!-- Node13&#45;&gt;Node14 -->
<g id="edge17" class="edge"><title>Node13&#45;&gt;Node14</title>
<path fill="none" stroke="midnightblue" d="M260.775,-123.475C257.75,-114.904 252.993,-101.427 249.131,-90.483"/>
<polygon fill="midnightblue" stroke="midnightblue" points="252.416,-89.2741 245.787,-81.0091 245.815,-91.6039 252.416,-89.2741"/>
</g>
<!-- Node15 -->
<g id="node16" class="node"><title>Node15</title>
<polygon fill="white" stroke="#bfbfbf" points="93.7837,-62 93.7837,-81 147.784,-81 147.784,-62 93.7837,-62"/>
<text text-anchor="middle" x="120.784" y="-69" font-family="Helvetica,sans-Serif" font-size="10.00">iostream</text>
</g>
<!-- Node13&#45;&gt;Node15 -->
<g id="edge18" class="edge"><title>Node13&#45;&gt;Node15</title>
<path fill="none" stroke="midnightblue" d="M243.295,-123.475C218.978,-113.357 178.235,-96.4046 150.467,-84.8507"/>
<polygon fill="midnightblue" stroke="midnightblue" points="151.811,-81.6193 141.234,-81.0091 149.122,-88.0822 151.811,-81.6193"/>
</g>
<!-- Node16&#45;&gt;Node4 -->
<g id="edge20" class="edge"><title>Node16&#45;&gt;Node4</title>
<path fill="none" stroke="midnightblue" d="M96.2546,-313.271C112.001,-278.648 152.291,-190.055 169.638,-151.911"/>
<polygon fill="midnightblue" stroke="midnightblue" points="172.929,-153.129 173.883,-142.577 166.557,-150.231 172.929,-153.129"/>
</g>
<!-- Node16&#45;&gt;Node6 -->
<g id="edge21" class="edge"><title>Node16&#45;&gt;Node6</title>
<path fill="none" stroke="midnightblue" d="M85.493,-313.394C78.5898,-289.413 65.7837,-239.057 65.7837,-195.5 65.7837,-195.5 65.7837,-195.5 65.7837,-132 65.7837,-95.7138 65.7837,-53.3066 65.7837,-29.559"/>
<polygon fill="midnightblue" stroke="midnightblue" points="69.2838,-29.5085 65.7837,-19.5085 62.2838,-29.5086 69.2838,-29.5085"/>
</g>
<!-- Node16&#45;&gt;Node8 -->
<g id="edge22" class="edge"><title>Node16&#45;&gt;Node8</title>
<path fill="none" stroke="midnightblue" d="M110.331,-313.374C144.687,-289.754 213.873,-242.189 253.041,-215.261"/>
<polygon fill="midnightblue" stroke="midnightblue" points="255.127,-218.074 261.384,-209.525 251.161,-212.306 255.127,-218.074"/>
</g>
<!-- Node16&#45;&gt;Node17 -->
<g id="edge23" class="edge"><title>Node16&#45;&gt;Node17</title>
<path fill="none" stroke="midnightblue" d="M135.955,-313.476C168.61,-303.557 212.584,-290.201 247.327,-279.648"/>
<polygon fill="midnightblue" stroke="midnightblue" points="248.775,-282.866 257.326,-276.611 246.741,-276.168 248.775,-282.866"/>
</g>
<!-- Node17&#45;&gt;Node8 -->
<g id="edge24" class="edge"><title>Node17&#45;&gt;Node8</title>
<path fill="none" stroke="midnightblue" d="M299.01,-246.396C296.329,-238.474 292.912,-228.379 289.829,-219.271"/>
<polygon fill="midnightblue" stroke="midnightblue" points="293.069,-217.927 286.548,-209.577 286.439,-220.171 293.069,-217.927"/>
</g>
</g>
</svg>
