<?xml version="1.0" encoding="UTF-8" standalone="no"?>
<!DOCTYPE svg PUBLIC "-//W3C//DTD SVG 1.1//EN"
 "http://www.w3.org/Graphics/SVG/1.1/DTD/svg11.dtd">
<!-- Generated by graphviz version 2.38.0 (20140413.2041)
 -->
<!-- Title: include/motion_primitive_library/planner/mp_base_util.h Pages: 1 -->
<svg width="508pt" height="173pt"
 viewBox="0.00 0.00 507.50 173.00" xmlns="http://www.w3.org/2000/svg" xmlns:xlink="http://www.w3.org/1999/xlink">
<g id="graph0" class="graph" transform="scale(1 1) rotate(0) translate(4 169)">
<title>include/motion_primitive_library/planner/mp_base_util.h</title>
<polygon fill="white" stroke="none" points="-4,4 -4,-169 503.5,-169 503.5,4 -4,4"/>
<!-- Node18 -->
<g id="node1" class="node"><title>Node18</title>
<polygon fill="#bfbfbf" stroke="black" points="215,-134.5 215,-164.5 367,-164.5 367,-134.5 215,-134.5"/>
<text text-anchor="start" x="223" y="-152.5" font-family="Helvetica,sans-Serif" font-size="10.00">include/motion_primitive</text>
<text text-anchor="middle" x="291" y="-141.5" font-family="Helvetica,sans-Serif" font-size="10.00">_library/planner/mp_base_util.h</text>
</g>
<!-- Node19 -->
<g id="node2" class="node"><title>Node19</title>
<g id="a_node2"><a xlink:href="mp__cloud__util_8h.html" target="_top" xlink:title="motion planning cloud util ">
<polygon fill="white" stroke="black" points="0,-67.5 0,-97.5 154,-97.5 154,-67.5 0,-67.5"/>
<text text-anchor="start" x="8" y="-85.5" font-family="Helvetica,sans-Serif" font-size="10.00">include/motion_primitive</text>
<text text-anchor="middle" x="77" y="-74.5" font-family="Helvetica,sans-Serif" font-size="10.00">_library/planner/mp_cloud_util.h</text>
</a>
</g>
</g>
<!-- Node18&#45;&gt;Node19 -->
<g id="edge1" class="edge"><title>Node18&#45;&gt;Node19</title>
<path fill="none" stroke="midnightblue" d="M234.847,-131.444C200.158,-120.908 156.178,-107.549 123.457,-97.6109"/>
<polygon fill="midnightblue" stroke="midnightblue" points="234.243,-134.919 244.829,-134.476 236.278,-128.221 234.243,-134.919"/>
</g>
<!-- Node21 -->
<g id="node4" class="node"><title>Node21</title>
<g id="a_node4"><a xlink:href="mp__map__util_8h.html" target="_top" xlink:title="motion planning map util ">
<polygon fill="white" stroke="black" points="216.5,-67.5 216.5,-97.5 365.5,-97.5 365.5,-67.5 216.5,-67.5"/>
<text text-anchor="start" x="224.5" y="-85.5" font-family="Helvetica,sans-Serif" font-size="10.00">include/motion_primitive</text>
<text text-anchor="middle" x="291" y="-74.5" font-family="Helvetica,sans-Serif" font-size="10.00">_library/planner/mp_map_util.h</text>
</a>
</g>
</g>
<!-- Node18&#45;&gt;Node21 -->
<g id="edge3" class="edge"><title>Node18&#45;&gt;Node21</title>
<path fill="none" stroke="midnightblue" d="M291,-124.108C291,-115.154 291,-105.323 291,-97.5765"/>
<polygon fill="midnightblue" stroke="midnightblue" points="287.5,-124.396 291,-134.396 294.5,-124.396 287.5,-124.396"/>
</g>
<!-- Node25 -->
<g id="node8" class="node"><title>Node25</title>
<polygon fill="white" stroke="#bfbfbf" points="383.5,-67.5 383.5,-97.5 490.5,-97.5 490.5,-67.5 383.5,-67.5"/>
<text text-anchor="start" x="391.5" y="-85.5" font-family="Helvetica,sans-Serif" font-size="10.00">src/planner/mp_base</text>
<text text-anchor="middle" x="437" y="-74.5" font-family="Helvetica,sans-Serif" font-size="10.00">_util.cpp</text>
</g>
<!-- Node18&#45;&gt;Node25 -->
<g id="edge7" class="edge"><title>Node18&#45;&gt;Node25</title>
<path fill="none" stroke="midnightblue" d="M331.95,-130.269C355.204,-119.916 383.872,-107.153 405.382,-97.5765"/>
<polygon fill="midnightblue" stroke="midnightblue" points="330.392,-127.131 322.68,-134.396 333.239,-133.526 330.392,-127.131"/>
</g>
<!-- Node20 -->
<g id="node3" class="node"><title>Node20</title>
<polygon fill="white" stroke="#bfbfbf" points="0,-0.5 0,-30.5 110,-30.5 110,-0.5 0,-0.5"/>
<text text-anchor="start" x="8" y="-18.5" font-family="Helvetica,sans-Serif" font-size="10.00">src/planner/mp_cloud</text>
<text text-anchor="middle" x="55" y="-7.5" font-family="Helvetica,sans-Serif" font-size="10.00">_util.cpp</text>
</g>
<!-- Node19&#45;&gt;Node20 -->
<g id="edge2" class="edge"><title>Node19&#45;&gt;Node20</title>
<path fill="none" stroke="midnightblue" d="M68.9436,-57.6971C65.8602,-48.5871 62.4438,-38.4929 59.7644,-30.5765"/>
<polygon fill="midnightblue" stroke="midnightblue" points="65.705,-59.0459 72.2263,-67.396 72.3356,-56.8017 65.705,-59.0459"/>
</g>
<!-- Node22 -->
<g id="node5" class="node"><title>Node22</title>
<polygon fill="white" stroke="#bfbfbf" points="128.5,-0.5 128.5,-30.5 233.5,-30.5 233.5,-0.5 128.5,-0.5"/>
<text text-anchor="start" x="136.5" y="-18.5" font-family="Helvetica,sans-Serif" font-size="10.00">src/planner/mp_map</text>
<text text-anchor="middle" x="181" y="-7.5" font-family="Helvetica,sans-Serif" font-size="10.00">_util.cpp</text>
</g>
<!-- Node21&#45;&gt;Node22 -->
<g id="edge4" class="edge"><title>Node21&#45;&gt;Node22</title>
<path fill="none" stroke="midnightblue" d="M258.5,-62.2956C241.288,-52.1248 220.524,-39.8549 204.822,-30.5765"/>
<polygon fill="midnightblue" stroke="midnightblue" points="256.742,-65.3219 267.132,-67.396 260.303,-59.2954 256.742,-65.3219"/>
</g>
<!-- Node23 -->
<g id="node6" class="node"><title>Node23</title>
<polygon fill="white" stroke="#bfbfbf" points="252,-6 252,-25 376,-25 376,-6 252,-6"/>
<text text-anchor="middle" x="314" y="-13" font-family="Helvetica,sans-Serif" font-size="10.00">test/test_planner_2d.cpp</text>
</g>
<!-- Node21&#45;&gt;Node23 -->
<g id="edge5" class="edge"><title>Node21&#45;&gt;Node23</title>
<path fill="none" stroke="midnightblue" d="M299.336,-57.9425C303.37,-46.5402 307.969,-33.5454 310.923,-25.1945"/>
<polygon fill="midnightblue" stroke="midnightblue" points="296.027,-56.8012 295.991,-67.396 302.626,-59.1363 296.027,-56.8012"/>
</g>
<!-- Node24 -->
<g id="node7" class="node"><title>Node24</title>
<polygon fill="white" stroke="#bfbfbf" points="394.5,-0.5 394.5,-30.5 499.5,-30.5 499.5,-0.5 394.5,-0.5"/>
<text text-anchor="start" x="402.5" y="-18.5" font-family="Helvetica,sans-Serif" font-size="10.00">test/test_planner_2d</text>
<text text-anchor="middle" x="447" y="-7.5" font-family="Helvetica,sans-Serif" font-size="10.00">_prior_traj.cpp</text>
</g>
<!-- Node21&#45;&gt;Node24 -->
<g id="edge6" class="edge"><title>Node21&#45;&gt;Node24</title>
<path fill="none" stroke="midnightblue" d="M334.094,-63.5442C359.057,-53.143 390.029,-40.238 413.216,-30.5765"/>
<polygon fill="midnightblue" stroke="midnightblue" points="332.734,-60.319 324.85,-67.396 335.427,-66.7805 332.734,-60.319"/>
</g>
</g>
</svg>
