<?xml version="1.0" encoding="UTF-8" standalone="no"?>
<!DOCTYPE svg PUBLIC "-//W3C//DTD SVG 1.1//EN"
 "http://www.w3.org/Graphics/SVG/1.1/DTD/svg11.dtd">
<!-- Generated by graphviz version 2.38.0 (20140413.2041)
 -->
<!-- Title: include/motion_primitive_library/planner/mp_map_util.h Pages: 1 -->
<!--zoomable 620 -->
<svg id="main" version="1.1" xmlns="http://www.w3.org/2000/svg" xmlns:xlink="http://www.w3.org/1999/xlink" xml:space="preserve" onload="init(evt)">
<style type="text/css"><![CDATA[
.edge:hover path { stroke: red; }
.edge:hover polygon { stroke: red; fill: red; }
]]></style>
<script type="text/javascript"><![CDATA[
var edges = document.getElementsByTagName('g');
if (edges && edges.length) {
  for (var i=0;i<edges.length;i++) {
    if (edges[i].id.substr(0,4)=='edge') {
      edges[i].setAttribute('class','edge');
    }
  }
}
]]></script>
        <defs>
                <circle id="rim" cx="0" cy="0" r="7"/>
                <circle id="rim2" cx="0" cy="0" r="3.5"/>
                <g id="zoomPlus">
                        <use xlink:href="#rim" fill="#404040">
                                <set attributeName="fill" to="#808080" begin="zoomplus.mouseover" end="zoomplus.mouseout"/>
                        </use>
                        <path d="M-4,0h8M0,-4v8" fill="none" stroke="white" stroke-width="1.5" pointer-events="none"/>
                </g>
                <g id="zoomMin">
                        <use xlink:href="#rim" fill="#404040">
                                <set attributeName="fill" to="#808080" begin="zoomminus.mouseover" end="zoomminus.mouseout"/>
                        </use>
                        <path d="M-4,0h8" fill="none" stroke="white" stroke-width="1.5" pointer-events="none"/>
                </g>
                <g id="dirArrow">
                        <path fill="none" stroke="white" stroke-width="1.5" d="M0,-3.0v7 M-2.5,-0.5L0,-3.0L2.5,-0.5"/>
                </g>
               <g id="resetDef">
                       <use xlink:href="#rim2" fill="#404040">
                               <set attributeName="fill" to="#808080" begin="reset.mouseover" end="reset.mouseout"/>
                       </use>
               </g>
        </defs>

<script type="text/javascript">
var viewWidth = 796;
var viewHeight = 620;
var sectionId = 'dynsection-0';
</script>
<script xlink:href="svgpan.js"/>
<svg id="graph" class="graph">
<g id="viewport">
<title>include/motion_primitive_library/planner/mp_map_util.h</title>
<polygon fill="white" stroke="none" points="-4,4 -4,-616 792.427,-616 792.427,4 -4,4"/>
<!-- Node0 -->
<g id="node1" class="node"><title>Node0</title>
<polygon fill="#bfbfbf" stroke="black" points="101,-581.5 101,-611.5 250,-611.5 250,-581.5 101,-581.5"/>
<text text-anchor="start" x="109" y="-599.5" font-family="Helvetica,sans-Serif" font-size="10.00">include/motion_primitive</text>
<text text-anchor="middle" x="175.5" y="-588.5" font-family="Helvetica,sans-Serif" font-size="10.00">_library/planner/mp_map_util.h</text>
</g>
<!-- Node1 -->
<g id="node2" class="node"><title>Node1</title>
<g id="a_node2"><a xlink:href="env__map_8h.html" target="_top" xlink:title="motion_primitive_library\l/planner/env_map.h">
<polygon fill="white" stroke="black" points="72,-380.5 72,-410.5 191,-410.5 191,-380.5 72,-380.5"/>
<text text-anchor="start" x="80" y="-398.5" font-family="Helvetica,sans-Serif" font-size="10.00">motion_primitive_library</text>
<text text-anchor="middle" x="131.5" y="-387.5" font-family="Helvetica,sans-Serif" font-size="10.00">/planner/env_map.h</text>
</a>
</g>
</g>
<!-- Node0&#45;&gt;Node1 -->
<g id="edge1" class="edge"><title>Node0&#45;&gt;Node1</title>
<path fill="none" stroke="midnightblue" d="M167.335,-581.388C161.991,-571.513 155.315,-557.841 151.5,-545 138.888,-502.545 134.205,-450.88 132.483,-421.032"/>
<polygon fill="midnightblue" stroke="midnightblue" points="135.963,-420.535 131.958,-410.726 128.972,-420.891 135.963,-420.535"/>
</g>
<!-- Node16 -->
<g id="node17" class="node"><title>Node16</title>
<g id="a_node17"><a xlink:href="mp__base__util_8h.html" target="_top" xlink:title="base class for motion planning ">
<polygon fill="white" stroke="black" points="160.5,-514.5 160.5,-544.5 280.5,-544.5 280.5,-514.5 160.5,-514.5"/>
<text text-anchor="start" x="168.5" y="-532.5" font-family="Helvetica,sans-Serif" font-size="10.00">motion_primitive_library</text>
<text text-anchor="middle" x="220.5" y="-521.5" font-family="Helvetica,sans-Serif" font-size="10.00">/planner/mp_base_util.h</text>
</a>
</g>
</g>
<!-- Node0&#45;&gt;Node16 -->
<g id="edge22" class="edge"><title>Node0&#45;&gt;Node16</title>
<path fill="none" stroke="midnightblue" d="M185.264,-581.396C191.043,-573.049 198.494,-562.287 205.054,-552.811"/>
<polygon fill="midnightblue" stroke="midnightblue" points="207.94,-554.791 210.755,-544.577 202.185,-550.806 207.94,-554.791"/>
</g>
<!-- Node2 -->
<g id="node3" class="node"><title>Node2</title>
<g id="a_node3"><a xlink:href="env__base_8h.html" target="_top" xlink:title="environment base class ">
<polygon fill="white" stroke="black" points="248,-313.5 248,-343.5 367,-343.5 367,-313.5 248,-313.5"/>
<text text-anchor="start" x="256" y="-331.5" font-family="Helvetica,sans-Serif" font-size="10.00">motion_primitive_library</text>
<text text-anchor="middle" x="307.5" y="-320.5" font-family="Helvetica,sans-Serif" font-size="10.00">/planner/env_base.h</text>
</a>
</g>
</g>
<!-- Node1&#45;&gt;Node2 -->
<g id="edge2" class="edge"><title>Node1&#45;&gt;Node2</title>
<path fill="none" stroke="midnightblue" d="M169.689,-380.396C196.097,-370.643 231.428,-357.595 259.704,-347.152"/>
<polygon fill="midnightblue" stroke="midnightblue" points="261.217,-350.324 269.385,-343.577 258.792,-343.758 261.217,-350.324"/>
</g>
<!-- Node5 -->
<g id="node6" class="node"><title>Node5</title>
<g id="a_node6"><a xlink:href="primitive_8h.html" target="_top" xlink:title="Primitive classes. ">
<polygon fill="white" stroke="black" points="210,-179.5 210,-209.5 329,-209.5 329,-179.5 210,-179.5"/>
<text text-anchor="start" x="218" y="-197.5" font-family="Helvetica,sans-Serif" font-size="10.00">motion_primitive_library</text>
<text text-anchor="middle" x="269.5" y="-186.5" font-family="Helvetica,sans-Serif" font-size="10.00">/primitive/primitive.h</text>
</a>
</g>
</g>
<!-- Node1&#45;&gt;Node5 -->
<g id="edge18" class="edge"><title>Node1&#45;&gt;Node5</title>
<path fill="none" stroke="midnightblue" d="M134.607,-380.399C141.386,-352.239 159.751,-288.128 194.5,-246 204.726,-233.603 218.767,-223.045 231.937,-214.838"/>
<polygon fill="midnightblue" stroke="midnightblue" points="234.048,-217.655 240.858,-209.538 230.473,-211.637 234.048,-217.655"/>
</g>
<!-- Node14 -->
<g id="node15" class="node"><title>Node14</title>
<g id="a_node15"><a xlink:href="map__util_8h.html" target="_top" xlink:title="MapUtil classes. ">
<polygon fill="white" stroke="black" points="0,-246.5 0,-276.5 147,-276.5 147,-246.5 0,-246.5"/>
<text text-anchor="start" x="8" y="-264.5" font-family="Helvetica,sans-Serif" font-size="10.00">motion_primitive_library</text>
<text text-anchor="middle" x="73.5" y="-253.5" font-family="Helvetica,sans-Serif" font-size="10.00">/collision_checking/map_util.h</text>
</a>
</g>
</g>
<!-- Node1&#45;&gt;Node14 -->
<g id="edge19" class="edge"><title>Node1&#45;&gt;Node14</title>
<path fill="none" stroke="midnightblue" d="M125.293,-380.374C115.351,-357.746 95.7524,-313.143 83.7208,-285.761"/>
<polygon fill="midnightblue" stroke="midnightblue" points="86.8895,-284.272 79.6624,-276.525 80.4809,-287.088 86.8895,-284.272"/>
</g>
<!-- Node15 -->
<g id="node16" class="node"><title>Node15</title>
<polygon fill="white" stroke="#bfbfbf" points="385,-319 385,-338 468,-338 468,-319 385,-319"/>
<text text-anchor="middle" x="426.5" y="-326" font-family="Helvetica,sans-Serif" font-size="10.00">unordered_map</text>
</g>
<!-- Node1&#45;&gt;Node15 -->
<g id="edge21" class="edge"><title>Node1&#45;&gt;Node15</title>
<path fill="none" stroke="midnightblue" d="M191.438,-383.36C240.999,-373.846 313.11,-359.304 375.5,-344 379.573,-343.001 383.812,-341.898 388.029,-340.76"/>
<polygon fill="midnightblue" stroke="midnightblue" points="389.034,-344.114 397.738,-338.074 387.167,-337.367 389.034,-344.114"/>
</g>
<!-- Node3 -->
<g id="node4" class="node"><title>Node3</title>
<polygon fill="white" stroke="#bfbfbf" points="363.5,-123.5 363.5,-142.5 415.5,-142.5 415.5,-123.5 363.5,-123.5"/>
<text text-anchor="middle" x="389.5" y="-130.5" font-family="Helvetica,sans-Serif" font-size="10.00">memory</text>
</g>
<!-- Node2&#45;&gt;Node3 -->
<g id="edge3" class="edge"><title>Node2&#45;&gt;Node3</title>
<path fill="none" stroke="midnightblue" d="M321.4,-313.092C329.972,-303.521 340.609,-290.309 347.5,-277 369.041,-235.398 381.121,-181.114 386.347,-152.895"/>
<polygon fill="midnightblue" stroke="midnightblue" points="389.835,-153.273 388.124,-142.817 382.941,-152.058 389.835,-153.273"/>
</g>
<!-- Node4 -->
<g id="node5" class="node"><title>Node4</title>
<polygon fill="white" stroke="#bfbfbf" points="474.5,-0.5 474.5,-19.5 518.5,-19.5 518.5,-0.5 474.5,-0.5"/>
<text text-anchor="middle" x="496.5" y="-7.5" font-family="Helvetica,sans-Serif" font-size="10.00">vector</text>
</g>
<!-- Node2&#45;&gt;Node4 -->
<g id="edge4" class="edge"><title>Node2&#45;&gt;Node4</title>
<path fill="none" stroke="midnightblue" d="M364.976,-313.484C420.581,-296.084 496.5,-260.437 496.5,-195.5 496.5,-195.5 496.5,-195.5 496.5,-132 496.5,-95.7138 496.5,-53.3066 496.5,-29.559"/>
<polygon fill="midnightblue" stroke="midnightblue" points="500,-29.5085 496.5,-19.5085 493,-29.5086 500,-29.5085"/>
</g>
<!-- Node2&#45;&gt;Node5 -->
<g id="edge5" class="edge"><title>Node2&#45;&gt;Node5</title>
<path fill="none" stroke="midnightblue" d="M317.639,-313.46C328.313,-296.821 342.2,-268.515 331.5,-246 325.67,-233.732 315.239,-223.464 304.577,-215.46"/>
<polygon fill="midnightblue" stroke="midnightblue" points="306.266,-212.372 296.059,-209.532 302.267,-218.117 306.266,-212.372"/>
</g>
<!-- Node13 -->
<g id="node14" class="node"><title>Node13</title>
<g id="a_node14"><a xlink:href="trajectory_8h.html" target="_top" xlink:title="Trajectory class. ">
<polygon fill="white" stroke="black" points="204,-246.5 204,-276.5 323,-276.5 323,-246.5 204,-246.5"/>
<text text-anchor="start" x="212" y="-264.5" font-family="Helvetica,sans-Serif" font-size="10.00">motion_primitive_library</text>
<text text-anchor="middle" x="263.5" y="-253.5" font-family="Helvetica,sans-Serif" font-size="10.00">/primitive/trajectory.h</text>
</a>
</g>
</g>
<!-- Node2&#45;&gt;Node13 -->
<g id="edge16" class="edge"><title>Node2&#45;&gt;Node13</title>
<path fill="none" stroke="midnightblue" d="M297.953,-313.396C292.36,-305.134 285.166,-294.507 278.8,-285.102"/>
<polygon fill="midnightblue" stroke="midnightblue" points="281.533,-282.896 273.029,-276.577 275.736,-286.82 281.533,-282.896"/>
</g>
<!-- Node5&#45;&gt;Node3 -->
<g id="edge6" class="edge"><title>Node5&#45;&gt;Node3</title>
<path fill="none" stroke="midnightblue" d="M297.938,-179.399C317.623,-169.639 343.643,-156.737 362.913,-147.183"/>
<polygon fill="midnightblue" stroke="midnightblue" points="364.635,-150.236 372.039,-142.658 361.525,-143.964 364.635,-150.236"/>
</g>
<!-- Node6 -->
<g id="node7" class="node"><title>Node6</title>
<g id="a_node7"><a xlink:href="data__type_8h.html" target="_top" xlink:title="Defines all data types used in this lib. ">
<polygon fill="white" stroke="black" points="105,-56.5 105,-86.5 224,-86.5 224,-56.5 105,-56.5"/>
<text text-anchor="start" x="113" y="-74.5" font-family="Helvetica,sans-Serif" font-size="10.00">motion_primitive_library</text>
<text text-anchor="middle" x="164.5" y="-63.5" font-family="Helvetica,sans-Serif" font-size="10.00">/common/data_type.h</text>
</a>
</g>
</g>
<!-- Node5&#45;&gt;Node6 -->
<g id="edge7" class="edge"><title>Node5&#45;&gt;Node6</title>
<path fill="none" stroke="midnightblue" d="M257.043,-179.145C238.887,-158.222 205.001,-119.173 183.658,-94.5768"/>
<polygon fill="midnightblue" stroke="midnightblue" points="186.139,-92.0956 176.941,-86.8368 180.852,-96.6835 186.139,-92.0956"/>
</g>
<!-- Node10 -->
<g id="node11" class="node"><title>Node10</title>
<g id="a_node11"><a xlink:href="math_8h.html" target="_top" xlink:title="Polynomial roots solver. ">
<polygon fill="white" stroke="black" points="246,-123.5 246,-142.5 293,-142.5 293,-123.5 246,-123.5"/>
<text text-anchor="middle" x="269.5" y="-130.5" font-family="Helvetica,sans-Serif" font-size="10.00">math.h</text>
</a>
</g>
</g>
<!-- Node5&#45;&gt;Node10 -->
<g id="edge12" class="edge"><title>Node5&#45;&gt;Node10</title>
<path fill="none" stroke="midnightblue" d="M269.5,-179.399C269.5,-171.466 269.5,-161.458 269.5,-152.858"/>
<polygon fill="midnightblue" stroke="midnightblue" points="273,-152.658 269.5,-142.658 266,-152.658 273,-152.658"/>
</g>
<!-- Node6&#45;&gt;Node4 -->
<g id="edge9" class="edge"><title>Node6&#45;&gt;Node4</title>
<path fill="none" stroke="midnightblue" d="M224.311,-57.7871C227.417,-57.1721 230.494,-56.5728 233.5,-56 316.38,-40.2069 414.454,-24.108 464.149,-16.1327"/>
<polygon fill="midnightblue" stroke="midnightblue" points="464.961,-19.5475 474.282,-14.5116 463.855,-12.6354 464.961,-19.5475"/>
</g>
<!-- Node7 -->
<g id="node8" class="node"><title>Node7</title>
<polygon fill="white" stroke="#bfbfbf" points="226.5,-0.5 226.5,-19.5 272.5,-19.5 272.5,-0.5 226.5,-0.5"/>
<text text-anchor="middle" x="249.5" y="-7.5" font-family="Helvetica,sans-Serif" font-size="10.00">stdio.h</text>
</g>
<!-- Node6&#45;&gt;Node7 -->
<g id="edge8" class="edge"><title>Node6&#45;&gt;Node7</title>
<path fill="none" stroke="midnightblue" d="M184.644,-56.3993C197.887,-47.1293 215.178,-35.0254 228.576,-25.6469"/>
<polygon fill="midnightblue" stroke="midnightblue" points="230.947,-28.2598 237.132,-19.6578 226.932,-22.5251 230.947,-28.2598"/>
</g>
<!-- Node8 -->
<g id="node9" class="node"><title>Node8</title>
<polygon fill="white" stroke="#bfbfbf" points="15,-0.5 15,-19.5 102,-19.5 102,-0.5 15,-0.5"/>
<text text-anchor="middle" x="58.5" y="-7.5" font-family="Helvetica,sans-Serif" font-size="10.00">Eigen/Geometry</text>
</g>
<!-- Node6&#45;&gt;Node8 -->
<g id="edge10" class="edge"><title>Node6&#45;&gt;Node8</title>
<path fill="none" stroke="midnightblue" d="M139.379,-56.3993C122.23,-46.7728 99.6354,-34.0902 82.6879,-24.5772"/>
<polygon fill="midnightblue" stroke="midnightblue" points="84.3573,-21.5006 73.9239,-19.6578 80.9309,-27.6047 84.3573,-21.5006"/>
</g>
<!-- Node9 -->
<g id="node10" class="node"><title>Node9</title>
<polygon fill="white" stroke="#bfbfbf" points="120.5,-0.5 120.5,-19.5 208.5,-19.5 208.5,-0.5 120.5,-0.5"/>
<text text-anchor="middle" x="164.5" y="-7.5" font-family="Helvetica,sans-Serif" font-size="10.00">Eigen/StdVector</text>
</g>
<!-- Node6&#45;&gt;Node9 -->
<g id="edge11" class="edge"><title>Node6&#45;&gt;Node9</title>
<path fill="none" stroke="midnightblue" d="M164.5,-56.3993C164.5,-48.4664 164.5,-38.458 164.5,-29.8583"/>
<polygon fill="midnightblue" stroke="midnightblue" points="168,-29.6577 164.5,-19.6578 161,-29.6578 168,-29.6577"/>
</g>
<!-- Node10&#45;&gt;Node6 -->
<g id="edge13" class="edge"><title>Node10&#45;&gt;Node6</title>
<path fill="none" stroke="midnightblue" d="M254.456,-123.475C239.837,-115.191 217.131,-102.325 198.19,-91.5913"/>
<polygon fill="midnightblue" stroke="midnightblue" points="199.672,-88.4081 189.246,-86.523 196.221,-94.4982 199.672,-88.4081"/>
</g>
<!-- Node11 -->
<g id="node12" class="node"><title>Node11</title>
<polygon fill="white" stroke="#bfbfbf" points="314.5,-62 314.5,-81 468.5,-81 468.5,-62 314.5,-62"/>
<text text-anchor="middle" x="391.5" y="-69" font-family="Helvetica,sans-Serif" font-size="10.00">unsupported/Eigen/Polynomials</text>
</g>
<!-- Node10&#45;&gt;Node11 -->
<g id="edge14" class="edge"><title>Node10&#45;&gt;Node11</title>
<path fill="none" stroke="midnightblue" d="M286.98,-123.475C307.363,-113.534 341.275,-96.9947 364.925,-85.461"/>
<polygon fill="midnightblue" stroke="midnightblue" points="366.599,-88.5385 374.053,-81.0091 363.531,-82.2468 366.599,-88.5385"/>
</g>
<!-- Node12 -->
<g id="node13" class="node"><title>Node12</title>
<polygon fill="white" stroke="#bfbfbf" points="242.5,-62 242.5,-81 296.5,-81 296.5,-62 242.5,-62"/>
<text text-anchor="middle" x="269.5" y="-69" font-family="Helvetica,sans-Serif" font-size="10.00">iostream</text>
</g>
<!-- Node10&#45;&gt;Node12 -->
<g id="edge15" class="edge"><title>Node10&#45;&gt;Node12</title>
<path fill="none" stroke="midnightblue" d="M269.5,-123.475C269.5,-115.08 269.5,-101.981 269.5,-91.1631"/>
<polygon fill="midnightblue" stroke="midnightblue" points="273,-91.0091 269.5,-81.0091 266,-91.0091 273,-91.0091"/>
</g>
<!-- Node13&#45;&gt;Node5 -->
<g id="edge17" class="edge"><title>Node13&#45;&gt;Node5</title>
<path fill="none" stroke="midnightblue" d="M264.802,-246.396C265.525,-238.56 266.445,-228.596 267.279,-219.565"/>
<polygon fill="midnightblue" stroke="midnightblue" points="270.767,-219.856 268.201,-209.577 263.796,-219.212 270.767,-219.856"/>
</g>
<!-- Node14&#45;&gt;Node6 -->
<g id="edge20" class="edge"><title>Node14&#45;&gt;Node6</title>
<path fill="none" stroke="midnightblue" d="M80.3398,-246.369C95.9247,-214.172 134.197,-135.104 153.29,-95.66"/>
<polygon fill="midnightblue" stroke="midnightblue" points="156.498,-97.064 157.705,-86.5381 150.198,-94.0142 156.498,-97.064"/>
</g>
<!-- Node16&#45;&gt;Node2 -->
<g id="edge33" class="edge"><title>Node16&#45;&gt;Node2</title>
<path fill="none" stroke="midnightblue" d="M249.901,-514.321C264.248,-505.829 280.347,-493.628 289.5,-478 312.176,-439.28 312.442,-385.181 310.219,-354.1"/>
<polygon fill="midnightblue" stroke="midnightblue" points="313.674,-353.423 309.324,-343.762 306.7,-354.026 313.674,-353.423"/>
</g>
<!-- Node17 -->
<g id="node18" class="node"><title>Node17</title>
<g id="a_node18"><a xlink:href="graph__search_8h.html" target="_top" xlink:title="backend of graph search, implemetation of A* and Lifelong Planning A* ">
<polygon fill="white" stroke="black" points="160,-447.5 160,-477.5 281,-477.5 281,-447.5 160,-447.5"/>
<text text-anchor="start" x="168" y="-465.5" font-family="Helvetica,sans-Serif" font-size="10.00">motion_primitive_library</text>
<text text-anchor="middle" x="220.5" y="-454.5" font-family="Helvetica,sans-Serif" font-size="10.00">/planner/graph_search.h</text>
</a>
</g>
</g>
<!-- Node16&#45;&gt;Node17 -->
<g id="edge23" class="edge"><title>Node16&#45;&gt;Node17</title>
<path fill="none" stroke="midnightblue" d="M220.5,-514.396C220.5,-506.645 220.5,-496.812 220.5,-487.86"/>
<polygon fill="midnightblue" stroke="midnightblue" points="224,-487.576 220.5,-477.577 217,-487.577 224,-487.576"/>
</g>
<!-- Node17&#45;&gt;Node13 -->
<g id="edge32" class="edge"><title>Node17&#45;&gt;Node13</title>
<path fill="none" stroke="midnightblue" d="M220.638,-447.255C221.242,-420.42 224.235,-360.778 238.5,-313 241.306,-303.601 245.749,-293.818 250.117,-285.393"/>
<polygon fill="midnightblue" stroke="midnightblue" points="253.222,-287.009 254.924,-276.552 247.072,-283.665 253.222,-287.009"/>
</g>
<!-- Node18 -->
<g id="node19" class="node"><title>Node18</title>
<g id="a_node19"><a xlink:href="state__space_8h.html" target="_top" xlink:title="state space class for graph search ">
<polygon fill="white" stroke="black" points="456,-380.5 456,-410.5 575,-410.5 575,-380.5 456,-380.5"/>
<text text-anchor="start" x="464" y="-398.5" font-family="Helvetica,sans-Serif" font-size="10.00">motion_primitive_library</text>
<text text-anchor="middle" x="515.5" y="-387.5" font-family="Helvetica,sans-Serif" font-size="10.00">/planner/state_space.h</text>
</a>
</g>
</g>
<!-- Node17&#45;&gt;Node18 -->
<g id="edge24" class="edge"><title>Node17&#45;&gt;Node18</title>
<path fill="none" stroke="midnightblue" d="M281.266,-448.111C329.178,-437.554 396.027,-422.825 446.051,-411.802"/>
<polygon fill="midnightblue" stroke="midnightblue" points="446.808,-415.219 455.821,-409.65 445.302,-408.383 446.808,-415.219"/>
</g>
<!-- Node18&#45;&gt;Node2 -->
<g id="edge31" class="edge"><title>Node18&#45;&gt;Node2</title>
<path fill="none" stroke="midnightblue" d="M470.623,-380.476C438.884,-370.557 396.143,-357.201 362.374,-346.648"/>
<polygon fill="midnightblue" stroke="midnightblue" points="363.244,-343.253 352.655,-343.611 361.156,-349.934 363.244,-343.253"/>
</g>
<!-- Node18&#45;&gt;Node3 -->
<g id="edge26" class="edge"><title>Node18&#45;&gt;Node3</title>
<path fill="none" stroke="midnightblue" d="M514.723,-380.218C513.442,-363.591 510.1,-335.533 501.5,-313 476.634,-247.852 426.883,-180.689 402.958,-150.476"/>
<polygon fill="midnightblue" stroke="midnightblue" points="405.664,-148.257 396.677,-142.647 400.204,-152.637 405.664,-148.257"/>
</g>
<!-- Node18&#45;&gt;Node4 -->
<g id="edge28" class="edge"><title>Node18&#45;&gt;Node4</title>
<path fill="none" stroke="midnightblue" d="M575.113,-389.92C640.767,-383.642 740.626,-370.047 767.5,-344 794.208,-318.114 786.5,-299.694 786.5,-262.5 786.5,-262.5 786.5,-262.5 786.5,-132 786.5,-21.5069 604.975,-10.1115 529.159,-10.1707"/>
<polygon fill="midnightblue" stroke="midnightblue" points="528.746,-6.67371 518.774,-10.2521 528.801,-13.6735 528.746,-6.67371"/>
</g>
<!-- Node18&#45;&gt;Node5 -->
<g id="edge30" class="edge"><title>Node18&#45;&gt;Node5</title>
<path fill="none" stroke="midnightblue" d="M511.601,-380.308C506.179,-362.74 494.899,-332.733 476.5,-313 432.301,-265.595 364.56,-232.172 318.715,-213.392"/>
<polygon fill="midnightblue" stroke="midnightblue" points="319.865,-210.083 309.281,-209.607 317.259,-216.579 319.865,-210.083"/>
</g>
<!-- Node18&#45;&gt;Node15 -->
<g id="edge29" class="edge"><title>Node18&#45;&gt;Node15</title>
<path fill="none" stroke="midnightblue" d="M496.188,-380.396C481.54,-369.697 461.461,-355.033 446.618,-344.193"/>
<polygon fill="midnightblue" stroke="midnightblue" points="448.288,-341.078 438.148,-338.007 444.159,-346.731 448.288,-341.078"/>
</g>
<!-- Node19 -->
<g id="node20" class="node"><title>Node19</title>
<polygon fill="white" stroke="#bfbfbf" points="563,-319 563,-338 700,-338 700,-319 563,-319"/>
<text text-anchor="middle" x="631.5" y="-326" font-family="Helvetica,sans-Serif" font-size="10.00">boost/heap/d_ary_heap.hpp</text>
</g>
<!-- Node18&#45;&gt;Node19 -->
<g id="edge25" class="edge"><title>Node18&#45;&gt;Node19</title>
<path fill="none" stroke="midnightblue" d="M540.67,-380.396C560.483,-369.294 587.918,-353.921 607.439,-342.983"/>
<polygon fill="midnightblue" stroke="midnightblue" points="609.305,-345.949 616.318,-338.007 605.884,-339.842 609.305,-345.949"/>
</g>
<!-- Node20 -->
<g id="node21" class="node"><title>Node20</title>
<polygon fill="white" stroke="#bfbfbf" points="718.5,-319 718.5,-338 758.5,-338 758.5,-319 718.5,-319"/>
<text text-anchor="middle" x="738.5" y="-326" font-family="Helvetica,sans-Serif" font-size="10.00">limits</text>
</g>
<!-- Node18&#45;&gt;Node20 -->
<g id="edge27" class="edge"><title>Node18&#45;&gt;Node20</title>
<path fill="none" stroke="midnightblue" d="M575.071,-382.387C613.97,-373.654 665.514,-360.514 709.5,-344 710.883,-343.481 712.288,-342.915 713.695,-342.319"/>
<polygon fill="midnightblue" stroke="midnightblue" points="715.213,-345.473 722.813,-338.09 712.268,-339.123 715.213,-345.473"/>
</g>
</g>
</svg>
        <g id="navigator" transform="translate(0 0)" fill="#404254">
                <rect fill="#f2f5e9" fill-opacity="0.5" stroke="#606060" stroke-width=".5" x="0" y="0" width="60" height="60"/>
                <use id="zoomplus" xlink:href="#zoomPlus" x="17" y="9" onmousedown="handleZoom(evt,'in')"/>
                <use id="zoomminus" xlink:href="#zoomMin" x="42" y="9" onmousedown="handleZoom(evt,'out')"/>
                <use id="reset" xlink:href="#resetDef" x="30" y="36" onmousedown="handleReset()"/>
                <g id="arrowUp" xlink:href="#dirArrow" transform="translate(30 24)" onmousedown="handlePan(0,-1)">
                  <use xlink:href="#rim" fill="#404040">
                        <set attributeName="fill" to="#808080" begin="arrowUp.mouseover" end="arrowUp.mouseout"/>
                  </use>
                  <path fill="none" stroke="white" stroke-width="1.5" d="M0,-3.0v7 M-2.5,-0.5L0,-3.0L2.5,-0.5"/>
                </g>
                <g id="arrowRight" xlink:href="#dirArrow" transform="rotate(90) translate(36 -43)" onmousedown="handlePan(1,0)">
                  <use xlink:href="#rim" fill="#404040">
                        <set attributeName="fill" to="#808080" begin="arrowRight.mouseover" end="arrowRight.mouseout"/>
                  </use>
                  <path fill="none" stroke="white" stroke-width="1.5" d="M0,-3.0v7 M-2.5,-0.5L0,-3.0L2.5,-0.5"/>
                </g>
                <g id="arrowDown" xlink:href="#dirArrow" transform="rotate(180) translate(-30 -48)" onmousedown="handlePan(0,1)">
                  <use xlink:href="#rim" fill="#404040">
                        <set attributeName="fill" to="#808080" begin="arrowDown.mouseover" end="arrowDown.mouseout"/>
                  </use>
                  <path fill="none" stroke="white" stroke-width="1.5" d="M0,-3.0v7 M-2.5,-0.5L0,-3.0L2.5,-0.5"/>
                </g>
                <g id="arrowLeft" xlink:href="#dirArrow" transform="rotate(270) translate(-36 17)" onmousedown="handlePan(-1,0)">
                  <use xlink:href="#rim" fill="#404040">
                        <set attributeName="fill" to="#808080" begin="arrowLeft.mouseover" end="arrowLeft.mouseout"/>
                  </use>
                  <path fill="none" stroke="white" stroke-width="1.5" d="M0,-3.0v7 M-2.5,-0.5L0,-3.0L2.5,-0.5"/>
                </g>
        </g>
        <svg viewBox="0 0 15 15" width="100%" height="30px" preserveAspectRatio="xMaxYMin meet">
         <g id="arrow_out" transform="scale(0.3 0.3)">
          <a xlink:href="mp__map__util_8h__incl_org.svg" target="_base">
           <rect id="button" ry="5" rx="5" y="6" x="6" height="38" width="38"
                fill="#f2f5e9" fill-opacity="0.5" stroke="#606060" stroke-width="1.0"/>
           <path id="arrow"
             d="M 11.500037,31.436501 C 11.940474,20.09759 22.043105,11.32322 32.158766,21.979434 L 37.068811,17.246167 C 37.068811,17.246167 37.088388,32 37.088388,32 L 22.160133,31.978069 C 22.160133,31.978069 26.997745,27.140456 26.997745,27.140456 C 18.528582,18.264221 13.291696,25.230495 11.500037,31.436501 z"
             style="fill:#404040;"/>
          </a>
         </g>
        </svg>
</svg>
