<?xml version="1.0" encoding="UTF-8" standalone="no"?>
<!DOCTYPE svg PUBLIC "-//W3C//DTD SVG 1.1//EN"
 "http://www.w3.org/Graphics/SVG/1.1/DTD/svg11.dtd">
<!-- Generated by graphviz version 2.38.0 (20140413.2041)
 -->
<!-- Title: include/motion_primitive_library/planner/mp_cloud_util.h Pages: 1 -->
<!--zoomable 620 -->
<svg id="main" version="1.1" xmlns="http://www.w3.org/2000/svg" xmlns:xlink="http://www.w3.org/1999/xlink" xml:space="preserve" onload="init(evt)">
<style type="text/css"><![CDATA[
.edge:hover path { stroke: red; }
.edge:hover polygon { stroke: red; fill: red; }
]]></style>
<script type="text/javascript"><![CDATA[
var edges = document.getElementsByTagName('g');
if (edges && edges.length) {
  for (var i=0;i<edges.length;i++) {
    if (edges[i].id.substr(0,4)=='edge') {
      edges[i].setAttribute('class','edge');
    }
  }
}
]]></script>
        <defs>
                <circle id="rim" cx="0" cy="0" r="7"/>
                <circle id="rim2" cx="0" cy="0" r="3.5"/>
                <g id="zoomPlus">
                        <use xlink:href="#rim" fill="#404040">
                                <set attributeName="fill" to="#808080" begin="zoomplus.mouseover" end="zoomplus.mouseout"/>
                        </use>
                        <path d="M-4,0h8M0,-4v8" fill="none" stroke="white" stroke-width="1.5" pointer-events="none"/>
                </g>
                <g id="zoomMin">
                        <use xlink:href="#rim" fill="#404040">
                                <set attributeName="fill" to="#808080" begin="zoomminus.mouseover" end="zoomminus.mouseout"/>
                        </use>
                        <path d="M-4,0h8" fill="none" stroke="white" stroke-width="1.5" pointer-events="none"/>
                </g>
                <g id="dirArrow">
                        <path fill="none" stroke="white" stroke-width="1.5" d="M0,-3.0v7 M-2.5,-0.5L0,-3.0L2.5,-0.5"/>
                </g>
               <g id="resetDef">
                       <use xlink:href="#rim2" fill="#404040">
                               <set attributeName="fill" to="#808080" begin="reset.mouseover" end="reset.mouseout"/>
                       </use>
               </g>
        </defs>

<script type="text/javascript">
var viewWidth = 1038;
var viewHeight = 620;
var sectionId = 'dynsection-0';
</script>
<script xlink:href="svgpan.js"/>
<svg id="graph" class="graph">
<g id="viewport">
<title>include/motion_primitive_library/planner/mp_cloud_util.h</title>
<polygon fill="white" stroke="none" points="-4,4 -4,-616 1033.88,-616 1033.88,4 -4,4"/>
<!-- Node0 -->
<g id="node1" class="node"><title>Node0</title>
<polygon fill="#bfbfbf" stroke="black" points="313.883,-581.5 313.883,-611.5 467.883,-611.5 467.883,-581.5 313.883,-581.5"/>
<text text-anchor="start" x="321.883" y="-599.5" font-family="Helvetica,sans-Serif" font-size="10.00">include/motion_primitive</text>
<text text-anchor="middle" x="390.883" y="-588.5" font-family="Helvetica,sans-Serif" font-size="10.00">_library/planner/mp_cloud_util.h</text>
</g>
<!-- Node1 -->
<g id="node2" class="node"><title>Node1</title>
<g id="a_node2"><a xlink:href="env__cloud_8h.html" target="_top" xlink:title="motion_primitive_library\l/planner/env_cloud.h">
<polygon fill="white" stroke="black" points="216.383,-447.5 216.383,-477.5 335.383,-477.5 335.383,-447.5 216.383,-447.5"/>
<text text-anchor="start" x="224.383" y="-465.5" font-family="Helvetica,sans-Serif" font-size="10.00">motion_primitive_library</text>
<text text-anchor="middle" x="275.883" y="-454.5" font-family="Helvetica,sans-Serif" font-size="10.00">/planner/env_cloud.h</text>
</a>
</g>
</g>
<!-- Node0&#45;&gt;Node1 -->
<g id="edge1" class="edge"><title>Node0&#45;&gt;Node1</title>
<path fill="none" stroke="midnightblue" d="M378.576,-581.374C358.517,-558.349 318.635,-512.572 294.907,-485.336"/>
<polygon fill="midnightblue" stroke="midnightblue" points="297.309,-482.766 288.101,-477.525 292.031,-487.364 297.309,-482.766"/>
</g>
<!-- Node18 -->
<g id="node19" class="node"><title>Node18</title>
<g id="a_node19"><a xlink:href="mp__base__util_8h.html" target="_top" xlink:title="base class for motion planning ">
<polygon fill="white" stroke="black" points="398.883,-514.5 398.883,-544.5 518.883,-544.5 518.883,-514.5 398.883,-514.5"/>
<text text-anchor="start" x="406.883" y="-532.5" font-family="Helvetica,sans-Serif" font-size="10.00">motion_primitive_library</text>
<text text-anchor="middle" x="458.883" y="-521.5" font-family="Helvetica,sans-Serif" font-size="10.00">/planner/mp_base_util.h</text>
</a>
</g>
</g>
<!-- Node0&#45;&gt;Node18 -->
<g id="edge26" class="edge"><title>Node0&#45;&gt;Node18</title>
<path fill="none" stroke="midnightblue" d="M405.638,-581.396C414.727,-572.708 426.552,-561.405 436.749,-551.658"/>
<polygon fill="midnightblue" stroke="midnightblue" points="439.346,-554.016 444.157,-544.577 434.509,-548.956 439.346,-554.016"/>
</g>
<!-- Node2 -->
<g id="node3" class="node"><title>Node2</title>
<g id="a_node3"><a xlink:href="env__base_8h.html" target="_top" xlink:title="environment base class ">
<polygon fill="white" stroke="black" points="488.383,-313.5 488.383,-343.5 607.383,-343.5 607.383,-313.5 488.383,-313.5"/>
<text text-anchor="start" x="496.383" y="-331.5" font-family="Helvetica,sans-Serif" font-size="10.00">motion_primitive_library</text>
<text text-anchor="middle" x="547.883" y="-320.5" font-family="Helvetica,sans-Serif" font-size="10.00">/planner/env_base.h</text>
</a>
</g>
</g>
<!-- Node1&#45;&gt;Node2 -->
<g id="edge2" class="edge"><title>Node1&#45;&gt;Node2</title>
<path fill="none" stroke="midnightblue" d="M304.734,-447.499C354.106,-423.539 454.786,-374.679 509.84,-347.962"/>
<polygon fill="midnightblue" stroke="midnightblue" points="511.449,-351.071 518.918,-343.556 508.393,-344.774 511.449,-351.071"/>
</g>
<!-- Node5 -->
<g id="node6" class="node"><title>Node5</title>
<g id="a_node6"><a xlink:href="primitive_8h.html" target="_top" xlink:title="Primitive classes. ">
<polygon fill="white" stroke="black" points="402.383,-179.5 402.383,-209.5 521.383,-209.5 521.383,-179.5 402.383,-179.5"/>
<text text-anchor="start" x="410.383" y="-197.5" font-family="Helvetica,sans-Serif" font-size="10.00">motion_primitive_library</text>
<text text-anchor="middle" x="461.883" y="-186.5" font-family="Helvetica,sans-Serif" font-size="10.00">/primitive/primitive.h</text>
</a>
</g>
</g>
<!-- Node1&#45;&gt;Node5 -->
<g id="edge18" class="edge"><title>Node1&#45;&gt;Node5</title>
<path fill="none" stroke="midnightblue" d="M216.071,-454.646C125.642,-441.249 -31.5966,-404.454 5.88275,-313 21.7333,-274.323 34.4443,-264.588 71.8827,-246 126.606,-218.83 295.44,-204.967 392.078,-199.085"/>
<polygon fill="midnightblue" stroke="midnightblue" points="392.571,-202.562 402.345,-198.473 392.155,-195.574 392.571,-202.562"/>
</g>
<!-- Node14 -->
<g id="node15" class="node"><title>Node14</title>
<g id="a_node15"><a xlink:href="decomp__util_8h.html" target="_top" xlink:title="decomp util util class ">
<polygon fill="white" stroke="black" points="149.383,-380.5 149.383,-410.5 312.383,-410.5 312.383,-380.5 149.383,-380.5"/>
<text text-anchor="start" x="157.383" y="-398.5" font-family="Helvetica,sans-Serif" font-size="10.00">motion_primitive_library</text>
<text text-anchor="middle" x="230.883" y="-387.5" font-family="Helvetica,sans-Serif" font-size="10.00">/collision_checking/decomp_util.h</text>
</a>
</g>
</g>
<!-- Node1&#45;&gt;Node14 -->
<g id="edge19" class="edge"><title>Node1&#45;&gt;Node14</title>
<path fill="none" stroke="midnightblue" d="M266.118,-447.396C260.339,-439.049 252.889,-428.287 246.329,-418.811"/>
<polygon fill="midnightblue" stroke="midnightblue" points="249.198,-416.806 240.628,-410.577 243.442,-420.791 249.198,-416.806"/>
</g>
<!-- Node3 -->
<g id="node4" class="node"><title>Node3</title>
<polygon fill="white" stroke="#bfbfbf" points="559.883,-123.5 559.883,-142.5 611.883,-142.5 611.883,-123.5 559.883,-123.5"/>
<text text-anchor="middle" x="585.883" y="-130.5" font-family="Helvetica,sans-Serif" font-size="10.00">memory</text>
</g>
<!-- Node2&#45;&gt;Node3 -->
<g id="edge3" class="edge"><title>Node2&#45;&gt;Node3</title>
<path fill="none" stroke="midnightblue" d="M550.677,-313.271C557.447,-278.796 574.726,-190.812 582.269,-152.403"/>
<polygon fill="midnightblue" stroke="midnightblue" points="585.706,-153.064 584.198,-142.577 578.837,-151.715 585.706,-153.064"/>
</g>
<!-- Node4 -->
<g id="node5" class="node"><title>Node4</title>
<polygon fill="white" stroke="#bfbfbf" points="849.883,-0.5 849.883,-19.5 893.883,-19.5 893.883,-0.5 849.883,-0.5"/>
<text text-anchor="middle" x="871.883" y="-7.5" font-family="Helvetica,sans-Serif" font-size="10.00">vector</text>
</g>
<!-- Node2&#45;&gt;Node4 -->
<g id="edge4" class="edge"><title>Node2&#45;&gt;Node4</title>
<path fill="none" stroke="midnightblue" d="M607.687,-315.879C701.305,-295.955 871.883,-251.911 871.883,-195.5 871.883,-195.5 871.883,-195.5 871.883,-132 871.883,-95.7138 871.883,-53.3066 871.883,-29.559"/>
<polygon fill="midnightblue" stroke="midnightblue" points="875.383,-29.5085 871.883,-19.5085 868.383,-29.5086 875.383,-29.5085"/>
</g>
<!-- Node2&#45;&gt;Node5 -->
<g id="edge5" class="edge"><title>Node2&#45;&gt;Node5</title>
<path fill="none" stroke="midnightblue" d="M547.242,-313.408C545.861,-296.21 541.518,-266.85 527.883,-246 519.954,-233.876 508.092,-223.494 496.602,-215.352"/>
<polygon fill="midnightblue" stroke="midnightblue" points="498.217,-212.222 487.959,-209.572 494.325,-218.04 498.217,-212.222"/>
</g>
<!-- Node13 -->
<g id="node14" class="node"><title>Node13</title>
<g id="a_node14"><a xlink:href="trajectory_8h.html" target="_top" xlink:title="Trajectory class. ">
<polygon fill="white" stroke="black" points="400.383,-246.5 400.383,-276.5 519.383,-276.5 519.383,-246.5 400.383,-246.5"/>
<text text-anchor="start" x="408.383" y="-264.5" font-family="Helvetica,sans-Serif" font-size="10.00">motion_primitive_library</text>
<text text-anchor="middle" x="459.883" y="-253.5" font-family="Helvetica,sans-Serif" font-size="10.00">/primitive/trajectory.h</text>
</a>
</g>
</g>
<!-- Node2&#45;&gt;Node13 -->
<g id="edge16" class="edge"><title>Node2&#45;&gt;Node13</title>
<path fill="none" stroke="midnightblue" d="M528.788,-313.396C516.564,-304.367 500.517,-292.514 486.985,-282.518"/>
<polygon fill="midnightblue" stroke="midnightblue" points="489.063,-279.703 478.94,-276.577 484.904,-285.333 489.063,-279.703"/>
</g>
<!-- Node5&#45;&gt;Node3 -->
<g id="edge6" class="edge"><title>Node5&#45;&gt;Node3</title>
<path fill="none" stroke="midnightblue" d="M491.269,-179.399C511.703,-169.595 538.743,-156.619 558.682,-147.052"/>
<polygon fill="midnightblue" stroke="midnightblue" points="560.338,-150.139 567.84,-142.658 557.31,-143.828 560.338,-150.139"/>
</g>
<!-- Node6 -->
<g id="node7" class="node"><title>Node6</title>
<g id="a_node7"><a xlink:href="data__type_8h.html" target="_top" xlink:title="Defines all data types used in this lib. ">
<polygon fill="white" stroke="black" points="402.383,-56.5 402.383,-86.5 521.383,-86.5 521.383,-56.5 402.383,-56.5"/>
<text text-anchor="start" x="410.383" y="-74.5" font-family="Helvetica,sans-Serif" font-size="10.00">motion_primitive_library</text>
<text text-anchor="middle" x="461.883" y="-63.5" font-family="Helvetica,sans-Serif" font-size="10.00">/common/data_type.h</text>
</a>
</g>
</g>
<!-- Node5&#45;&gt;Node6 -->
<g id="edge7" class="edge"><title>Node5&#45;&gt;Node6</title>
<path fill="none" stroke="midnightblue" d="M461.883,-179.145C461.883,-158.859 461.883,-121.533 461.883,-96.8617"/>
<polygon fill="midnightblue" stroke="midnightblue" points="465.383,-96.8367 461.883,-86.8368 458.383,-96.8368 465.383,-96.8367"/>
</g>
<!-- Node10 -->
<g id="node11" class="node"><title>Node10</title>
<g id="a_node11"><a xlink:href="math_8h.html" target="_top" xlink:title="Polynomial roots solver. ">
<polygon fill="white" stroke="black" points="493.383,-123.5 493.383,-142.5 540.383,-142.5 540.383,-123.5 493.383,-123.5"/>
<text text-anchor="middle" x="516.883" y="-130.5" font-family="Helvetica,sans-Serif" font-size="10.00">math.h</text>
</a>
</g>
</g>
<!-- Node5&#45;&gt;Node10 -->
<g id="edge12" class="edge"><title>Node5&#45;&gt;Node10</title>
<path fill="none" stroke="midnightblue" d="M474.917,-179.399C483.074,-170.575 493.605,-159.183 502.076,-150.018"/>
<polygon fill="midnightblue" stroke="midnightblue" points="504.662,-152.377 508.88,-142.658 499.522,-147.625 504.662,-152.377"/>
</g>
<!-- Node6&#45;&gt;Node4 -->
<g id="edge9" class="edge"><title>Node6&#45;&gt;Node4</title>
<path fill="none" stroke="midnightblue" d="M521.669,-57.6464C524.781,-57.0681 527.866,-56.5152 530.883,-56 643.883,-36.6995 779.166,-21.0402 839.767,-14.4146"/>
<polygon fill="midnightblue" stroke="midnightblue" points="840.29,-17.8785 849.854,-13.3201 839.535,-10.9194 840.29,-17.8785"/>
</g>
<!-- Node7 -->
<g id="node8" class="node"><title>Node7</title>
<polygon fill="white" stroke="#bfbfbf" points="353.883,-0.5 353.883,-19.5 399.883,-19.5 399.883,-0.5 353.883,-0.5"/>
<text text-anchor="middle" x="376.883" y="-7.5" font-family="Helvetica,sans-Serif" font-size="10.00">stdio.h</text>
</g>
<!-- Node6&#45;&gt;Node7 -->
<g id="edge8" class="edge"><title>Node6&#45;&gt;Node7</title>
<path fill="none" stroke="midnightblue" d="M441.739,-56.3993C428.496,-47.1293 411.205,-35.0254 397.807,-25.6469"/>
<polygon fill="midnightblue" stroke="midnightblue" points="399.45,-22.5251 389.251,-19.6578 395.436,-28.2598 399.45,-22.5251"/>
</g>
<!-- Node8 -->
<g id="node9" class="node"><title>Node8</title>
<polygon fill="white" stroke="#bfbfbf" points="418.383,-0.5 418.383,-19.5 505.383,-19.5 505.383,-0.5 418.383,-0.5"/>
<text text-anchor="middle" x="461.883" y="-7.5" font-family="Helvetica,sans-Serif" font-size="10.00">Eigen/Geometry</text>
</g>
<!-- Node6&#45;&gt;Node8 -->
<g id="edge10" class="edge"><title>Node6&#45;&gt;Node8</title>
<path fill="none" stroke="midnightblue" d="M461.883,-56.3993C461.883,-48.4664 461.883,-38.458 461.883,-29.8583"/>
<polygon fill="midnightblue" stroke="midnightblue" points="465.383,-29.6577 461.883,-19.6578 458.383,-29.6578 465.383,-29.6577"/>
</g>
<!-- Node9 -->
<g id="node10" class="node"><title>Node9</title>
<polygon fill="white" stroke="#bfbfbf" points="523.883,-0.5 523.883,-19.5 611.883,-19.5 611.883,-0.5 523.883,-0.5"/>
<text text-anchor="middle" x="567.883" y="-7.5" font-family="Helvetica,sans-Serif" font-size="10.00">Eigen/StdVector</text>
</g>
<!-- Node6&#45;&gt;Node9 -->
<g id="edge11" class="edge"><title>Node6&#45;&gt;Node9</title>
<path fill="none" stroke="midnightblue" d="M487.003,-56.3993C504.153,-46.7728 526.747,-34.0902 543.695,-24.5772"/>
<polygon fill="midnightblue" stroke="midnightblue" points="545.452,-27.6047 552.459,-19.6578 542.025,-21.5006 545.452,-27.6047"/>
</g>
<!-- Node10&#45;&gt;Node6 -->
<g id="edge13" class="edge"><title>Node10&#45;&gt;Node6</title>
<path fill="none" stroke="midnightblue" d="M509.003,-123.475C501.902,-115.793 491.159,-104.172 481.724,-93.9643"/>
<polygon fill="midnightblue" stroke="midnightblue" points="484.203,-91.4905 474.845,-86.523 479.063,-96.2421 484.203,-91.4905"/>
</g>
<!-- Node11 -->
<g id="node12" class="node"><title>Node11</title>
<polygon fill="white" stroke="#bfbfbf" points="611.883,-62 611.883,-81 765.883,-81 765.883,-62 611.883,-62"/>
<text text-anchor="middle" x="688.883" y="-69" font-family="Helvetica,sans-Serif" font-size="10.00">unsupported/Eigen/Polynomials</text>
</g>
<!-- Node10&#45;&gt;Node11 -->
<g id="edge14" class="edge"><title>Node10&#45;&gt;Node11</title>
<path fill="none" stroke="midnightblue" d="M540.438,-123.852C569.998,-113.626 620.912,-96.013 654.741,-84.3106"/>
<polygon fill="midnightblue" stroke="midnightblue" points="655.917,-87.6076 664.223,-81.0306 653.628,-80.9922 655.917,-87.6076"/>
</g>
<!-- Node12 -->
<g id="node13" class="node"><title>Node12</title>
<polygon fill="white" stroke="#bfbfbf" points="539.883,-62 539.883,-81 593.883,-81 593.883,-62 539.883,-62"/>
<text text-anchor="middle" x="566.883" y="-69" font-family="Helvetica,sans-Serif" font-size="10.00">iostream</text>
</g>
<!-- Node10&#45;&gt;Node12 -->
<g id="edge15" class="edge"><title>Node10&#45;&gt;Node12</title>
<path fill="none" stroke="midnightblue" d="M524.047,-123.475C531.621,-114.462 543.753,-100.025 553.175,-88.8118"/>
<polygon fill="midnightblue" stroke="midnightblue" points="555.978,-90.9166 559.732,-81.0091 550.619,-86.4132 555.978,-90.9166"/>
</g>
<!-- Node13&#45;&gt;Node5 -->
<g id="edge17" class="edge"><title>Node13&#45;&gt;Node5</title>
<path fill="none" stroke="midnightblue" d="M460.317,-246.396C460.555,-238.645 460.858,-228.812 461.133,-219.86"/>
<polygon fill="midnightblue" stroke="midnightblue" points="464.64,-219.679 461.45,-209.577 457.644,-219.464 464.64,-219.679"/>
</g>
<!-- Node14&#45;&gt;Node5 -->
<g id="edge20" class="edge"><title>Node14&#45;&gt;Node5</title>
<path fill="none" stroke="midnightblue" d="M149.323,-389.981C74.2946,-382.64 -19.8883,-363.395 18.8827,-313 64.2136,-254.078 279.393,-218.571 392.317,-203.689"/>
<polygon fill="midnightblue" stroke="midnightblue" points="392.789,-207.157 402.255,-202.398 391.887,-200.215 392.789,-207.157"/>
</g>
<!-- Node15 -->
<g id="node16" class="node"><title>Node15</title>
<g id="a_node16"><a xlink:href="primitive__util_8h.html" target="_top" xlink:title="Simple primitive utils. ">
<polygon fill="white" stroke="black" points="309.883,-313.5 309.883,-343.5 431.883,-343.5 431.883,-313.5 309.883,-313.5"/>
<text text-anchor="start" x="317.883" y="-331.5" font-family="Helvetica,sans-Serif" font-size="10.00">motion_primitive_library</text>
<text text-anchor="middle" x="370.883" y="-320.5" font-family="Helvetica,sans-Serif" font-size="10.00">/primitive/primitive_util.h</text>
</a>
</g>
</g>
<!-- Node14&#45;&gt;Node15 -->
<g id="edge21" class="edge"><title>Node14&#45;&gt;Node15</title>
<path fill="none" stroke="midnightblue" d="M261.261,-380.396C281.808,-370.856 309.147,-358.163 331.382,-347.84"/>
<polygon fill="midnightblue" stroke="midnightblue" points="332.968,-350.962 340.564,-343.577 330.02,-344.613 332.968,-350.962"/>
</g>
<!-- Node16 -->
<g id="node17" class="node"><title>Node16</title>
<polygon fill="white" stroke="#bfbfbf" points="27.8827,-319 27.8827,-338 151.883,-338 151.883,-319 27.8827,-319"/>
<text text-anchor="middle" x="89.8827" y="-326" font-family="Helvetica,sans-Serif" font-size="10.00">pcl/kdtree/kdtree_flann.h</text>
</g>
<!-- Node14&#45;&gt;Node16 -->
<g id="edge24" class="edge"><title>Node14&#45;&gt;Node16</title>
<path fill="none" stroke="midnightblue" d="M200.288,-380.396C175.657,-369.041 141.337,-353.22 117.527,-342.244"/>
<polygon fill="midnightblue" stroke="midnightblue" points="118.883,-339.015 108.336,-338.007 115.953,-345.372 118.883,-339.015"/>
</g>
<!-- Node17 -->
<g id="node18" class="node"><title>Node17</title>
<polygon fill="white" stroke="#bfbfbf" points="170.383,-319 170.383,-338 291.383,-338 291.383,-319 170.383,-319"/>
<text text-anchor="middle" x="230.883" y="-326" font-family="Helvetica,sans-Serif" font-size="10.00">boost/make_shared.hpp</text>
</g>
<!-- Node14&#45;&gt;Node17 -->
<g id="edge25" class="edge"><title>Node14&#45;&gt;Node17</title>
<path fill="none" stroke="midnightblue" d="M230.883,-380.396C230.883,-371.064 230.883,-358.714 230.883,-348.517"/>
<polygon fill="midnightblue" stroke="midnightblue" points="234.383,-348.195 230.883,-338.195 227.383,-348.195 234.383,-348.195"/>
</g>
<!-- Node15&#45;&gt;Node5 -->
<g id="edge22" class="edge"><title>Node15&#45;&gt;Node5</title>
<path fill="none" stroke="midnightblue" d="M371.404,-313.328C372.664,-296.05 376.886,-266.61 390.883,-246 399.363,-233.514 412.018,-223.089 424.307,-215.016"/>
<polygon fill="midnightblue" stroke="midnightblue" points="426.464,-217.797 433.124,-209.557 422.78,-211.845 426.464,-217.797"/>
</g>
<!-- Node15&#45;&gt;Node13 -->
<g id="edge23" class="edge"><title>Node15&#45;&gt;Node13</title>
<path fill="none" stroke="midnightblue" d="M390.194,-313.396C402.557,-304.367 418.787,-292.514 432.473,-282.518"/>
<polygon fill="midnightblue" stroke="midnightblue" points="434.597,-285.301 440.609,-276.577 430.469,-279.648 434.597,-285.301"/>
</g>
<!-- Node18&#45;&gt;Node2 -->
<g id="edge37" class="edge"><title>Node18&#45;&gt;Node2</title>
<path fill="none" stroke="midnightblue" d="M487.847,-514.48C502.258,-505.965 518.551,-493.694 527.883,-478 550.854,-439.366 551.928,-385.237 550.199,-354.127"/>
<polygon fill="midnightblue" stroke="midnightblue" points="553.664,-353.508 549.47,-343.779 546.681,-354 553.664,-353.508"/>
</g>
<!-- Node19 -->
<g id="node20" class="node"><title>Node19</title>
<g id="a_node20"><a xlink:href="graph__search_8h.html" target="_top" xlink:title="backend of graph search, implemetation of A* and Lifelong Planning A* ">
<polygon fill="white" stroke="black" points="398.383,-447.5 398.383,-477.5 519.383,-477.5 519.383,-447.5 398.383,-447.5"/>
<text text-anchor="start" x="406.383" y="-465.5" font-family="Helvetica,sans-Serif" font-size="10.00">motion_primitive_library</text>
<text text-anchor="middle" x="458.883" y="-454.5" font-family="Helvetica,sans-Serif" font-size="10.00">/planner/graph_search.h</text>
</a>
</g>
</g>
<!-- Node18&#45;&gt;Node19 -->
<g id="edge27" class="edge"><title>Node18&#45;&gt;Node19</title>
<path fill="none" stroke="midnightblue" d="M458.883,-514.396C458.883,-506.645 458.883,-496.812 458.883,-487.86"/>
<polygon fill="midnightblue" stroke="midnightblue" points="462.383,-487.576 458.883,-477.577 455.383,-487.577 462.383,-487.576"/>
</g>
<!-- Node19&#45;&gt;Node13 -->
<g id="edge36" class="edge"><title>Node19&#45;&gt;Node13</title>
<path fill="none" stroke="midnightblue" d="M458.955,-447.188C459.124,-413.483 459.55,-328.798 459.76,-286.84"/>
<polygon fill="midnightblue" stroke="midnightblue" points="463.261,-286.699 459.811,-276.682 456.261,-286.664 463.261,-286.699"/>
</g>
<!-- Node20 -->
<g id="node21" class="node"><title>Node20</title>
<g id="a_node21"><a xlink:href="state__space_8h.html" target="_top" xlink:title="state space class for graph search ">
<polygon fill="white" stroke="black" points="664.383,-380.5 664.383,-410.5 783.383,-410.5 783.383,-380.5 664.383,-380.5"/>
<text text-anchor="start" x="672.383" y="-398.5" font-family="Helvetica,sans-Serif" font-size="10.00">motion_primitive_library</text>
<text text-anchor="middle" x="723.883" y="-387.5" font-family="Helvetica,sans-Serif" font-size="10.00">/planner/state_space.h</text>
</a>
</g>
</g>
<!-- Node19&#45;&gt;Node20 -->
<g id="edge28" class="edge"><title>Node19&#45;&gt;Node20</title>
<path fill="none" stroke="midnightblue" d="M516.058,-447.476C557.276,-437.366 613.057,-423.684 656.451,-413.04"/>
<polygon fill="midnightblue" stroke="midnightblue" points="657.475,-416.392 666.354,-410.611 655.808,-409.594 657.475,-416.392"/>
</g>
<!-- Node20&#45;&gt;Node2 -->
<g id="edge35" class="edge"><title>Node20&#45;&gt;Node2</title>
<path fill="none" stroke="midnightblue" d="M685.693,-380.396C659.286,-370.643 623.955,-357.595 595.679,-347.152"/>
<polygon fill="midnightblue" stroke="midnightblue" points="596.591,-343.758 585.998,-343.577 594.166,-350.324 596.591,-343.758"/>
</g>
<!-- Node20&#45;&gt;Node3 -->
<g id="edge30" class="edge"><title>Node20&#45;&gt;Node3</title>
<path fill="none" stroke="midnightblue" d="M769.067,-380.339C786.234,-372.509 804.015,-360.853 813.883,-344 820.845,-332.111 819.908,-325.39 813.883,-313 772.326,-227.54 668.025,-170.763 616.153,-146.852"/>
<polygon fill="midnightblue" stroke="midnightblue" points="617.362,-143.559 606.807,-142.64 614.486,-149.94 617.362,-143.559"/>
</g>
<!-- Node20&#45;&gt;Node4 -->
<g id="edge32" class="edge"><title>Node20&#45;&gt;Node4</title>
<path fill="none" stroke="midnightblue" d="M783.425,-391.51C857.237,-386.559 977.197,-374.029 1008.88,-344 1035.88,-318.415 1027.88,-299.694 1027.88,-262.5 1027.88,-262.5 1027.88,-262.5 1027.88,-132 1027.88,-69.7032 949.248,-34.8729 903.637,-19.9097"/>
<polygon fill="midnightblue" stroke="midnightblue" points="904.492,-16.5098 893.903,-16.8523 902.394,-23.1881 904.492,-16.5098"/>
</g>
<!-- Node20&#45;&gt;Node5 -->
<g id="edge34" class="edge"><title>Node20&#45;&gt;Node5</title>
<path fill="none" stroke="midnightblue" d="M703.191,-380.29C689.238,-370.484 670.581,-356.93 654.883,-344 605.359,-303.209 600.496,-284.113 548.883,-246 533.146,-234.379 514.523,-223.259 498.554,-214.427"/>
<polygon fill="midnightblue" stroke="midnightblue" points="499.957,-211.206 489.5,-209.504 496.614,-217.356 499.957,-211.206"/>
</g>
<!-- Node21 -->
<g id="node22" class="node"><title>Node21</title>
<polygon fill="white" stroke="#bfbfbf" points="862.383,-319 862.383,-338 999.383,-338 999.383,-319 862.383,-319"/>
<text text-anchor="middle" x="930.883" y="-326" font-family="Helvetica,sans-Serif" font-size="10.00">boost/heap/d_ary_heap.hpp</text>
</g>
<!-- Node20&#45;&gt;Node21 -->
<g id="edge29" class="edge"><title>Node20&#45;&gt;Node21</title>
<path fill="none" stroke="midnightblue" d="M768.544,-380.476C805.972,-368.723 858.772,-352.143 893.876,-341.12"/>
<polygon fill="midnightblue" stroke="midnightblue" points="895.23,-344.364 903.722,-338.029 893.133,-337.685 895.23,-344.364"/>
</g>
<!-- Node22 -->
<g id="node23" class="node"><title>Node22</title>
<polygon fill="white" stroke="#bfbfbf" points="663.883,-319 663.883,-338 703.883,-338 703.883,-319 663.883,-319"/>
<text text-anchor="middle" x="683.883" y="-326" font-family="Helvetica,sans-Serif" font-size="10.00">limits</text>
</g>
<!-- Node20&#45;&gt;Node22 -->
<g id="edge31" class="edge"><title>Node20&#45;&gt;Node22</title>
<path fill="none" stroke="midnightblue" d="M715.203,-380.396C709.152,-370.562 701.038,-357.378 694.586,-346.892"/>
<polygon fill="midnightblue" stroke="midnightblue" points="697.455,-344.877 689.233,-338.195 691.493,-348.545 697.455,-344.877"/>
</g>
<!-- Node23 -->
<g id="node24" class="node"><title>Node23</title>
<polygon fill="white" stroke="#bfbfbf" points="722.383,-319 722.383,-338 805.383,-338 805.383,-319 722.383,-319"/>
<text text-anchor="middle" x="763.883" y="-326" font-family="Helvetica,sans-Serif" font-size="10.00">unordered_map</text>
</g>
<!-- Node20&#45;&gt;Node23 -->
<g id="edge33" class="edge"><title>Node20&#45;&gt;Node23</title>
<path fill="none" stroke="midnightblue" d="M732.562,-380.396C738.614,-370.562 746.727,-357.378 753.18,-346.892"/>
<polygon fill="midnightblue" stroke="midnightblue" points="756.272,-348.545 758.532,-338.195 750.31,-344.877 756.272,-348.545"/>
</g>
</g>
</svg>
        <g id="navigator" transform="translate(0 0)" fill="#404254">
                <rect fill="#f2f5e9" fill-opacity="0.5" stroke="#606060" stroke-width=".5" x="0" y="0" width="60" height="60"/>
                <use id="zoomplus" xlink:href="#zoomPlus" x="17" y="9" onmousedown="handleZoom(evt,'in')"/>
                <use id="zoomminus" xlink:href="#zoomMin" x="42" y="9" onmousedown="handleZoom(evt,'out')"/>
                <use id="reset" xlink:href="#resetDef" x="30" y="36" onmousedown="handleReset()"/>
                <g id="arrowUp" xlink:href="#dirArrow" transform="translate(30 24)" onmousedown="handlePan(0,-1)">
                  <use xlink:href="#rim" fill="#404040">
                        <set attributeName="fill" to="#808080" begin="arrowUp.mouseover" end="arrowUp.mouseout"/>
                  </use>
                  <path fill="none" stroke="white" stroke-width="1.5" d="M0,-3.0v7 M-2.5,-0.5L0,-3.0L2.5,-0.5"/>
                </g>
                <g id="arrowRight" xlink:href="#dirArrow" transform="rotate(90) translate(36 -43)" onmousedown="handlePan(1,0)">
                  <use xlink:href="#rim" fill="#404040">
                        <set attributeName="fill" to="#808080" begin="arrowRight.mouseover" end="arrowRight.mouseout"/>
                  </use>
                  <path fill="none" stroke="white" stroke-width="1.5" d="M0,-3.0v7 M-2.5,-0.5L0,-3.0L2.5,-0.5"/>
                </g>
                <g id="arrowDown" xlink:href="#dirArrow" transform="rotate(180) translate(-30 -48)" onmousedown="handlePan(0,1)">
                  <use xlink:href="#rim" fill="#404040">
                        <set attributeName="fill" to="#808080" begin="arrowDown.mouseover" end="arrowDown.mouseout"/>
                  </use>
                  <path fill="none" stroke="white" stroke-width="1.5" d="M0,-3.0v7 M-2.5,-0.5L0,-3.0L2.5,-0.5"/>
                </g>
                <g id="arrowLeft" xlink:href="#dirArrow" transform="rotate(270) translate(-36 17)" onmousedown="handlePan(-1,0)">
                  <use xlink:href="#rim" fill="#404040">
                        <set attributeName="fill" to="#808080" begin="arrowLeft.mouseover" end="arrowLeft.mouseout"/>
                  </use>
                  <path fill="none" stroke="white" stroke-width="1.5" d="M0,-3.0v7 M-2.5,-0.5L0,-3.0L2.5,-0.5"/>
                </g>
        </g>
        <svg viewBox="0 0 15 15" width="100%" height="30px" preserveAspectRatio="xMaxYMin meet">
         <g id="arrow_out" transform="scale(0.3 0.3)">
          <a xlink:href="mp__cloud__util_8h__incl_org.svg" target="_base">
           <rect id="button" ry="5" rx="5" y="6" x="6" height="38" width="38"
                fill="#f2f5e9" fill-opacity="0.5" stroke="#606060" stroke-width="1.0"/>
           <path id="arrow"
             d="M 11.500037,31.436501 C 11.940474,20.09759 22.043105,11.32322 32.158766,21.979434 L 37.068811,17.246167 C 37.068811,17.246167 37.088388,32 37.088388,32 L 22.160133,31.978069 C 22.160133,31.978069 26.997745,27.140456 26.997745,27.140456 C 18.528582,18.264221 13.291696,25.230495 11.500037,31.436501 z"
             style="fill:#404040;"/>
          </a>
         </g>
        </svg>
</svg>
