<?xml version="1.0" encoding="UTF-8" standalone="no"?>
<!DOCTYPE svg PUBLIC "-//W3C//DTD SVG 1.1//EN"
 "http://www.w3.org/Graphics/SVG/1.1/DTD/svg11.dtd">
<!-- Generated by graphviz version 2.38.0 (20140413.2041)
 -->
<!-- Title: include/motion_primitive_library/primitive/poly_solver.h Pages: 1 -->
<svg width="130pt" height="117pt"
 viewBox="0.00 0.00 130.00 117.00" xmlns="http://www.w3.org/2000/svg" xmlns:xlink="http://www.w3.org/1999/xlink">
<g id="graph0" class="graph" transform="scale(1 1) rotate(0) translate(4 113)">
<title>include/motion_primitive_library/primitive/poly_solver.h</title>
<polygon fill="white" stroke="none" points="-4,4 -4,-113 126,-113 126,4 -4,4"/>
<!-- Node15 -->
<g id="node1" class="node"><title>Node15</title>
<polygon fill="#bfbfbf" stroke="black" points="0,-67.5 0,-108.5 122,-108.5 122,-67.5 0,-67.5"/>
<text text-anchor="start" x="8" y="-96.5" font-family="Helvetica,sans-Serif" font-size="10.00">include/motion_primitive</text>
<text text-anchor="start" x="8" y="-85.5" font-family="Helvetica,sans-Serif" font-size="10.00">_library/primitive/poly</text>
<text text-anchor="middle" x="61" y="-74.5" font-family="Helvetica,sans-Serif" font-size="10.00">_solver.h</text>
</g>
<!-- Node16 -->
<g id="node2" class="node"><title>Node16</title>
<polygon fill="white" stroke="#bfbfbf" points="15.5,-0.5 15.5,-30.5 106.5,-30.5 106.5,-0.5 15.5,-0.5"/>
<text text-anchor="start" x="23.5" y="-18.5" font-family="Helvetica,sans-Serif" font-size="10.00">src/primitive/poly</text>
<text text-anchor="middle" x="61" y="-7.5" font-family="Helvetica,sans-Serif" font-size="10.00">_solver.cpp</text>
</g>
<!-- Node15&#45;&gt;Node16 -->
<g id="edge1" class="edge"><title>Node15&#45;&gt;Node16</title>
<path fill="none" stroke="midnightblue" d="M61,-57.08C61,-48.0061 61,-38.4498 61,-30.8916"/>
<polygon fill="midnightblue" stroke="midnightblue" points="57.5001,-57.3618 61,-67.3618 64.5001,-57.3619 57.5001,-57.3618"/>
</g>
</g>
</svg>
