<?xml version="1.0" encoding="UTF-8" standalone="no"?>
<!DOCTYPE svg PUBLIC "-//W3C//DTD SVG 1.1//EN"
 "http://www.w3.org/Graphics/SVG/1.1/DTD/svg11.dtd">
<!-- Generated by graphviz version 2.38.0 (20140413.2041)
 -->
<!-- Title: include/motion_primitive_library/primitive/poly_solver.h Pages: 1 -->
<svg width="608pt" height="363pt"
 viewBox="0.00 0.00 607.50 363.00" xmlns="http://www.w3.org/2000/svg" xmlns:xlink="http://www.w3.org/1999/xlink">
<g id="graph0" class="graph" transform="scale(1 1) rotate(0) translate(4 359)">
<title>include/motion_primitive_library/primitive/poly_solver.h</title>
<polygon fill="white" stroke="none" points="-4,4 -4,-359 603.5,-359 603.5,4 -4,4"/>
<!-- Node0 -->
<g id="node1" class="node"><title>Node0</title>
<polygon fill="#bfbfbf" stroke="black" points="332,-313.5 332,-354.5 454,-354.5 454,-313.5 332,-313.5"/>
<text text-anchor="start" x="340" y="-342.5" font-family="Helvetica,sans-Serif" font-size="10.00">include/motion_primitive</text>
<text text-anchor="start" x="340" y="-331.5" font-family="Helvetica,sans-Serif" font-size="10.00">_library/primitive/poly</text>
<text text-anchor="middle" x="393" y="-320.5" font-family="Helvetica,sans-Serif" font-size="10.00">_solver.h</text>
</g>
<!-- Node1 -->
<g id="node2" class="node"><title>Node1</title>
<polygon fill="white" stroke="#bfbfbf" points="0,-0.5 0,-19.5 46,-19.5 46,-0.5 0,-0.5"/>
<text text-anchor="middle" x="23" y="-7.5" font-family="Helvetica,sans-Serif" font-size="10.00">stdio.h</text>
</g>
<!-- Node0&#45;&gt;Node1 -->
<g id="edge1" class="edge"><title>Node0&#45;&gt;Node1</title>
<path fill="none" stroke="midnightblue" d="M331.625,-323.927C223.643,-306.223 11,-262.813 11,-195.5 11,-195.5 11,-195.5 11,-132 11,-95.7172 16.4091,-53.612 19.9641,-29.8574"/>
<polygon fill="midnightblue" stroke="midnightblue" points="23.4536,-30.1946 21.5286,-19.7761 16.5364,-29.1211 23.4536,-30.1946"/>
</g>
<!-- Node2 -->
<g id="node3" class="node"><title>Node2</title>
<polygon fill="white" stroke="#bfbfbf" points="349,-62 349,-81 403,-81 403,-62 349,-62"/>
<text text-anchor="middle" x="376" y="-69" font-family="Helvetica,sans-Serif" font-size="10.00">iostream</text>
</g>
<!-- Node0&#45;&gt;Node2 -->
<g id="edge2" class="edge"><title>Node0&#45;&gt;Node2</title>
<path fill="none" stroke="midnightblue" d="M391.722,-313.42C388.555,-264.886 380.372,-139.491 377.242,-91.536"/>
<polygon fill="midnightblue" stroke="midnightblue" points="380.721,-91.0908 376.577,-81.34 373.736,-91.5467 380.721,-91.0908"/>
</g>
<!-- Node3 -->
<g id="node4" class="node"><title>Node3</title>
<polygon fill="white" stroke="#bfbfbf" points="293,-123.5 293,-142.5 345,-142.5 345,-123.5 293,-123.5"/>
<text text-anchor="middle" x="319" y="-130.5" font-family="Helvetica,sans-Serif" font-size="10.00">memory</text>
</g>
<!-- Node0&#45;&gt;Node3 -->
<g id="edge3" class="edge"><title>Node0&#45;&gt;Node3</title>
<path fill="none" stroke="midnightblue" d="M385.634,-313.192C371.26,-274.537 339.666,-189.576 325.777,-152.225"/>
<polygon fill="midnightblue" stroke="midnightblue" points="328.981,-150.8 322.215,-142.647 322.42,-153.24 328.981,-150.8"/>
</g>
<!-- Node4 -->
<g id="node5" class="node"><title>Node4</title>
<polygon fill="white" stroke="#bfbfbf" points="459.5,-252 459.5,-271 524.5,-271 524.5,-252 459.5,-252"/>
<text text-anchor="middle" x="492" y="-259" font-family="Helvetica,sans-Serif" font-size="10.00">Eigen/Core</text>
</g>
<!-- Node0&#45;&gt;Node4 -->
<g id="edge4" class="edge"><title>Node0&#45;&gt;Node4</title>
<path fill="none" stroke="midnightblue" d="M420.577,-313.362C436.686,-301.89 456.677,-287.654 471.409,-277.163"/>
<polygon fill="midnightblue" stroke="midnightblue" points="473.705,-279.825 479.82,-271.173 469.644,-274.123 473.705,-279.825"/>
</g>
<!-- Node5 -->
<g id="node6" class="node"><title>Node5</title>
<polygon fill="white" stroke="#bfbfbf" points="312,-0.5 312,-19.5 400,-19.5 400,-0.5 312,-0.5"/>
<text text-anchor="middle" x="356" y="-7.5" font-family="Helvetica,sans-Serif" font-size="10.00">Eigen/StdVector</text>
</g>
<!-- Node0&#45;&gt;Node5 -->
<g id="edge5" class="edge"><title>Node0&#45;&gt;Node5</title>
<path fill="none" stroke="midnightblue" d="M402.005,-313.431C413.243,-287.181 431,-238.841 431,-195.5 431,-195.5 431,-195.5 431,-132 431,-97.1827 430.772,-85.3235 412,-56 404.041,-43.5673 391.471,-33.0117 380.255,-25.2551"/>
<polygon fill="midnightblue" stroke="midnightblue" points="381.952,-22.1835 371.664,-19.6522 378.128,-28.0467 381.952,-22.1835"/>
</g>
<!-- Node6 -->
<g id="node7" class="node"><title>Node6</title>
<polygon fill="white" stroke="#bfbfbf" points="542.5,-252 542.5,-271 599.5,-271 599.5,-252 542.5,-252"/>
<text text-anchor="middle" x="571" y="-259" font-family="Helvetica,sans-Serif" font-size="10.00">Eigen/LU</text>
</g>
<!-- Node0&#45;&gt;Node6 -->
<g id="edge6" class="edge"><title>Node0&#45;&gt;Node6</title>
<path fill="none" stroke="midnightblue" d="M442.583,-313.362C473.596,-301.078 512.612,-285.626 539.452,-274.995"/>
<polygon fill="midnightblue" stroke="midnightblue" points="541.093,-278.11 549.101,-271.173 538.515,-271.602 541.093,-278.11"/>
</g>
<!-- Node7 -->
<g id="node8" class="node"><title>Node7</title>
<g id="a_node8"><a xlink:href="poly__traj_8h.html" target="_top" xlink:title="Trajectory object for PolySolver. ">
<polygon fill="white" stroke="black" points="207.5,-246.5 207.5,-276.5 326.5,-276.5 326.5,-246.5 207.5,-246.5"/>
<text text-anchor="start" x="215.5" y="-264.5" font-family="Helvetica,sans-Serif" font-size="10.00">motion_primitive_library</text>
<text text-anchor="middle" x="267" y="-253.5" font-family="Helvetica,sans-Serif" font-size="10.00">/primitive/poly_traj.h</text>
</a>
</g>
</g>
<!-- Node0&#45;&gt;Node7 -->
<g id="edge7" class="edge"><title>Node0&#45;&gt;Node7</title>
<path fill="none" stroke="midnightblue" d="M357.902,-313.362C340.168,-303.439 318.737,-291.448 301.139,-281.601"/>
<polygon fill="midnightblue" stroke="midnightblue" points="302.761,-278.499 292.325,-276.67 299.343,-284.607 302.761,-278.499"/>
</g>
<!-- Node8 -->
<g id="node9" class="node"><title>Node8</title>
<g id="a_node9"><a xlink:href="primitive_8h.html" target="_top" xlink:title="Primitive classes. ">
<polygon fill="white" stroke="black" points="146.5,-179.5 146.5,-209.5 265.5,-209.5 265.5,-179.5 146.5,-179.5"/>
<text text-anchor="start" x="154.5" y="-197.5" font-family="Helvetica,sans-Serif" font-size="10.00">motion_primitive_library</text>
<text text-anchor="middle" x="206" y="-186.5" font-family="Helvetica,sans-Serif" font-size="10.00">/primitive/primitive.h</text>
</a>
</g>
</g>
<!-- Node7&#45;&gt;Node8 -->
<g id="edge8" class="edge"><title>Node7&#45;&gt;Node8</title>
<path fill="none" stroke="midnightblue" d="M253.764,-246.396C245.69,-237.793 235.211,-226.626 226.125,-216.945"/>
<polygon fill="midnightblue" stroke="midnightblue" points="228.606,-214.473 219.21,-209.577 223.501,-219.264 228.606,-214.473"/>
</g>
<!-- Node14 -->
<g id="node15" class="node"><title>Node14</title>
<polygon fill="white" stroke="#bfbfbf" points="283.5,-185 283.5,-204 326.5,-204 326.5,-185 283.5,-185"/>
<text text-anchor="middle" x="305" y="-192" font-family="Helvetica,sans-Serif" font-size="10.00">deque</text>
</g>
<!-- Node7&#45;&gt;Node14 -->
<g id="edge19" class="edge"><title>Node7&#45;&gt;Node14</title>
<path fill="none" stroke="midnightblue" d="M275.245,-246.396C280.994,-236.562 288.702,-223.378 294.832,-212.892"/>
<polygon fill="midnightblue" stroke="midnightblue" points="297.892,-214.594 299.917,-204.195 291.848,-211.061 297.892,-214.594"/>
</g>
<!-- Node8&#45;&gt;Node3 -->
<g id="edge9" class="edge"><title>Node8&#45;&gt;Node3</title>
<path fill="none" stroke="midnightblue" d="M232.779,-179.399C251.062,-169.773 275.148,-157.09 293.215,-147.577"/>
<polygon fill="midnightblue" stroke="midnightblue" points="295.34,-150.414 302.557,-142.658 292.078,-144.22 295.34,-150.414"/>
</g>
<!-- Node9 -->
<g id="node10" class="node"><title>Node9</title>
<g id="a_node10"><a xlink:href="data__type_8h.html" target="_top" xlink:title="Defines all data types used in this lib. ">
<polygon fill="white" stroke="black" points="39.5,-56.5 39.5,-86.5 158.5,-86.5 158.5,-56.5 39.5,-56.5"/>
<text text-anchor="start" x="47.5" y="-74.5" font-family="Helvetica,sans-Serif" font-size="10.00">motion_primitive_library</text>
<text text-anchor="middle" x="99" y="-63.5" font-family="Helvetica,sans-Serif" font-size="10.00">/common/data_type.h</text>
</a>
</g>
</g>
<!-- Node8&#45;&gt;Node9 -->
<g id="edge10" class="edge"><title>Node8&#45;&gt;Node9</title>
<path fill="none" stroke="midnightblue" d="M193.306,-179.145C174.804,-158.222 140.272,-119.173 118.522,-94.5768"/>
<polygon fill="midnightblue" stroke="midnightblue" points="120.924,-92.0094 111.678,-86.8368 115.68,-96.6465 120.924,-92.0094"/>
</g>
<!-- Node12 -->
<g id="node13" class="node"><title>Node12</title>
<g id="a_node13"><a xlink:href="math_8h.html" target="_top" xlink:title="Polynomial roots solver. ">
<polygon fill="white" stroke="black" points="206.5,-123.5 206.5,-142.5 253.5,-142.5 253.5,-123.5 206.5,-123.5"/>
<text text-anchor="middle" x="230" y="-130.5" font-family="Helvetica,sans-Serif" font-size="10.00">math.h</text>
</a>
</g>
</g>
<!-- Node8&#45;&gt;Node12 -->
<g id="edge15" class="edge"><title>Node8&#45;&gt;Node12</title>
<path fill="none" stroke="midnightblue" d="M211.688,-179.399C214.995,-171.199 219.198,-160.781 222.742,-151.994"/>
<polygon fill="midnightblue" stroke="midnightblue" points="226.013,-153.241 226.508,-142.658 219.521,-150.622 226.013,-153.241"/>
</g>
<!-- Node9&#45;&gt;Node1 -->
<g id="edge11" class="edge"><title>Node9&#45;&gt;Node1</title>
<path fill="none" stroke="midnightblue" d="M80.9891,-56.3993C69.2622,-47.2185 53.9849,-35.2579 42.0551,-25.9182"/>
<polygon fill="midnightblue" stroke="midnightblue" points="44.0902,-23.0664 34.0587,-19.6578 39.7751,-28.5782 44.0902,-23.0664"/>
</g>
<!-- Node9&#45;&gt;Node5 -->
<g id="edge14" class="edge"><title>Node9&#45;&gt;Node5</title>
<path fill="none" stroke="midnightblue" d="M158.607,-56.7C204.457,-46.0848 266.922,-31.6231 309.21,-21.8326"/>
<polygon fill="midnightblue" stroke="midnightblue" points="310.02,-25.2378 318.973,-19.5724 308.441,-18.4182 310.02,-25.2378"/>
</g>
<!-- Node10 -->
<g id="node11" class="node"><title>Node10</title>
<polygon fill="white" stroke="#bfbfbf" points="70,-0.5 70,-19.5 114,-19.5 114,-0.5 70,-0.5"/>
<text text-anchor="middle" x="92" y="-7.5" font-family="Helvetica,sans-Serif" font-size="10.00">vector</text>
</g>
<!-- Node9&#45;&gt;Node10 -->
<g id="edge12" class="edge"><title>Node9&#45;&gt;Node10</title>
<path fill="none" stroke="midnightblue" d="M97.3411,-56.3993C96.4078,-48.4664 95.2304,-38.458 94.2186,-29.8583"/>
<polygon fill="midnightblue" stroke="midnightblue" points="97.6631,-29.1803 93.0186,-19.6578 90.711,-29.9983 97.6631,-29.1803"/>
</g>
<!-- Node11 -->
<g id="node12" class="node"><title>Node11</title>
<polygon fill="white" stroke="#bfbfbf" points="132.5,-0.5 132.5,-19.5 219.5,-19.5 219.5,-0.5 132.5,-0.5"/>
<text text-anchor="middle" x="176" y="-7.5" font-family="Helvetica,sans-Serif" font-size="10.00">Eigen/Geometry</text>
</g>
<!-- Node9&#45;&gt;Node11 -->
<g id="edge13" class="edge"><title>Node9&#45;&gt;Node11</title>
<path fill="none" stroke="midnightblue" d="M117.248,-56.3993C129.129,-47.2185 144.607,-35.2579 156.694,-25.9182"/>
<polygon fill="midnightblue" stroke="midnightblue" points="159.023,-28.5418 164.796,-19.6578 154.743,-23.0028 159.023,-28.5418"/>
</g>
<!-- Node12&#45;&gt;Node2 -->
<g id="edge18" class="edge"><title>Node12&#45;&gt;Node2</title>
<path fill="none" stroke="midnightblue" d="M250.918,-123.475C275.746,-113.357 317.343,-96.4046 345.694,-84.8507"/>
<polygon fill="midnightblue" stroke="midnightblue" points="347.181,-88.0243 355.121,-81.0091 344.539,-81.5419 347.181,-88.0243"/>
</g>
<!-- Node12&#45;&gt;Node9 -->
<g id="edge16" class="edge"><title>Node12&#45;&gt;Node9</title>
<path fill="none" stroke="midnightblue" d="M211.231,-123.475C192.494,-114.965 163.111,-101.619 139.11,-90.718"/>
<polygon fill="midnightblue" stroke="midnightblue" points="140.426,-87.4717 129.874,-86.523 137.532,-93.8451 140.426,-87.4717"/>
</g>
<!-- Node13 -->
<g id="node14" class="node"><title>Node13</title>
<polygon fill="white" stroke="#bfbfbf" points="177,-62 177,-81 331,-81 331,-62 177,-62"/>
<text text-anchor="middle" x="254" y="-69" font-family="Helvetica,sans-Serif" font-size="10.00">unsupported/Eigen/Polynomials</text>
</g>
<!-- Node12&#45;&gt;Node13 -->
<g id="edge17" class="edge"><title>Node12&#45;&gt;Node13</title>
<path fill="none" stroke="midnightblue" d="M233.439,-123.475C236.896,-114.904 242.332,-101.427 246.746,-90.483"/>
<polygon fill="midnightblue" stroke="midnightblue" points="250.073,-91.5924 250.568,-81.0091 243.581,-88.9738 250.073,-91.5924"/>
</g>
</g>
</svg>
