<?xml version="1.0" encoding="UTF-8" standalone="no"?>
<!DOCTYPE svg PUBLIC "-//W3C//DTD SVG 1.1//EN"
 "http://www.w3.org/Graphics/SVG/1.1/DTD/svg11.dtd">
<!-- Generated by graphviz version 2.38.0 (20140413.2041)
 -->
<!-- Title: include/motion_primitive_library/primitive/poly_traj.h Pages: 1 -->
<svg width="240pt" height="184pt"
 viewBox="0.00 0.00 239.50 184.00" xmlns="http://www.w3.org/2000/svg" xmlns:xlink="http://www.w3.org/1999/xlink">
<g id="graph0" class="graph" transform="scale(1 1) rotate(0) translate(4 180)">
<title>include/motion_primitive_library/primitive/poly_traj.h</title>
<polygon fill="white" stroke="none" points="-4,4 -4,-180 235.5,-180 235.5,4 -4,4"/>
<!-- Node12 -->
<g id="node1" class="node"><title>Node12</title>
<polygon fill="#bfbfbf" stroke="black" points="55,-145.5 55,-175.5 191,-175.5 191,-145.5 55,-145.5"/>
<text text-anchor="start" x="63" y="-163.5" font-family="Helvetica,sans-Serif" font-size="10.00">include/motion_primitive</text>
<text text-anchor="middle" x="123" y="-152.5" font-family="Helvetica,sans-Serif" font-size="10.00">_library/primitive/poly_traj.h</text>
</g>
<!-- Node13 -->
<g id="node2" class="node"><title>Node13</title>
<g id="a_node2"><a xlink:href="poly__solver_8h.html" target="_top" xlink:title="Trajectory generator back&#45;end. ">
<polygon fill="white" stroke="black" points="0,-67.5 0,-108.5 122,-108.5 122,-67.5 0,-67.5"/>
<text text-anchor="start" x="8" y="-96.5" font-family="Helvetica,sans-Serif" font-size="10.00">include/motion_primitive</text>
<text text-anchor="start" x="8" y="-85.5" font-family="Helvetica,sans-Serif" font-size="10.00">_library/primitive/poly</text>
<text text-anchor="middle" x="61" y="-74.5" font-family="Helvetica,sans-Serif" font-size="10.00">_solver.h</text>
</a>
</g>
</g>
<!-- Node12&#45;&gt;Node13 -->
<g id="edge1" class="edge"><title>Node12&#45;&gt;Node13</title>
<path fill="none" stroke="midnightblue" d="M103.689,-137.541C95.5422,-128.278 86.1341,-117.58 78.2267,-108.588"/>
<polygon fill="midnightblue" stroke="midnightblue" points="101.221,-140.035 110.453,-145.233 106.478,-135.413 101.221,-140.035"/>
</g>
<!-- Node15 -->
<g id="node4" class="node"><title>Node15</title>
<polygon fill="white" stroke="#bfbfbf" points="140.5,-73 140.5,-103 231.5,-103 231.5,-73 140.5,-73"/>
<text text-anchor="start" x="148.5" y="-91" font-family="Helvetica,sans-Serif" font-size="10.00">src/primitive/poly</text>
<text text-anchor="middle" x="186" y="-80" font-family="Helvetica,sans-Serif" font-size="10.00">_traj.cpp</text>
</g>
<!-- Node12&#45;&gt;Node15 -->
<g id="edge3" class="edge"><title>Node12&#45;&gt;Node15</title>
<path fill="none" stroke="midnightblue" d="M142.625,-137.539C152.618,-126.356 164.479,-113.083 173.27,-103.246"/>
<polygon fill="midnightblue" stroke="midnightblue" points="139.803,-135.445 135.749,-145.233 145.022,-140.109 139.803,-135.445"/>
</g>
<!-- Node14 -->
<g id="node3" class="node"><title>Node14</title>
<polygon fill="white" stroke="#bfbfbf" points="15.5,-0.5 15.5,-30.5 106.5,-30.5 106.5,-0.5 15.5,-0.5"/>
<text text-anchor="start" x="23.5" y="-18.5" font-family="Helvetica,sans-Serif" font-size="10.00">src/primitive/poly</text>
<text text-anchor="middle" x="61" y="-7.5" font-family="Helvetica,sans-Serif" font-size="10.00">_solver.cpp</text>
</g>
<!-- Node13&#45;&gt;Node14 -->
<g id="edge2" class="edge"><title>Node13&#45;&gt;Node14</title>
<path fill="none" stroke="midnightblue" d="M61,-57.08C61,-48.0061 61,-38.4498 61,-30.8916"/>
<polygon fill="midnightblue" stroke="midnightblue" points="57.5001,-57.3618 61,-67.3618 64.5001,-57.3619 57.5001,-57.3618"/>
</g>
</g>
</svg>
