<?xml version="1.0" encoding="UTF-8" standalone="no"?>
<!DOCTYPE svg PUBLIC "-//W3C//DTD SVG 1.1//EN"
 "http://www.w3.org/Graphics/SVG/1.1/DTD/svg11.dtd">
<!-- Generated by graphviz version 2.38.0 (20140413.2041)
 -->
<!-- Title: include/motion_primitive_library/primitive/primitive.h Pages: 1 -->
<svg width="440pt" height="218pt"
 viewBox="0.00 0.00 440.00 218.00" xmlns="http://www.w3.org/2000/svg" xmlns:xlink="http://www.w3.org/1999/xlink">
<g id="graph0" class="graph" transform="scale(1 1) rotate(0) translate(4 214)">
<title>include/motion_primitive_library/primitive/primitive.h</title>
<polygon fill="white" stroke="none" points="-4,4 -4,-214 436,-214 436,4 -4,4"/>
<!-- Node0 -->
<g id="node1" class="node"><title>Node0</title>
<polygon fill="#bfbfbf" stroke="black" points="86,-179.5 86,-209.5 222,-209.5 222,-179.5 86,-179.5"/>
<text text-anchor="start" x="94" y="-197.5" font-family="Helvetica,sans-Serif" font-size="10.00">include/motion_primitive</text>
<text text-anchor="middle" x="154" y="-186.5" font-family="Helvetica,sans-Serif" font-size="10.00">_library/primitive/primitive.h</text>
</g>
<!-- Node1 -->
<g id="node2" class="node"><title>Node1</title>
<polygon fill="white" stroke="#bfbfbf" points="74,-123.5 74,-142.5 126,-142.5 126,-123.5 74,-123.5"/>
<text text-anchor="middle" x="100" y="-130.5" font-family="Helvetica,sans-Serif" font-size="10.00">memory</text>
</g>
<!-- Node0&#45;&gt;Node1 -->
<g id="edge1" class="edge"><title>Node0&#45;&gt;Node1</title>
<path fill="none" stroke="midnightblue" d="M141.203,-179.399C133.275,-170.664 123.064,-159.413 114.79,-150.296"/>
<polygon fill="midnightblue" stroke="midnightblue" points="117.17,-147.711 107.857,-142.658 111.986,-152.415 117.17,-147.711"/>
</g>
<!-- Node2 -->
<g id="node3" class="node"><title>Node2</title>
<g id="a_node3"><a xlink:href="data__type_8h.html" target="_top" xlink:title="Defines all data types used in this lib. ">
<polygon fill="white" stroke="black" points="68.5,-56.5 68.5,-86.5 187.5,-86.5 187.5,-56.5 68.5,-56.5"/>
<text text-anchor="start" x="76.5" y="-74.5" font-family="Helvetica,sans-Serif" font-size="10.00">motion_primitive_library</text>
<text text-anchor="middle" x="128" y="-63.5" font-family="Helvetica,sans-Serif" font-size="10.00">/common/data_type.h</text>
</a>
</g>
</g>
<!-- Node0&#45;&gt;Node2 -->
<g id="edge2" class="edge"><title>Node0&#45;&gt;Node2</title>
<path fill="none" stroke="midnightblue" d="M150.915,-179.145C146.556,-158.859 138.536,-121.533 133.235,-96.8617"/>
<polygon fill="midnightblue" stroke="midnightblue" points="136.603,-95.8783 131.081,-86.8368 129.76,-97.3489 136.603,-95.8783"/>
</g>
<!-- Node7 -->
<g id="node8" class="node"><title>Node7</title>
<g id="a_node8"><a xlink:href="math_8h.html" target="_top" xlink:title="Polynomial roots solver. ">
<polygon fill="white" stroke="black" points="233.5,-123.5 233.5,-142.5 280.5,-142.5 280.5,-123.5 233.5,-123.5"/>
<text text-anchor="middle" x="257" y="-130.5" font-family="Helvetica,sans-Serif" font-size="10.00">math.h</text>
</a>
</g>
</g>
<!-- Node0&#45;&gt;Node7 -->
<g id="edge7" class="edge"><title>Node0&#45;&gt;Node7</title>
<path fill="none" stroke="midnightblue" d="M178.41,-179.399C194.92,-169.862 216.623,-157.325 233.038,-147.842"/>
<polygon fill="midnightblue" stroke="midnightblue" points="235.104,-150.691 242.013,-142.658 231.603,-144.629 235.104,-150.691"/>
</g>
<!-- Node3 -->
<g id="node4" class="node"><title>Node3</title>
<polygon fill="white" stroke="#bfbfbf" points="0,-0.5 0,-19.5 46,-19.5 46,-0.5 0,-0.5"/>
<text text-anchor="middle" x="23" y="-7.5" font-family="Helvetica,sans-Serif" font-size="10.00">stdio.h</text>
</g>
<!-- Node2&#45;&gt;Node3 -->
<g id="edge3" class="edge"><title>Node2&#45;&gt;Node3</title>
<path fill="none" stroke="midnightblue" d="M103.116,-56.3993C86.2858,-46.8619 64.1614,-34.3248 47.4274,-24.8422"/>
<polygon fill="midnightblue" stroke="midnightblue" points="48.7042,-21.5429 38.2784,-19.6578 45.2531,-27.633 48.7042,-21.5429"/>
</g>
<!-- Node4 -->
<g id="node5" class="node"><title>Node4</title>
<polygon fill="white" stroke="#bfbfbf" points="64,-0.5 64,-19.5 108,-19.5 108,-0.5 64,-0.5"/>
<text text-anchor="middle" x="86" y="-7.5" font-family="Helvetica,sans-Serif" font-size="10.00">vector</text>
</g>
<!-- Node2&#45;&gt;Node4 -->
<g id="edge4" class="edge"><title>Node2&#45;&gt;Node4</title>
<path fill="none" stroke="midnightblue" d="M118.047,-56.3993C112.006,-47.8424 104.262,-36.8708 97.8991,-27.857"/>
<polygon fill="midnightblue" stroke="midnightblue" points="100.738,-25.8091 92.1114,-19.6578 95.0189,-29.8459 100.738,-25.8091"/>
</g>
<!-- Node5 -->
<g id="node6" class="node"><title>Node5</title>
<polygon fill="white" stroke="#bfbfbf" points="126.5,-0.5 126.5,-19.5 213.5,-19.5 213.5,-0.5 126.5,-0.5"/>
<text text-anchor="middle" x="170" y="-7.5" font-family="Helvetica,sans-Serif" font-size="10.00">Eigen/Geometry</text>
</g>
<!-- Node2&#45;&gt;Node5 -->
<g id="edge5" class="edge"><title>Node2&#45;&gt;Node5</title>
<path fill="none" stroke="midnightblue" d="M137.953,-56.3993C143.994,-47.8424 151.738,-36.8708 158.101,-27.857"/>
<polygon fill="midnightblue" stroke="midnightblue" points="160.981,-29.8459 163.889,-19.6578 155.262,-25.8091 160.981,-29.8459"/>
</g>
<!-- Node6 -->
<g id="node7" class="node"><title>Node6</title>
<polygon fill="white" stroke="#bfbfbf" points="232,-0.5 232,-19.5 320,-19.5 320,-0.5 232,-0.5"/>
<text text-anchor="middle" x="276" y="-7.5" font-family="Helvetica,sans-Serif" font-size="10.00">Eigen/StdVector</text>
</g>
<!-- Node2&#45;&gt;Node6 -->
<g id="edge6" class="edge"><title>Node2&#45;&gt;Node6</title>
<path fill="none" stroke="midnightblue" d="M163.074,-56.3993C188.017,-46.3717 221.208,-33.028 245.144,-23.405"/>
<polygon fill="midnightblue" stroke="midnightblue" points="246.492,-26.6354 254.465,-19.6578 243.881,-20.1406 246.492,-26.6354"/>
</g>
<!-- Node7&#45;&gt;Node2 -->
<g id="edge8" class="edge"><title>Node7&#45;&gt;Node2</title>
<path fill="none" stroke="midnightblue" d="M238.517,-123.475C220.066,-114.965 191.133,-101.619 167.498,-90.718"/>
<polygon fill="midnightblue" stroke="midnightblue" points="168.949,-87.5332 158.403,-86.523 166.017,-93.8896 168.949,-87.5332"/>
</g>
<!-- Node8 -->
<g id="node9" class="node"><title>Node8</title>
<polygon fill="white" stroke="#bfbfbf" points="206,-62 206,-81 360,-81 360,-62 206,-62"/>
<text text-anchor="middle" x="283" y="-69" font-family="Helvetica,sans-Serif" font-size="10.00">unsupported/Eigen/Polynomials</text>
</g>
<!-- Node7&#45;&gt;Node8 -->
<g id="edge9" class="edge"><title>Node7&#45;&gt;Node8</title>
<path fill="none" stroke="midnightblue" d="M260.725,-123.475C264.471,-114.904 270.36,-101.427 275.142,-90.483"/>
<polygon fill="midnightblue" stroke="midnightblue" points="278.485,-91.5739 279.282,-81.0091 272.07,-88.771 278.485,-91.5739"/>
</g>
<!-- Node9 -->
<g id="node10" class="node"><title>Node9</title>
<polygon fill="white" stroke="#bfbfbf" points="378,-62 378,-81 432,-81 432,-62 378,-62"/>
<text text-anchor="middle" x="405" y="-69" font-family="Helvetica,sans-Serif" font-size="10.00">iostream</text>
</g>
<!-- Node7&#45;&gt;Node9 -->
<g id="edge10" class="edge"><title>Node7&#45;&gt;Node9</title>
<path fill="none" stroke="midnightblue" d="M278.473,-123.379C301.021,-114.325 337.505,-99.6697 369,-87 370.633,-86.343 372.308,-85.6692 373.999,-84.9886"/>
<polygon fill="midnightblue" stroke="midnightblue" points="375.712,-88.072 383.681,-81.0904 373.097,-81.5785 375.712,-88.072"/>
</g>
</g>
</svg>
