<?xml version="1.0" encoding="UTF-8" standalone="no"?>
<!DOCTYPE svg PUBLIC "-//W3C//DTD SVG 1.1//EN"
 "http://www.w3.org/Graphics/SVG/1.1/DTD/svg11.dtd">
<!-- Generated by graphviz version 2.38.0 (20140413.2041)
 -->
<!-- Title: include/motion_primitive_library/planner/state_space.h Pages: 1 -->
<svg width="671pt" height="430pt"
 viewBox="0.00 0.00 671.00 430.00" xmlns="http://www.w3.org/2000/svg" xmlns:xlink="http://www.w3.org/1999/xlink">
<g id="graph0" class="graph" transform="scale(1 1) rotate(0) translate(4 426)">
<title>include/motion_primitive_library/planner/state_space.h</title>
<polygon fill="white" stroke="none" points="-4,4 -4,-426 667,-426 667,4 -4,4"/>
<!-- Node0 -->
<g id="node1" class="node"><title>Node0</title>
<polygon fill="#bfbfbf" stroke="black" points="356.5,-380.5 356.5,-421.5 478.5,-421.5 478.5,-380.5 356.5,-380.5"/>
<text text-anchor="start" x="364.5" y="-409.5" font-family="Helvetica,sans-Serif" font-size="10.00">include/motion_primitive</text>
<text text-anchor="start" x="364.5" y="-398.5" font-family="Helvetica,sans-Serif" font-size="10.00">_library/planner/state</text>
<text text-anchor="middle" x="417.5" y="-387.5" font-family="Helvetica,sans-Serif" font-size="10.00">_space.h</text>
</g>
<!-- Node1 -->
<g id="node2" class="node"><title>Node1</title>
<polygon fill="white" stroke="#bfbfbf" points="0,-319 0,-338 137,-338 137,-319 0,-319"/>
<text text-anchor="middle" x="68.5" y="-326" font-family="Helvetica,sans-Serif" font-size="10.00">boost/heap/d_ary_heap.hpp</text>
</g>
<!-- Node0&#45;&gt;Node1 -->
<g id="edge1" class="edge"><title>Node0&#45;&gt;Node1</title>
<path fill="none" stroke="midnightblue" d="M356.309,-387.639C289.551,-374.154 183.812,-352.794 120.788,-340.063"/>
<polygon fill="midnightblue" stroke="midnightblue" points="121.169,-336.569 110.674,-338.019 119.783,-343.43 121.169,-336.569"/>
</g>
<!-- Node2 -->
<g id="node3" class="node"><title>Node2</title>
<polygon fill="white" stroke="#bfbfbf" points="159.5,-123.5 159.5,-142.5 211.5,-142.5 211.5,-123.5 159.5,-123.5"/>
<text text-anchor="middle" x="185.5" y="-130.5" font-family="Helvetica,sans-Serif" font-size="10.00">memory</text>
</g>
<!-- Node0&#45;&gt;Node2 -->
<g id="edge2" class="edge"><title>Node0&#45;&gt;Node2</title>
<path fill="none" stroke="midnightblue" d="M356.368,-385.987C325.841,-377.12 289.365,-363.566 260.5,-344 227.657,-321.737 220.251,-311.967 201.5,-277 180.021,-236.946 180.99,-181.599 183.349,-152.926"/>
<polygon fill="midnightblue" stroke="midnightblue" points="186.859,-152.996 184.348,-142.703 179.892,-152.315 186.859,-152.996"/>
</g>
<!-- Node3 -->
<g id="node4" class="node"><title>Node3</title>
<polygon fill="white" stroke="#bfbfbf" points="521.5,-319 521.5,-338 561.5,-338 561.5,-319 521.5,-319"/>
<text text-anchor="middle" x="541.5" y="-326" font-family="Helvetica,sans-Serif" font-size="10.00">limits</text>
</g>
<!-- Node0&#45;&gt;Node3 -->
<g id="edge3" class="edge"><title>Node0&#45;&gt;Node3</title>
<path fill="none" stroke="midnightblue" d="M452.041,-380.362C472.884,-368.511 498.916,-353.711 517.515,-343.137"/>
<polygon fill="midnightblue" stroke="midnightblue" points="519.281,-346.159 526.245,-338.173 515.822,-340.073 519.281,-346.159"/>
</g>
<!-- Node4 -->
<g id="node5" class="node"><title>Node4</title>
<polygon fill="white" stroke="#bfbfbf" points="433.5,-0.5 433.5,-19.5 477.5,-19.5 477.5,-0.5 433.5,-0.5"/>
<text text-anchor="middle" x="455.5" y="-7.5" font-family="Helvetica,sans-Serif" font-size="10.00">vector</text>
</g>
<!-- Node0&#45;&gt;Node4 -->
<g id="edge4" class="edge"><title>Node0&#45;&gt;Node4</title>
<path fill="none" stroke="midnightblue" d="M436.678,-380.456C459.192,-355.357 493.5,-309.414 493.5,-262.5 493.5,-262.5 493.5,-262.5 493.5,-132 493.5,-93.8116 476.058,-51.8296 464.808,-28.7224"/>
<polygon fill="midnightblue" stroke="midnightblue" points="467.791,-26.8646 460.16,-19.5153 461.542,-30.0195 467.791,-26.8646"/>
</g>
<!-- Node5 -->
<g id="node6" class="node"><title>Node5</title>
<polygon fill="white" stroke="#bfbfbf" points="580,-319 580,-338 663,-338 663,-319 580,-319"/>
<text text-anchor="middle" x="621.5" y="-326" font-family="Helvetica,sans-Serif" font-size="10.00">unordered_map</text>
</g>
<!-- Node0&#45;&gt;Node5 -->
<g id="edge5" class="edge"><title>Node0&#45;&gt;Node5</title>
<path fill="none" stroke="midnightblue" d="M474.054,-380.455C510.443,-367.88 556.532,-351.952 587.408,-341.282"/>
<polygon fill="midnightblue" stroke="midnightblue" points="588.558,-344.587 596.867,-338.013 586.272,-337.971 588.558,-344.587"/>
</g>
<!-- Node6 -->
<g id="node7" class="node"><title>Node6</title>
<g id="a_node7"><a xlink:href="primitive_8h.html" target="_top" xlink:title="Primitive classes. ">
<polygon fill="white" stroke="black" points="232,-179.5 232,-209.5 351,-209.5 351,-179.5 232,-179.5"/>
<text text-anchor="start" x="240" y="-197.5" font-family="Helvetica,sans-Serif" font-size="10.00">motion_primitive_library</text>
<text text-anchor="middle" x="291.5" y="-186.5" font-family="Helvetica,sans-Serif" font-size="10.00">/primitive/primitive.h</text>
</a>
</g>
</g>
<!-- Node0&#45;&gt;Node6 -->
<g id="edge6" class="edge"><title>Node0&#45;&gt;Node6</title>
<path fill="none" stroke="midnightblue" d="M417.054,-380.489C415.358,-348.874 407.828,-285.97 375.5,-246 364.967,-232.977 350.114,-222.502 335.821,-214.542"/>
<polygon fill="midnightblue" stroke="midnightblue" points="337.04,-211.228 326.56,-209.672 333.782,-217.424 337.04,-211.228"/>
</g>
<!-- Node14 -->
<g id="node15" class="node"><title>Node14</title>
<g id="a_node15"><a xlink:href="env__base_8h.html" target="_top" xlink:title="environment base class ">
<polygon fill="white" stroke="black" points="270,-313.5 270,-343.5 389,-343.5 389,-313.5 270,-313.5"/>
<text text-anchor="start" x="278" y="-331.5" font-family="Helvetica,sans-Serif" font-size="10.00">motion_primitive_library</text>
<text text-anchor="middle" x="329.5" y="-320.5" font-family="Helvetica,sans-Serif" font-size="10.00">/planner/env_base.h</text>
</a>
</g>
</g>
<!-- Node0&#45;&gt;Node14 -->
<g id="edge17" class="edge"><title>Node0&#45;&gt;Node14</title>
<path fill="none" stroke="midnightblue" d="M392.987,-380.362C381.169,-370.894 367.001,-359.544 355.051,-349.969"/>
<polygon fill="midnightblue" stroke="midnightblue" points="357.18,-347.191 347.187,-343.67 352.803,-352.654 357.18,-347.191"/>
</g>
<!-- Node6&#45;&gt;Node2 -->
<g id="edge7" class="edge"><title>Node6&#45;&gt;Node2</title>
<path fill="none" stroke="midnightblue" d="M266.379,-179.399C249.23,-169.773 226.635,-157.09 209.688,-147.577"/>
<polygon fill="midnightblue" stroke="midnightblue" points="211.357,-144.501 200.924,-142.658 207.931,-150.605 211.357,-144.501"/>
</g>
<!-- Node7 -->
<g id="node8" class="node"><title>Node7</title>
<g id="a_node8"><a xlink:href="data__type_8h.html" target="_top" xlink:title="Defines all data types used in this lib. ">
<polygon fill="white" stroke="black" points="64,-56.5 64,-86.5 183,-86.5 183,-56.5 64,-56.5"/>
<text text-anchor="start" x="72" y="-74.5" font-family="Helvetica,sans-Serif" font-size="10.00">motion_primitive_library</text>
<text text-anchor="middle" x="123.5" y="-63.5" font-family="Helvetica,sans-Serif" font-size="10.00">/common/data_type.h</text>
</a>
</g>
</g>
<!-- Node6&#45;&gt;Node7 -->
<g id="edge8" class="edge"><title>Node6&#45;&gt;Node7</title>
<path fill="none" stroke="midnightblue" d="M279.494,-179.24C266.172,-164.012 243.504,-139.805 220.5,-123 203.684,-110.715 183.471,-99.6868 165.858,-91.0933"/>
<polygon fill="midnightblue" stroke="midnightblue" points="166.913,-87.7186 156.379,-86.5771 163.902,-94.038 166.913,-87.7186"/>
</g>
<!-- Node11 -->
<g id="node12" class="node"><title>Node11</title>
<g id="a_node12"><a xlink:href="math_8h.html" target="_top" xlink:title="Polynomial roots solver. ">
<polygon fill="white" stroke="black" points="268,-123.5 268,-142.5 315,-142.5 315,-123.5 268,-123.5"/>
<text text-anchor="middle" x="291.5" y="-130.5" font-family="Helvetica,sans-Serif" font-size="10.00">math.h</text>
</a>
</g>
</g>
<!-- Node6&#45;&gt;Node11 -->
<g id="edge13" class="edge"><title>Node6&#45;&gt;Node11</title>
<path fill="none" stroke="midnightblue" d="M291.5,-179.399C291.5,-171.466 291.5,-161.458 291.5,-152.858"/>
<polygon fill="midnightblue" stroke="midnightblue" points="295,-152.658 291.5,-142.658 288,-152.658 295,-152.658"/>
</g>
<!-- Node7&#45;&gt;Node4 -->
<g id="edge10" class="edge"><title>Node7&#45;&gt;Node4</title>
<path fill="none" stroke="midnightblue" d="M183.311,-57.7871C186.417,-57.1721 189.494,-56.5728 192.5,-56 275.38,-40.2069 373.454,-24.108 423.149,-16.1327"/>
<polygon fill="midnightblue" stroke="midnightblue" points="423.961,-19.5475 433.282,-14.5116 422.855,-12.6354 423.961,-19.5475"/>
</g>
<!-- Node8 -->
<g id="node9" class="node"><title>Node8</title>
<polygon fill="white" stroke="#bfbfbf" points="15.5,-0.5 15.5,-19.5 61.5,-19.5 61.5,-0.5 15.5,-0.5"/>
<text text-anchor="middle" x="38.5" y="-7.5" font-family="Helvetica,sans-Serif" font-size="10.00">stdio.h</text>
</g>
<!-- Node7&#45;&gt;Node8 -->
<g id="edge9" class="edge"><title>Node7&#45;&gt;Node8</title>
<path fill="none" stroke="midnightblue" d="M103.356,-56.3993C90.1133,-47.1293 72.8221,-35.0254 59.4241,-25.6469"/>
<polygon fill="midnightblue" stroke="midnightblue" points="61.0677,-22.5251 50.8683,-19.6578 57.0535,-28.2598 61.0677,-22.5251"/>
</g>
<!-- Node9 -->
<g id="node10" class="node"><title>Node9</title>
<polygon fill="white" stroke="#bfbfbf" points="80,-0.5 80,-19.5 167,-19.5 167,-0.5 80,-0.5"/>
<text text-anchor="middle" x="123.5" y="-7.5" font-family="Helvetica,sans-Serif" font-size="10.00">Eigen/Geometry</text>
</g>
<!-- Node7&#45;&gt;Node9 -->
<g id="edge11" class="edge"><title>Node7&#45;&gt;Node9</title>
<path fill="none" stroke="midnightblue" d="M123.5,-56.3993C123.5,-48.4664 123.5,-38.458 123.5,-29.8583"/>
<polygon fill="midnightblue" stroke="midnightblue" points="127,-29.6577 123.5,-19.6578 120,-29.6578 127,-29.6577"/>
</g>
<!-- Node10 -->
<g id="node11" class="node"><title>Node10</title>
<polygon fill="white" stroke="#bfbfbf" points="185.5,-0.5 185.5,-19.5 273.5,-19.5 273.5,-0.5 185.5,-0.5"/>
<text text-anchor="middle" x="229.5" y="-7.5" font-family="Helvetica,sans-Serif" font-size="10.00">Eigen/StdVector</text>
</g>
<!-- Node7&#45;&gt;Node10 -->
<g id="edge12" class="edge"><title>Node7&#45;&gt;Node10</title>
<path fill="none" stroke="midnightblue" d="M148.621,-56.3993C165.77,-46.7728 188.365,-34.0902 205.312,-24.5772"/>
<polygon fill="midnightblue" stroke="midnightblue" points="207.069,-27.6047 214.076,-19.6578 203.643,-21.5006 207.069,-27.6047"/>
</g>
<!-- Node11&#45;&gt;Node7 -->
<g id="edge14" class="edge"><title>Node11&#45;&gt;Node7</title>
<path fill="none" stroke="midnightblue" d="M267.786,-123.601C243.196,-114.892 204.036,-101.023 172.715,-89.9302"/>
<polygon fill="midnightblue" stroke="midnightblue" points="173.865,-86.6247 163.27,-86.5854 171.528,-93.2231 173.865,-86.6247"/>
</g>
<!-- Node12 -->
<g id="node13" class="node"><title>Node12</title>
<polygon fill="white" stroke="#bfbfbf" points="273.5,-62 273.5,-81 427.5,-81 427.5,-62 273.5,-62"/>
<text text-anchor="middle" x="350.5" y="-69" font-family="Helvetica,sans-Serif" font-size="10.00">unsupported/Eigen/Polynomials</text>
</g>
<!-- Node11&#45;&gt;Node12 -->
<g id="edge15" class="edge"><title>Node11&#45;&gt;Node12</title>
<path fill="none" stroke="midnightblue" d="M299.953,-123.475C309.066,-114.285 323.77,-99.4563 334.976,-88.156"/>
<polygon fill="midnightblue" stroke="midnightblue" points="337.507,-90.5744 342.062,-81.0091 332.536,-85.6455 337.507,-90.5744"/>
</g>
<!-- Node13 -->
<g id="node14" class="node"><title>Node13</title>
<polygon fill="white" stroke="#bfbfbf" points="201.5,-62 201.5,-81 255.5,-81 255.5,-62 201.5,-62"/>
<text text-anchor="middle" x="228.5" y="-69" font-family="Helvetica,sans-Serif" font-size="10.00">iostream</text>
</g>
<!-- Node11&#45;&gt;Node13 -->
<g id="edge16" class="edge"><title>Node11&#45;&gt;Node13</title>
<path fill="none" stroke="midnightblue" d="M282.474,-123.475C272.743,-114.285 257.042,-99.4563 245.077,-88.156"/>
<polygon fill="midnightblue" stroke="midnightblue" points="247.183,-85.3308 237.51,-81.0091 242.377,-90.4199 247.183,-85.3308"/>
</g>
<!-- Node14&#45;&gt;Node2 -->
<g id="edge18" class="edge"><title>Node14&#45;&gt;Node2</title>
<path fill="none" stroke="midnightblue" d="M277.472,-313.406C257.705,-305.638 236.582,-294.009 222.5,-277 192.327,-240.554 186.428,-182.361 185.486,-152.701"/>
<polygon fill="midnightblue" stroke="midnightblue" points="188.982,-152.46 185.327,-142.516 181.983,-152.569 188.982,-152.46"/>
</g>
<!-- Node14&#45;&gt;Node4 -->
<g id="edge19" class="edge"><title>Node14&#45;&gt;Node4</title>
<path fill="none" stroke="midnightblue" d="M358.407,-313.394C395.606,-292.975 455.5,-251.417 455.5,-195.5 455.5,-195.5 455.5,-195.5 455.5,-132 455.5,-95.7138 455.5,-53.3066 455.5,-29.559"/>
<polygon fill="midnightblue" stroke="midnightblue" points="459,-29.5085 455.5,-19.5085 452,-29.5086 459,-29.5085"/>
</g>
<!-- Node14&#45;&gt;Node6 -->
<g id="edge20" class="edge"><title>Node14&#45;&gt;Node6</title>
<path fill="none" stroke="midnightblue" d="M342.05,-313.27C355.06,-296.692 372.007,-268.68 360.5,-246 354.015,-233.217 342.605,-222.892 330.908,-214.99"/>
<polygon fill="midnightblue" stroke="midnightblue" points="332.739,-212.007 322.406,-209.664 329.022,-217.939 332.739,-212.007"/>
</g>
<!-- Node15 -->
<g id="node16" class="node"><title>Node15</title>
<g id="a_node16"><a xlink:href="trajectory_8h.html" target="_top" xlink:title="Trajectory class. ">
<polygon fill="white" stroke="black" points="232,-246.5 232,-276.5 351,-276.5 351,-246.5 232,-246.5"/>
<text text-anchor="start" x="240" y="-264.5" font-family="Helvetica,sans-Serif" font-size="10.00">motion_primitive_library</text>
<text text-anchor="middle" x="291.5" y="-253.5" font-family="Helvetica,sans-Serif" font-size="10.00">/primitive/trajectory.h</text>
</a>
</g>
</g>
<!-- Node14&#45;&gt;Node15 -->
<g id="edge21" class="edge"><title>Node14&#45;&gt;Node15</title>
<path fill="none" stroke="midnightblue" d="M321.255,-313.396C316.474,-305.219 310.339,-294.725 304.884,-285.393"/>
<polygon fill="midnightblue" stroke="midnightblue" points="307.798,-283.443 299.729,-276.577 301.755,-286.976 307.798,-283.443"/>
</g>
<!-- Node15&#45;&gt;Node6 -->
<g id="edge22" class="edge"><title>Node15&#45;&gt;Node6</title>
<path fill="none" stroke="midnightblue" d="M291.5,-246.396C291.5,-238.645 291.5,-228.812 291.5,-219.86"/>
<polygon fill="midnightblue" stroke="midnightblue" points="295,-219.576 291.5,-209.577 288,-219.577 295,-219.576"/>
</g>
</g>
</svg>
