<?xml version="1.0" encoding="UTF-8" standalone="no"?>
<!DOCTYPE svg PUBLIC "-//W3C//DTD SVG 1.1//EN"
 "http://www.w3.org/Graphics/SVG/1.1/DTD/svg11.dtd">
<!-- Generated by graphviz version 2.38.0 (20140413.2041)
 -->
<!-- Title: include/motion_primitive_library/planner/state_space.h Pages: 1 -->
<svg width="601pt" height="329pt"
 viewBox="0.00 0.00 601.00 329.00" xmlns="http://www.w3.org/2000/svg" xmlns:xlink="http://www.w3.org/1999/xlink">
<g id="graph0" class="graph" transform="scale(1 1) rotate(0) translate(4 325)">
<title>include/motion_primitive_library/planner/state_space.h</title>
<polygon fill="white" stroke="none" points="-4,4 -4,-325 597,-325 597,4 -4,4"/>
<!-- Node16 -->
<g id="node1" class="node"><title>Node16</title>
<polygon fill="#bfbfbf" stroke="black" points="387,-279.5 387,-320.5 509,-320.5 509,-279.5 387,-279.5"/>
<text text-anchor="start" x="395" y="-308.5" font-family="Helvetica,sans-Serif" font-size="10.00">include/motion_primitive</text>
<text text-anchor="start" x="395" y="-297.5" font-family="Helvetica,sans-Serif" font-size="10.00">_library/planner/state</text>
<text text-anchor="middle" x="448" y="-286.5" font-family="Helvetica,sans-Serif" font-size="10.00">_space.h</text>
</g>
<!-- Node17 -->
<g id="node2" class="node"><title>Node17</title>
<g id="a_node2"><a xlink:href="graph__search_8h.html" target="_top" xlink:title="backend of graph search, implemetation of A* and Lifelong Planning A* ">
<polygon fill="white" stroke="black" points="313,-201.5 313,-242.5 435,-242.5 435,-201.5 313,-201.5"/>
<text text-anchor="start" x="321" y="-230.5" font-family="Helvetica,sans-Serif" font-size="10.00">include/motion_primitive</text>
<text text-anchor="start" x="321" y="-219.5" font-family="Helvetica,sans-Serif" font-size="10.00">_library/planner/graph</text>
<text text-anchor="middle" x="374" y="-208.5" font-family="Helvetica,sans-Serif" font-size="10.00">_search.h</text>
</a>
</g>
</g>
<!-- Node16&#45;&gt;Node17 -->
<g id="edge1" class="edge"><title>Node16&#45;&gt;Node17</title>
<path fill="none" stroke="midnightblue" d="M421.909,-272.204C412.379,-262.416 401.788,-251.539 392.992,-242.506"/>
<polygon fill="midnightblue" stroke="midnightblue" points="419.459,-274.705 428.943,-279.428 424.475,-269.822 419.459,-274.705"/>
</g>
<!-- Node27 -->
<g id="node12" class="node"><title>Node27</title>
<polygon fill="white" stroke="#bfbfbf" points="453,-212.5 453,-231.5 593,-231.5 593,-212.5 453,-212.5"/>
<text text-anchor="middle" x="523" y="-219.5" font-family="Helvetica,sans-Serif" font-size="10.00">src/planner/state_space.cpp</text>
</g>
<!-- Node16&#45;&gt;Node27 -->
<g id="edge11" class="edge"><title>Node16&#45;&gt;Node27</title>
<path fill="none" stroke="midnightblue" d="M474.421,-272.226C488.502,-257.958 504.872,-241.37 514.56,-231.552"/>
<polygon fill="midnightblue" stroke="midnightblue" points="471.847,-269.852 467.314,-279.428 476.83,-274.769 471.847,-269.852"/>
</g>
<!-- Node18 -->
<g id="node3" class="node"><title>Node18</title>
<g id="a_node3"><a xlink:href="mp__base__util_8h.html" target="_top" xlink:title="base class for motion planning ">
<polygon fill="white" stroke="black" points="215,-134.5 215,-164.5 367,-164.5 367,-134.5 215,-134.5"/>
<text text-anchor="start" x="223" y="-152.5" font-family="Helvetica,sans-Serif" font-size="10.00">include/motion_primitive</text>
<text text-anchor="middle" x="291" y="-141.5" font-family="Helvetica,sans-Serif" font-size="10.00">_library/planner/mp_base_util.h</text>
</a>
</g>
</g>
<!-- Node17&#45;&gt;Node18 -->
<g id="edge2" class="edge"><title>Node17&#45;&gt;Node18</title>
<path fill="none" stroke="midnightblue" d="M343.206,-194.844C331.175,-184.625 317.856,-173.312 307.682,-164.67"/>
<polygon fill="midnightblue" stroke="midnightblue" points="340.992,-197.556 350.88,-201.362 345.524,-192.22 340.992,-197.556"/>
</g>
<!-- Node26 -->
<g id="node11" class="node"><title>Node26</title>
<polygon fill="white" stroke="#bfbfbf" points="385.5,-140 385.5,-159 530.5,-159 530.5,-140 385.5,-140"/>
<text text-anchor="middle" x="458" y="-147" font-family="Helvetica,sans-Serif" font-size="10.00">src/planner/graph_search.cpp</text>
</g>
<!-- Node17&#45;&gt;Node26 -->
<g id="edge10" class="edge"><title>Node17&#45;&gt;Node26</title>
<path fill="none" stroke="midnightblue" d="M405.435,-194.617C420.347,-182.102 437.158,-167.992 447.666,-159.173"/>
<polygon fill="midnightblue" stroke="midnightblue" points="402.808,-192.252 397.399,-201.362 407.309,-197.614 402.808,-192.252"/>
</g>
<!-- Node19 -->
<g id="node4" class="node"><title>Node19</title>
<g id="a_node4"><a xlink:href="mp__cloud__util_8h.html" target="_top" xlink:title="motion planning cloud util ">
<polygon fill="white" stroke="black" points="0,-67.5 0,-97.5 154,-97.5 154,-67.5 0,-67.5"/>
<text text-anchor="start" x="8" y="-85.5" font-family="Helvetica,sans-Serif" font-size="10.00">include/motion_primitive</text>
<text text-anchor="middle" x="77" y="-74.5" font-family="Helvetica,sans-Serif" font-size="10.00">_library/planner/mp_cloud_util.h</text>
</a>
</g>
</g>
<!-- Node18&#45;&gt;Node19 -->
<g id="edge3" class="edge"><title>Node18&#45;&gt;Node19</title>
<path fill="none" stroke="midnightblue" d="M234.847,-131.444C200.158,-120.908 156.178,-107.549 123.457,-97.6109"/>
<polygon fill="midnightblue" stroke="midnightblue" points="234.243,-134.919 244.829,-134.476 236.278,-128.221 234.243,-134.919"/>
</g>
<!-- Node21 -->
<g id="node6" class="node"><title>Node21</title>
<g id="a_node6"><a xlink:href="mp__map__util_8h.html" target="_top" xlink:title="motion planning map util ">
<polygon fill="white" stroke="black" points="216.5,-67.5 216.5,-97.5 365.5,-97.5 365.5,-67.5 216.5,-67.5"/>
<text text-anchor="start" x="224.5" y="-85.5" font-family="Helvetica,sans-Serif" font-size="10.00">include/motion_primitive</text>
<text text-anchor="middle" x="291" y="-74.5" font-family="Helvetica,sans-Serif" font-size="10.00">_library/planner/mp_map_util.h</text>
</a>
</g>
</g>
<!-- Node18&#45;&gt;Node21 -->
<g id="edge5" class="edge"><title>Node18&#45;&gt;Node21</title>
<path fill="none" stroke="midnightblue" d="M291,-124.108C291,-115.154 291,-105.323 291,-97.5765"/>
<polygon fill="midnightblue" stroke="midnightblue" points="287.5,-124.396 291,-134.396 294.5,-124.396 287.5,-124.396"/>
</g>
<!-- Node25 -->
<g id="node10" class="node"><title>Node25</title>
<polygon fill="white" stroke="#bfbfbf" points="383.5,-67.5 383.5,-97.5 490.5,-97.5 490.5,-67.5 383.5,-67.5"/>
<text text-anchor="start" x="391.5" y="-85.5" font-family="Helvetica,sans-Serif" font-size="10.00">src/planner/mp_base</text>
<text text-anchor="middle" x="437" y="-74.5" font-family="Helvetica,sans-Serif" font-size="10.00">_util.cpp</text>
</g>
<!-- Node18&#45;&gt;Node25 -->
<g id="edge9" class="edge"><title>Node18&#45;&gt;Node25</title>
<path fill="none" stroke="midnightblue" d="M331.95,-130.269C355.204,-119.916 383.872,-107.153 405.382,-97.5765"/>
<polygon fill="midnightblue" stroke="midnightblue" points="330.392,-127.131 322.68,-134.396 333.239,-133.526 330.392,-127.131"/>
</g>
<!-- Node20 -->
<g id="node5" class="node"><title>Node20</title>
<polygon fill="white" stroke="#bfbfbf" points="0,-0.5 0,-30.5 110,-30.5 110,-0.5 0,-0.5"/>
<text text-anchor="start" x="8" y="-18.5" font-family="Helvetica,sans-Serif" font-size="10.00">src/planner/mp_cloud</text>
<text text-anchor="middle" x="55" y="-7.5" font-family="Helvetica,sans-Serif" font-size="10.00">_util.cpp</text>
</g>
<!-- Node19&#45;&gt;Node20 -->
<g id="edge4" class="edge"><title>Node19&#45;&gt;Node20</title>
<path fill="none" stroke="midnightblue" d="M68.9436,-57.6971C65.8602,-48.5871 62.4438,-38.4929 59.7644,-30.5765"/>
<polygon fill="midnightblue" stroke="midnightblue" points="65.705,-59.0459 72.2263,-67.396 72.3356,-56.8017 65.705,-59.0459"/>
</g>
<!-- Node22 -->
<g id="node7" class="node"><title>Node22</title>
<polygon fill="white" stroke="#bfbfbf" points="128.5,-0.5 128.5,-30.5 233.5,-30.5 233.5,-0.5 128.5,-0.5"/>
<text text-anchor="start" x="136.5" y="-18.5" font-family="Helvetica,sans-Serif" font-size="10.00">src/planner/mp_map</text>
<text text-anchor="middle" x="181" y="-7.5" font-family="Helvetica,sans-Serif" font-size="10.00">_util.cpp</text>
</g>
<!-- Node21&#45;&gt;Node22 -->
<g id="edge6" class="edge"><title>Node21&#45;&gt;Node22</title>
<path fill="none" stroke="midnightblue" d="M258.5,-62.2956C241.288,-52.1248 220.524,-39.8549 204.822,-30.5765"/>
<polygon fill="midnightblue" stroke="midnightblue" points="256.742,-65.3219 267.132,-67.396 260.303,-59.2954 256.742,-65.3219"/>
</g>
<!-- Node23 -->
<g id="node8" class="node"><title>Node23</title>
<polygon fill="white" stroke="#bfbfbf" points="252,-6 252,-25 376,-25 376,-6 252,-6"/>
<text text-anchor="middle" x="314" y="-13" font-family="Helvetica,sans-Serif" font-size="10.00">test/test_planner_2d.cpp</text>
</g>
<!-- Node21&#45;&gt;Node23 -->
<g id="edge7" class="edge"><title>Node21&#45;&gt;Node23</title>
<path fill="none" stroke="midnightblue" d="M299.336,-57.9425C303.37,-46.5402 307.969,-33.5454 310.923,-25.1945"/>
<polygon fill="midnightblue" stroke="midnightblue" points="296.027,-56.8012 295.991,-67.396 302.626,-59.1363 296.027,-56.8012"/>
</g>
<!-- Node24 -->
<g id="node9" class="node"><title>Node24</title>
<polygon fill="white" stroke="#bfbfbf" points="394.5,-0.5 394.5,-30.5 499.5,-30.5 499.5,-0.5 394.5,-0.5"/>
<text text-anchor="start" x="402.5" y="-18.5" font-family="Helvetica,sans-Serif" font-size="10.00">test/test_planner_2d</text>
<text text-anchor="middle" x="447" y="-7.5" font-family="Helvetica,sans-Serif" font-size="10.00">_prior_traj.cpp</text>
</g>
<!-- Node21&#45;&gt;Node24 -->
<g id="edge8" class="edge"><title>Node21&#45;&gt;Node24</title>
<path fill="none" stroke="midnightblue" d="M334.094,-63.5442C359.057,-53.143 390.029,-40.238 413.216,-30.5765"/>
<polygon fill="midnightblue" stroke="midnightblue" points="332.734,-60.319 324.85,-67.396 335.427,-66.7805 332.734,-60.319"/>
</g>
</g>
</svg>
