<?xml version="1.0" encoding="UTF-8" standalone="no"?>
<!DOCTYPE svg PUBLIC "-//W3C//DTD SVG 1.1//EN"
 "http://www.w3.org/Graphics/SVG/1.1/DTD/svg11.dtd">
<!-- Generated by graphviz version 2.38.0 (20140413.2041)
 -->
<!-- Title: VirtualPoint Pages: 1 -->
<svg width="75pt" height="117pt"
 viewBox="0.00 0.00 75.00 117.00" xmlns="http://www.w3.org/2000/svg" xmlns:xlink="http://www.w3.org/1999/xlink">
<g id="graph0" class="graph" transform="scale(1 1) rotate(0) translate(4 113)">
<title>VirtualPoint</title>
<polygon fill="white" stroke="none" points="-4,4 -4,-113 71,-113 71,4 -4,4"/>
<!-- Node1 -->
<g id="node1" class="node"><title>Node1</title>
<polygon fill="#bfbfbf" stroke="black" points="0,-0.5 0,-19.5 67,-19.5 67,-0.5 0,-0.5"/>
<text text-anchor="middle" x="33.5" y="-7.5" font-family="Helvetica,sans-Serif" font-size="10.00">VirtualPoint</text>
</g>
<!-- Node2 -->
<g id="node2" class="node"><title>Node2</title>
<g id="a_node2"><a xlink:href="classdouble.html" target="_top" xlink:title="double">
<polygon fill="white" stroke="black" points="11,-89.5 11,-108.5 56,-108.5 56,-89.5 11,-89.5"/>
<text text-anchor="middle" x="33.5" y="-96.5" font-family="Helvetica,sans-Serif" font-size="10.00">double</text>
</a>
</g>
</g>
<!-- Node2&#45;&gt;Node1 -->
<g id="edge1" class="edge"><title>Node2&#45;&gt;Node1</title>
<path fill="none" stroke="#9a32cd" stroke-dasharray="5,2" d="M33.5,-79.1946C33.5,-60.7379 33.5,-33.412 33.5,-19.6249"/>
<polygon fill="#9a32cd" stroke="#9a32cd" points="30.0001,-79.34 33.5,-89.34 37.0001,-79.3401 30.0001,-79.34"/>
<text text-anchor="middle" x="38" y="-63" font-family="Helvetica,sans-Serif" font-size="10.00"> p</text>
<text text-anchor="middle" x="38" y="-52" font-family="Helvetica,sans-Serif" font-size="10.00">t</text>
<text text-anchor="middle" x="38" y="-41" font-family="Helvetica,sans-Serif" font-size="10.00">v</text>
</g>
</g>
</svg>
