<?xml version="1.0" encoding="UTF-8" standalone="no"?>
<!DOCTYPE svg PUBLIC "-//W3C//DTD SVG 1.1//EN"
 "http://www.w3.org/Graphics/SVG/1.1/DTD/svg11.dtd">
<!-- Generated by graphviz version 2.38.0 (20140413.2041)
 -->
<!-- Title: Waypoint&lt; Dim &gt; Pages: 1 -->
<svg width="147pt" height="128pt"
 viewBox="0.00 0.00 146.50 128.00" xmlns="http://www.w3.org/2000/svg" xmlns:xlink="http://www.w3.org/1999/xlink">
<g id="graph0" class="graph" transform="scale(1 1) rotate(0) translate(4 124)">
<title>Waypoint&lt; Dim &gt;</title>
<polygon fill="white" stroke="none" points="-4,4 -4,-124 142.5,-124 142.5,4 -4,4"/>
<!-- Node1 -->
<g id="node1" class="node"><title>Node1</title>
<polygon fill="#bfbfbf" stroke="black" points="25.5,-0.5 25.5,-19.5 119.5,-19.5 119.5,-0.5 25.5,-0.5"/>
<text text-anchor="middle" x="72.5" y="-7.5" font-family="Helvetica,sans-Serif" font-size="10.00">Waypoint&lt; Dim &gt;</text>
</g>
<!-- Node2 -->
<g id="node2" class="node"><title>Node2</title>
<polygon fill="white" stroke="#bfbfbf" points="0,-100.5 0,-119.5 73,-119.5 73,-100.5 0,-100.5"/>
<text text-anchor="middle" x="36.5" y="-107.5" font-family="Helvetica,sans-Serif" font-size="10.00">Vecf&lt; Dim &gt;</text>
</g>
<!-- Node2&#45;&gt;Node1 -->
<g id="edge1" class="edge"><title>Node2&#45;&gt;Node1</title>
<path fill="none" stroke="#9a32cd" stroke-dasharray="5,2" d="M43.1838,-90.8052C50.9828,-69.5747 63.5499,-35.3642 69.3638,-19.5374"/>
<polygon fill="#9a32cd" stroke="#9a32cd" points="39.8577,-89.7096 39.6948,-100.303 46.4283,-92.1233 39.8577,-89.7096"/>
<text text-anchor="middle" x="70.5" y="-74" font-family="Helvetica,sans-Serif" font-size="10.00"> vel</text>
<text text-anchor="middle" x="70.5" y="-63" font-family="Helvetica,sans-Serif" font-size="10.00">acc</text>
<text text-anchor="middle" x="70.5" y="-52" font-family="Helvetica,sans-Serif" font-size="10.00">jrk</text>
<text text-anchor="middle" x="70.5" y="-41" font-family="Helvetica,sans-Serif" font-size="10.00">pos</text>
</g>
<!-- Node3 -->
<g id="node3" class="node"><title>Node3</title>
<g id="a_node3"><a xlink:href="classbool.html" target="_top" xlink:title="bool">
<polygon fill="white" stroke="black" points="91,-100.5 91,-119.5 126,-119.5 126,-100.5 91,-100.5"/>
<text text-anchor="middle" x="108.5" y="-107.5" font-family="Helvetica,sans-Serif" font-size="10.00">bool</text>
</a>
</g>
</g>
<!-- Node3&#45;&gt;Node1 -->
<g id="edge2" class="edge"><title>Node3&#45;&gt;Node1</title>
<path fill="none" stroke="#9a32cd" stroke-dasharray="5,2" d="M101.788,-90.6139C96.5488,-76.2758 89.0794,-55.8651 82.5,-38 80.2197,-31.8083 77.6323,-24.8233 75.6607,-19.5093"/>
<polygon fill="#9a32cd" stroke="#9a32cd" points="98.5898,-92.0595 105.308,-100.252 105.165,-89.658 98.5898,-92.0595"/>
<text text-anchor="middle" x="118.5" y="-74" font-family="Helvetica,sans-Serif" font-size="10.00"> use_pos</text>
<text text-anchor="middle" x="118.5" y="-63" font-family="Helvetica,sans-Serif" font-size="10.00">use_vel</text>
<text text-anchor="middle" x="118.5" y="-52" font-family="Helvetica,sans-Serif" font-size="10.00">use_jrk</text>
<text text-anchor="middle" x="118.5" y="-41" font-family="Helvetica,sans-Serif" font-size="10.00">use_acc</text>
</g>
</g>
</svg>
