<?xml version="1.0" encoding="UTF-8" standalone="no"?>
<!DOCTYPE svg PUBLIC "-//W3C//DTD SVG 1.1//EN"
 "http://www.w3.org/Graphics/SVG/1.1/DTD/svg11.dtd">
<!-- Generated by graphviz version 2.38.0 (20140413.2041)
 -->
<!-- Title: RPoly_State Pages: 1 -->
<svg width="136pt" height="205pt"
 viewBox="0.00 0.00 135.50 205.00" xmlns="http://www.w3.org/2000/svg" xmlns:xlink="http://www.w3.org/1999/xlink">
<g id="graph0" class="graph" transform="scale(1 1) rotate(0) translate(4 201)">
<title>RPoly_State</title>
<polygon fill="white" stroke="none" points="-4,4 -4,-201 131.5,-201 131.5,4 -4,4"/>
<!-- Node1 -->
<g id="node1" class="node"><title>Node1</title>
<polygon fill="#bfbfbf" stroke="black" points="13.5,-0.5 13.5,-19.5 85.5,-19.5 85.5,-0.5 13.5,-0.5"/>
<text text-anchor="middle" x="49.5" y="-7.5" font-family="Helvetica,sans-Serif" font-size="10.00">RPoly_State</text>
</g>
<!-- Node2 -->
<g id="node2" class="node"><title>Node2</title>
<g id="a_node2"><a xlink:href="classdouble.html" target="_top" xlink:title="double">
<polygon fill="white" stroke="black" points="0,-177.5 0,-196.5 45,-196.5 45,-177.5 0,-177.5"/>
<text text-anchor="middle" x="22.5" y="-184.5" font-family="Helvetica,sans-Serif" font-size="10.00">double</text>
</a>
</g>
</g>
<!-- Node2&#45;&gt;Node1 -->
<g id="edge1" class="edge"><title>Node2&#45;&gt;Node1</title>
<path fill="none" stroke="#9a32cd" stroke-dasharray="5,2" d="M21.1994,-167.232C19.8101,-138.625 19.4427,-82.7183 33.5,-38 35.5915,-31.3466 39.5915,-24.5966 43.0686,-19.51"/>
<polygon fill="#9a32cd" stroke="#9a32cd" points="17.7163,-167.624 21.7968,-177.401 24.7043,-167.213 17.7163,-167.624"/>
<text text-anchor="middle" x="44.5" y="-151" font-family="Helvetica,sans-Serif" font-size="10.00"> f</text>
<text text-anchor="middle" x="44.5" y="-140" font-family="Helvetica,sans-Serif" font-size="10.00">g</text>
<text text-anchor="middle" x="44.5" y="-129" font-family="Helvetica,sans-Serif" font-size="10.00">h</text>
<text text-anchor="middle" x="44.5" y="-118" font-family="Helvetica,sans-Serif" font-size="10.00">svk</text>
<text text-anchor="middle" x="44.5" y="-107" font-family="Helvetica,sans-Serif" font-size="10.00">a1</text>
<text text-anchor="middle" x="44.5" y="-96" font-family="Helvetica,sans-Serif" font-size="10.00">a2</text>
<text text-anchor="middle" x="44.5" y="-85" font-family="Helvetica,sans-Serif" font-size="10.00">szr</text>
<text text-anchor="middle" x="44.5" y="-74" font-family="Helvetica,sans-Serif" font-size="10.00">a3</text>
<text text-anchor="middle" x="44.5" y="-63" font-family="Helvetica,sans-Serif" font-size="10.00">temp</text>
<text text-anchor="middle" x="44.5" y="-52" font-family="Helvetica,sans-Serif" font-size="10.00">k</text>
<text text-anchor="middle" x="44.5" y="-41" font-family="Helvetica,sans-Serif" font-size="10.00">...</text>
</g>
<!-- Node3 -->
<g id="node3" class="node"><title>Node3</title>
<g id="a_node3"><a xlink:href="classint.html" target="_top" xlink:title="int">
<polygon fill="white" stroke="black" points="63,-177.5 63,-196.5 92,-196.5 92,-177.5 63,-177.5"/>
<text text-anchor="middle" x="77.5" y="-184.5" font-family="Helvetica,sans-Serif" font-size="10.00">int</text>
</a>
</g>
</g>
<!-- Node3&#45;&gt;Node1 -->
<g id="edge2" class="edge"><title>Node3&#45;&gt;Node1</title>
<path fill="none" stroke="#9a32cd" stroke-dasharray="5,2" d="M75.1495,-167.264C71.5188,-139.106 64.0644,-84.2458 55.5,-38 54.3808,-31.9564 52.8808,-25.2064 51.6606,-19.9673"/>
<polygon fill="#9a32cd" stroke="#9a32cd" points="71.6908,-167.812 76.4253,-177.29 78.6348,-166.928 71.6908,-167.812"/>
<text text-anchor="middle" x="100.5" y="-101.5" font-family="Helvetica,sans-Serif" font-size="10.00"> n</text>
<text text-anchor="middle" x="100.5" y="-90.5" font-family="Helvetica,sans-Serif" font-size="10.00">max_degree</text>
</g>
</g>
</svg>
