<?xml version="1.0" encoding="UTF-8" standalone="no"?>
<!DOCTYPE svg PUBLIC "-//W3C//DTD SVG 1.1//EN"
 "http://www.w3.org/Graphics/SVG/1.1/DTD/svg11.dtd">
<!-- Generated by graphviz version 2.38.0 (20140413.2041)
 -->
<!-- Title: MPL::StateSpace&lt; Dim &gt; Pages: 1 -->
<svg width="388pt" height="202pt"
 viewBox="0.00 0.00 388.00 201.50" xmlns="http://www.w3.org/2000/svg" xmlns:xlink="http://www.w3.org/1999/xlink">
<g id="graph0" class="graph" transform="scale(1 1) rotate(0) translate(4 197.5)">
<title>MPL::StateSpace&lt; Dim &gt;</title>
<polygon fill="white" stroke="none" points="-4,4 -4,-197.5 384,-197.5 384,4 -4,4"/>
<!-- Node1 -->
<g id="node1" class="node"><title>Node1</title>
<polygon fill="#bfbfbf" stroke="black" points="250,-76.5 250,-95.5 380,-95.5 380,-76.5 250,-76.5"/>
<text text-anchor="middle" x="315" y="-83.5" font-family="Helvetica,sans-Serif" font-size="10.00">MPL::StateSpace&lt; Dim &gt;</text>
</g>
<!-- Node2 -->
<g id="node2" class="node"><title>Node2</title>
<polygon fill="white" stroke="#bfbfbf" points="15,-163 15,-193 119,-193 119,-163 15,-163"/>
<text text-anchor="start" x="23" y="-181" font-family="Helvetica,sans-Serif" font-size="10.00">priorityQueue&lt; MPL</text>
<text text-anchor="middle" x="67" y="-170" font-family="Helvetica,sans-Serif" font-size="10.00">::State&lt; Dim &gt; &gt;</text>
</g>
<!-- Node2&#45;&gt;Node1 -->
<g id="edge1" class="edge"><title>Node2&#45;&gt;Node1</title>
<path fill="none" stroke="#9a32cd" stroke-dasharray="5,2" d="M129.372,-174.157C161.077,-170.456 199.769,-163.203 232,-149 261.571,-135.969 290.097,-110.117 304.429,-95.9153"/>
<polygon fill="#9a32cd" stroke="#9a32cd" points="128.908,-170.686 119.341,-175.238 129.658,-177.646 128.908,-170.686"/>
<text text-anchor="middle" x="192" y="-173" font-family="Helvetica,sans-Serif" font-size="10.00"> pq_</text>
</g>
<!-- Node3 -->
<g id="node3" class="node"><title>Node3</title>
<g id="a_node3"><a xlink:href="classdouble.html" target="_top" xlink:title="double">
<polygon fill="white" stroke="black" points="44.5,-114.5 44.5,-133.5 89.5,-133.5 89.5,-114.5 44.5,-114.5"/>
<text text-anchor="middle" x="67" y="-121.5" font-family="Helvetica,sans-Serif" font-size="10.00">double</text>
</a>
</g>
</g>
<!-- Node3&#45;&gt;Node1 -->
<g id="edge2" class="edge"><title>Node3&#45;&gt;Node1</title>
<path fill="none" stroke="#9a32cd" stroke-dasharray="5,2" d="M99.4916,-119.618C132.534,-114.968 185.967,-107.297 232,-100 240.844,-98.5982 250.213,-97.0542 259.336,-95.5191"/>
<polygon fill="#9a32cd" stroke="#9a32cd" points="98.9322,-116.162 89.5154,-121.018 99.9047,-123.094 98.9322,-116.162"/>
<text text-anchor="middle" x="192" y="-137" font-family="Helvetica,sans-Serif" font-size="10.00"> eps_</text>
<text text-anchor="middle" x="192" y="-126" font-family="Helvetica,sans-Serif" font-size="10.00">max_t_</text>
<text text-anchor="middle" x="192" y="-115" font-family="Helvetica,sans-Serif" font-size="10.00">dt_</text>
</g>
<!-- Node4 -->
<g id="node4" class="node"><title>Node4</title>
<polygon fill="white" stroke="#bfbfbf" points="0,-76.5 0,-95.5 134,-95.5 134,-76.5 0,-76.5"/>
<text text-anchor="middle" x="67" y="-83.5" font-family="Helvetica,sans-Serif" font-size="10.00">vec_E&lt; StatePtr&lt; Dim &gt; &gt;</text>
</g>
<!-- Node4&#45;&gt;Node1 -->
<g id="edge3" class="edge"><title>Node4&#45;&gt;Node1</title>
<path fill="none" stroke="#9a32cd" stroke-dasharray="5,2" d="M144.537,-86C178.303,-86 217.546,-86 249.76,-86"/>
<polygon fill="#9a32cd" stroke="#9a32cd" points="144.247,-82.5001 134.247,-86 144.247,-89.5001 144.247,-82.5001"/>
<text text-anchor="middle" x="192" y="-89" font-family="Helvetica,sans-Serif" font-size="10.00"> best_child_</text>
</g>
<!-- Node5 -->
<g id="node5" class="node"><title>Node5</title>
<polygon fill="white" stroke="#bfbfbf" points="21,-38.5 21,-57.5 113,-57.5 113,-38.5 21,-38.5"/>
<text text-anchor="middle" x="67" y="-45.5" font-family="Helvetica,sans-Serif" font-size="10.00">hashMap&lt; Dim &gt;</text>
</g>
<!-- Node5&#45;&gt;Node1 -->
<g id="edge4" class="edge"><title>Node5&#45;&gt;Node1</title>
<path fill="none" stroke="#9a32cd" stroke-dasharray="5,2" d="M123.329,-55.1765C155.163,-59.4513 195.888,-65.1674 232,-71 242.287,-72.6615 253.274,-74.5749 263.753,-76.4671"/>
<polygon fill="#9a32cd" stroke="#9a32cd" points="123.698,-51.6948 113.323,-53.8409 122.772,-58.6333 123.698,-51.6948"/>
<text text-anchor="middle" x="192" y="-74" font-family="Helvetica,sans-Serif" font-size="10.00"> hm_</text>
</g>
<!-- Node6 -->
<g id="node6" class="node"><title>Node6</title>
<g id="a_node6"><a xlink:href="classint.html" target="_top" xlink:title="int">
<polygon fill="white" stroke="black" points="52.5,-0.5 52.5,-19.5 81.5,-19.5 81.5,-0.5 52.5,-0.5"/>
<text text-anchor="middle" x="67" y="-7.5" font-family="Helvetica,sans-Serif" font-size="10.00">int</text>
</a>
</g>
</g>
<!-- Node6&#45;&gt;Node1 -->
<g id="edge5" class="edge"><title>Node6&#45;&gt;Node1</title>
<path fill="none" stroke="#9a32cd" stroke-dasharray="5,2" d="M92.2418,-13.2089C124.714,-17.9471 183.826,-28.1242 232,-45 255.884,-53.3669 281.732,-67.1566 297.89,-76.4054"/>
<polygon fill="#9a32cd" stroke="#9a32cd" points="92.3189,-9.68531 81.9287,-11.7576 91.3434,-16.617 92.3189,-9.68531"/>
<text text-anchor="middle" x="192" y="-48" font-family="Helvetica,sans-Serif" font-size="10.00"> expand_iteration_</text>
</g>
</g>
</svg>
