<?xml version="1.0" encoding="UTF-8" standalone="no"?>
<!DOCTYPE svg PUBLIC "-//W3C//DTD SVG 1.1//EN"
 "http://www.w3.org/Graphics/SVG/1.1/DTD/svg11.dtd">
<!-- Generated by graphviz version 2.38.0 (20140413.2041)
 -->
<!-- Title: MPL::State&lt; Dim &gt; Pages: 1 -->
<svg width="364pt" height="389pt"
 viewBox="0.00 0.00 364.00 388.50" xmlns="http://www.w3.org/2000/svg" xmlns:xlink="http://www.w3.org/1999/xlink">
<g id="graph0" class="graph" transform="scale(1 1) rotate(0) translate(4 384.5)">
<title>MPL::State&lt; Dim &gt;</title>
<polygon fill="white" stroke="none" points="-4,4 -4,-384.5 360,-384.5 360,4 -4,4"/>
<!-- Node1 -->
<g id="node1" class="node"><title>Node1</title>
<polygon fill="#bfbfbf" stroke="black" points="254,-164.5 254,-183.5 356,-183.5 356,-164.5 254,-164.5"/>
<text text-anchor="middle" x="305" y="-171.5" font-family="Helvetica,sans-Serif" font-size="10.00">MPL::State&lt; Dim &gt;</text>
</g>
<!-- Node2 -->
<g id="node2" class="node"><title>Node2</title>
<polygon fill="white" stroke="#bfbfbf" points="18,-350 18,-380 122,-380 122,-350 18,-350"/>
<text text-anchor="start" x="26" y="-368" font-family="Helvetica,sans-Serif" font-size="10.00">priorityQueue&lt; MPL</text>
<text text-anchor="middle" x="70" y="-357" font-family="Helvetica,sans-Serif" font-size="10.00">::State&lt; Dim &gt; &gt;</text>
</g>
<!-- Node2&#45;&gt;Node1 -->
<g id="edge1" class="edge"><title>Node2&#45;&gt;Node1</title>
<path fill="none" stroke="#9a32cd" stroke-dasharray="5,2" d="M132.53,-369.674C166.318,-369.057 207.101,-362.717 236,-340 287.663,-299.39 300.358,-212.953 303.224,-183.82"/>
<polygon fill="#9a32cd" stroke="#9a32cd" points="132.283,-366.174 122.29,-369.693 132.296,-373.174 132.283,-366.174"/>
<text text-anchor="middle" x="197" y="-370" font-family="Helvetica,sans-Serif" font-size="10.00"> heapkey</text>
</g>
<!-- Node3 -->
<g id="node3" class="node"><title>Node3</title>
<polygon fill="white" stroke="#bfbfbf" points="25,-310.5 25,-329.5 115,-329.5 115,-310.5 25,-310.5"/>
<text text-anchor="middle" x="70" y="-317.5" font-family="Helvetica,sans-Serif" font-size="10.00">vector&lt; double &gt;</text>
</g>
<!-- Node3&#45;&gt;Node1 -->
<g id="edge2" class="edge"><title>Node3&#45;&gt;Node1</title>
<path fill="none" stroke="#9a32cd" stroke-dasharray="5,2" d="M125.32,-316.88C166.323,-313.595 218.42,-307.146 236,-295 276.246,-267.195 295.423,-207.402 301.638,-183.836"/>
<polygon fill="#9a32cd" stroke="#9a32cd" points="124.869,-313.404 115.162,-317.648 125.398,-320.384 124.869,-313.404"/>
<text text-anchor="middle" x="197" y="-328" font-family="Helvetica,sans-Serif" font-size="10.00"> pred_action_cost</text>
<text text-anchor="middle" x="197" y="-317" font-family="Helvetica,sans-Serif" font-size="10.00">succ_action_cost</text>
</g>
<!-- Node4 -->
<g id="node4" class="node"><title>Node4</title>
<g id="a_node4"><a xlink:href="classdouble.html" target="_top" xlink:title="double">
<polygon fill="white" stroke="black" points="47.5,-245.5 47.5,-264.5 92.5,-264.5 92.5,-245.5 47.5,-245.5"/>
<text text-anchor="middle" x="70" y="-252.5" font-family="Helvetica,sans-Serif" font-size="10.00">double</text>
</a>
</g>
</g>
<!-- Node4&#45;&gt;Node1 -->
<g id="edge3" class="edge"><title>Node4&#45;&gt;Node1</title>
<path fill="none" stroke="#9a32cd" stroke-dasharray="5,2" d="M103.082,-253.533C137.288,-250.988 192.42,-244.028 236,-225 259.261,-214.843 281.962,-195.313 294.354,-183.589"/>
<polygon fill="#9a32cd" stroke="#9a32cd" points="102.5,-250.063 92.7523,-254.214 102.961,-257.048 102.5,-250.063"/>
<text text-anchor="middle" x="197" y="-283" font-family="Helvetica,sans-Serif" font-size="10.00"> g</text>
<text text-anchor="middle" x="197" y="-272" font-family="Helvetica,sans-Serif" font-size="10.00">h</text>
<text text-anchor="middle" x="197" y="-261" font-family="Helvetica,sans-Serif" font-size="10.00">rhs</text>
<text text-anchor="middle" x="197" y="-250" font-family="Helvetica,sans-Serif" font-size="10.00">t</text>
</g>
<!-- Node5 -->
<g id="node5" class="node"><title>Node5</title>
<g id="a_node5"><a xlink:href="classvec__E_3_01Waypoint_3_01Dim_01_4_01_4.html" target="_top" xlink:title="vec_E\&lt; Waypoint\&lt; Dim \&gt; \&gt;">
<polygon fill="white" stroke="black" points="0,-207.5 0,-226.5 140,-226.5 140,-207.5 0,-207.5"/>
<text text-anchor="middle" x="70" y="-214.5" font-family="Helvetica,sans-Serif" font-size="10.00">vec_E&lt; Waypoint&lt; Dim &gt; &gt;</text>
</a>
</g>
</g>
<!-- Node5&#45;&gt;Node1 -->
<g id="edge4" class="edge"><title>Node5&#45;&gt;Node1</title>
<path fill="none" stroke="#9a32cd" stroke-dasharray="5,2" d="M150.475,-210.706C177.792,-207.662 208.429,-203.264 236,-197 250.827,-193.632 266.965,-188.25 279.798,-183.539"/>
<polygon fill="#9a32cd" stroke="#9a32cd" points="149.752,-207.263 140.181,-211.807 150.497,-214.224 149.752,-207.263"/>
<text text-anchor="middle" x="197" y="-213" font-family="Helvetica,sans-Serif" font-size="10.00"> succ_coord</text>
</g>
<!-- Node6 -->
<g id="node6" class="node"><title>Node6</title>
<polygon fill="white" stroke="#bfbfbf" points="34,-164.5 34,-183.5 106,-183.5 106,-164.5 34,-164.5"/>
<text text-anchor="middle" x="70" y="-171.5" font-family="Helvetica,sans-Serif" font-size="10.00">vector&lt; int &gt;</text>
</g>
<!-- Node6&#45;&gt;Node1 -->
<g id="edge5" class="edge"><title>Node6&#45;&gt;Node1</title>
<path fill="none" stroke="#9a32cd" stroke-dasharray="5,2" d="M116.275,-174C155.777,-174 213.006,-174 253.878,-174"/>
<polygon fill="#9a32cd" stroke="#9a32cd" points="116.135,-170.5 106.135,-174 116.135,-177.5 116.135,-170.5"/>
<text text-anchor="middle" x="197" y="-188" font-family="Helvetica,sans-Serif" font-size="10.00"> succ_action_id</text>
<text text-anchor="middle" x="197" y="-177" font-family="Helvetica,sans-Serif" font-size="10.00">pred_action_id</text>
</g>
<!-- Node7 -->
<g id="node7" class="node"><title>Node7</title>
<polygon fill="white" stroke="#bfbfbf" points="30.5,-119.5 30.5,-138.5 109.5,-138.5 109.5,-119.5 30.5,-119.5"/>
<text text-anchor="middle" x="70" y="-126.5" font-family="Helvetica,sans-Serif" font-size="10.00">vector&lt; Key &gt;</text>
</g>
<!-- Node7&#45;&gt;Node1 -->
<g id="edge6" class="edge"><title>Node7&#45;&gt;Node1</title>
<path fill="none" stroke="#9a32cd" stroke-dasharray="5,2" d="M120.153,-131.43C153.263,-133.852 197.71,-138.633 236,-148 252.206,-151.965 269.778,-158.753 283,-164.4"/>
<polygon fill="#9a32cd" stroke="#9a32cd" points="120.039,-127.914 109.823,-130.724 119.561,-134.898 120.039,-127.914"/>
<text text-anchor="middle" x="197" y="-162" font-family="Helvetica,sans-Serif" font-size="10.00"> pred_hashkey</text>
<text text-anchor="middle" x="197" y="-151" font-family="Helvetica,sans-Serif" font-size="10.00">succ_hashkey</text>
</g>
<!-- Node8 -->
<g id="node8" class="node"><title>Node8</title>
<g id="a_node8"><a xlink:href="classbool.html" target="_top" xlink:title="bool">
<polygon fill="white" stroke="black" points="52.5,-76.5 52.5,-95.5 87.5,-95.5 87.5,-76.5 52.5,-76.5"/>
<text text-anchor="middle" x="70" y="-83.5" font-family="Helvetica,sans-Serif" font-size="10.00">bool</text>
</a>
</g>
</g>
<!-- Node8&#45;&gt;Node1 -->
<g id="edge7" class="edge"><title>Node8&#45;&gt;Node1</title>
<path fill="none" stroke="#9a32cd" stroke-dasharray="5,2" d="M97.9485,-85.0651C131.853,-84.9469 191.072,-88.3098 236,-110 262.571,-122.828 285.731,-149.764 296.9,-164.264"/>
<polygon fill="#9a32cd" stroke="#9a32cd" points="97.83,-81.5663 87.8804,-85.207 97.9287,-88.5657 97.83,-81.5663"/>
<text text-anchor="middle" x="197" y="-124" font-family="Helvetica,sans-Serif" font-size="10.00"> iterationopened</text>
<text text-anchor="middle" x="197" y="-113" font-family="Helvetica,sans-Serif" font-size="10.00">iterationclosed</text>
</g>
<!-- Node9 -->
<g id="node9" class="node"><title>Node9</title>
<g id="a_node9"><a xlink:href="classWaypoint_3_01Dim_01_4.html" target="_top" xlink:title="Waypoint\&lt; Dim \&gt;">
<polygon fill="white" stroke="black" points="23,-38.5 23,-57.5 117,-57.5 117,-38.5 23,-38.5"/>
<text text-anchor="middle" x="70" y="-45.5" font-family="Helvetica,sans-Serif" font-size="10.00">Waypoint&lt; Dim &gt;</text>
</a>
</g>
</g>
<!-- Node9&#45;&gt;Node1 -->
<g id="edge8" class="edge"><title>Node9&#45;&gt;Node1</title>
<path fill="none" stroke="#9a32cd" stroke-dasharray="5,2" d="M127.323,-46.4358C161.179,-47.9892 203.796,-54.5593 236,-75 270.857,-97.1249 292.473,-144.248 300.478,-164.465"/>
<polygon fill="#9a32cd" stroke="#9a32cd" points="127.227,-42.9309 117.119,-46.105 127,-49.9273 127.227,-42.9309"/>
<text text-anchor="middle" x="197" y="-78" font-family="Helvetica,sans-Serif" font-size="10.00"> coord</text>
</g>
<!-- Node10 -->
<g id="node10" class="node"><title>Node10</title>
<polygon fill="white" stroke="#bfbfbf" points="28.5,-0.5 28.5,-19.5 111.5,-19.5 111.5,-0.5 28.5,-0.5"/>
<text text-anchor="middle" x="70" y="-7.5" font-family="Helvetica,sans-Serif" font-size="10.00">array&lt; int, 12 &gt;</text>
</g>
<!-- Node10&#45;&gt;Node1 -->
<g id="edge9" class="edge"><title>Node10&#45;&gt;Node1</title>
<path fill="none" stroke="#9a32cd" stroke-dasharray="5,2" d="M121.666,-5.96596C156.909,-5.76264 203.261,-10.9737 236,-35 280.833,-67.9014 297.623,-138.477 302.407,-164.288"/>
<polygon fill="#9a32cd" stroke="#9a32cd" points="121.504,-2.46844 111.577,-6.17156 121.647,-9.46698 121.504,-2.46844"/>
<text text-anchor="middle" x="197" y="-38" font-family="Helvetica,sans-Serif" font-size="10.00"> hashkey</text>
</g>
</g>
</svg>
